<?xml version="1.0" encoding="utf-8"?>
<!-- Generator: Adobe Illustrator 16.0.4, SVG Export Plug-In . SVG Version: 6.00 Build 0)  -->
<!DOCTYPE svg PUBLIC "-//W3C//DTD SVG 1.1//EN" "http://www.w3.org/Graphics/SVG/1.1/DTD/svg11.dtd">
<svg version="1.1" id="Layer_1" xmlns="http://www.w3.org/2000/svg" xmlns:xlink="http://www.w3.org/1999/xlink" x="0px" y="0px" viewBox="0 0 888.322 652.571" enable-background="new 0 0 888.322 652.571"
	 xml:space="preserve">
<g>
	<g>
		<path fill="#000100" stroke="#FFFFFF" stroke-width="2" stroke-miterlimit="10" d="M180.499,353.481
			c14.468,32.766,27.311,107.312-40.493,137.443C72.202,521.061,23.233,577.563,7.222,619.941c0,0,134.668-62.152,523.908-48.339
			c0,0-22.603,29.502-28.252,42.69c0,0,57.999,43.943,139.493,36.41c0,0-13.304-39.551,3.02-59.013
			c0,0,140.628,7.534,195.875-102.963c55.248-110.49,53.987-226.009,0-318.925C787.277,76.889,686.825,44.24,578.843,63.075
			c-107.981,18.833-94.644,38.454-174.689,23.387c0,0,8.241-53.208-48.026-69.687V5.474c0,0-2.039-4.474-13.027-4.474
			c-10.987,0-12.397,5.181-12.397,5.181v11.062c0,0-48.029,10.831-48.971,79.577c0,0-50.38,0.156-95.585,20.562
			c-45.202,20.402-68.272,59.013-43.788,104.686l-12.244,18.835l-43.788,0.102l10.359,42.275c0,0-7.063,41.282-5.653,43.007
			C92.447,328.007,159.309,305.498,180.499,353.481z"/>
	</g>
	<g>
		<g>
			<polygon fill="#B8B8BB" points="343.73,182.988 343.73,147.515 288.797,122.718 			"/>
		</g>
		<g>
			<polygon fill="#A2A3A7" points="343.101,100.744 343.73,147.515 398.664,122.718 			"/>
		</g>
		<g>
			<polygon fill="#FFFFFF" points="288.797,122.718 343.73,147.515 343.101,100.744 			"/>
		</g>
	</g>
	<g>
		<g>
			<path fill="#F8FBF7" d="M690.436,462.202c29.824-27.665,45.205-48.268,53.134-62.481c-2.707,2.866-5.502,5.732-8.406,8.598
				c-98.874,97.675-160.09,121.22-193.99,199.378c0,0,5.452,9.67,21.973,17.878C572.329,592.768,629.938,518.316,690.436,462.202z"
				/>
		</g>
		<g>
			<path fill="#000100" d="M829.058,301.016l-1.88-0.153c0.357-5.507,0.274-8.581,0.274-8.608l1.88-0.121
				C829.344,292.26,829.621,295.285,829.058,301.016z"/>
		</g>
		<g>
			<path fill="#BEA884" d="M841.579,209.04c-32.017-71.256-76.278-108.924-151.614-132.465
				c-75.336-23.545-195.876,24.169-195.876,24.169s-57.76,15.068-89.778,0l-0.313,5.652c0,0,15.071,0.312,13.813,16.323
				c-1.257,16.008-3.77,24.797-16.638,30.134v19.775c0,0,23.856-20.403,33.273-40.178v25.112c0,0,45.204-35.159,124.622-51.166
				c79.418-16.011,155.384,9.103,207.175,57.442c50.272,46.922,66.826,141.074-22.674,235.882
				c-7.929,14.214-23.31,34.816-53.134,62.481c-60.497,56.114-118.106,130.566-127.29,163.372
				c12.646,6.291,31.779,11.727,59.954,11.32c0,0-17.122-54.722,102.651-171.393c86.172-83.944,100.261-143.27,102.37-164.579
				c0.362-5.627,0.272-8.695,0.272-8.695s0.291,2.992-0.272,8.695c-1.304,20.307-8.467,74.06-46.81,138.211
				c-48.969,81.928-56.504,124.306-56.504,124.306s77.22-20.718,110.178-104.53C867.945,375.096,873.599,280.299,841.579,209.04z"/>
		</g>
	</g>
	<g>
		<g>
			<g>
				<polygon fill="#000100" points="312.495,117.381 308.257,129.31 308.257,138.099 305.588,128.683 				"/>
			</g>
			<g>
				<polygon fill="#000100" points="323.64,115.496 318.931,134.332 321.284,149.397 315.32,133.233 				"/>
			</g>
			<g>
				<polygon fill="#000100" points="336.194,112.2 333.84,142.181 337.136,163.838 328.659,140.452 				"/>
			</g>
		</g>
		<g>
			<g>
				<polygon fill="#000100" points="374.647,117.381 378.883,129.31 378.883,138.099 381.554,128.683 				"/>
			</g>
			<g>
				<polygon fill="#000100" points="363.502,115.496 368.212,134.332 365.858,149.397 371.82,133.233 				"/>
			</g>
			<g>
				<polygon fill="#000100" points="350.946,112.2 353.303,142.181 350.004,163.838 358.481,140.452 				"/>
			</g>
		</g>
	</g>
	<g>
		<path fill="#BEA884" d="M150.049,209.04l7.534-8.161c0,0-12.556-24.169,9.419-44.887c21.975-20.717,50.851-13.498,102.645,24.169
			c0,0,2.511-19.148,19.149-21.345v-4.394c0,0-29.193-5.337-17.578-43.631c0,0-69.377,3.766-104.217,32.645
			C132.159,172.315,150.049,209.04,150.049,209.04z"/>
	</g>
	<g>
		<path fill="#BEA884" d="M596.421,341.821c0,0,63.407,60.897,77.221,104.847l15.693-11.304
			C689.335,435.364,659.828,364.423,596.421,341.821z"/>
	</g>
	<g>
		<path fill="#B8B8BB" d="M282.203,115.496v7.222c0,0-6.975,5.709-6.356,15.38c0,0-4.709-13.106-1.646-20.717
			C277.261,109.768,282.203,115.496,282.203,115.496z"/>
	</g>
	<g>
		<path fill="#B8B8BB" d="M295.389,159.914c0,0,11.926,29.351,37.511,42.849c0,0-6.75,13.811,7.375,31.389
			c0,0-44.259-24.8-49.909-48.027L295.389,159.914z"/>
	</g>
	<g>
		<path fill="#B2B3B6" d="M428.794,250.79c0,0,8.948,12.244,15.932,15.069c0,0,37.748-20.093,44.026-38.611
			C488.752,227.248,479.646,239.488,428.794,250.79z"/>
	</g>
	<g>
		<path fill="#B8B8BB" d="M210.635,252.359c0,0,10.04,7.848,41.119,4.08v17.265C251.753,273.704,226.957,269.625,210.635,252.359z"
			/>
	</g>
	<g>
		<path fill="#B2B3B6" d="M429.345,178.514l20.246-12.951c0,0-11.062,60.742-59.798,71.807
			C389.793,237.371,426.991,203.703,429.345,178.514z"/>
	</g>
	<g>
		<path fill="#FFFFFF" d="M288.797,167.685c0,0-16.01,10.594-6.594,25.427c9.417,14.83,38.219,35.942,58.073,41.041
			C340.275,234.152,282.68,199.467,288.797,167.685z"/>
	</g>
	<g>
		<path fill="#B8B8BB" d="M237.001,174.512l18.833,13.81c0,0,11.304,36.413,40.18,55.561
			C296.014,243.883,243.28,228.187,237.001,174.512z"/>
	</g>
	<g>
		<path fill="#B8B8BB" d="M145.457,252.359v17.266c0,0,23.427-0.627,35.355,8.474c11.926,9.104,8.789,20.091,10.044,20.091
			s18.52-4.082,7.849-24.485C188.032,253.302,145.457,252.359,145.457,252.359z"/>
	</g>
	<g>
		<g>
			<path fill="#FFFFFF" d="M192.111,182.988c11.09-10.857,24.205-16.101,30.366-18.115l-5.351-3.544c0,0-25.016,7.218-41.651,32.018
				s-34.846,47.398-34.846,47.398s0.312,2.135,1.734,3.976l7.838-7.581C164.86,220.7,179.753,195.089,192.111,182.988z"/>
		</g>
		<g>
			<path fill="#B8B8BB" d="M150.202,237.141l-7.838,7.581c0.036,0.049,0.077,0.093,0.118,0.142
				C145.039,242.659,147.616,240.042,150.202,237.141z"/>
		</g>
		<g>
			<path fill="#B8B8BB" d="M222.875,206.842c0,0-19.499-10.38-20.652-19.999c-0.016-0.135-0.041-0.269-0.049-0.403
				c0,0-0.301-4.584,9.753-8.981c4.6-2.011,11.358-3.98,21.306-5.46l-9.293-6.156l-1.463-0.97
				c-6.161,2.014-19.276,7.258-30.366,18.115c-12.358,12.101-27.251,37.711-41.909,54.152c-2.586,2.901-5.164,5.518-7.72,7.723
				c1.082,1.331,2.761,2.474,5.37,2.474c6.279,0,16.638-2.197,34.843,0c0,0-0.312-10.359-12.241-18.208l5.648-8.161
				c0,0,16.756,15.067,41.024,13.186c0,0-25.328-16.007-25.328-31.707C191.799,202.448,202.785,209.982,222.875,206.842z"/>
		</g>
	</g>
	<g>
		<g>
			<path fill="#FFFFFF" d="M330.703,43.81V27.838c-45.316,23.227-39.534,74.859-39.106,78.22
				C298.355,65.76,320.682,49.281,330.703,43.81z"/>
		</g>
		<g>
			<path fill="#B8B8BB" d="M291.597,106.058c0.014,0.112,0.022,0.179,0.022,0.179c9.416-27.545,39.084-45.203,39.084-45.203V43.81
				C320.682,49.281,298.355,65.76,291.597,106.058z"/>
		</g>
	</g>
	<g>
		<path fill="#FFFFFF" d="M343.73,90.072l4.707-78.163c0,0-4.707-5.024-9.732,0L343.73,90.072z"/>
	</g>
	<g>
		<g>
			<path fill="#FFFFFF" d="M521.13,152.29c-3.107,0.348-5.08,0.614-6.324,0.247c-2.197-0.644-6.054-2.627-9.818-4.731
				c-5.375-3.003-10.586-6.255-10.586-6.255c-1.754,0.397-3.562,1.041-5.359,1.825c-0.448,0.197-0.887,0.406-1.33,0.614
				c7.062,3.496,19.363,10.353,24.585,17.967c0,0,13.595-3.901,34.098-2.65c14.608,0.894,32.718,4.417,51.939,13.824
				c0.941-5.405,6.246-7.567,6.246-7.567C554.017,149.071,531.354,151.14,521.13,152.29z"/>
		</g>
		<g>
			<path fill="#B2B3B6" d="M603.325,186.44c-4.296-5.4-5.414-9.572-5.068-12.726c0.022-0.198,0.05-0.395,0.077-0.584
				c-19.222-9.407-37.331-12.931-51.939-13.824c-20.503-1.251-34.098,2.65-34.098,2.65c-5.222-7.614-17.523-14.471-24.585-17.967
				c-7.673,3.654-14.658,9.49-14.658,9.49c20.093,4.709,26.372,12.084,26.372,12.084c-16.952,16.482-38.612,21.504-38.612,21.504
				c22.602,7.534,41.122-8.789,41.122-8.789c-3.14,13.496-25.111,28.879-25.111,28.879c31.385,3.454,59.954-32.646,59.954-32.646
				c5.337,10.986-3.452,26.054-3.452,26.054c20.718,0.312,35.155-21.975,35.155-21.975c3.771,9.733,0,28.566,0,28.566
				C577.276,206.842,603.325,186.44,603.325,186.44z"/>
		</g>
	</g>
	<g>
		<g>
			<path fill="#B2B3B6" d="M644.359,156.29L644.359,156.29l-17.456,33.89l0,0c0,0,6.044,1.472,15.034,0.559
				c5.65-0.572,10.827-2.101,10.827-2.101S646.782,160.2,644.359,156.29z"/>
		</g>
		<g>
			<path fill="#FFFFFF" d="M612.744,175.69c0,0,5.008,10.147,14.159,14.49l17.456-33.89
				C644.343,156.298,614.158,170.515,612.744,175.69z"/>
		</g>
	</g>
	<g>
		<path fill="#B2B3B6" d="M661.713,182.988c0,0,6.356,28.72-3.534,42.139c0,0,16.482-5.414,20.016-30.37c0,0,7.529,11.537,0,35.55
			c0,0,13.42-10.358,14.356-38.139C692.551,192.169,693.729,187.695,661.713,182.988z"/>
	</g>
	<g>
		<path fill="#B2B3B6" d="M705.033,181.338l15.067-7.676c0,0,32.723,18.271,26.132,50.525
			C746.232,224.188,735.163,189.58,705.033,181.338z"/>
	</g>
	<g>
		<g>
			<path fill="#FFFFFF" d="M732.343,247.964c-11.299,2.51-22.291,16.639-19.464,26.368c2.187,7.521,9.781,9.221,13.129,9.61
				c-0.904-1.888-12.729-27.665,14.181-31.897c7.222-1.134,13.408-0.964,18.625-0.096c-0.325-0.236-0.659-0.472-1.048-0.704
				c0.389,0.232,0.723,0.468,1.048,0.704c9.9,1.649,16.278,5.83,19.457,8.471C777.957,243.924,742.599,245.683,732.343,247.964z"/>
		</g>
		<g>
			<path fill="#B2B3B6" d="M780.681,272.762c-4.707-4.709-3.451-6.748-3.451-6.748c0.749-2.065,1.067-3.923,1.041-5.594
				c-3.179-2.642-9.557-6.822-19.457-8.471c11.917,8.761-20.51,18.616-20.51,18.616c9.419,8.162,26.054,1.57,26.054,1.57
				c-5.961,8.791-27.621,11.928-27.621,11.928c5.019,11.929,31.392,5.336,31.392,5.336c-7.535,10.044-30.137,7.173-30.137,7.173
				s7.222,11.348,24.481,9.78c17.271-1.572,13.813-17.265,13.813-17.265C779.114,285.947,785.393,277.471,780.681,272.762z"/>
		</g>
	</g>
	<g>
		<path fill="#B2B3B6" d="M766.555,312.944c0,0-13.495,17.578-25.742,0C740.812,312.944,754.314,316.396,766.555,312.944z"/>
	</g>
	<g>
		<path fill="#B8B8BB" d="M106.574,295.049c0,0-6.754,13.118-4.708,21.189c0,0,29.192-13.184,51.323-10.592
			C153.189,305.646,146.597,298.819,106.574,295.049z"/>
	</g>
	<g>
		<g>
			<path fill="#B8B8BB" d="M130.351,252.809H101.48l24.326,20.635C131.776,265.046,130.351,252.809,130.351,252.809z"/>
		</g>
		<g>
			<path fill="#FFFFFF" d="M101.48,252.809L101.48,252.809l7.682,28.35c8.397,0,13.525-3.334,16.644-7.715L101.48,252.809z"/>
		</g>
	</g>
	<g>
		<g>
			<path fill="#B2B3B6" d="M337.739,388.767L337.739,388.767l9.958-120.723l0,0c0,0-19.523,3.047-44.802,16.671
				c-15.887,8.564-29.225,19.364-29.225,19.364S325.865,380.248,337.739,388.767z"/>
		</g>
		<g>
			<path fill="#BEA884" d="M406.896,293.323c0,0-27.065-23.68-59.199-25.279l-9.958,120.723
				C337.782,388.718,409.055,310.232,406.896,293.323z"/>
		</g>
	</g>
	<g>
		<g>
			<path fill="#FFFFFF" stroke="#FFFFFF" stroke-width="2" stroke-miterlimit="10" d="M159.282,388.028l389.425-49.658
				c0,0,31.222,0.196,52.109,15.111c0,0-15.069,17.648-47.085,25.906c-32.021,8.269-407.447,52.843-407.447,52.843L159.282,388.028z
				"/>
		</g>
		<g>
			<g>
				<path fill="#000100" stroke="#FFFFFF" stroke-width="2" stroke-miterlimit="10" d="M553.885,344.49l-392.69,49.758
					c0,0-2.354-14.094-11.537-14.86c-9.184-0.762-16.481,11.72-17.186,14.777c0,0,1.882-18.361,18.597-19.068l29.901-27.779
					c0,0-22.367-45.117-100.292-21.03c0,0,7.063,29.035,4.707,42.689c-2.354,13.655-10.831,10.827-22.131,34.844
					c0,0-18.358,7.062-32.172,14.908c0,0-13.814,0.319-19.15-2.821l-2.51,23.857c0,0,15.695-7.852,18.833-8.164
					c3.139-0.313,4.709,0.942,4.709,0.942s5.652,24.169,32.018,37.665c26.367,13.501,72.196-5.649,76.906-10.044
					s0.942-26.054,14.753-37.04l384.532-47.556c0,0,35.369-12.914,48.498-22.087C589.671,353.481,565.189,346.845,553.885,344.49z
					 M61.607,415.353c0,1.178,0,5.649,0,5.649H45.125C49.599,417.945,61.607,414.175,61.607,415.353z M131.529,455.846
					c-1.885,1.648-24.901,12.339-56.031,8.005c-18.6-2.586-29.194-28.487-29.194-28.487h18.364c0,0,17.657,43.556,66.862,15.539
					C131.529,450.903,133.412,454.203,131.529,455.846z"/>
			</g>
		</g>
		<g>
			<g>
				<path fill="#FFFFFF" stroke="#FFFFFF" stroke-width="2" stroke-miterlimit="10" d="M105.444,332.528
					c-3.246,0.559-6.772,1.238-10.64,2.076c0,0,3.764,31.074,0,37.665c-3.236,5.666-19.315,23.134-23.789,39.287
					c11.123-14.229,30.199-30.805,32.89-40.229C106.319,362.877,105.809,341.81,105.444,332.528z"/>
			</g>
			<g>
				<path fill="#B8B8BB" stroke="#FFFFFF" stroke-width="2" stroke-miterlimit="10" d="M121.17,429.48
					c-4.945-4.236-7.77-16.247-6.591-20.011c0,0-4.239,0.942-4.71,4.706c-0.469,3.77-8.474-11.074,7.062-20.366
					c15.54-9.299,0.943,0,0.943,0s4.008,3.885,9.458,1.062c5.455-2.827-10.869-13.813-12.753-21.973
					c-1.886-8.163,6.049-11.615,12.753-14.438l-14.954-12.246c0,0,17.266-10.986,28.252-11.611c0,0-1.838-7.819-35.186-2.076
					c0.365,9.282,0.875,30.35-1.54,38.8c-2.69,9.424-21.767,25.999-32.89,40.229c-0.734,2.658-1.169,5.277-1.169,7.803
					c0,17.891,15.539,29.167,22.131,31.533c0,0-1.646-5.873-0.708-7.287c0.943-1.414,4.475,8.006,12.712,9.184
					c8.241,1.172,9.419-2.592,9.419-2.592s-11.535-4.235-9.181-11.299c0,0,19.775,16.948,30.134-5.885
					C134.354,433.013,126.115,433.72,121.17,429.48z"/>
			</g>
		</g>
		<g>
			<path fill="#B8B8BB" stroke="#FFFFFF" stroke-width="2" stroke-miterlimit="10" d="M161.663,401.934l-2.589,8.478l409.879-53.677
				c0,0-9.419-4.624-27.78-3.254C522.812,354.851,161.663,401.934,161.663,401.934z"/>
		</g>
		<g>
			<path fill="#FFFFFF" stroke="#FFFFFF" stroke-width="2" stroke-miterlimit="10" d="M153.189,391.716
				c0,0-21.032,4.416-12.559,35.802c0,0-10.132-7.848-6.277-25.425C138.285,384.17,153.189,386.68,153.189,391.716z"/>
		</g>
		<g>
			<path fill="#B8B8BB" stroke="#FFFFFF" stroke-width="2" stroke-miterlimit="10" d="M118.973,402.406h10.356
				c0,0-0.94,9.835-3.764,9.15l-1.414,13.14l-2.669-13.14l-2.509-3.238V402.406z"/>
		</g>
	</g>
	<g>
		<g>
			<g>
				<g>
					<path d="M23.528,575.46c2.247-0.434,4.137-1.041,5.666-1.83c1.523-0.789,2.833-1.836,3.907-3.129
						c1.079-1.299,2.066-3.02,2.97-5.179l37.479-85.642h79.275l39.637,84.13c0.362,0.723,0.767,1.726,1.216,3.02
						c0.444,1.299,1.349,2.591,2.696,3.885c1.347,1.292,3.326,2.481,5.934,3.561c2.603,1.073,6.334,1.759,11.189,2.05v20.06H108.063
						V576.54c3.594-0.86,6.472-1.939,8.63-3.238c2.159-1.294,3.233-3.446,3.233-6.471v-1.294c0-2.01-1.66-3.342-4.986-3.989
						c-3.327-0.646-6.79-0.97-10.384-0.97h-7.55c-6.291,0-10.964,0.323-14.021,0.97c-3.058,0.647-4.581,2.192-4.581,4.636
						c0,1.727,0.582,3.238,1.753,4.532c1.167,1.292,2.466,2.372,3.907,3.237c1.441,0.861,3.326,1.727,5.665,2.587v19.846H15.304
						V576.54C18.542,576.254,21.282,575.892,23.528,575.46z M96.738,524.119l-9.168,21.139h26.965l-10.247-21.139H96.738z"/>
				</g>
				<g>
					<path d="M248.22,583.882c2.263-0.543,4.274-1.541,6.027-2.992c1.753-1.447,2.976-3.073,3.655-4.887v-31.261
						c0-0.903-0.257-1.835-0.767-2.783c-0.509-0.954-1.101-1.792-1.781-2.516c-0.679-0.723-1.419-1.314-2.208-1.77
						c-0.795-0.449-1.474-0.68-2.039-0.68h-2.548c-0.909,0-1.731,0.296-2.466,0.883c-0.739,0.591-1.385,1.293-1.951,2.109
						c-0.569,0.816-1.134,1.655-1.703,2.516c-0.565,0.858-1.129,1.609-1.699,2.24h-17.496v-21.879h122.14v21.879H327.89
						c-0.57-0.631-1.134-1.382-1.699-2.24c-0.569-0.86-1.133-1.699-1.698-2.516c-0.57-0.816-1.216-1.519-1.951-2.109
						c-0.74-0.587-1.561-0.883-2.465-0.883l-3.397,0.137l-4.247,3.672c-0.23,0.543-0.482,1.135-0.767,1.764
						c-0.286,0.636-0.538,1.36-0.762,2.176v30.711c0,3.086,0.904,5.096,2.718,6.051c1.809,0.953,4.471,1.747,7.984,2.378v12.503
						H248.22V583.882z"/>
				</g>
				<g>
					<path d="M381.23,583.882c2.264-0.543,4.274-1.541,6.027-2.992c1.754-1.447,2.976-3.073,3.655-4.887v-31.261
						c0-0.903-0.257-1.835-0.767-2.783c-0.51-0.954-1.102-1.792-1.781-2.516c-0.679-0.723-1.418-1.314-2.208-1.77
						c-0.794-0.449-1.474-0.68-2.038-0.68h-2.548c-0.91,0-1.731,0.296-2.465,0.883c-0.741,0.591-1.387,1.293-1.951,2.109
						c-0.57,0.816-1.135,1.655-1.704,2.516c-0.565,0.858-1.129,1.609-1.699,2.24h-17.495v-21.879h122.14v21.879H460.9
						c-0.569-0.631-1.134-1.382-1.698-2.24c-0.569-0.86-1.135-1.699-1.699-2.516c-0.569-0.816-1.216-1.519-1.95-2.109
						c-0.74-0.587-1.562-0.883-2.466-0.883l-3.397,0.137l-4.246,3.672c-0.229,0.543-0.482,1.135-0.767,1.764
						c-0.286,0.636-0.537,1.36-0.762,2.176v30.711c0,3.086,0.904,5.096,2.717,6.051c1.809,0.953,4.472,1.747,7.984,2.378v12.503
						H381.23V583.882z"/>
				</g>
				<g>
					<path d="M491.732,583.202c1.414-0.268,2.603-0.656,3.567-1.156c0.959-0.493,1.781-1.155,2.46-1.967
						c0.68-0.816,1.304-1.906,1.869-3.265l23.616-53.95h49.943l24.97,53.002c0.224,0.455,0.482,1.085,0.767,1.901
						c0.28,0.815,0.85,1.633,1.699,2.443c0.849,0.817,2.093,1.567,3.737,2.247c1.638,0.679,3.988,1.106,7.046,1.287v12.641h-66.42
						v-12.503c2.262-0.543,4.075-1.223,5.435-2.039c1.359-0.815,2.038-2.176,2.038-4.076v-0.816c0-1.267-1.046-2.104-3.139-2.516
						c-2.1-0.406-4.28-0.607-6.542-0.607h-4.757c-3.967,0-6.91,0.201-8.833,0.607c-1.929,0.411-2.887,1.386-2.887,2.927
						c0,1.085,0.366,2.038,1.101,2.849c0.739,0.817,1.557,1.496,2.465,2.043c0.905,0.543,2.094,1.086,3.567,1.629v12.503h-46.887
						v-12.503C488.588,583.702,490.313,583.476,491.732,583.202z M537.853,550.858l-5.775,13.32h16.985l-6.454-13.32H537.853z"/>
				</g>
				<g>
					<path d="M622.448,534.82c1.474-2.082,3.2-4.006,5.184-5.775c1.978-1.765,4.186-3.238,6.624-4.416
						c2.433-1.173,4.953-1.765,7.562-1.765h69.817c2.148,0,4.499,0.592,7.053,1.765c2.548,1.178,4.893,2.651,7.047,4.416
						c2.152,1.77,3.934,3.649,5.353,5.644c1.414,1.995,2.121,3.803,2.121,5.436v11.55H686.49v-7.746
						c0-2.444-1.073-4.056-3.227-4.822c-2.153-0.772-4.532-1.156-7.135-1.156c-1.923,0-3.709,0.433-5.348,1.287
						c-1.644,0.866-2.466,2.335-2.466,4.422v33.972c0,1.546,0.85,2.745,2.548,3.605s3.513,1.289,5.436,1.289
						c0.225,0,0.85-0.045,1.868-0.138c1.02-0.088,2.094-0.312,3.228-0.68c1.134-0.361,2.209-0.832,3.228-1.425
						c1.02-0.586,1.644-1.43,1.868-2.515v-10.465h46.718v13.456c0,1.721-0.625,3.513-1.869,5.364
						c-1.243,1.857-2.833,3.533-4.756,5.031c-1.929,1.495-4.022,2.738-6.285,3.735c-2.268,0.998-4.476,1.496-6.624,1.496h-71.856
						c-4.985,0-8.947-0.543-11.896-1.633c-2.942-1.084-5.178-2.444-6.707-4.077c-1.528-1.626-2.525-3.325-2.975-5.094
						c-0.455-1.766-0.68-3.328-0.68-4.691v-40.36C620.011,538.809,620.974,536.907,622.448,534.82z"/>
				</g>
				<g>
					<path d="M808.631,552.758c2.718-0.18,4.7-1.062,5.944-2.646c1.249-1.583,2.154-3.469,2.724-5.644
						c0.564-2.171,0.959-4.526,1.189-7.063c0.225-2.536,0.68-4.894,1.358-7.068c0.68-2.175,1.754-3.962,3.228-5.369
						c1.468-1.403,3.791-2.104,6.964-2.104h42.979v12.504c-2.377,0.63-4.164,1.518-5.352,2.646c-1.19,1.136-2.154,2.429-2.89,3.875
						c-0.739,1.451-1.385,2.971-1.955,4.554c-0.564,1.588-1.33,3.122-2.29,4.619c-0.965,1.496-2.323,2.904-4.077,4.213
						c-1.758,1.315-4.219,2.379-7.392,3.194l-1.188,1.223l1.188,1.496c3.173,0.815,5.634,1.856,7.392,3.129
						c1.754,1.266,3.112,2.646,4.077,4.141c0.96,1.496,1.726,3.015,2.29,4.554c0.57,1.54,1.216,3.015,1.955,4.417
						c0.735,1.408,1.699,2.674,2.89,3.808c1.188,1.13,2.975,2.017,5.352,2.647v12.503h-42.979c-3.058,0-5.354-0.701-6.883-2.104
						c-1.528-1.408-2.662-3.15-3.396-5.231c-0.739-2.088-1.216-4.373-1.441-6.866c-0.229-2.487-0.597-4.821-1.106-6.997
						s-1.387-4.056-2.636-5.644c-1.244-1.584-3.167-2.559-5.774-2.921l-5.775,1.222c-0.455,0.549-0.681,1.59-0.681,3.129v1.902
						c0,1.09,0.057,2.269,0.171,3.534c0.115,1.271,0.429,2.427,0.938,3.463c0.509,1.046,1.325,1.906,2.458,2.586
						c1.135,0.679,2.664,1.019,4.587,1.019v12.909h-66.42v-12.909c1.019,0,2.18-0.454,3.484-1.359
						c1.299-0.903,2.745-1.994,4.328-3.265c1.02-1.716,1.672-3.124,1.956-4.209c0.279-1.091,0.422-2.717,0.422-4.893v-18.756
						c0-3.354-0.51-6.049-1.528-8.087s-3.282-4.012-6.794-5.913c-0.23-0.181-0.592-0.448-1.102-0.815
						c-0.51-0.357-0.767-0.631-0.767-0.812v-12.504h66.42v12.367c0,0.361-0.395,0.723-1.188,1.084
						c-0.789,0.368-1.699,1.02-2.719,1.974c-1.019,0.947-1.922,2.312-2.718,4.076c-0.794,1.764-1.188,4.279-1.188,7.54v1.633
						L808.631,552.758z"/>
				</g>
			</g>
			<g>
				<g>
					<path fill="#C5B280" d="M228.801,611.689H0v-49.165l13.962-1.228c2.684-0.235,4.928-0.526,6.671-0.865
						c0.403-0.078,0.717-0.154,0.958-0.214c0.101-0.208,0.225-0.472,0.362-0.806l41.588-95.034h98.99l43.774,92.913
						c0.276,0.543,0.658,1.403,1.09,2.51c0.2,0.093,0.455,0.209,0.764,0.334c0.05,0.021,1.608,0.636,6.252,0.915l14.389,0.86
						V611.689z M130.595,581.081h54.5c-2.772-2.825-4.753-5.954-5.898-9.303c-0.153-0.438-0.301-0.86-0.449-1.179l-35.629-75.614
						h-59.56L50.09,571.459c-1.409,3.37-3.148,6.335-5.219,8.822c-0.225,0.274-0.455,0.538-0.691,0.799H68.9
						c-0.036-0.038-0.068-0.076-0.104-0.114c-3.718-4.098-5.696-9.222-5.696-14.783c0-4.443,1.359-8.459,3.797-11.715l19.797-45.653
						h27.183l25.082,51.746h-4.43c0.479,1.699,0.701,3.388,0.701,4.976v1.294C135.23,572.271,133.594,577.191,130.595,581.081z"/>
				</g>
				<g>
					<path fill="#C5B280" d="M336.908,611.689H232.916V571.81l9.682-2.317v-9.446h-34.657V507.56h152.748v52.486h-34.482v9.112
						l10.701,1.917V611.689z M272.342,581.081h23.827c-0.361-1.692-0.569-3.561-0.569-5.627v-32.776l0.547-1.995
						c0.247-0.894,0.516-1.731,0.8-2.515h-24.827c0.721,2.137,1.085,4.34,1.085,6.575v34.032L272.342,581.081z"/>
				</g>
				<g>
					<path fill="#C5B280" d="M469.92,611.689H365.927V571.81l9.682-2.317v-9.446h-34.657V507.56H493.7v52.486h-34.481v9.112
						l10.701,1.917V611.689z M405.354,581.081h23.828c-0.362-1.692-0.57-3.561-0.57-5.627v-32.776l0.547-1.995
						c0.247-0.894,0.516-1.731,0.8-2.515h-24.827c0.721,2.137,1.084,4.34,1.084,6.575v34.032L405.354,581.081z"/>
				</g>
				<g>
					<path fill="#C5B280" d="M626.711,611.689H471.246v-41.812l13.949-1.237c0.482-0.045,0.938-0.088,1.364-0.138l26.68-60.941
						h69.658l28.669,60.854c0.225,0.021,0.471,0.038,0.745,0.055l14.399,0.849V611.689z M567.518,581.081h16.158l-20.196-42.913
						h-10.017l20.022,41.315h-5.787C567.66,580.024,567.6,580.556,567.518,581.081z"/>
				</g>
				<g>
					<path fill="#C5B280" d="M713.674,611.689h-71.856c-6.877,0-12.504-0.844-17.205-2.58c-5.173-1.906-9.402-4.592-12.569-7.972
						c-3.31-3.524-5.545-7.497-6.636-11.792c-0.772-2.981-1.15-5.765-1.15-8.455v-42.328l0.499-1.901
						c0.92-3.539,2.619-7.029,5.188-10.668c2.147-3.03,4.663-5.841,7.501-8.368c3.036-2.706,6.45-4.985,10.153-6.777
						c4.531-2.181,9.31-3.287,14.219-3.287h69.817c4.351,0,8.872,1.062,13.441,3.161c3.731,1.727,7.205,3.901,10.356,6.487
						c3.199,2.625,5.929,5.519,8.126,8.608c3.292,4.647,4.952,9.452,4.952,14.307v40.635c0,4.807-1.501,9.485-4.465,13.896
						c-2.137,3.188-4.854,6.075-8.065,8.58c-2.921,2.264-6.115,4.164-9.513,5.66C722.243,610.753,717.948,611.689,713.674,611.689z
						 M634.864,580.26c0.104,0.043,0.225,0.088,0.351,0.131c0.323,0.12,2.088,0.689,6.603,0.689h11.502
						c-0.204-1.121-0.308-2.273-0.308-3.451v-33.972c0-1.906,0.241-3.748,0.701-5.495l-11.896,0.005
						c-0.208,0-0.466,0.027-0.915,0.246c-1.146,0.554-2.159,1.229-3.085,2.05c-1.123,1.008-2.065,2.054-2.877,3.2
						c-0.027,0.031-0.055,0.071-0.076,0.104V580.26z"/>
				</g>
				<g>
					<path fill="#C5B280" d="M888.322,611.689h-58.284c-1.507,0-2.92-0.099-4.235-0.279v0.279h-97.027v-43.517h10.19v-17.178
						c0-0.132,0-0.258-0.006-0.372c-0.092-0.055-0.19-0.11-0.301-0.17l-2.762-1.858c-6.174-4.312-7.122-10.147-7.122-13.227V507.56
						l97.027,0.263c1.354-0.176,2.767-0.263,4.235-0.263h58.284v39.583l-10.443,2.767c-0.203,0.51-0.438,1.106-0.657,1.716
						c-0.921,2.591-2.208,5.205-3.809,7.691c-0.093,0.149-0.187,0.297-0.284,0.438c0.088,0.138,0.175,0.275,0.262,0.412
						c1.59,2.471,2.86,5.009,3.798,7.578c0.197,0.52,0.411,1.046,0.646,1.566l10.116,2.679l0.372,11.892V611.689z M767.82,581.081
						h19.962c-0.235-1.072-0.405-2.169-0.51-3.292c-0.159-1.759-0.23-3.396-0.23-4.914v-1.902c0-2.504,0.313-4.778,0.941-6.832
						l-0.602-0.127v-14.108c0-4.532,0.564-8.396,1.716-11.737h-21.726c1.479,3.73,2.202,7.95,2.202,12.827v18.756
						c0,3.534-0.285,6.296-0.898,8.689C768.445,579.312,768.161,580.189,767.82,581.081z M833.589,581.076h15.982
						c-0.382-0.894-0.756-1.813-1.1-2.755c-0.192-0.516-0.462-1.042-0.822-1.606c-0.005,0.126-0.631-0.251-2.399-0.706l-4.97-1.282
						l-12.769-16.054l13.579-13.958l4.159-1.067c1.621-0.417,2.235-0.763,2.24-0.768c0.171-0.137,0.312-0.296,0.312-0.296
						c0.181-0.307,0.433-0.804,0.598-1.266c0.389-1.085,0.799-2.131,1.237-3.15h-15.845c-0.023,0.192-0.045,0.389-0.062,0.587
						c-0.307,3.402-0.854,6.613-1.621,9.567c-1.112,4.257-2.971,8.037-5.519,11.271c-0.061,0.076-0.125,0.158-0.191,0.234
						c0.071,0.088,0.142,0.176,0.208,0.264c2.629,3.344,4.482,7.25,5.502,11.606c0.668,2.832,1.149,5.89,1.445,9.078
						C833.567,580.875,833.577,580.978,833.589,581.076z"/>
				</g>
			</g>
			<g>
				<g>
					<path fill="#FFFFFF" d="M219.618,602.507H101.943v-30.794l4.695-1.131c2.968-0.706,5.288-1.562,6.899-2.526
						c0.066-0.043,0.156-0.18,0.214-0.503c-2.921-0.563-6.014-0.855-9.195-0.855h-7.55c-5.909,0-9.449,0.302-11.534,0.621
						c0.581,0.606,1.143,1.023,1.745,1.385c1.115,0.668,2.677,1.376,4.625,2.088l4.008,1.474v30.242H9.184v-31.573l5.583-0.493
						c2.995-0.264,5.553-0.598,7.603-0.991c1.672-0.324,3.022-0.746,4.016-1.261c0.798-0.41,1.456-0.937,2.006-1.6
						c0.471-0.564,1.205-1.655,2.033-3.634l39.123-89.396h87.16l41.292,87.644c0.389,0.766,0.904,2.01,1.462,3.615
						c0.027,0.082,0.217,0.58,1.151,1.48c0.447,0.427,1.564,1.297,4.035,2.323c1.349,0.553,4.045,1.282,9.214,1.593l5.756,0.346
						V602.507z M114.184,590.265h93.193v-8.41c-2.913-0.438-5.362-1.075-7.402-1.919c-3.354-1.387-5.915-2.958-7.838-4.805
						c-2.063-1.979-3.494-4.104-4.25-6.323c-0.332-0.948-0.627-1.71-0.901-2.257l-38.043-80.749h-71.39l-35.873,81.977
						c-1.113,2.657-2.389,4.854-3.872,6.635c-1.592,1.917-3.542,3.484-5.797,4.652c-2.071,1.068-4.466,1.852-7.323,2.405
						c-1.002,0.192-2.093,0.372-3.263,0.536v8.258h62.185v-9.638c-0.981-0.46-1.871-0.932-2.682-1.42
						c-1.962-1.178-3.743-2.651-5.315-4.389c-2.176-2.399-3.329-5.393-3.329-8.636c0-5.403,3.526-9.374,9.436-10.625
						c3.507-0.739,8.507-1.101,15.287-1.101h7.55c3.97,0,7.857,0.361,11.551,1.079c9.224,1.799,9.94,8.11,9.94,10v1.294
						c0,5.16-2.203,9.325-6.209,11.719c-1.627,0.981-3.498,1.842-5.654,2.588V590.265z M114.535,551.378H78.245l14.474-33.38h15.405
						l16.18,33.38H114.535z M96.897,539.137h7.868l-4.154-8.569L96.897,539.137z"/>
				</g>
				<g>
					<path fill="#FFFFFF" d="M327.725,602.507H242.1v-23.453l4.693-1.124c1.356-0.327,2.518-0.897,3.551-1.753
						c0.627-0.52,1.104-1.034,1.438-1.556v-29.879c-0.302-0.377-0.586-0.782-0.891-1.107c-0.191-0.208-0.389-0.377-0.585-0.519
						h-0.858c-0.094,0.108-0.181,0.223-0.268,0.351c-0.559,0.799-1.094,1.598-1.636,2.415c-0.74,1.129-1.501,2.126-2.263,2.965
						l-1.822,2.016h-26.333v-34.12h134.381v34.12h-26.334l-1.822-2.016c-0.761-0.839-1.523-1.836-2.276-2.986
						c-0.531-0.806-1.074-1.611-1.617-2.394c-0.076-0.111-0.155-0.216-0.241-0.313l-0.148,0.006l-1.825,1.929
						c-0.076,0.169-0.147,0.36-0.219,0.56v29.806c0,0.405,0.027,0.708,0.058,0.915c0.94,0.4,2.646,0.96,5.605,1.486l5.038,0.903
						V602.507z M254.34,590.265h61.144v-1.508c-1.835-0.535-3.396-1.145-4.718-1.84c-2.229-1.173-5.983-4.226-5.983-11.464
						l0.22-32.332c0.314-1.152,0.676-2.165,1.076-3.058l1.274-2.959l6.942-6.006l5.534-0.219c0.008,0,0.016,0,0.024,0
						c2.516,0,4.674,0.762,6.491,2.197c1.214,0.98,2.269,2.115,3.167,3.407c0.49,0.707,0.97,1.415,1.453,2.138h8.301v-9.639H229.365
						v9.639h8.302c0.493-0.734,0.972-1.447,1.457-2.138c0.885-1.281,1.95-2.433,3.145-3.386c1.825-1.457,3.997-2.225,6.291-2.225
						h2.548c1.646,0,3.298,0.482,5.052,1.474c1.354,0.778,2.569,1.748,3.657,2.904c1.038,1.106,1.953,2.395,2.718,3.819
						c0.986,1.836,1.487,3.748,1.487,5.671v32.367l-0.389,1.041c-1.055,2.815-2.901,5.325-5.489,7.462
						c-1.178,0.976-2.45,1.809-3.803,2.5V590.265z"/>
				</g>
				<g>
					<path fill="#FFFFFF" d="M460.736,602.507H375.11v-23.453l4.693-1.124c1.356-0.327,2.518-0.897,3.55-1.753
						c0.627-0.52,1.104-1.034,1.439-1.556v-29.879c-0.302-0.377-0.587-0.782-0.891-1.107c-0.192-0.208-0.389-0.377-0.586-0.519
						h-0.858c-0.093,0.108-0.181,0.223-0.269,0.351c-0.559,0.799-1.093,1.598-1.636,2.415c-0.739,1.129-1.501,2.126-2.262,2.965
						l-1.822,2.016h-26.334v-34.12h134.381v34.12h-26.333l-1.825-2.016c-0.762-0.839-1.524-1.836-2.274-2.986
						c-0.531-0.806-1.073-1.611-1.616-2.394c-0.077-0.111-0.159-0.216-0.241-0.313l-0.147,0.006l-1.825,1.929
						c-0.076,0.169-0.148,0.36-0.22,0.56v29.806c0,0.405,0.028,0.708,0.056,0.915c0.942,0.4,2.651,0.96,5.604,1.486l5.042,0.903
						V602.507z M387.352,590.265h61.144v-1.508c-1.836-0.535-3.396-1.145-4.718-1.84c-2.229-1.173-5.983-4.226-5.983-11.464
						l0.218-32.332c0.315-1.152,0.677-2.165,1.077-3.058l1.274-2.959l6.942-6.006l5.534-0.219c0.005,0,0.017,0,0.021,0
						c2.521,0,4.679,0.762,6.493,2.197c1.217,0.98,2.269,2.115,3.167,3.407c0.493,0.707,0.97,1.415,1.451,2.138h8.302v-9.639
						H362.376v9.639h8.301c0.494-0.734,0.973-1.447,1.458-2.138c0.885-1.281,1.951-2.433,3.146-3.386
						c1.825-1.457,3.997-2.225,6.291-2.225h2.548c1.646,0,3.298,0.482,5.052,1.474c1.354,0.778,2.57,1.748,3.658,2.904
						c1.038,1.106,1.953,2.395,2.717,3.819c0.987,1.836,1.488,3.748,1.488,5.671v32.367l-0.39,1.041
						c-1.055,2.815-2.901,5.325-5.49,7.462c-1.178,0.976-2.449,1.809-3.802,2.5V590.265z"/>
				</g>
				<g>
					<path fill="#FFFFFF" d="M617.527,602.507H480.429v-24.23l5.578-0.493c1.797-0.159,3.315-0.351,4.564-0.593
						c1.085-0.208,1.665-0.455,1.918-0.581c0.235-0.125,0.416-0.268,0.58-0.46c0.115-0.142,0.461-0.618,0.904-1.683l25.266-57.725
						h57.834l26.624,56.514c0.259,0.521,0.62,1.377,1.009,2.493c0.208,0.093,0.646,0.493,1.994,1.053
						c0.455,0.187,1.847,0.642,5.068,0.834l5.759,0.339V602.507z M551.106,590.265h54.18v-1.15c-1.216-0.27-2.301-0.604-3.271-1.002
						c-2.367-0.977-4.208-2.121-5.633-3.491c-1.551-1.479-2.652-3.124-3.249-4.871c-0.17-0.483-0.324-0.889-0.466-1.173
						l-23.364-49.594h-42.055l-22.015,50.283c-0.762,1.842-1.683,3.42-2.768,4.729c-1.228,1.465-2.69,2.631-4.366,3.496
						c-1.485,0.769-3.25,1.349-5.228,1.727c-0.066,0.011-0.132,0.022-0.203,0.039v1.008h34.646v-2.422
						c-0.208-0.109-0.405-0.224-0.597-0.34c-1.42-0.855-2.712-1.922-3.853-3.183c-1.758-1.939-2.685-4.345-2.685-6.959
						c0-2.433,0.976-5.195,3.475-7.063h-0.904l11.084-25.561h12.607l12.39,25.561h-3.748c2.515,1.787,3.496,4.366,3.496,6.652v0.816
						c0,4.071-1.775,7.386-5.008,9.326c-0.752,0.448-1.573,0.865-2.467,1.242V590.265z"/>
				</g>
				<g>
					<path fill="#FFFFFF" d="M713.674,602.507h-71.856c-5.77,0-10.356-0.659-14.021-2.013c-3.825-1.413-6.871-3.309-9.052-5.632
						c-2.235-2.389-3.731-5.003-4.438-7.776c-0.581-2.257-0.865-4.29-0.865-6.196l0.196-41.906c0.642-2.454,1.886-4.969,3.809-7.692
						c1.737-2.455,3.792-4.745,6.109-6.816c2.4-2.138,5.102-3.939,8.039-5.359c3.271-1.578,6.706-2.373,10.224-2.373h69.817
						c3.02,0,6.253,0.779,9.605,2.323c3.008,1.387,5.819,3.151,8.373,5.244c2.564,2.104,4.734,4.4,6.46,6.827
						c2.164,3.052,3.255,6.071,3.255,8.986v17.672H680.37v-13.19c-1.791-0.493-4.055-0.887-5.929-0.284l-0.006,31.786
						c0.609,0.202,1.217,0.295,1.863,0.295c0.132-0.01,0.603-0.05,1.311-0.114c0.591-0.05,1.221-0.187,1.9-0.405
						c0.302-0.095,0.586-0.198,0.86-0.312v-14.39h58.958v19.578c0,2.953-0.975,5.901-2.91,8.778
						c-1.589,2.378-3.638,4.554-6.076,6.448c-2.317,1.798-4.866,3.311-7.572,4.505C719.724,601.832,716.666,602.507,713.674,602.507
						z M625.681,541.466v39.424c0,0.581,0.088,1.605,0.487,3.162c0.192,0.761,0.697,1.572,1.508,2.433
						c0.603,0.64,1.841,1.595,4.361,2.526c1.556,0.568,4.503,1.254,9.78,1.254h71.856c1.282,0,2.685-0.329,4.158-0.981
						c1.792-0.789,3.479-1.785,4.997-2.97c1.403-1.084,2.555-2.302,3.426-3.599c0.75-1.118,0.833-1.744,0.833-1.957v-7.336H692.61
						l-0.125,5.589c-0.575,2.788-2.285,5.122-4.811,6.575c-1.364,0.794-2.861,1.457-4.422,1.95c-1.535,0.498-3.08,0.82-4.56,0.948
						c-1.293,0.121-2.104,0.159-2.395,0.159c-2.888,0-5.648-0.652-8.202-1.946c-3.748-1.901-5.901-5.205-5.901-9.068v-33.972
						c0-4.334,2.087-7.917,5.731-9.835c2.542-1.326,5.293-1.994,8.202-1.994l0,0c3.305,0,6.399,0.509,9.2,1.512
						c4.559,1.627,7.281,5.583,7.281,10.587v1.626h34.478v-5.43l0,0c-0.006,0-0.077-0.597-0.992-1.896
						c-1.097-1.54-2.526-3.041-4.246-4.455c-1.749-1.43-3.678-2.641-5.732-3.589c-1.726-0.795-3.238-1.2-4.482-1.2h-69.817
						c-1.682,0-3.287,0.378-4.903,1.156c-1.907,0.92-3.661,2.094-5.206,3.475c-1.627,1.451-3.062,3.046-4.263,4.739
						C626.47,539.734,625.955,540.753,625.681,541.466z"/>
				</g>
				<g>
					<path fill="#FFFFFF" d="M879.138,602.507h-49.1c-4.624,0-8.333-1.251-11.019-3.717c-0.894-0.815-1.692-1.714-2.399-2.679v6.396
						h-78.662v-25.15h5.688c0.099-0.055,0.241-0.138,0.428-0.271c0.942-0.656,1.973-1.424,3.084-2.294
						c0.587-1.086,0.741-1.596,0.768-1.705c0.033-0.115,0.225-0.98,0.225-3.337v-18.756c0-2.965-0.482-4.543-0.882-5.347
						c-0.071-0.138-0.768-1.394-4.235-3.267l-1.765-1.239c-2.175-1.517-3.31-3.474-3.31-5.774v-18.625h78.662v6.384
						c0.657-0.932,1.401-1.797,2.224-2.586c2.641-2.521,6.406-3.798,11.194-3.798h49.1v23.338l-4.553,1.204
						c-1.944,0.517-2.596,1.063-2.707,1.168c-0.679,0.652-1.221,1.375-1.643,2.207c-0.631,1.232-1.174,2.517-1.655,3.854
						c-0.701,1.973-1.676,3.949-2.894,5.851c-1.271,1.967-2.97,3.787-5.062,5.425c2.093,1.601,3.792,3.396,5.053,5.354
						c1.211,1.89,2.181,3.823,2.893,5.764c0.471,1.267,1.009,2.494,1.621,3.665c0.434,0.827,0.987,1.551,1.699,2.235
						c0.1,0.095,0.751,0.642,2.695,1.156l4.553,1.206V602.507z M808.581,560.415l1.057,0.142c4.22,0.586,7.497,2.34,9.754,5.205
						c1.792,2.285,3.069,4.987,3.78,8.028c0.566,2.427,0.986,5.056,1.239,7.829c0.181,1.995,0.56,3.804,1.117,5.386
						c0.4,1.14,0.981,2.045,1.777,2.772c0.142,0.133,0.925,0.488,2.732,0.488h36.859v-2.169c-1.32-0.686-2.465-1.491-3.446-2.423
						c-1.688-1.611-3.068-3.43-4.104-5.413c-0.849-1.611-1.604-3.332-2.267-5.124c-0.412-1.117-0.981-2.245-1.704-3.375
						c-0.533-0.832-1.382-1.672-2.505-2.482c-0.778-0.563-2.328-1.391-5.331-2.164l-1.988-0.51l-5.821-7.32l6.144-6.317l1.666-0.427
						c2.958-0.763,4.487-1.6,5.248-2.171c1.156-0.86,2.028-1.747,2.598-2.624c0.718-1.118,1.266-2.219,1.666-3.354
						c0.668-1.852,1.42-3.605,2.273-5.282c1.041-2.054,2.427-3.912,4.115-5.522c0.985-0.942,2.132-1.748,3.457-2.429v-2.175h-36.859
						c-2.098,0-2.761,0.433-2.766,0.438c-0.686,0.658-1.212,1.562-1.585,2.74c-0.548,1.759-0.92,3.703-1.101,5.786
						c-0.264,2.882-0.718,5.588-1.365,8.06c-0.789,3.008-2.076,5.66-3.84,7.896c-1.611,2.05-4.724,4.586-10.346,4.965l-0.827,0.055
						l-11.644-2.394v-6.625c0-4.181,0.564-7.469,1.727-10.055c1.149-2.548,2.503-4.526,4.131-6.044
						c0.663-0.619,1.315-1.161,1.956-1.633v-3.189h-54.181v3.386c3.934,2.335,6.564,4.894,8.018,7.798
						c1.463,2.933,2.174,6.471,2.174,10.827v18.756c0,2.74-0.19,4.778-0.612,6.411c-0.444,1.704-1.299,3.594-2.626,5.819
						l-0.563,0.953l-0.865,0.689c-1.704,1.37-3.261,2.543-4.663,3.518c-0.285,0.199-0.57,0.384-0.861,0.56v2.564h54.181v-1.754
						c-0.564-0.229-1.107-0.498-1.61-0.806c-2.166-1.292-3.782-3.029-4.818-5.155c-0.832-1.683-1.347-3.572-1.533-5.589
						c-0.131-1.463-0.192-2.828-0.192-4.087v-1.902c0-1.939,0.214-4.783,2.089-7.04l1.364-1.639L808.581,560.415z M808.467,572.951
						c0.005,0.898,0.05,1.863,0.147,2.903c0.045,0.521,0.158,0.96,0.329,1.315c0.071,0.012,0.472,0.188,1.556,0.188h0.926
						c-0.055-0.264-0.115-0.521-0.175-0.773c-0.307-1.311-0.789-2.372-1.484-3.256c-0.111-0.143-0.4-0.317-0.91-0.46
						L808.467,572.951z M811.584,542.069c-0.181,0.138-0.455,0.355-0.811,0.69c-0.197,0.182-0.69,0.729-1.315,2.121
						c-0.109,0.234-0.29,0.739-0.432,1.676c0.563-0.109,0.761-0.252,0.761-0.252c0.706-0.898,1.228-2.01,1.588-3.387
						C811.446,542.638,811.518,542.359,811.584,542.069z"/>
				</g>
			</g>
			<g>
				<g>
					<path d="M23.528,575.46c2.247-0.434,4.137-1.041,5.666-1.83c1.523-0.789,2.833-1.836,3.907-3.129
						c1.079-1.299,2.066-3.02,2.97-5.179l37.479-85.642h79.275l39.637,84.13c0.362,0.723,0.767,1.726,1.216,3.02
						c0.444,1.299,1.349,2.591,2.696,3.885c1.347,1.292,3.326,2.481,5.934,3.561c2.603,1.073,6.334,1.759,11.189,2.05v20.06H108.063
						V576.54c3.594-0.86,6.472-1.939,8.63-3.238c2.159-1.294,3.233-3.446,3.233-6.471v-1.294c0-2.01-1.66-3.342-4.986-3.989
						c-3.327-0.646-6.79-0.97-10.384-0.97h-7.55c-6.291,0-10.964,0.323-14.021,0.97c-3.058,0.647-4.581,2.192-4.581,4.636
						c0,1.727,0.582,3.238,1.753,4.532c1.167,1.292,2.466,2.372,3.907,3.237c1.441,0.861,3.326,1.727,5.665,2.587v19.846H15.304
						V576.54C18.542,576.254,21.282,575.892,23.528,575.46z M96.738,524.119l-9.168,21.139h26.965l-10.247-21.139H96.738z"/>
				</g>
				<g>
					<path d="M248.22,583.882c2.263-0.543,4.274-1.541,6.027-2.992c1.753-1.447,2.976-3.073,3.655-4.887v-31.261
						c0-0.903-0.257-1.835-0.767-2.783c-0.509-0.954-1.101-1.792-1.781-2.516c-0.679-0.723-1.419-1.314-2.208-1.77
						c-0.795-0.449-1.474-0.68-2.039-0.68h-2.548c-0.909,0-1.731,0.296-2.466,0.883c-0.739,0.591-1.385,1.293-1.951,2.109
						c-0.569,0.816-1.134,1.655-1.703,2.516c-0.565,0.858-1.129,1.609-1.699,2.24h-17.496v-21.879h122.14v21.879H327.89
						c-0.57-0.631-1.134-1.382-1.699-2.24c-0.569-0.86-1.133-1.699-1.698-2.516c-0.57-0.816-1.216-1.519-1.951-2.109
						c-0.74-0.587-1.561-0.883-2.465-0.883l-3.397,0.137l-4.247,3.672c-0.23,0.543-0.482,1.135-0.767,1.764
						c-0.286,0.636-0.538,1.36-0.762,2.176v30.711c0,3.086,0.904,5.096,2.718,6.051c1.809,0.953,4.471,1.747,7.984,2.378v12.503
						H248.22V583.882z"/>
				</g>
				<g>
					<path d="M381.23,583.882c2.264-0.543,4.274-1.541,6.027-2.992c1.754-1.447,2.976-3.073,3.655-4.887v-31.261
						c0-0.903-0.257-1.835-0.767-2.783c-0.51-0.954-1.102-1.792-1.781-2.516c-0.679-0.723-1.418-1.314-2.208-1.77
						c-0.794-0.449-1.474-0.68-2.038-0.68h-2.548c-0.91,0-1.731,0.296-2.465,0.883c-0.741,0.591-1.387,1.293-1.951,2.109
						c-0.57,0.816-1.135,1.655-1.704,2.516c-0.565,0.858-1.129,1.609-1.699,2.24h-17.495v-21.879h122.14v21.879H460.9
						c-0.569-0.631-1.134-1.382-1.698-2.24c-0.569-0.86-1.135-1.699-1.699-2.516c-0.569-0.816-1.216-1.519-1.95-2.109
						c-0.74-0.587-1.562-0.883-2.466-0.883l-3.397,0.137l-4.246,3.672c-0.229,0.543-0.482,1.135-0.767,1.764
						c-0.286,0.636-0.537,1.36-0.762,2.176v30.711c0,3.086,0.904,5.096,2.717,6.051c1.809,0.953,4.472,1.747,7.984,2.378v12.503
						H381.23V583.882z"/>
				</g>
				<g>
					<path d="M491.732,583.202c1.414-0.268,2.603-0.656,3.567-1.156c0.959-0.493,1.781-1.155,2.46-1.967
						c0.68-0.816,1.304-1.906,1.869-3.265l23.616-53.95h49.943l24.97,53.002c0.224,0.455,0.482,1.085,0.767,1.901
						c0.28,0.815,0.85,1.633,1.699,2.443c0.849,0.817,2.093,1.567,3.737,2.247c1.638,0.679,3.988,1.106,7.046,1.287v12.641h-66.42
						v-12.503c2.262-0.543,4.075-1.223,5.435-2.039c1.359-0.815,2.038-2.176,2.038-4.076v-0.816c0-1.267-1.046-2.104-3.139-2.516
						c-2.1-0.406-4.28-0.607-6.542-0.607h-4.757c-3.967,0-6.91,0.201-8.833,0.607c-1.929,0.411-2.887,1.386-2.887,2.927
						c0,1.085,0.366,2.038,1.101,2.849c0.739,0.817,1.557,1.496,2.465,2.043c0.905,0.543,2.094,1.086,3.567,1.629v12.503h-46.887
						v-12.503C488.588,583.702,490.313,583.476,491.732,583.202z M537.853,550.858l-5.775,13.32h16.985l-6.454-13.32H537.853z"/>
				</g>
				<g>
					<path d="M622.448,534.82c1.474-2.082,3.2-4.006,5.184-5.775c1.978-1.765,4.186-3.238,6.624-4.416
						c2.433-1.173,4.953-1.765,7.562-1.765h69.817c2.148,0,4.499,0.592,7.053,1.765c2.548,1.178,4.893,2.651,7.047,4.416
						c2.152,1.77,3.934,3.649,5.353,5.644c1.414,1.995,2.121,3.803,2.121,5.436v11.55H686.49v-7.746
						c0-2.444-1.073-4.056-3.227-4.822c-2.153-0.772-4.532-1.156-7.135-1.156c-1.923,0-3.709,0.433-5.348,1.287
						c-1.644,0.866-2.466,2.335-2.466,4.422v33.972c0,1.546,0.85,2.745,2.548,3.605s3.513,1.289,5.436,1.289
						c0.225,0,0.85-0.045,1.868-0.138c1.02-0.088,2.094-0.312,3.228-0.68c1.134-0.361,2.209-0.832,3.228-1.425
						c1.02-0.586,1.644-1.43,1.868-2.515v-10.465h46.718v13.456c0,1.721-0.625,3.513-1.869,5.364
						c-1.243,1.857-2.833,3.533-4.756,5.031c-1.929,1.495-4.022,2.738-6.285,3.735c-2.268,0.998-4.476,1.496-6.624,1.496h-71.856
						c-4.985,0-8.947-0.543-11.896-1.633c-2.942-1.084-5.178-2.444-6.707-4.077c-1.528-1.626-2.525-3.325-2.975-5.094
						c-0.455-1.766-0.68-3.328-0.68-4.691v-40.36C620.011,538.809,620.974,536.907,622.448,534.82z"/>
				</g>
				<g>
					<path d="M808.631,552.758c2.718-0.18,4.7-1.062,5.944-2.646c1.249-1.583,2.154-3.469,2.724-5.644
						c0.564-2.171,0.959-4.526,1.189-7.063c0.225-2.536,0.68-4.894,1.358-7.068c0.68-2.175,1.754-3.962,3.228-5.369
						c1.468-1.403,3.791-2.104,6.964-2.104h42.979v12.504c-2.377,0.63-4.164,1.518-5.352,2.646c-1.19,1.136-2.154,2.429-2.89,3.875
						c-0.739,1.451-1.385,2.971-1.955,4.554c-0.564,1.588-1.33,3.122-2.29,4.619c-0.965,1.496-2.323,2.904-4.077,4.213
						c-1.758,1.315-4.219,2.379-7.392,3.194l-1.188,1.223l1.188,1.496c3.173,0.815,5.634,1.856,7.392,3.129
						c1.754,1.266,3.112,2.646,4.077,4.141c0.96,1.496,1.726,3.015,2.29,4.554c0.57,1.54,1.216,3.015,1.955,4.417
						c0.735,1.408,1.699,2.674,2.89,3.808c1.188,1.13,2.975,2.017,5.352,2.647v12.503h-42.979c-3.058,0-5.354-0.701-6.883-2.104
						c-1.528-1.408-2.662-3.15-3.396-5.231c-0.739-2.088-1.216-4.373-1.441-6.866c-0.229-2.487-0.597-4.821-1.106-6.997
						s-1.387-4.056-2.636-5.644c-1.244-1.584-3.167-2.559-5.774-2.921l-5.775,1.222c-0.455,0.549-0.681,1.59-0.681,3.129v1.902
						c0,1.09,0.057,2.269,0.171,3.534c0.115,1.271,0.429,2.427,0.938,3.463c0.509,1.046,1.325,1.906,2.458,2.586
						c1.135,0.679,2.664,1.019,4.587,1.019v12.909h-66.42v-12.909c1.019,0,2.18-0.454,3.484-1.359
						c1.299-0.903,2.745-1.994,4.328-3.265c1.02-1.716,1.672-3.124,1.956-4.209c0.279-1.091,0.422-2.717,0.422-4.893v-18.756
						c0-3.354-0.51-6.049-1.528-8.087s-3.282-4.012-6.794-5.913c-0.23-0.181-0.592-0.448-1.102-0.815
						c-0.51-0.357-0.767-0.631-0.767-0.812v-12.504h66.42v12.367c0,0.361-0.395,0.723-1.188,1.084
						c-0.789,0.368-1.699,1.02-2.719,1.974c-1.019,0.947-1.922,2.312-2.718,4.076c-0.794,1.764-1.188,4.279-1.188,7.54v1.633
						L808.631,552.758z"/>
				</g>
			</g>
		</g>
		<g>
			<g>
				<g>
					<path d="M213.793,472.054c1.573-0.302,2.899-0.729,3.973-1.289c1.069-0.547,1.984-1.281,2.74-2.191
						c0.756-0.903,1.446-2.115,2.077-3.627l26.273-60.031h55.571l27.786,58.974c0.251,0.505,0.537,1.212,0.849,2.115
						c0.318,0.909,0.948,1.813,1.891,2.724c0.947,0.909,2.334,1.736,4.159,2.492c1.824,0.757,4.443,1.239,7.847,1.437v14.065
						h-73.906V472.81c2.521-0.604,4.537-1.359,6.049-2.269c1.512-0.904,2.269-2.417,2.269-4.537v-0.903
						c0-1.414-1.167-2.346-3.501-2.801c-2.329-0.454-4.756-0.68-7.277-0.68h-5.292c-4.411,0-7.688,0.226-9.825,0.68
						c-2.147,0.455-3.216,1.539-3.216,3.249c0,1.212,0.411,2.269,1.228,3.179c0.821,0.909,1.73,1.665,2.745,2.269
						c1.003,0.603,2.329,1.21,3.967,1.813v13.912h-52.168V472.81C210.297,472.607,212.215,472.356,213.793,472.054z
						 M265.112,436.065l-6.427,14.816h18.904l-7.183-14.816H265.112z"/>
				</g>
				<g>
					<path d="M394.518,473.577c0,1.079,0.537,1.919,1.606,2.521c1.074,0.608,2.285,0.91,3.632,0.91c0.16,0,0.614-0.033,1.37-0.099
						c0.756-0.061,1.551-0.22,2.384-0.478c0.833-0.252,1.628-0.586,2.384-0.996c0.75-0.417,1.206-1.003,1.364-1.765v-38.487h40.849
						v8.767c-0.718,0.318-1.513,0.746-2.384,1.282c-0.871,0.543-1.726,1.162-2.559,1.857c-0.833,0.701-1.551,1.431-2.143,2.192
						c-0.597,0.761-0.937,1.496-1.013,2.191v24.296c0,1.205-0.438,2.46-1.311,3.759c-0.876,1.304-1.966,2.477-3.276,3.528
						c-1.31,1.047-2.778,1.918-4.406,2.619c-1.627,0.695-3.194,1.047-4.702,1.047h-50.371c-3.496,0-6.252-0.384-8.279-1.146
						c-2.022-0.762-3.59-1.715-4.702-2.854c-1.112-1.146-1.831-2.334-2.143-3.573c-0.317-1.237-0.477-2.333-0.477-3.287V451.38
						c-0.241-1.523-1.052-2.986-2.443-4.384c-1.387-1.397-2.757-2.41-4.11-3.047v-8.767h40.728V473.577z"/>
				</g>
				<g>
					<path d="M468.589,467.572c-1.748,0-3.398-0.504-4.943-1.523c-1.55-1.014-2.92-2.301-4.109-3.857
						c-1.189-1.556-2.126-3.314-2.8-5.288c-0.674-1.967-1.014-3.907-1.014-5.808c0-1.907,0.378-3.797,1.135-5.671
						c0.75-1.874,1.786-3.573,3.096-5.096c1.31-1.523,2.777-2.762,4.404-3.716c1.629-0.953,3.354-1.43,5.179-1.43h64.07v14.197
						h-12.625l-5.715-4.29H496.45c-2.065,0-3.671,0.301-4.821,0.903c-1.151,0.608-1.726,1.797-1.726,3.572
						c0,3.239,1.583,4.86,4.762,4.86h27.867c1.348,0,2.778,0.478,4.284,1.431c1.508,0.953,2.899,2.208,4.171,3.764
						c1.266,1.557,2.317,3.332,3.156,5.332c0.833,2,1.249,4.049,1.249,6.147c0,1.14-0.264,2.604-0.778,4.379
						c-0.515,1.78-1.288,3.512-2.317,5.194c-1.036,1.682-2.324,3.111-3.874,4.285c-1.546,1.178-3.315,1.764-5.299,1.764h-66.087
						v-14.099h12.619l5.479,4.094h18.695c2.143,0,3.891-0.286,5.238-0.855s2.028-1.747,2.028-3.522c0-1.842-0.521-3.063-1.552-3.672
						c-1.029-0.603-2.498-0.965-4.405-1.096H468.589z"/>
				</g>
				<g>
					<path d="M560.516,477.955c1.588-0.377,2.997-1.074,4.229-2.093c1.228-1.014,2.082-2.158,2.559-3.43V450.52
						c0-0.63-0.181-1.282-0.537-1.95c-0.356-0.669-0.772-1.256-1.249-1.765c-0.477-0.504-0.991-0.921-1.551-1.238
						c-0.553-0.318-1.03-0.477-1.425-0.477h-1.786c-0.635,0-1.211,0.208-1.726,0.619c-0.521,0.416-0.976,0.903-1.37,1.479
						c-0.4,0.569-0.795,1.155-1.194,1.759c-0.395,0.607-0.795,1.128-1.188,1.572h-12.269v-15.337h85.62v15.337h-12.263
						c-0.4-0.444-0.795-0.965-1.188-1.572c-0.4-0.604-0.795-1.189-1.195-1.759c-0.395-0.576-0.854-1.063-1.369-1.479
						c-0.516-0.411-1.091-0.619-1.727-0.619l-2.384,0.098l-2.975,2.57c-0.159,0.384-0.34,0.795-0.538,1.239
						c-0.196,0.443-0.377,0.952-0.531,1.522v21.534c0,2.158,0.631,3.572,1.901,4.235c1.271,0.668,3.135,1.228,5.601,1.665v8.768
						h-51.445V477.955z"/>
				</g>
				<g>
					<path d="M686.743,479.007v7.715h-50.492v-7.715c0.559,0,1.292-0.192,2.208-0.575c0.909-0.378,1.803-0.854,2.674-1.425
						c0.877-0.576,1.649-1.178,2.323-1.814c0.674-0.629,1.014-1.205,1.014-1.715v-22.005c-0.159-0.761-0.537-1.523-1.129-2.285
						c-0.598-0.761-1.315-1.479-2.147-2.142c-0.833-0.668-1.704-1.271-2.619-1.814c-0.91-0.536-1.688-0.964-2.323-1.282v-8.767
						h50.492v8.767c-0.713,0.318-1.529,0.746-2.439,1.282c-0.914,0.543-1.785,1.146-2.619,1.814
						c-0.838,0.663-1.55,1.381-2.147,2.142c-0.591,0.762-0.932,1.524-1.008,2.285v22.005c0,0.51,0.312,1.086,0.948,1.715
						c0.635,0.637,1.413,1.238,2.322,1.814c0.915,0.57,1.825,1.047,2.74,1.425C685.45,478.815,686.189,479.007,686.743,479.007z"/>
				</g>
				<g>
					<path d="M746.517,435.183h40.849v8.767c-0.718,0.318-1.513,0.746-2.383,1.282c-0.872,0.543-1.728,1.162-2.56,1.857
						c-0.832,0.701-1.55,1.431-2.143,2.192c-0.598,0.761-0.937,1.496-1.013,2.191v35.249h-18.461l-25.84-17.436v17.436h-40.607
						v-7.715c0.559,0,1.292-0.192,2.208-0.575c0.909-0.378,1.803-0.854,2.674-1.425c0.877-0.576,1.649-1.178,2.323-1.814
						c0.674-0.629,1.014-1.205,1.014-1.715v-22.005c-0.159-0.761-0.537-1.523-1.129-2.285c-0.598-0.761-1.315-1.479-2.147-2.142
						c-0.833-0.668-1.704-1.271-2.619-1.814c-0.91-0.536-1.688-0.964-2.323-1.282v-8.767h26.679l25.479,17.528V435.183z"/>
				</g>
				<g>
					<path d="M807.848,467.572c-1.748,0-3.398-0.504-4.943-1.523c-1.55-1.014-2.92-2.301-4.109-3.857
						c-1.188-1.556-2.125-3.314-2.8-5.288c-0.674-1.967-1.013-3.907-1.013-5.808c0-1.907,0.377-3.797,1.134-5.671
						c0.751-1.874,1.786-3.573,3.096-5.096c1.31-1.523,2.777-2.762,4.405-3.716c1.627-0.953,3.354-1.43,5.177-1.43h64.072v14.197
						H860.24l-5.715-4.29H835.71c-2.066,0-3.671,0.301-4.822,0.903c-1.15,0.608-1.727,1.797-1.727,3.572
						c0,3.239,1.584,4.86,4.762,4.86h27.869c1.347,0,2.778,0.478,4.283,1.431c1.508,0.953,2.899,2.208,4.172,3.764
						c1.266,1.557,2.315,3.332,3.154,5.332c0.833,2,1.25,4.049,1.25,6.147c0,1.14-0.264,2.604-0.778,4.379
						c-0.515,1.78-1.287,3.512-2.317,5.194c-1.036,1.682-2.323,3.111-3.873,4.285c-1.546,1.178-3.316,1.764-5.3,1.764h-66.087
						v-14.099h12.619l5.479,4.094h18.696c2.143,0,3.89-0.286,5.238-0.855c1.347-0.569,2.027-1.747,2.027-3.522
						c0-1.842-0.52-3.063-1.551-3.672c-1.03-0.603-2.498-0.965-4.406-1.096H807.848z"/>
				</g>
			</g>
			<g>
				<g>
					<path fill="#C5B280" d="M357.686,497.451H197.3v-34.455l9.772-0.871c1.853-0.163,3.419-0.361,4.707-0.607
						c0.276-0.055,0.491-0.104,0.655-0.148c0.068-0.143,0.15-0.323,0.246-0.548l29.159-66.634h69.393l30.685,65.133
						c0.192,0.378,0.46,0.98,0.761,1.754c0.141,0.065,0.321,0.146,0.54,0.234c0.044,0.022,1.137,0.45,4.361,0.637l10.107,0.586
						V497.451z M288.85,475.993h38.199c-1.928-1.978-3.307-4.136-4.115-6.448c-0.134-0.39-0.236-0.68-0.34-0.904l-24.972-52.996
						h-41.75l-23.463,53.604c-0.986,2.372-2.213,4.461-3.674,6.208c-0.153,0.181-0.307,0.362-0.465,0.536h17.323
						c-0.021-0.021-0.044-0.049-0.065-0.07c-2.622-2.921-3.998-6.499-3.998-10.373c0-3.111,0.951-5.923,2.658-8.202l13.884-32.011
						h19.054l17.587,36.274h-3.107c0.337,1.188,0.493,2.377,0.493,3.49v0.903C292.098,469.819,290.951,473.265,288.85,475.993z"/>
				</g>
				<g>
					<path fill="#C5B280" d="M426.314,497.451h-50.371c-4.83,0-8.772-0.598-12.052-1.83c-3.499-1.321-6.391-3.135-8.605-5.408
						c-2.46-2.531-4.093-5.364-4.869-8.438c-0.537-2.093-0.802-4.038-0.802-5.912v-21.918c-0.266-0.218-0.397-0.289-0.4-0.289
						l-5.753-3.015l-0.4-6.69v-19.495h115.773v26.477l-6.384,2.827c-0.334,0.147-0.696,0.356-1.102,0.607
						c-0.196,0.121-0.405,0.264-0.613,0.417v20.986c0,3.363-1.053,6.641-3.129,9.736c-1.479,2.197-3.315,4.187-5.468,5.912
						c-2.065,1.655-4.373,3.03-6.876,4.109C432.269,496.809,429.268,497.451,426.314,497.451z M417.732,475.993h8.528
						c0.054-0.011,0.233-0.049,0.537-0.18c0.729-0.312,1.37-0.691,1.926-1.135c0.206-0.164,0.39-0.334,0.557-0.504l0.065-23.873
						c0.167-1.513,0.579-2.981,1.23-4.39h-12.588l-0.228,29.95C417.751,475.906,417.74,475.95,417.732,475.993z M371.073,475.385
						c0.106,0.05,0.23,0.099,0.372,0.153c0.118,0.043,1.31,0.454,4.499,0.454h8.062c-0.142-0.788-0.217-1.594-0.217-2.416v-27.665
						h-13.903c0.496,1.223,0.846,2.488,1.054,3.792l0.132,1.677V475.385z"/>
				</g>
				<g>
					<path fill="#C5B280" d="M523.124,497.451h-76.815v-35.556h0.844c-0.202-0.499-0.394-1.009-0.569-1.523
						c-1.052-3.073-1.589-6.202-1.589-9.276c0-3.282,0.646-6.537,1.912-9.688c1.178-2.926,2.833-5.655,4.909-8.07
						c2.083-2.418,4.477-4.434,7.118-5.979c3.287-1.929,6.854-2.904,10.603-2.904h74.798v35.654h-0.597
						c0.099,0.23,0.203,0.46,0.302,0.695c1.386,3.327,2.082,6.784,2.082,10.296c0,2.171-0.395,4.575-1.205,7.364
						c-0.773,2.69-1.946,5.32-3.469,7.809c-1.754,2.843-3.951,5.276-6.554,7.243C531.53,496.081,527.447,497.451,523.124,497.451z
						 M511.42,475.993h10.997c0.285-0.273,0.521-0.585,0.746-0.941c0.515-0.85,0.898-1.693,1.145-2.554
						c0.181-0.613,0.323-1.123,0.361-1.557c-0.006-0.525-0.142-1.166-0.428-1.863c-0.433-1.034-0.953-1.922-1.577-2.689
						c-0.411-0.498-0.828-0.915-1.25-1.233h-11.161c1.024,2.11,1.573,4.543,1.573,7.185
						C511.826,473.61,511.688,474.832,511.42,475.993z M469.196,456.843h11.534c-1.009-2.127-1.557-4.581-1.557-7.277
						c0-1.271,0.132-2.492,0.384-3.654h-10.021c-0.356,0.312-0.909,0.784-1.446,1.408c-0.549,0.642-0.965,1.32-1.276,2.094
						c-0.247,0.618-0.362,1.161-0.362,1.682c0,0.707,0.147,1.49,0.434,2.328c0.295,0.871,0.679,1.606,1.178,2.253
						C468.418,456.147,468.796,456.531,469.196,456.843z"/>
				</g>
				<g>
					<path fill="#C5B280" d="M622.688,497.451h-72.902v-27.973l6.79-1.61v-6.619H532.28v-36.794h107.077v36.794h-24.169v6.384
						l7.5,1.332V497.451z M577.425,475.993h16.706c-0.252-1.183-0.4-2.492-0.4-3.938V449.1l0.367-1.369
						c0.176-0.646,0.373-1.255,0.575-1.819h-17.402c0.505,1.501,0.762,3.047,0.762,4.608v23.857L577.425,475.993z"/>
				</g>
				<g>
					<path fill="#C5B280" d="M697.472,497.451h-71.949v-29.172h8.219v-13.403c-0.23-0.164-0.433-0.289-0.636-0.416
						c-0.642-0.372-1.194-0.685-1.655-0.915l-5.928-2.964v-26.126h71.949v26.454l-6.356,2.839c-0.399,0.175-0.849,0.422-1.358,0.723
						c-0.165,0.1-0.334,0.203-0.499,0.312v13.496h8.214V497.451z M654.93,475.993h13.134c-0.191-0.92-0.263-1.774-0.263-2.515
						l0.055-23.079c0.159-1.55,0.559-3.052,1.205-4.487h-15.216c0.51,1.09,0.888,2.22,1.129,3.37l0.225,2.191v22.005
						C655.198,474.223,655.127,475.073,654.93,475.993z"/>
				</g>
				<g>
					<path fill="#C5B280" d="M789.996,497.451h-32.472l-11.829-7.984v7.984h-62.064v-29.172h8.219v-13.403
						c-0.23-0.164-0.433-0.289-0.636-0.416c-0.641-0.372-1.194-0.685-1.655-0.915l-5.928-2.964v-26.126h40.738l11.42,7.857v-7.857
						h62.306v26.477l-6.385,2.827c-0.334,0.147-0.695,0.356-1.101,0.607c-0.196,0.121-0.405,0.264-0.613,0.417V497.451z
						 M764.089,475.993h4.449l0.066-25.691c0.164-1.513,0.574-2.981,1.228-4.39h-12.586v25.463L764.089,475.993z M713.038,475.993
						h11.199v-25.588l-6.531-4.493h-5.752c0.509,1.09,0.887,2.22,1.128,3.37l0.225,2.191v22.005
						C713.307,474.223,713.235,475.073,713.038,475.993z"/>
				</g>
				<g>
					<path fill="#C5B280" d="M862.383,497.451h-76.814v-35.556h0.844c-0.202-0.499-0.394-1.009-0.569-1.523
						c-1.052-3.073-1.59-6.202-1.59-9.276c0-3.282,0.646-6.537,1.912-9.688c1.179-2.926,2.833-5.655,4.909-8.07
						c2.083-2.418,4.478-4.434,7.118-5.979c3.287-1.929,6.854-2.904,10.602-2.904h74.8v35.654h-0.598
						c0.1,0.23,0.202,0.46,0.302,0.695c1.386,3.327,2.083,6.784,2.083,10.296c0,2.171-0.396,4.575-1.206,7.364
						c-0.773,2.69-1.946,5.32-3.469,7.809c-1.753,2.843-3.95,5.276-6.553,7.243C870.789,496.081,866.706,497.451,862.383,497.451z
						 M850.679,475.993h10.997c0.285-0.273,0.521-0.585,0.745-0.941c0.516-0.85,0.9-1.693,1.146-2.554
						c0.181-0.613,0.322-1.123,0.36-1.557c-0.005-0.525-0.142-1.166-0.427-1.863c-0.434-1.034-0.953-1.922-1.578-2.689
						c-0.41-0.498-0.827-0.915-1.249-1.233h-11.162c1.024,2.11,1.572,4.543,1.572,7.185
						C851.084,473.61,850.948,474.832,850.679,475.993z M808.455,456.843h11.534c-1.008-2.127-1.556-4.581-1.556-7.277
						c0-1.271,0.131-2.492,0.384-3.654h-10.023c-0.355,0.312-0.908,0.784-1.445,1.408c-0.548,0.642-0.965,1.32-1.277,2.094
						c-0.245,0.618-0.361,1.161-0.361,1.682c0,0.707,0.147,1.49,0.434,2.328c0.295,0.871,0.679,1.606,1.179,2.253
						C807.678,456.147,808.055,456.531,808.455,456.843z"/>
				</g>
			</g>
			<g>
				<g>
					<path fill="#FFFFFF" d="M351.248,491.012h-82.486v-21.589l3.292-0.789c2.08-0.492,3.707-1.09,4.836-1.77
						c0.044-0.033,0.109-0.126,0.151-0.356c-2.039-0.395-4.208-0.597-6.45-0.597h-5.292c-4.16,0-6.636,0.213-8.087,0.434
						c0.405,0.427,0.794,0.717,1.213,0.963c0.55,0.329,1.544,0.844,3.254,1.475l2.809,1.036v21.193h-60.75v-22.125l3.909-0.351
						c2.102-0.187,3.879-0.417,5.339-0.696c1.162-0.225,2.104-0.521,2.798-0.883c0.572-0.29,1.03-0.657,1.422-1.128
						c0.329-0.395,0.835-1.146,1.413-2.531l27.43-62.673h61.098l28.946,61.435c0.271,0.536,0.634,1.418,1.022,2.542
						c0.019,0.055,0.167,0.411,0.817,1.035c0.298,0.291,1.08,0.898,2.822,1.622c0.948,0.39,2.838,0.904,6.452,1.112l4.041,0.235
						V491.012z M277.342,482.432h65.325v-5.896c-2.041-0.307-3.762-0.756-5.199-1.354c-2.348-0.97-4.146-2.07-5.485-3.358
						c-1.438-1.387-2.433-2.865-2.973-4.405c-0.238-0.696-0.447-1.228-0.635-1.611l-26.667-56.602h-50.046l-25.147,57.462
						c-0.778,1.869-1.677,3.419-2.718,4.657c-1.12,1.349-2.493,2.45-4.071,3.261c-1.43,0.745-3.112,1.299-5.124,1.682
						c-0.698,0.132-1.46,0.258-2.282,0.373v5.792h43.588v-6.763c-0.696-0.322-1.326-0.656-1.888-0.997
						c-1.348-0.8-2.605-1.835-3.718-3.067c-1.531-1.705-2.333-3.798-2.333-6.056c0-3.786,2.473-6.569,6.619-7.445
						c2.441-0.521,5.945-0.773,10.712-0.773h5.292c2.794,0,5.521,0.252,8.099,0.757c6.29,1.228,6.97,5.314,6.97,7.014v0.903
						c0,3.622-1.548,6.542-4.356,8.219c-1.14,0.686-2.452,1.288-3.962,1.809V482.432z M284.438,455.171h-32.293l10.151-23.396
						h10.797L284.438,455.171z M265.225,446.591h5.516l-2.913-6.006L265.225,446.591z"/>
				</g>
				<g>
					<path fill="#FFFFFF" d="M426.314,491.012h-50.371c-4.043,0-7.247-0.466-9.789-1.419c-2.606-0.981-4.712-2.285-6.263-3.874
						c-1.652-1.698-2.737-3.556-3.233-5.518c-0.406-1.589-0.606-3.014-0.606-4.34v-24.049c-0.155-0.548-0.556-1.15-1.194-1.786
						c-1.027-1.035-1.997-1.771-2.893-2.192l-2.465-1.161v-15.78h49.309v41.703c0.285,0.082,0.594,0.12,0.947,0.12l0.998-0.082
						c0.471-0.038,0.961-0.137,1.487-0.301c0.249-0.077,0.491-0.159,0.727-0.258v-41.183h49.429v15.852l-2.553,1.129
						c-0.565,0.252-1.184,0.592-1.869,1.014c-0.689,0.428-1.387,0.932-2.06,1.495c-0.604,0.504-1.113,1.025-1.507,1.529
						l-0.109,23.857c0,2.065-0.685,4.136-2.038,6.147c-1.113,1.66-2.507,3.167-4.151,4.487c-1.605,1.282-3.419,2.362-5.394,3.211
						C430.542,490.546,428.395,491.012,426.314,491.012z M358.081,441.523c0.97,0.685,1.926,1.506,2.866,2.449
						c2.025,2.038,3.25,4.301,3.636,6.74l0.052,0.668v24.481c0,0.405,0.06,1.118,0.342,2.22c0.126,0.498,0.493,1.062,1.065,1.648
						c0.649,0.669,1.737,1.305,3.135,1.83c1.055,0.396,3.087,0.872,6.767,0.872h50.371c0.913,0,1.927-0.236,3.014-0.702
						c1.264-0.543,2.414-1.228,3.414-2.026c0.972-0.778,1.759-1.622,2.395-2.57c0.523-0.778,0.581-1.216,0.581-1.364v-24.296
						c0.192-1.973,0.831-3.44,1.926-4.838c0.751-0.971,1.683-1.923,2.756-2.827c1.003-0.839,2.02-1.573,3.055-2.22
						c0.12-0.071,0.241-0.147,0.362-0.219v-1.896h-32.269l-0.09,35.073c-0.411,1.972-1.65,3.621-3.482,4.641
						c-1.05,0.57-2.124,1.02-3.222,1.354c-1.107,0.34-2.219,0.559-3.288,0.646c-0.929,0.077-1.507,0.11-1.71,0.11
						c-2.096,0-4.03-0.493-5.748-1.468c-2.4-1.354-3.78-3.634-3.78-6.253v-34.103h-32.147V441.523z"/>
				</g>
				<g>
					<path fill="#FFFFFF" d="M523.124,491.012h-70.377v-22.679h6.773c-1.239-1.02-2.379-2.209-3.393-3.54
						c-1.474-1.928-2.636-4.114-3.452-6.504c-0.827-2.405-1.244-4.827-1.244-7.194c0-2.449,0.488-4.898,1.447-7.276
						c0.915-2.285,2.203-4.405,3.818-6.291c1.616-1.874,3.463-3.43,5.49-4.618c2.285-1.337,4.762-2.017,7.349-2.017h68.36v22.777
						h-6.794c1.139,0.938,2.213,2.017,3.21,3.238c1.524,1.874,2.795,4.022,3.786,6.384c1.053,2.526,1.584,5.15,1.584,7.808
						c0,1.551-0.307,3.376-0.948,5.573c-0.619,2.137-1.55,4.24-2.778,6.24c-1.32,2.148-2.985,3.983-4.947,5.469
						C528.724,490.125,526.066,491.012,523.124,491.012z M461.328,482.432h61.796c1.047,0,1.907-0.285,2.696-0.888
						c1.14-0.86,2.055-1.874,2.821-3.123c0.821-1.337,1.447-2.729,1.853-4.138c0.526-1.824,0.608-2.777,0.608-3.184
						c0-1.539-0.303-3.013-0.921-4.498c-0.669-1.6-1.523-3.041-2.526-4.274c-0.964-1.178-2.022-2.142-3.134-2.844
						c-0.778-0.492-1.485-0.767-1.989-0.767h-27.867c-5.585,0-9.053-3.508-9.053-9.151c0-4.563,2.516-6.574,4.011-7.364
						c1.803-0.947,4.033-1.401,6.827-1.401h20.247l5.715,4.29h6.904v-5.616h-59.78c-1.058,0-2.044,0.273-3.009,0.844
						c-1.211,0.706-2.328,1.654-3.32,2.811c-1.003,1.161-1.797,2.471-2.366,3.89c-0.56,1.382-0.828,2.713-0.828,4.077
						c0,1.42,0.264,2.904,0.784,4.417c0.515,1.512,1.238,2.882,2.147,4.076c0.894,1.161,1.918,2.125,3.053,2.866
						c0.854,0.569,1.677,0.827,2.592,0.827h26.552c2.904,0.191,4.953,0.733,6.569,1.682c1.688,0.997,3.678,3.074,3.678,7.376
						c0,3.501-1.693,6.224-4.646,7.474c-1.901,0.806-4.159,1.194-6.91,1.194h-20.12l-5.479-4.094h-6.903V482.432z M476.561,472.427
						h17.271c1.343,0,2.269-0.138,2.899-0.297c-0.4-0.104-1.003-0.219-1.886-0.279l-19.04,0.011L476.561,472.427z M494.274,450.125
						c0.094,0,0.226,0.011,0.391,0.011h20.174l-1.003-0.756H496.45c-1.079,0-1.785,0.104-2.229,0.208
						c0,0.247,0.011,0.416,0.022,0.537C494.253,450.125,494.265,450.125,494.274,450.125z"/>
				</g>
				<g>
					<path fill="#FFFFFF" d="M616.251,491.012h-60.025v-16.448l3.298-0.784c0.948-0.225,1.765-0.625,2.487-1.228
						c0.433-0.351,0.768-0.718,1.003-1.09V450.52c-0.214-0.269-0.405-0.543-0.631-0.783c-0.131-0.143-0.268-0.263-0.405-0.356
						h-0.597c-0.065,0.071-0.126,0.152-0.181,0.235l-1.156,1.704c-0.504,0.772-1.036,1.463-1.562,2.05l-1.276,1.44h-18.486v-23.917
						h94.2v23.917h-18.46l-1.282-1.419c-0.536-0.597-1.068-1.294-1.6-2.109l-1.106-1.628c-0.061-0.088-0.126-0.17-0.187-0.246
						l-0.104,0.006l-1.266,1.326c-0.061,0.125-0.115,0.268-0.164,0.41v20.904c0,0.285,0.017,0.492,0.038,0.636
						c0.668,0.284,1.868,0.673,3.923,1.041l3.54,0.63V491.012z M564.806,482.432h42.864v-1.058
						c-1.281-0.373-2.378-0.801-3.303-1.288c-1.562-0.811-4.198-2.947-4.198-8.032l0.148-22.651c0.213-0.801,0.471-1.524,0.75-2.148
						l0.888-2.077l4.877-4.213l3.88-0.159c0.005,0,0.011,0,0.016,0c1.775,0,3.287,0.536,4.559,1.551
						c0.877,0.706,1.622,1.512,2.235,2.405c0.324,0.46,0.658,0.953,1.003,1.468h5.814v-6.755h-77.04v6.755h5.824
						c0.351-0.525,0.685-1.024,1.024-1.507c0.598-0.871,1.348-1.682,2.203-2.366c1.276-1.02,2.8-1.556,4.405-1.556h1.786
						c1.173,0,2.335,0.34,3.562,1.046c0.898,0.51,1.753,1.188,2.531,2.011c0.75,0.801,1.392,1.704,1.918,2.696
						c0.689,1.292,1.04,2.63,1.04,3.967l-0.273,23.419c-0.739,1.979-2.032,3.736-3.841,5.232c-0.833,0.685-1.726,1.271-2.674,1.753
						V482.432z"/>
				</g>
				<g>
					<path fill="#FFFFFF" d="M691.033,491.012H631.96v-16.296h4.235c-0.032-0.011,0.187-0.065,0.604-0.24
						c0.685-0.285,1.342-0.642,1.983-1.059c0.51-0.334,0.975-0.685,1.396-1.046v-20.22c-0.049-0.081-0.12-0.19-0.224-0.328
						c-0.384-0.487-0.871-0.97-1.436-1.419c-0.686-0.553-1.393-1.041-2.132-1.479c-0.8-0.477-1.49-0.854-2.055-1.14l-2.373-1.184
						v-15.709h59.073v15.841l-2.542,1.134c-0.587,0.264-1.255,0.62-2.006,1.058c-0.734,0.438-1.44,0.927-2.115,1.469
						c-0.575,0.454-1.058,0.931-1.457,1.44l-0.088,20.608c0.378,0.335,0.789,0.636,1.271,0.937c0.679,0.422,1.375,0.795,2.081,1.086
						c0.526,0.224,0.746,0.262,0.751,0.262h4.29l-0.186,4.28V491.012z M640.541,482.432l41.912-0.226
						c-0.965-0.427-1.94-0.948-2.922-1.556c-1.211-0.768-2.246-1.578-3.09-2.422c-1.457-1.446-2.202-3.053-2.202-4.751v-22.005
						c0.18-1.999,0.816-3.507,1.912-4.92c0.827-1.052,1.792-2.017,2.871-2.871c0.97-0.778,2.005-1.497,3.095-2.143
						c0.11-0.065,0.226-0.132,0.336-0.192v-1.873h-41.912v1.938c0.071,0.039,0.143,0.083,0.214,0.127
						c1.096,0.646,2.131,1.364,3.123,2.158c1.074,0.855,2.033,1.814,2.838,2.844c1.009,1.293,1.66,2.657,1.956,4.056l0.088,0.876
						v22.005c0,1.743-0.8,3.375-2.372,4.85c-0.833,0.783-1.803,1.545-2.899,2.269c-0.964,0.63-1.95,1.167-2.947,1.61V482.432z"/>
				</g>
				<g>
					<path fill="#FFFFFF" d="M783.557,491.012h-24.059l-20.241-13.655v13.655h-49.188v-16.296h4.235
						c-0.032-0.011,0.187-0.065,0.604-0.24c0.685-0.285,1.342-0.642,1.983-1.059c0.51-0.334,0.975-0.685,1.396-1.046v-20.22
						c-0.049-0.081-0.12-0.19-0.224-0.334c-0.384-0.481-0.871-0.964-1.436-1.413c-0.686-0.553-1.393-1.041-2.132-1.479
						c-0.8-0.477-1.49-0.854-2.055-1.14l-2.373-1.184v-15.709h32.302l19.856,13.66v-13.66h49.429v15.852l-2.553,1.129
						c-0.564,0.252-1.184,0.592-1.868,1.014c-0.69,0.428-1.387,0.932-2.06,1.495c-0.604,0.504-1.114,1.025-1.508,1.529
						L783.557,491.012z M762.122,482.432h12.854v-30.959c0.192-1.973,0.834-3.44,1.93-4.838c0.751-0.971,1.683-1.923,2.756-2.827
						c1.003-0.839,2.018-1.573,3.052-2.22c0.12-0.071,0.241-0.147,0.362-0.219v-1.896h-32.269v21.396l-31.1-21.396h-21.058v1.938
						c0.071,0.039,0.143,0.083,0.214,0.127c1.096,0.646,2.131,1.364,3.123,2.158c1.074,0.855,2.033,1.814,2.838,2.844
						c1.009,1.293,1.66,2.657,1.956,4.056l0.088,0.876v22.005c0,1.743-0.8,3.375-2.372,4.85c-0.833,0.783-1.803,1.545-2.899,2.269
						c-0.964,0.63-1.95,1.167-2.947,1.61v0.226h32.026v-21.217L762.122,482.432z"/>
				</g>
				<g>
					<path fill="#FFFFFF" d="M862.383,491.012h-70.377v-22.679h6.773c-1.239-1.02-2.379-2.209-3.392-3.54
						c-1.474-1.928-2.636-4.114-3.453-6.504c-0.827-2.405-1.244-4.827-1.244-7.194c0-2.449,0.488-4.898,1.448-7.276
						c0.915-2.285,2.202-4.405,3.818-6.291c1.616-1.874,3.463-3.43,5.489-4.618c2.285-1.337,4.762-2.017,7.348-2.017h68.362v22.777
						h-6.796c1.141,0.938,2.214,2.017,3.212,3.238c1.522,1.874,2.794,4.022,3.785,6.384c1.053,2.526,1.584,5.15,1.584,7.808
						c0,1.551-0.307,3.376-0.948,5.573c-0.619,2.137-1.551,4.24-2.778,6.24c-1.32,2.148-2.986,3.983-4.946,5.469
						C867.983,490.125,865.326,491.012,862.383,491.012z M800.588,482.432h61.795c1.047,0,1.907-0.285,2.696-0.888
						c1.141-0.86,2.054-1.874,2.821-3.123c0.822-1.337,1.446-2.729,1.854-4.138c0.525-1.824,0.606-2.777,0.606-3.184
						c0-1.539-0.301-3.013-0.92-4.498c-0.668-1.6-1.523-3.041-2.526-4.274c-0.964-1.178-2.021-2.142-3.134-2.844
						c-0.777-0.492-1.485-0.767-1.988-0.767h-27.869c-5.584,0-9.052-3.508-9.052-9.151c0-4.563,2.515-6.574,4.011-7.364
						c1.804-0.947,4.034-1.401,6.828-1.401h20.246l5.715,4.29h6.904v-5.616h-59.781c-1.057,0-2.043,0.273-3.008,0.844
						c-1.211,0.706-2.327,1.654-3.32,2.811c-1.003,1.161-1.797,2.471-2.366,3.89c-0.559,1.382-0.827,2.713-0.827,4.077
						c0,1.42,0.264,2.904,0.783,4.417c0.516,1.512,1.238,2.882,2.147,4.076c0.894,1.161,1.919,2.125,3.052,2.866
						c0.855,0.569,1.677,0.827,2.593,0.827h26.552c2.904,0.191,4.954,0.733,6.57,1.682c1.688,0.997,3.677,3.074,3.677,7.376
						c0,3.501-1.692,6.224-4.646,7.474c-1.9,0.806-4.159,1.194-6.909,1.194h-20.12l-5.48-4.094h-6.902V482.432z M815.819,472.427
						h17.271c1.342,0,2.269-0.138,2.898-0.297c-0.4-0.104-1.004-0.219-1.886-0.279l-19.04,0.011L815.819,472.427z M833.534,450.125
						c0.093,0,0.226,0.011,0.389,0.011h20.176l-1.003-0.756H835.71c-1.08,0-1.787,0.104-2.23,0.208c0,0.247,0.011,0.416,0.021,0.537
						C833.513,450.125,833.522,450.125,833.534,450.125z"/>
				</g>
			</g>
			<g>
				<g>
					<path d="M213.793,472.054c1.573-0.302,2.899-0.729,3.973-1.289c1.069-0.547,1.984-1.281,2.74-2.191
						c0.756-0.903,1.446-2.115,2.077-3.627l26.273-60.031h55.571l27.786,58.974c0.251,0.505,0.537,1.212,0.849,2.115
						c0.318,0.909,0.948,1.813,1.891,2.724c0.947,0.909,2.334,1.736,4.159,2.492c1.824,0.757,4.443,1.239,7.847,1.437v14.065
						h-73.906V472.81c2.521-0.604,4.537-1.359,6.049-2.269c1.512-0.904,2.269-2.417,2.269-4.537v-0.903
						c0-1.414-1.167-2.346-3.501-2.801c-2.329-0.454-4.756-0.68-7.277-0.68h-5.292c-4.411,0-7.688,0.226-9.825,0.68
						c-2.147,0.455-3.216,1.539-3.216,3.249c0,1.212,0.411,2.269,1.228,3.179c0.821,0.909,1.73,1.665,2.745,2.269
						c1.003,0.603,2.329,1.21,3.967,1.813v13.912h-52.168V472.81C210.297,472.607,212.215,472.356,213.793,472.054z
						 M265.112,436.065l-6.427,14.816h18.904l-7.183-14.816H265.112z"/>
				</g>
				<g>
					<path d="M394.518,473.577c0,1.079,0.537,1.919,1.606,2.521c1.074,0.608,2.285,0.91,3.632,0.91c0.16,0,0.614-0.033,1.37-0.099
						c0.756-0.061,1.551-0.22,2.384-0.478c0.833-0.252,1.628-0.586,2.384-0.996c0.75-0.417,1.206-1.003,1.364-1.765v-38.487h40.849
						v8.767c-0.718,0.318-1.513,0.746-2.384,1.282c-0.871,0.543-1.726,1.162-2.559,1.857c-0.833,0.701-1.551,1.431-2.143,2.192
						c-0.597,0.761-0.937,1.496-1.013,2.191v24.296c0,1.205-0.438,2.46-1.311,3.759c-0.876,1.304-1.966,2.477-3.276,3.528
						c-1.31,1.047-2.778,1.918-4.406,2.619c-1.627,0.695-3.194,1.047-4.702,1.047h-50.371c-3.496,0-6.252-0.384-8.279-1.146
						c-2.022-0.762-3.59-1.715-4.702-2.854c-1.112-1.146-1.831-2.334-2.143-3.573c-0.317-1.237-0.477-2.333-0.477-3.287V451.38
						c-0.241-1.523-1.052-2.986-2.443-4.384c-1.387-1.397-2.757-2.41-4.11-3.047v-8.767h40.728V473.577z"/>
				</g>
				<g>
					<path d="M468.589,467.572c-1.748,0-3.398-0.504-4.943-1.523c-1.55-1.014-2.92-2.301-4.109-3.857
						c-1.189-1.556-2.126-3.314-2.8-5.288c-0.674-1.967-1.014-3.907-1.014-5.808c0-1.907,0.378-3.797,1.135-5.671
						c0.75-1.874,1.786-3.573,3.096-5.096c1.31-1.523,2.777-2.762,4.404-3.716c1.629-0.953,3.354-1.43,5.179-1.43h64.07v14.197
						h-12.625l-5.715-4.29H496.45c-2.065,0-3.671,0.301-4.821,0.903c-1.151,0.608-1.726,1.797-1.726,3.572
						c0,3.239,1.583,4.86,4.762,4.86h27.867c1.348,0,2.778,0.478,4.284,1.431c1.508,0.953,2.899,2.208,4.171,3.764
						c1.266,1.557,2.317,3.332,3.156,5.332c0.833,2,1.249,4.049,1.249,6.147c0,1.14-0.264,2.604-0.778,4.379
						c-0.515,1.78-1.288,3.512-2.317,5.194c-1.036,1.682-2.324,3.111-3.874,4.285c-1.546,1.178-3.315,1.764-5.299,1.764h-66.087
						v-14.099h12.619l5.479,4.094h18.695c2.143,0,3.891-0.286,5.238-0.855s2.028-1.747,2.028-3.522c0-1.842-0.521-3.063-1.552-3.672
						c-1.029-0.603-2.498-0.965-4.405-1.096H468.589z"/>
				</g>
				<g>
					<path d="M560.516,477.955c1.588-0.377,2.997-1.074,4.229-2.093c1.228-1.014,2.082-2.158,2.559-3.43V450.52
						c0-0.63-0.181-1.282-0.537-1.95c-0.356-0.669-0.772-1.256-1.249-1.765c-0.477-0.504-0.991-0.921-1.551-1.238
						c-0.553-0.318-1.03-0.477-1.425-0.477h-1.786c-0.635,0-1.211,0.208-1.726,0.619c-0.521,0.416-0.976,0.903-1.37,1.479
						c-0.4,0.569-0.795,1.155-1.194,1.759c-0.395,0.607-0.795,1.128-1.188,1.572h-12.269v-15.337h85.62v15.337h-12.263
						c-0.4-0.444-0.795-0.965-1.188-1.572c-0.4-0.604-0.795-1.189-1.195-1.759c-0.395-0.576-0.854-1.063-1.369-1.479
						c-0.516-0.411-1.091-0.619-1.727-0.619l-2.384,0.098l-2.975,2.57c-0.159,0.384-0.34,0.795-0.538,1.239
						c-0.196,0.443-0.377,0.952-0.531,1.522v21.534c0,2.158,0.631,3.572,1.901,4.235c1.271,0.668,3.135,1.228,5.601,1.665v8.768
						h-51.445V477.955z"/>
				</g>
				<g>
					<path d="M686.743,479.007v7.715h-50.492v-7.715c0.559,0,1.292-0.192,2.208-0.575c0.909-0.378,1.803-0.854,2.674-1.425
						c0.877-0.576,1.649-1.178,2.323-1.814c0.674-0.629,1.014-1.205,1.014-1.715v-22.005c-0.159-0.761-0.537-1.523-1.129-2.285
						c-0.598-0.761-1.315-1.479-2.147-2.142c-0.833-0.668-1.704-1.271-2.619-1.814c-0.91-0.536-1.688-0.964-2.323-1.282v-8.767
						h50.492v8.767c-0.713,0.318-1.529,0.746-2.439,1.282c-0.914,0.543-1.785,1.146-2.619,1.814
						c-0.838,0.663-1.55,1.381-2.147,2.142c-0.591,0.762-0.932,1.524-1.008,2.285v22.005c0,0.51,0.312,1.086,0.948,1.715
						c0.635,0.637,1.413,1.238,2.322,1.814c0.915,0.57,1.825,1.047,2.74,1.425C685.45,478.815,686.189,479.007,686.743,479.007z"/>
				</g>
				<g>
					<path d="M746.517,435.183h40.849v8.767c-0.718,0.318-1.513,0.746-2.383,1.282c-0.872,0.543-1.728,1.162-2.56,1.857
						c-0.832,0.701-1.55,1.431-2.143,2.192c-0.598,0.761-0.937,1.496-1.013,2.191v35.249h-18.461l-25.84-17.436v17.436h-40.607
						v-7.715c0.559,0,1.292-0.192,2.208-0.575c0.909-0.378,1.803-0.854,2.674-1.425c0.877-0.576,1.649-1.178,2.323-1.814
						c0.674-0.629,1.014-1.205,1.014-1.715v-22.005c-0.159-0.761-0.537-1.523-1.129-2.285c-0.598-0.761-1.315-1.479-2.147-2.142
						c-0.833-0.668-1.704-1.271-2.619-1.814c-0.91-0.536-1.688-0.964-2.323-1.282v-8.767h26.679l25.479,17.528V435.183z"/>
				</g>
				<g>
					<path d="M807.848,467.572c-1.748,0-3.398-0.504-4.943-1.523c-1.55-1.014-2.92-2.301-4.109-3.857
						c-1.188-1.556-2.125-3.314-2.8-5.288c-0.674-1.967-1.013-3.907-1.013-5.808c0-1.907,0.377-3.797,1.134-5.671
						c0.751-1.874,1.786-3.573,3.096-5.096c1.31-1.523,2.777-2.762,4.405-3.716c1.627-0.953,3.354-1.43,5.177-1.43h64.072v14.197
						H860.24l-5.715-4.29H835.71c-2.066,0-3.671,0.301-4.822,0.903c-1.15,0.608-1.727,1.797-1.727,3.572
						c0,3.239,1.584,4.86,4.762,4.86h27.869c1.347,0,2.778,0.478,4.283,1.431c1.508,0.953,2.899,2.208,4.172,3.764
						c1.266,1.557,2.315,3.332,3.154,5.332c0.833,2,1.25,4.049,1.25,6.147c0,1.14-0.264,2.604-0.778,4.379
						c-0.515,1.78-1.287,3.512-2.317,5.194c-1.036,1.682-2.323,3.111-3.873,4.285c-1.546,1.178-3.316,1.764-5.3,1.764h-66.087
						v-14.099h12.619l5.479,4.094h18.696c2.143,0,3.89-0.286,5.238-0.855c1.347-0.569,2.027-1.747,2.027-3.522
						c0-1.842-0.52-3.063-1.551-3.672c-1.03-0.603-2.498-0.965-4.406-1.096H807.848z"/>
				</g>
			</g>
		</g>
	</g>
</g>
</svg>
