<?xml version="1.0" encoding="utf-8"?>
<!-- Generator: Adobe Illustrator 16.0.4, SVG Export Plug-In . SVG Version: 6.00 Build 0)  -->
<!DOCTYPE svg PUBLIC "-//W3C//DTD SVG 1.1//EN" "http://www.w3.org/Graphics/SVG/1.1/DTD/svg11.dtd">
<svg version="1.1" xmlns="http://www.w3.org/2000/svg" xmlns:xlink="http://www.w3.org/1999/xlink" x="0px" y="0px" viewBox="0 0 640.331 591" enable-background="new 0 0 640.331 591" xml:space="preserve">
<g id="grey_underlay">
	<path fill="#CECECC" d="M626.251,216.333c-14.859,34.98-35.667,46.333-35.667,46.333c0,28-17,91.333-17,91.333l7.334,22.666
		c-30.333,144.667-98.334,211.667-98.334,211.667L437.251,589l-18.667-42.334C381.584,569,316.918,591,316.918,591
		C-6.749,502.995,35.585,256,35.585,256C-64.082,134.333,77.251,28.333,77.251,28.333c246,59,488.667,5,488.667,5
		C613.252,67.667,627.584,129,627.584,129S644.251,173.961,626.251,216.333z"/>
</g>
<g id="Black_UNderlay">
	<path d="M581.917,259.333c-0.667,58.333-16.999,97.333-16.999,97.333c1,1.667,6,19.667,6,19.667c-23,123.334-93.667,203-93.667,203
		h-33l-22-48c-44,28.667-106,48-106,48c-305.377-86.516-270.5-332-270.5-332c-41-42-34.5-81.5-34.5-81.5c18,55,75.5,81.5,75.5,81.5
		c-6.5-21.5-1.5-52.5-1.5-52.5c35.209-12.777,164.5-21,164.5-21l2-8.5c-117,8.5-173.5,22-173.5,22c-3,1-3,40-3,40
		c-127-82.5,4-190.5,4-190.5c252,54,483.334,5.833,483.334,5.833c67.762,60.792,68.29,133.309,52.669,175.667
		C603.98,248.903,581.917,259.333,581.917,259.333z"/>
</g>
<g id="AVENGERS">
	<g>
		<g>
			<path fill="#FFFFFF" stroke="#553892" stroke-width="6" d="M118.037,57.517c-26.959,35.579-32.794,68.781-7.926,107.502
				c-7.554,0.877-11.342,1.334-18.945,2.285c-5.996-7.818-10.604-16.677-13.385-26.134c-9.344,0.61-18.685,1.256-28.024,1.936
				c-5.881,21.353,16.663,67.605,18.869,71.353c1.791,3.042-23.375-14.625-35.412-42.483C17.515,119.327,44.918,77.667,82.418,46.5
				C89.251,48.333,111.751,55.667,118.037,57.517z M93.584,71.167c-0.172-0.017-12.828-2.15-13-2.167
				c-16.167,15.333-24.333,32.333-31,52.075c8.052-0.231,17.089-0.342,25.181-0.555C74.301,102.952,84.838,85.668,93.584,71.167z"/>
			<path fill="#FFFFFF" stroke="#553892" stroke-width="6" d="M124.392,163.412c-22.903-35.403-22.083-70.736,3.949-104.451
				c6.153,0.844,12.243,1.729,18.286,2.498c-9.94,16.018-15.891,30.378-18.25,49.125c-0.75,7.75,2.901,14.038,3.5,17.5
				c0.199-0.006,5.44-0.463,5.639-0.47c1.643-6.709,2.611-12.28,4.986-17.78c7.5-15.5,14.751-31.533,28.731-45.614
				c5.945,0.636,8.917,0.937,14.905,1.51c-25.043,27.862-38.715,56.141-32.886,95.354
				C144.912,161.901,132.776,162.498,124.392,163.412z"/>
			<path fill="#FFFFFF" stroke="#553892" stroke-width="6" d="M192.89,66.358c16.035,1.449,32.095,2.609,48.167,3.54
				c-1.032,5.271-1.503,7.797-2.268,12.996c-12.021-0.5-24.041-1.064-36.055-1.705c-2.233,6.431-3.2,9.714-4.655,16.774
				c10.726,0.177,16.099,0.259,26.865,0.413c-0.569,5.774-0.705,8.644-1.603,14.916c-11.104,0.043-16.675,0.072-27.829,0.141
				c-1.425,8.273-1.869,13.351-0.979,23.421c14.515-0.431,29.029-0.782,43.548-1.048c0.413,7.598,0.888,11.547,2.713,18.704
				c-20.343,0.912-40.649,2.143-60.954,3.677C169.933,126.049,176.29,95.264,192.89,66.358z"/>
			<path fill="#FFFFFF" stroke="#553892" stroke-width="6" d="M251.022,70.445c6.477,0.338,9.778,0.497,16.546,0.795
				c6.352,11.635,26.073,42.233,26.415,42.824c0.239,0,0.36,0.001,0.599,0.002c-0.101-3.488-1.094-31.07-1.036-41.826
				c7.003,0.234,10.589,0.343,17.969,0.548c-0.128,26.842,0.111,53.61,0.738,80.449c-6.296-0.039-9.438-0.04-15.712-0.012
				c-8.537-14.739-26.112-48.797-30.595-57.602c-0.235-0.004-0.352-0.006-0.587-0.01c0.119,2.064-0.173,43.201,1.546,58.04
				c-7.003,0.17-10.501,0.276-17.493,0.526C245.355,126.945,247.054,97.736,251.022,70.445z"/>
			<path fill="#FFFFFF" stroke="#553892" stroke-width="6" d="M321.151,97.713c0.115-6.003,0.403-14.01,9.095-20.463
				c6.38-4.737,13.706-5.468,21.408-5.521c13.039-0.089,27.522,7.369,30.361,21.098c-7.658-0.001-11.488-0.012-19.153-0.049
				c-0.808-5.845-5.03-8.565-11.41-8.585c-9.747-0.031-10.275,6.353-10.271,10.213c0.008,8.293-0.338,11.777-0.027,23.412
				c0.324,12.089,2.522,21.068,12.216,21.348c10.308,0.297,10.358-9.65,10.314-13.439c-0.033-2.807-0.055-4.184-0.118-6.794
				c-4.302-0.005-6.444-0.005-10.702,0c-0.16-6.301-0.525-8.844-0.322-13.529c10.217,0.032,20.435,0.063,30.651,0.085
				c1.025,17.168,0.565,34.348,0.009,51.523c-3.566-0.243-5.346-0.359-8.891-0.579c-0.963-2.402-1.444-3.72-2.426-6.462
				c-0.347-0.019-0.521-0.029-0.867-0.047c-2.661,3.148-6.872,7.188-20.52,6.603c-8.936-0.383-17.281-2.753-22.809-10.606
				c-5.348-7.599-6.65-17.789-6.544-27.087C320.915,108.792,321.01,105.063,321.151,97.713z"/>
			<path fill="#FFFFFF" stroke="#553892" stroke-width="6" d="M386.687,72.673c16.609-0.481,33.209-1.292,49.786-2.435
				c4.391,5.727,6.526,8.564,10.257,14.092c-12.542,0.417-25.086,0.749-37.633,0.983c2.498,5.997,3.57,8.901,4.893,14.687
				c9.552,0.004,19.104-0.014,28.656-0.039c1.93,5.085,2.444,6.545,2.809,13.155c-9.848-0.046-19.695-0.085-29.543-0.11
				c0.428,8.25,0.284,14.497-0.122,25.546c15.249,0.795,30.488,1.678,45.728,2.642c-0.593,9.689-1.042,14.769-1.77,21.861
				c-21.748-2.378-43.507-4.456-65.316-6.177C395.564,127.838,396.721,100.307,386.687,72.673z"/>
			<path fill="#FFFFFF" stroke="#553892" stroke-width="6" d="M489.486,166.61c-8.166-1.033-12.249-1.531-20.397-2.484
				c1.521-16.389,5.915-36.959,2.337-53.304c-3.518-16.067-15.261-28.881-25.363-41.275c9.482-0.719,14.229-1.12,23.867-2.006
				c20.773-2.229,34.492,4.317,48.163,18.068c7.615,7.659,12.142,24.232-0.863,25.94c10.268,18.696,14.238,41.138,19.481,61.512
				c-8.961-1.311-13.45-1.949-22.437-3.182c-4.491-18.575-7.982-37.104-14.761-55.021c-2.814-0.031-4.224-0.047-7.043-0.076
				C493.009,132.063,491.468,149.458,489.486,166.61z M489.194,102.398c11.552-0.046,13.343-0.048,15.733-0.878
				c5.299-1.84,2.839-6.083-0.839-10.54c-4.688-5.682-9.473-8.588-14.345-9.747c-3.757-0.894-6.024-0.735-16.068-0.231
				C481.429,89.993,484.904,94.443,489.194,102.398z"/>
		</g>
		<path fill="none" d="M610.209,192.667c-97.815-18-197.072-33.143-296.764-33.292c-92.605-0.138-184.426,11.7-275.403,28.189
			C0.534,133.543,33.73,82.243,78.792,45.547c161.135,28.146,319.211,27.739,480.963,5.364c17.637,15.31,42.341,34.176,50.95,56.994
			C619.972,132.467,612.602,167.313,610.209,192.667z"/>
	</g>
</g>
<g id="balck_behind_mask">
	<path d="M363.251,163.833c0,0-13-26.5-45-27c0,0-32.5,4-41,21.5l1,20.5l13.5,10.5l39.5,5l26.5-1l6.5-17L363.251,163.833z"/>
</g>
<g id="s">
	<path fill="#FFFFFF" stroke="#553892" stroke-width="6" d="M555.918,214c0-12.333,1.328-25.756-0.318-35.336
		c-1.4-8.146-2.778-16.278-4.974-25.268c0,0,19.188,25.25,26.444,29.197c4.715,2.564,11.767-0.313,14.436-5.604
		c3.397-6.737,3.588-15.072,3.758-22.459c0.17-7.382,0.123-16.305-7.946-19.712c-8.086-3.414-17.237,0.65-25.605-0.584
		c-8.029-1.185-14.305-6.136-18.727-12.781c-5.459-8.204-7.836-19.242-8.784-28.911c-1.023-10.43-2.561-23.015,5.242-31.457
		c5.887-6.368,17.009-6.399,24.386-2.434c3.779,2.032,7.146,4.751,9.56,7.627c1.99,2.375,6.164,13.457,7.274,15.936
		c-8.729-5.571-32.389-17.333-33.745,1.452c-0.537,7.439,3.42,24.43,9.666,29.333c7.411,5.818,15.523,5.472,24.402,4.683
		c9.432-0.837,19.202,0.068,23.967,9.367c4.739,9.252,5.029,21.637,3.965,31.617c-1.215,11.399-4.647,21.324-7.794,32.351
		c0,0-4.873,19.065-26.373,32.065S555.918,214.304,555.918,214z"/>
</g>
<g id="purple">
	<path fill="#553892" d="M640.331,144.774"/>
	<path fill="#553892" d="M58.751,258.833c0,0,40,24.5,42,24.5c0,0-7.5-41.5-6.5-69c0,0,91.5-19,155-20l-4,19l6,8l-13,14h-40
		c0,0-31.5,5-44,37c0,0-17.5,14-20.5,32.5c0,0-19,9.5-21,27.5l-15-12.5l-1,17.5l-21,4l12,16l-12.5,8.5
		C75.251,365.833,55.751,323.833,58.751,258.833z"/>
	<polygon fill="#553892" points="76.501,370.333 77.251,374.833 81.751,373.583 85.251,377.333 92.501,374.333 	"/>
	<path fill="#553892" d="M124.751,443.583c0,0,13.25,5.5,31,1.25l6.25,5l-11,23.25C151.001,473.083,126.751,446.833,124.751,443.583
		z"/>
	<path fill="#553892" d="M321.001,402.583l2.75,8.25c0,0-37.25-0.5-44.5,2.75c0,0,51.75,8.25,60.5,13.25l2,8
		c0,0-84.25-4.5-99.75,1.5c0,0,17.25-27.5,23.5-31.25L321.001,402.583z"/>
	<path fill="#553892" d="M340.751,498.333c0,0,55.25-12.25,60.25-12.25c0,0-49,13.75-50.75,14.75c0,0,4.5,47.25,6,48.25
		c0,0-8.25,2.5-9.25,3.75C347.001,552.833,341.001,506.333,340.751,498.333z"/>
	<path fill="#553892" d="M473.751,269.833l7.25,9.75c0,0-11.75,56.5-7.5,105.75c0,0,7.5,77.75,16.75,96.75
		c0,0,22.25-23.75,43.25-77.5c0,0-21.25,69.25-50.75,107.75C482.751,512.333,435.251,365,473.751,269.833z"/>
	<path fill="#553892" d="M476.751,233.333l-11.25-9.75c-8-2-28-1.75-28-1.75c-2.5,2.25-12,25.25-12,25.25
		c-10-6.75-33.75-4.25-33.75-4.25c-0.25-1.5-10.25-16-10.25-16l9-6.25l-3.25-10.25c-4.75-12.75,0.5-15.5,0.5-15.5
		c109.75,11,133.5,22.75,133.5,22.75l1.25,65C520.001,275.583,476.751,233.333,476.751,233.333z"/>
	<path fill="#553892" d="M526.501,284.833c0,0,36.5-16,42.25-21.25c0,0,1,42.5-13,74.25
		C555.751,337.833,540.251,303.083,526.501,284.833z"/>
</g>
<g id="grey">
	<path fill="#CECECC" d="M378.282,192.718l1.154-0.642c0.128-9.75-7.185-33.867-7.185-33.867l-1.796,0.77
		c-1.026,3.72-4.104,4.49-4.104,4.49c-12.571-31.43-48.749-30.147-48.749-30.147l3.208,81.205
		c16.934,1.283,34.637-13.213,34.637-13.213c1.411-1.539,4.105-1.155,4.105-1.155c6.799-0.642,18.73,14.368,18.73,14.368
		l0.897-0.128c-1.668-6.158-10.647-35.792-10.647-35.792C370.969,180.531,378.282,192.718,378.282,192.718z M329.661,188.1
		c-6.414,0.642-5.26-5.132-5.26-5.132c1.026-5.645,5.131-2.822,5.131-2.822C334.022,184.379,329.661,188.1,329.661,188.1z
		 M325.299,162.314c2.694-1.668,4.105,0.77,4.105,0.77c1.539,0.513,1.411,5.773,1.411,5.773c-1.411,3.207-5.003,0.77-5.003,0.77
		C322.477,165.522,325.299,162.314,325.299,162.314z M342.105,180.403c0,0-0.257,3.72-4.875,1.796c0,0-2.438-2.438-2.053-3.72
		c0.133-0.443-0.641-6.158,4.105-3.977C339.283,174.501,343.003,175.656,342.105,180.403z M325.428,152.308l-0.257-11.161
		c24.631,4.49,32.585,19.114,32.585,19.114c0.77,2.565,2.309,13.727,2.309,13.727C347.237,158.337,325.428,152.308,325.428,152.308z
		"/>
	<path fill="#CECECC" d="M360.934,213.545c0,0,7.342,16.204,16.373,23.8c0,0-35.447-8.271-49.542-8.102
		C327.765,229.244,352.157,218.947,360.934,213.545z"/>
	<path fill="#CECECC" d="M346.585,262.833c0,0,9.486,9.25,16.917,21s12.806,26,13.806,28.334c0,0,33.444-17.45,35.944-17.784
		l-9.199-34.05h-46.634L346.585,262.833z"/>
	<path fill="#CECECC" d="M292.876,256.458c0,0-6.25,4.25-6.875,5.75c0,0-10.625-3.375-16.25-1c0,0-19.125,5.75-24.375,14.375
		c0,0-13.75,2.125-14.875,3c0,0-4-4.75-5.375-5.75l4.25-5.625l18.125-9l15.375-2.125l13.75-1l10.375-0.25L292.876,256.458z"/>
	<path fill="#CECECC" d="M220.126,283.208v2.625c0,0-11.5,14.875-11.75,17.125c0,0-14.875-9-35.75-8l-0.625-1.375l0.125-6.375
		l3.125-9.125l10.25-8.375l6.75-0.5l4.625,0.25C196.876,269.458,212.376,273.333,220.126,283.208z"/>
	<path fill="#CECECC" d="M202.751,308.583c0,0,0.5,0.875-0.25,2.75c0,0-2,4.375-3,4.75c0,0-31,1-33.375,0.75
		c0,0-8.125,3.875-11.125,8.25l-2.25-0.375l3.875-10l3.625-4.25l3.75-3.875l4.75-3C168.751,303.583,190.126,301.708,202.751,308.583
		z"/>
	<path fill="#CECECC" d="M270.376,321.083c0,0-5,10.375-21.125,10.25c0,0-0.375,7.375,1,10.125c0,0,2.25,5.75,12.25,5.125
		c0,0,8.75-2.375,9.25-11.125C271.751,335.458,273.501,321.083,270.376,321.083z"/>
	<path fill="#CECECC" d="M280.876,315.958c0.37-0.062,17.25,1,22.5-8.875l0.875,0.125c0,0,3.5,15.875-0.75,24.5
		c0,0-7.125,13.25-23.375,12.875c0,0-3,0.75-1.25-1.5c0,0,5.457-6.965,3.125-15.125c-0.25-0.875-0.125-7.625-1.5-9.25
		C280.501,318.708,279.376,316.208,280.876,315.958z"/>
	<path fill="#CECECC" d="M311.376,305.708c0.551-0.321,11.375-0.25,17.875-7.875c0,0,1-2.125,2,0.625c0,0,3.75,17.625-2.75,27
		c0,0-14.5,15.25-15.625,4.25c0,0,0.25-16.625-1.5-19.75C311.376,309.958,309.876,306.583,311.376,305.708z"/>
	<path fill="#CECECC" d="M337.876,293.083c0,0,7.875-1,13.25-5c0,0,1.375-3.625,3.25,2.125c0,0,5.25,15.625-1.875,22.625
		c0,0-9.25,8.625-11,5.625c0,0-0.875-2.125-0.125-3.75c0,0,0-18.875-2.375-19.75C339.001,294.958,337.126,293.833,337.876,293.083z"
		/>
	<path fill="#CECECC" d="M601.001,218.333c0,0-18.25,22-63.25,41l1.75-50.25l0.25-10.75c-47-16.25-154.25-23.5-154.25-23.5
		c0-1.5-3.25-7.75-3.25-7.75c101.5,4.5,167,24.5,167,24.5l-2.25,48.75l0.5,4c0,0,20.25-7.25,25.5-12
		c0,0,35.646-19.666,50.614-68.333C623.616,164,623.084,193,601.001,218.333z"/>
	<g>
		<path fill="#CECECC" d="M558.585,382.667c0,0,2.595-41.04-64.667-121c-6.401-7.61-32.417-29.083-32.417-29.083s-33.5,50-27,167.25
			c0,0,5.75,98,40,159c0,0,33.418-36.499,54.084-87.166c0,0,23.333-49,30.333-85L558.585,382.667z M551.251,389
			c0,0-18.333,90-72.666,152.667c0,0-28.001-66.666-32.667-145.666c0,0-2.068-55.788,4.833-96.594
			c1.452-8.586,13.834-53.406,13.834-53.406S541.919,318,551.585,382C551.585,382,551.584,386.333,551.251,389z"/>
	</g>
	<path fill="#CECECC" d="M413.251,331.083l9,2.75c0,0,1.444-0.553,1.5-1c5.5-44,27-104.5,27-104.5l-8.5,0.75
		C440.001,230.333,415.043,303.024,413.251,331.083z"/>
	<path fill="#CECECC" d="M320.918,347.501l-44.667,14.333c-17.5,4.5-25.5-3.333-25.5-3.333
		c-0.833,1.001-101.667,41.999-101.667,41.999c-2.667,1.333-1.167,2.334-1.167,2.334l2.667,5.5c27.667,39,55,33.833,55,33.833
		c21.167-1.667,28.667-20.5,28.667-20.5c3.167-5.834,11-15,11-15c3.833-9.834,27.333-30.666,27.333-30.666
		c4.333-4.666,9.833-5.667,9.833-5.667c4.667-1,16.667-5.167,16.667-5.167C321.418,358.333,320.918,347.501,320.918,347.501z
		 M271.751,371c0,0-21.609,12.506-23.333,17.667c-0.167,0.5-22.667,29.334-23.333,32.167c0,0-10.167,15.5-23.333,15.5
		c0,0-26.333-2.832-39.5-19.333l12-0.834c0,0,17,7.834,32.833,0.667c0,0,12.666-10.667,19.333-20.667
		c0,0,15.833-21.501,38.333-26.667l7.667-0.166L271.751,371z"/>
	<path fill="#CECECC" d="M282.751,380.334c0,0,30.667-2.5,54.333-23.5c0,0,32.166-0.167,40-13.667c0,0,1.668-2,2.334-0.5
		c0,0,2.499,4.5,3.666,4.5c0,0,0.667,2.001-0.333,3.167c0,0-5.499,7.666,1.167,15.333c0,0,0.334-0.333-0.5,1.5c0,0-2.666,9-2,11.5
		l0.333,1.333c0,0-11.333-11-27.167-10c0,0-27.167,2.666-32,23.5l-51.667,1.167C270.918,394.667,281.418,380.334,282.751,380.334z"
		/>
	<path fill="#CECECC" d="M343.918,380.667c0,0,20.333-8.499,31.333,7.334c0,0,1.667,6.833-2,8.833c0,0-3.001,3.833-5.167,4.5
		c0,0-2.167-0.167,0,2.333c0,0,8.833,24.666,9,25.5c0,0-21.833,5.833-29.333,6l0.5-29.333l-5.667-2.333l-6.167-3l-2.333-4.834
		v-5.166l3.833-3.334l7-2L343.918,380.667z"/>
	<path fill="#CECECC" d="M316.585,450.667c0,0-25.5,16.333-10.167,31.5c0,0,6.833,6.5,15.333-3.5c0,0,4.833-5.833,5.333-8.833
		c0,0,75.666-14.334,78-14.667c0,0-1.667-19.167-1-19.667l-6.166,4.167l-44.5,8.167l-19.833,2.833c0,0-8.833,3.667-9.333,3.667
		s-5-0.834-5-0.834L316.585,450.667z"/>
	<path fill="#CECECC" d="M352.585,474.667l20.5-2.833c0,0,0.834,7.667,2.167,9c0,0-17.667,4.166-21,5.333l-1.667-0.5
		C352.585,485.667,351.252,475.667,352.585,474.667z"/>
	<path fill="#CECECC" d="M340.085,479.501v9.333c0,0-7,2.667-8.667,2.667c0,0,3.5,61,4.833,63.5c0,0-12.833,6.666-21.5,6.333
		c0,0-54.5-12.333-78.5-29.5c0,0-53.833-27.667-68.833-45.667l10.167-13.666l10.167-5.5l18.667-7.667l9.333-5.833c0,0,13-5,14.333-6
		c0,0,66-3.168,78.667-2.834c0,0-26.667,15.168-15.667,40.334c0,0,8,19.5,26.5,8.5c0,0,12.333-8.333,12.333-12.5L340.085,479.501z"
		/>
</g>
<g id="white">
	<path fill="#FFFFFF" d="M3.001,349.583"/>
	<path fill="#FFFFFF" d="M367.751,331.833c0,0-5.5-5.25-8.5-6.5h-7c0,0-15.5,8.25-17,12.5v3.25c0,0-1.25,2.75,13.5,3
		c0,0,14.75,2,19-7V331.833z"/>
	<path fill="#FFFFFF" d="M347.501,278.833c0,0-14.25-18.5-24.25-18.25c0,0-5.75,0.25-11,3.75c0,0-1,0.5-3,0c0,0-10.75-3.75-19,4.5
		c0,0-18-1.5-23.5,1.75c0,0-12.25,6.75-15,11c0,0-22,3.25-29,15c0,0-17.75,30.75-33.5,37.25c0,0-0.5-4,0.75-7.5l-22.75-0.75
		c0,0-17,13-18,29.5l82-29c0,0,29.75,0.25,37.5-12c0,0,0-6.25-16.25-21c0,0,16.25,5.25,23.5,16c0,0,12.5,2.25,17.25-0.25
		c0,0,13.25-9,4.25-15.5c0,0-14.5-13.25-17.75-14c0,0,17.75-0.5,28.75,19.75c0,0,11.75,3,18.75-8c0,0-3-9-7.5-12.5
		c0,0,6.5,1.75,13.25,8.75C333.001,287.333,343.251,289.083,347.501,278.833z"/>
	<path fill="#FFFFFF" d="M387.501,251.833c-54.75-28-143.25-4.75-143.25-4.75c-13.75-6-33.75-4.75-33.75-4.75
		c-33.75,5.25-45.25,22-45.25,22c47.25-12.5,65,13.25,65,13.25c25.75-23.75,61.75-20.75,61.75-20.75c5-4.5,17.25-1.5,17.25-1.5
		l5-0.5c4-2.75,17-2.25,17-2.25c3.75,1,16.25,11.25,16.25,11.25c23.25-4.25,45.5,1.75,45.5,1.75
		c16.083,11.583,20.25,28.8,20.25,28.8c3.666-23.617,7-38.05,7-38.05C414.001,248.833,387.501,251.833,387.501,251.833z"/>
	<path fill="#FFFFFF" d="M198.501,269.583c0,0-21.5-1-25.25,24.5c0,0-21,1-28.75,8.5
		C144.501,302.583,151.001,259.833,198.501,269.583z"/>
	<path fill="#FFFFFF" d="M168.751,303.583c0,0-13.25,10.75-13.5,21.5l-9.25,11.5l-19,10.25l-6.75-7
		C120.251,339.833,123.751,304.333,168.751,303.583z"/>
	<path fill="#FFFFFF" d="M135.418,405.667c-6.5-22.169-0.167-43.584-0.167-43.584l4.25-12.5l-2.25-0.25c0,0-17.333,12.508-26,19.055
		c0,0-13.913,9.352-15.667,15.11c-4.333,14.228,12,32.669,12,32.669c16.5,28,48,18.167,48,18.167l0.333-1
		C150.918,430.334,137.84,413.928,135.418,405.667z"/>
	<path fill="#FFFFFF" d="M104.751,333.833c0,0,4.75,7.75,7.5,8.25c0,0,7.25,3.25,2.25,14.25c0,0-2.5,11-15.5,11.25l-3.75-3.25
		l-5.25-1.25l-0.5-1.5l5.25-4.25l1.25-6.25c0,0-5.25-5.5-4.5-5.75s10.25-0.75,10.25-0.75l1.5-0.75L104.751,333.833z"/>
	<path fill="#FFFFFF" d="M250.501,236.583c-1.587,0.541,16.75-13,20-25c0,0,34.75,16.5,37.75,17
		C308.251,228.583,261.501,232.833,250.501,236.583z"/>
	<path fill="#FFFFFF" d="M428.001,306.959l-9.833-1.792c0,0-2.501,10.375-3.125,15.167l10.333,2.5
		C425.376,322.834,427.501,308.959,428.001,306.959z"/>
	<path fill="#FFFFFF" d="M413.376,330.375c0,0,9.417,0.959,10.417,1.959c0,0-6.876,82,4.458,123.333
		c0,0,19.668,90.334,36.334,112.667l-11,1c0,0-33.666-73.667-38-120.667C415.585,448.667,405.675,369.037,413.376,330.375z"/>
	<path fill="#FFFFFF" d="M318.433,133.291c-38.473-1.379-46.869,29.575-46.869,29.575c-1.378,0.125-5.138-5.138-5.138-5.138
		c-12.532,15.414-9.775,30.829-9.775,30.829l1.378-0.376c1.629-4.887,8.396-13.033,8.396-13.033
		c-1.504,3.133-11.153,33.961-11.153,33.961l0.877-0.376c1.88-4.637,11.278-9.524,11.278-9.524
		c3.509-1.754,12.657-0.376,12.657-0.376c22.933,14.537,41.605,15.916,41.605,15.916L318.433,133.291z M299.01,180.912
		c-5.89,1.504-4.511-4.386-4.511-4.386c0.501-6.266,5.765-2.757,5.765-2.757C303.271,178.531,299.01,180.912,299.01,180.912z
		 M310.665,186.676c-8.146,2.381-4.888-5.514-4.888-5.514c1.378-4.01,5.64-1.379,5.64-1.379
		C313.672,184.671,310.665,186.676,310.665,186.676z M311.166,168.881c-2.005,2.381-4.261,1.002-4.261,1.002
		c-4.888-4.01,0.376-7.645,0.376-7.645c2.506-2.13,4.512,0.626,4.512,0.626C313.547,165.999,311.166,168.881,311.166,168.881z
		 M312.92,152.464c0,0-23.435,6.517-32.708,18.923c0,0,0.251-10.903,1.629-14.788c0,0,12.03-14.035,31.204-16.417L312.92,152.464z"
		/>
	<path fill="#FFFFFF" d="M367.396,388.658c0,0-1.201-9.215-18.628-9.314c0,0-17.327,3.306-16.625,16.226
		c0,0-1.703,7.812,13.02,10.816l2.003,29.244l18.228-3.505l-5.709-27.342C359.684,404.783,368.097,398.072,367.396,388.658z
		 M336.449,390.361c0,0,6.711,8.412,24.938,4.006c0,0,2.804-2.003,0.601,1.603c0,0-2.204,4.708-11.017,5.509
		C350.971,401.478,333.043,399.875,336.449,390.361z"/>
	<path fill="#FFFFFF" d="M403.751,435.43c0,0-82.927,13.721-87.434,15.523c0,0-18.729,10.115-8.313,23.235
		c0,0,1.302,4.809,8.513-1.902c0,0,6.71-7.311,6.911-10.816l80.624-14.923L403.751,435.43z"/>
	<path fill="#FFFFFF" d="M268.845,450.454c0,0-12.566,55.211-9.669,83.513c0.018,0.173,0.055,1.216,0.055,1.216
		s-11.918-4.406-12.719-5.809C246.511,529.374,251.417,474.888,268.845,450.454z"/>
	<path fill="#FFFFFF" d="M230.185,447.552c0,0,24.437-1.503,29.445-1.402c0,0-23.035,55.187-23.636,84.43
		c0,0-13.521-4.409-30.146-16.527C205.848,514.052,221.072,457.068,230.185,447.552z"/>
	<path fill="#FFFFFF" d="M180.208,454.361c0,0,17.126,7.311,35.955-1.202l0.1,0.802c0,0-21.132,46.369-21.132,52.68
		c0,0-24.438-15.423-27.743-21.332C167.388,485.308,177.503,458.067,180.208,454.361z"/>
</g>
<g id="darker_grey">
	<path fill="#A5B3BC" d="M410.609,294.383c0,0-32.688,13.888-34.55,14.227c0,0-1.016,5.927,8.13,4.911
		c0,0,17.613-1.862,26.759-16.767C410.948,296.754,412.471,294.553,410.609,294.383z"/>
	<path fill="#A5B3BC" d="M406.375,329.611c0,0-13.21-0.848-13.549,8.129c0,0-0.509,5.25,3.048,5.589c0,0,7.79,1.186,8.807,0.339
		C404.681,343.667,407.053,332.999,406.375,329.611z"/>
	<path fill="#A5B3BC" d="M407.391,329.78c0,0-3.048,11.855-2.201,14.227c0,0-9.653,0.679-11.855-2.54c0,0-2.032-6.944,2.032-8.977
		C395.367,332.49,399.77,327.748,407.391,329.78z"/>
	<path fill="#A5B3BC" d="M399.092,355.354c0,0-7.282,2.54-7.621,5.758l-1.186-0.508c0,0-3.593-4.706,0-8.299
		c0.508-0.508,4.403-4.234,6.267-2.202C396.552,350.103,401.971,353.831,399.092,355.354z"/>
	<path fill="#A5B3BC" d="M394.012,370.257c0,0,4.233,3.726,6.436,3.387c0,0,0.677,1.018-1.017,1.355c0,0-7.113,2.201-7.113,7.282
		c0,0-1.016,3.726-2.201-1.863C390.117,380.418,388.931,372.121,394.012,370.257z"/>
	<path fill="#A5B3BC" d="M395.537,394.645h1.862c0,0,3.387,2.37,4.742,2.201c0,0-0.846,1.187-1.523,1.355
		c0,0-3.049,0.678-3.049,2.371c0,0-0.509,0.847-1.355-0.678C396.213,399.895,394.351,398.372,395.537,394.645z"/>
</g>
<g id="Allens">
	<g>
		<g>
			<path fill="#553892" d="M160.538,13.809c8.525,9.892,17.265,19.585,26.02,29.273c-9.976-1.162-14.964-1.769-24.943-3.003
				c-1.821-2.858-2.73-4.287-4.544-7.145c-0.61-0.959-0.916-1.439-1.525-2.399c-7.361-0.917-11.038-1.382-18.376-2.313
				c-0.55,0.813-0.825,1.22-1.376,2.033c2.312,2.923,3.474,4.386,5.808,7.312c-10.379-1.317-15.567-1.986-25.943-3.311
				c7.45-7.759,14.845-15.565,22.328-23.292c-2.967-2.704-4.449-4.058-7.414-6.768c9.696,1.253,14.56,1.881,24.312,3.107
				C157.143,9.908,158.275,11.209,160.538,13.809z M145.742,15.379c-2.263,3.165-3.437,4.733-5.596,7.936
				c4.636,0.585,6.957,0.877,11.607,1.458C149.246,20.982,148.119,19.131,145.742,15.379z"/>
			<path fill="#553892" d="M255.938,43.556c0.041,2.566,0.059,3.85,0.1,6.416c-16.913-1.292-33.8-2.903-50.665-4.72
				c-0.345-9.893-0.561-14.858-0.534-24.598c-4.699-3.488-7.044-5.238-11.731-8.749c9.449,1.075,18.904,2.092,28.367,3.035
				c-0.001,2.979-0.002,4.47-0.003,7.449c-0.012,7.215,0.051,10.853,0.266,18.169c7.92,0.793,11.88,1.171,19.797,1.866
				C247.297,42.907,250.179,43.134,255.938,43.556z"/>
			<path fill="#553892" d="M329.083,46.825c-0.001,2.531-0.002,3.797-0.004,6.328c-16.856-0.08-33.706-0.672-50.533-1.651
				c0.01-2.968,0.014-4.455,0.024-7.423c-0.046-6.852-0.063-10.268-0.087-17.084c-4.714-3.267-7.072-4.912-11.787-8.221
				c9.435,0.641,18.878,1.172,28.326,1.571c0.018,2.996,0.027,4.495,0.045,7.491c0.027,7.255,0.036,10.891,0.049,18.166
				c7.882,0.336,11.819,0.466,19.679,0.635C320.517,46.759,323.374,46.798,329.083,46.825z"/>
			<path fill="#553892" d="M403.135,18.458c0.038,2.132,0.058,3.197,0.096,5.329c-4.765,0.343-7.151,0.503-11.933,0.797
				c-8.992,0.549-13.501,0.781-22.573,1.137c0.088,2.804,0.131,4.205,0.219,7.009c4.988-0.189,7.472-0.299,12.42-0.547
				c3.516-0.222,5.269-0.339,8.768-0.59c0.07,2.63,0.115,3.944-0.027,6.553c-3.487,0.169-5.235,0.247-8.742,0.389
				c-4.936,0.244-7.413,0.353-12.395,0.538c-0.116,2.831-0.173,4.247-0.289,7.078c8.994-0.337,13.451-0.557,22.33-1.081
				c0.021-0.001,0.032,0,0.053-0.002c5.103-0.317,7.644-0.491,12.722-0.864c-0.153,2.547-0.229,3.821-0.383,6.369
				c-21.105,1.379-42.18,2.256-63.329,2.559c4.793-3,7.201-4.516,12.031-7.576c0.171-6.863,0.165-10.296,0.001-17.166
				c-4.839-2.873-7.259-4.322-12.052-7.253C361.121,20.81,382.112,19.878,403.135,18.458z"/>
			<path fill="#553892" d="M445.64,14.701c7.745,6.245,11.585,9.497,19.025,15.529c0.213-3.928,0.269-6.005,0.439-10.026
				c-4.518-2.53-6.787-3.801-11.363-6.351c10.872-1.189,21.736-2.426,32.598-3.706c-4.845,3.612-7.263,5.416-12.061,9.009
				c-0.496,10.053-0.741,14.936-1.232,24.75c-6.562,0.76-9.825,1.127-16.336,1.831c-7.517-6.418-10.979-9.558-18.748-16.214
				c-0.071,4.369-0.291,6.473-0.557,10.758c-0.206,2.993-0.31,4.489-0.515,7.482c-3.633,0.349-5.448,0.519-9.077,0.845
				c0.209-2.992,0.314-4.491,0.523-7.483c0.429-6.825,0.537-10.27,0.582-17.216c-4.611-2.612-6.938-3.925-11.627-6.559
				C426.75,16.555,436.199,15.669,445.64,14.701z"/>
			<path fill="#553892" d="M497.269,42.253c0.234-6.412,0.354-9.62,0.588-16.032c2.734,2.924,6.593,4.99,11.613,6.188
				s10.645,1.396,16.883,0.589c6.561-0.849,9.902-2.138,9.92-3.841c0.008-0.797-0.43-1.273-1.311-1.432s-3-0.143-6.328,0.041
				c-2.875,0.159-4.306,0.237-7.158,0.391c-8.295,0.466-14.047,0.225-17.377-0.692c-5.298-1.459-7.789-4.21-7.559-8.222
				c0.217-3.771,2.177-6.948,5.879-9.53s8.695-4.261,14.992-5.047c6.062-0.757,11.461-0.588,16.25,0.491
				c0.531,0.122,0.799,0.183,1.332,0.305c3.654-1.574,5.477-2.359,9.104-3.919c-0.081,5.434-0.12,8.151-0.201,13.585
				c-8.596-4.369-17.438-6.009-26.961-4.808c-5.742,0.725-8.649,1.951-8.746,3.688c-0.045,0.813,0.617,1.34,1.99,1.578
				s3.979,0.271,7.842,0.094c2.732-0.131,4.102-0.198,6.85-0.333c8.621-0.415,14.474-0.138,17.436,0.857
				c4.966,1.669,7.537,4.427,7.535,8.302c-0.002,3.469-2.036,6.497-6.088,9.077s-9.479,4.309-16.189,5.175
				c-7.196,0.929-14.47,0.715-21.777-0.65C502.375,39.77,500.67,40.6,497.269,42.253z"/>
		</g>
		<path fill="none" d="M550.584,36.667c-72.311,9.364-144.779,19.041-217.833,19c-73.013-0.041-145.547-9.747-217.833-19
			c0-12.222,0-24.445,0-36.667c72.256,9.4,144.833,19.002,217.833,19c73.023-0.002,145.511-10.022,217.833-19
			C550.584,12.222,550.584,24.445,550.584,36.667z"/>
	</g>
</g>
</svg>
