<?xml version="1.0" encoding="utf-8"?>
<!-- Generator: Adobe Illustrator 16.0.4, SVG Export Plug-In . SVG Version: 6.00 Build 0)  -->
<!DOCTYPE svg PUBLIC "-//W3C//DTD SVG 1.1//EN" "http://www.w3.org/Graphics/SVG/1.1/DTD/svg11.dtd">
<svg version="1.1" id="Layer_1" xmlns="http://www.w3.org/2000/svg" xmlns:xlink="http://www.w3.org/1999/xlink" x="0px" y="0px" viewBox="0 0 788.313 661.029" enable-background="new 0 0 788.313 661.029"
	 xml:space="preserve">
<g>
	<g>
		<path fill="#009A94" d="M152.585,328.862c0,0-21.349,19.264-30.717,16.66C121.868,345.522,129.154,335.113,152.585,328.862z"/>
	</g>
	<g>
		<path fill="#A0ACB5" d="M165.301,450.687c0,0-0.057,0.011-0.172,0.042c-2.52,0.655-32.221,9.279-50.785,55.847
			c-19.396,48.652-20.052,50.953-20.052,50.953v17.423c0,0,10.19-31.556,24.985-65.421
			C134.069,475.673,147.879,461.86,165.301,450.687z"/>
	</g>
	<g>
		<g>
			<path fill="#3197CE" d="M768.276,122.665c0,0,18.844-9.424,19.436-17.081c0,0-42.992-54.181-150.768-80.096
				c0,0-78.916-20.023-170.789-3.532c0,0-98.944-46.525-210.253-4.124l42.991,15.311l2.358,5.89c0,0-63.019,14.134-113.664,50.648
				c-50.648,36.515-53.595,88.341-53.595,88.341s-21.79,11.19-25.322,30.625c-3.535,19.435,25.322,14.724,25.322,14.724
				s-11.191,11.778-12.957,33.568c0,0-58.304,38.874-105.42,110.133l98.942-44.169c0,0-25.325,19.435-11.78,37.101
				c13.546,17.666,63.605-5.893,63.605-5.893s-49.471,26.51-65.96,48.885c-16.491,22.382-22.968,45.94-10.013,77.152
				c0,0-10.415,15.307-20.415,48.74c-10,33.433-6.571,69.149-6.571,69.149s-25.918,9.015-45.921,13.657L0,647.417
				c0,0,39.644,22.504,93.939,9.642l6.071,2.856l5-10.715l6.429,4.285l2.146-10.001l5,5l3.928-9.284l6.429,3.21l3.216-9.283
				l6.429,2.143l2.857-13.569l4.288,1.426c0,0,18.217-22.151,33.932-60.373c0,0,60.72-18.215,101.794-31.074
				c41.08-12.857,85.014-26.788,85.014-26.788l5.713-5.359c0,0,4.64,6.786,6.068,8.574l2.5-1.432v5.007l6.432-1.074l0.355,6.073
				l5.715-1.784l0.714,7.142l4.287-4.288l0.357,4.647l4.643-3.575l0.715,5.001l5.358-3.928l0.358,6.785
				c0,0,29.29,1.79,53.931-11.784c24.647-13.579,46.438-35.006,52.862-51.08l29.654-10.361l-12.147,30.006
				c0,0,83.226-26.438,121.8-57.87c38.578-31.431,36.437-56.438,34.289-78.579l-7.143-8.574c0,0,7.858-6.789,13.216-9.646
				c5.358-2.857,12.147-6.425,12.147-6.425l18.574-39.648l-32.863,3.216c0,0,20-49.646,16.074-84.653
				c0,0-15.717,44.647-52.147,77.51c0,0-16.789,20.359-52.868,30.361l4.288-11.428c0,0,28.218-13.216,51.08-35.722
				c22.857-22.502,38.572-52.863,35.715-87.866c0,0,42.153-2.857,66.8-16.074c24.648-13.214,25.364-39.646,25.364-39.646
				S771.098,122.269,768.276,122.665z"/>
		</g>
		<g>
			<path fill="#1D365B" d="M536.331,277.436c0,0,38.704-4.165,60.872-45.334c21.157-39.286-5.612-61.304-5.612-61.304
				s-3.454-3.024,3.023-3.024c6.479,0,61.308-1.293,103.615-3.021c42.313-1.726,77.283-16.835,80.306-36.698l-30.653,5.182h-6.046
				l4.749-8.203c0,0,28.066-10.361,31.516-17.7c0,0-1.723-2.59-13.382-12.521c-11.654-9.932-63.035-48.788-142.474-63.897
				c-79.44-15.112-114.84-7.772-156.287,0c0,0-28.926-19.43-91.53-23.745c-62.601-4.318-94.551,11.655-94.551,11.655l23.314,7.772
				l10.363,22.451l-18.135,8.634l24.177,3.455l6.91,14.247l-12.09,6.476l15.976,1.295l4.748,9.5c0,0-48.783,28.926-91.095,98.006
				c0,0-24.611-18.567-71.669-15.542c0,0-24.179,0.429-47.06,18.564c0,0-12.087,10.793-6.476,18.997
				c5.612,8.201,23.746,0,26.769-0.864c3.021-0.865,15.11-3.022,22.018-1.729c0,0-36.265,17.269-36.265,38.426
				c0,0,5.612,0,9.929-1.728c4.318-1.727,19.86-5.18,26.336-4.748c0,0-75.122,26.336-121.317,101.46
				c0,0,115.702-71.237,204.209-38.859c0,0-50.514,7.77-76.417,39.72c0,0,78.577-18.133,98.868-9.066
				c0,0-72.532,9.502-126.066,44.471c-53.538,34.97-55.262,61.739-46.629,90.233c0,0,20.293-44.47,127.795-69.513
				c107.502-25.04,147.653-14.247,202.485-66.059c0,0,27.2-25.901,39.289-55.691c0,0,31.084,1.297,66.488-24.609l14.678,7.339
				L536.331,277.436z"/>
		</g>
		<g>
			<path fill="#DFE1E5" d="M588.312,54.614c0,0-48.065,16.784-64.467,46.157c-16.404,29.373,6.864,62.177,39.29,59.505
				c0,0-29.755-17.547-14.113-46.536c0,0,6.484-4.577,7.247,0.381c0.762,4.958,8.009,17.927,10.68,17.927
				c0,0,5.342-17.546,18.308-25.557c12.974-8.011,30.897-13.732,57.983-9.917c27.079,3.814,43.865,26.701,82.013,20.979
				c0,0,24.031-4.577,33.568-12.97c0,0-12.971-19.836-77.053-43.866c-64.088-24.032-117.87-34.331-203.314-23.27
				c0,0-77.818,13.351-136.941,62.941c-59.126,49.588-93.078,111.001-101.85,135.415c0,0,9.919-0.38,22.126,0.382
				c0,0,14.494-25.177,40.433-60.652c25.939-35.474,57.599-61.413,89.258-79.341c31.661-17.928,88.118-37.383,108.714-41.961
				c20.597-4.577,63.32-4.577,63.32-4.577l27.084,1.528L588.312,54.614z"/>
		</g>
		<g>
			<path fill="#FFFFFF" d="M521.771,178.04c0,0-16.737-14.603-41.83-15.55c-1.883,1.53-6.848,7.033-8.31,8.559
				c15.285,0.978,36.012,14.474,36.012,14.474L521.771,178.04z"/>
		</g>
		<g>
			<path fill="#FFFFFF" d="M503.411,190.042c0,0-11.877-12.421-36.965-13.368c-1.888,1.529-6.854,7.035-8.311,8.557
				c15.281,0.981,26.458,17.848,26.458,17.848L503.411,190.042z"/>
		</g>
		<g>
			<path fill="#DFE1E5" d="M506.18,134.977c0,0,6.1,21.571,34.212,32.031l-12.641,6.755c0,0-11.327-9.369-39.874-17.867
				C487.877,155.896,498.557,141.733,506.18,134.977z"/>
		</g>
		<g>
			<path fill="#A0ACB5" d="M551.502,175.503c0,0,24.098,18.438,17.867,43.583c-5.663,22.878-14.16,30.288-14.16,30.288l-8.281-3.052
				c0,0,7.708-18.956,7.708-28.543c0-9.588-5.743-26.805-15.77-36.389L551.502,175.503z"/>
		</g>
		<g>
			<path fill="#A0ACB5" d="M530.164,187.902c0,0,19.477,20.639,13.253,45.784c-5.67,22.878-14.165,30.289-14.165,30.289
				l-8.284-3.052c0,0,7.709-18.956,7.709-28.543s-0.731-28.322-10.757-37.91L530.164,187.902z"/>
		</g>
		<g>
			<path fill="#DFE1E5" d="M572.642,170.274c0,0,21.354,13.51,17.869,37.916c-3.49,24.404-22.225,39.006-22.225,39.006
				s27.018-47.287-5.017-74.524L572.642,170.274z"/>
		</g>
		<g>
			<path fill="#A0ACB5" d="M752.768,102.628c0,0-24.45,17.702-50.587,10.116c-26.136-7.587-41.317-17.704-66.188-23.606
				c0,0,9.274-2.531,11.806-8.012c0,0,10.539,1.687,10.539-0.419c0-2.108-8.854-5.06-10.539-5.06
				c-1.687,0-38.362-20.235-41.738-20.235c-3.372,0-7.162-2.528-7.162-2.528l4.637-9.274c0,0,20.654-2.531,38.36,14.331
				C641.896,57.939,704.287,71.009,752.768,102.628z"/>
		</g>
		<g>
			<path fill="#A0ACB5" d="M618.711,89.134c0,0-0.367-0.095-1.006-0.331c-3.351-1.229-14.139-6.23-18.388-20.745
				c0,0,0-5.06-3.371-5.902c-3.372-0.844-8.008-1.266-8.008-1.266s-1.267-1.263,3.371-1.263c4.637,0,8.429-5.902,9.273-8.011
				c0.84-2.108,0.84-2.108,0.84-2.108s-12.644-2.105-41.311-4.214c0,0,8.433-8.854-29.508-8.431c0,0,18.122,7.166,16.436,8.431
				c0,0-9.273,0.42-29.506,2.529c0,0,8.008-8.432-1.267-8.854c-9.273-0.42-26.136,2.109-26.136,2.109s2.532,2.531,8.854,2.531
				c6.324,0,13.066,2.951,5.903,4.637c0,0-13.491,1.686-28.667,5.903c0,0,3.797-8.854,0.844-8.854c-2.955,0-10.118,0-29.511,5.48
				l18.548,1.262c0,0,0,3.798-3.372,5.06c-3.371,1.266-21.498,7.169-30.772,10.54c0,0,5.897-10.959-2.95-9.274
				c-8.855,1.687-17.709,5.48-24.874,9.274c0,0,18.549-2.105,18.549-0.419c0,1.685-0.844,4.213-3.372,5.479
				c-2.531,1.263-22.764,12.226-28.667,14.333c0,0,2.107-8.853-1.687-8.853s-18.548,8.853-25.292,13.91c0,0,16.86-5.479,16.86-3.794
				c0,1.688,0.845,5.06-3.792,8.431c-4.637,3.374-17.284,12.226-22.344,16.019c0,0-2.53-7.585-8.008-6.323
				c-5.48,1.266-16.863,13.911-19.813,19.393c0,0,15.176-8.854,16.44-8.01c1.264,0.843,0,4.216-3.795,7.168
				c-3.794,2.949-16.443,15.175-16.443,15.175s-4.214-4.216-10.537,1.687c-6.321,5.903-12.228,13.911-13.49,16.021
				c0,0,13.911-8.012,13.911-6.747c0,1.263-15.598,19.814-20.234,26.136c0,0-4.637-2.952-10.962,2.532
				c-6.322,5.48-13.068,13.068-13.068,15.596c0,0,10.962-5.056,13.068-6.746c2.109-1.685,4.637,0.843,1.266,4.218
				c-3.372,3.372-21.078,32.461-24.449,42.998c0,0,14.334,1.687,16.862,3.375c0,0,32.785-84.812,123.919-137.858
				c0,0,71.634-45.794,151.431-42.168c0,0,9.979,0,18.144-2.267c8.16-2.267,18.584-3.174,18.584-3.174s-37.178,21.31-52.592,50.328
				c-15.415,29.016,13.151,54.86,24.937,57.579c11.788,2.721,25.847-7.253,94.311-4.987c68.459,2.268,95.669-8.616,109.72-18.59
				c0,0-29.019,9.07-63.476,5.896c-34.455-3.175-64.377-1.812-93.854,4.533c-29.47,6.348-33.554,9.066-42.619-0.905
				c-9.067-9.977-9.518-25.393-6.344-31.287c0,0,4.984,11.335,11.333,1.361C574.977,107.701,581.741,94.601,618.711,89.134z"/>
		</g>
		<g>
			<path fill="#1D365B" d="M667.467,79.588c0,0-17.231-7.254-25.39-14.961s-21.457-18.146-40.954-16.331
				c0,0-1.903,4.694-5.156,9.516c0,0,1.682,1.828,7.117,2.283c0,0,4.252,27.608,22.567,28.225
				c16.67,0.563,21.417-9.186,21.417-9.186S656.585,80.497,667.467,79.588z"/>
		</g>
		<g>
			<path fill="#DFE1E5" d="M539.805,68.437c0,0-10.804,6.799-20.803,17.601c0,0-102.405,9.199-170.408,71.604
				C348.595,157.641,424.998,68.437,539.805,68.437z"/>
		</g>
		<g>
			<path fill="none" stroke="#FFF200" stroke-width="0.0814" d="M519.407,116.038"/>
		</g>
		<g>
			<path fill="#FFFFFF" d="M456.601,114.039c0,0-52.802,19.6-82.004,60.002c0,0-14.801,23.603-7.2,47.604h1.6
				c0,0,15.6-49.602,56.801-75.205L456.601,114.039z"/>
		</g>
		<g>
			<path fill="#DFE1E5" d="M462.202,132.44c0,0-37.204,14.799-59.602,47.202c-22.402,32.402-28.003,53.204-28.003,53.204
				s6,8.797,12.8,14.798c0,0,5.203-31.201,20.401-52.801C422.999,173.242,462.202,132.44,462.202,132.44z"/>
		</g>
		<g>
			<path fill="#DFE1E5" d="M450.599,166.841c0,0-36.403,34.801-45.601,68.802c-9.2,34.004,13.999,35.203,30,35.602
				c0,0-17.6-9.2-11.599-37.601C429.401,205.245,440.998,180.042,450.599,166.841z"/>
		</g>
		<g>
			<path fill="#FFFFFF" d="M353.156,225.56c0,0,15.908,42.136,67.933,55.68c0,0-29.238,11.394-86.421-21.068
				C334.668,260.172,345.633,235.664,353.156,225.56z"/>
		</g>
		<g>
			<circle fill="#FFFFFF" cx="624.726" cy="69.899" r="2.264"/>
		</g>
		<g>
			<path fill="#FFFFFF" d="M635.226,70.52l5.043,4.012c0,0-6.484,7.821-12.762,6.997c-6.28-0.822-9.568-4.938-9.568-4.938
				S631.932,80.293,635.226,70.52z"/>
		</g>
		<g>
			<g>
				<path fill="#FFFFFF" d="M581.051,130.402l13.153,12.378l-15.784,2.789C578.42,145.568,578.727,137.674,581.051,130.402z"/>
			</g>
			<g>
				<path fill="#FFFFFF" d="M596.06,113.998l-2.012,20.736c0,0-8.817-8.667-8.817-11.452S594.823,113.998,596.06,113.998z"/>
			</g>
			<g>
				<path fill="#FFFFFF" d="M601.943,124.056l-2.318,16.869l12.07-1.702C611.695,139.223,603.183,123.437,601.943,124.056z"/>
			</g>
			<g>
				<path fill="#FFFFFF" d="M602.715,111.364l10.369,17.643l6.192-20.892C619.277,108.115,610.917,106.875,602.715,111.364z"/>
			</g>
			<g>
				<path fill="#FFFFFF" d="M621.29,116.318l-4.336,21.047l10.99-0.619C627.944,136.746,624.231,118.795,621.29,116.318z"/>
			</g>
			<g>
				<polygon fill="#FFFFFF" points="624.387,107.032 640.168,107.032 631.659,125.758 630.268,125.758 				"/>
			</g>
			<g>
				<path fill="#FFFFFF" d="M640.822,119.588v16.277h-6.357C634.464,135.865,637.265,125.186,640.822,119.588z"/>
			</g>
			<g>
				<path fill="#FFFFFF" d="M644.89,109.164v18.309l10.683-14.749C655.573,112.723,652.01,109.164,644.89,109.164z"/>
			</g>
			<g>
				<path fill="#FFFFFF" d="M657.861,118.826v14.494h-8.393C649.468,133.32,653.791,123.911,657.861,118.826z"/>
			</g>
			<g>
				<path fill="#FFFFFF" d="M661.927,115.265l2.292,13.479l7.37-8.393C671.589,120.35,667.779,117.048,661.927,115.265z"/>
			</g>
			<g>
				<path fill="#FFFFFF" d="M673.63,126.457v7.882h-6.106C667.524,134.339,670.071,128.488,673.63,126.457z"/>
			</g>
			<g>
				<path fill="#FFFFFF" d="M677.441,122.387l1.779,8.646l6.613-5.085C685.833,125.948,682.275,123.911,677.441,122.387z"/>
			</g>
			<g>
				<polygon fill="#FFFFFF" points="692.701,127.726 694.48,134.085 700.076,129.252 				"/>
			</g>
			<g>
				<polygon fill="#FFFFFF" points="685.578,132.049 689.137,132.049 690.159,135.61 684.054,134.591 				"/>
			</g>
			<g>
				<polygon fill="#FFFFFF" points="702.871,133.828 702.871,136.372 700.33,136.372 				"/>
			</g>
			<g>
				<polygon fill="#FFFFFF" points="706.435,128.997 714.568,128.997 709.231,134.591 				"/>
			</g>
			<g>
				<polygon fill="#FFFFFF" points="722.503,127.941 722.503,136.227 714.853,136.227 				"/>
			</g>
			<g>
				<path fill="#FFFFFF" d="M726.648,126.665l2.23,8.128c0,0,6.69-8.128,6.69-10.516L726.648,126.665z"/>
			</g>
		</g>
		<g>
			<path fill="#A0ACB5" d="M314.859,23.948l9.895,18.687c0,0,50.194-19.784,113.216-9.524
				C437.97,33.11,391.804,7.827,314.859,23.948z"/>
		</g>
		<g>
			<path fill="#A0ACB5" d="M331.188,53.001l7.186,14.595c0,0,41.541-20.659,85.55-27.396
				C423.924,40.2,377.067,33.343,331.188,53.001z"/>
		</g>
		<g>
			<path fill="#A0ACB5" d="M342.573,78.469l3.409,5.614c0,0,31.689-21.058,59.565-30.884c0,0-12.232,1.001-31.286,8.623
				C355.208,69.442,342.573,78.469,342.573,78.469z"/>
		</g>
		<g>
			<path fill="#009A94" d="M237.604,203.52l-12.618,27.276c0,0-30.004-7.501-67.852,1.706c0,0,9.548-16.365,53.532-26.596
				c0,0-18.07-14.663-71.263-3.068C139.404,202.837,175.89,167.719,237.604,203.52z"/>
		</g>
		<g>
			<path fill="#009A94" d="M441.553,295.02c0,0-48.941,11.977-106.736-16.143c-57.793-28.113-104.133-36.446-150.471-23.429
				c-46.34,13.017-81.745,45.296-81.745,45.296s114.546-51.542,199.415,10.935c0,0-56.233,4.687-64.042,8.853
				c0,0,53.106,0.518,94.762,9.373c0,0-17.184,4.165-57.275,13.012c-40.091,8.855-49.462,15.104-60.396,20.308
				c0,0,31.761-8.855,62.478-14.057c30.721-5.208,99.446-10.935,130.167-39.572c0,0,2.601,15.62-40.612,43.737
				C367.098,353.333,415.521,336.149,441.553,295.02z"/>
		</g>
		<g>
			<path fill="#78C5C0" d="M395.214,304.913c0,0-36.445,31.242-89.554-3.125l27.594,5.208c0,0-32.278-33.844-92.156-45.82
				c0,0,23.951-4.686,67.686,18.745C352.519,303.349,355.643,301.788,395.214,304.913z"/>
		</g>
		<g>
			<path fill="#A0ACB5" d="M612.597,333.708c0,0-8.9,1.016-14.752,5.596c0,0-1.524,2.796,2.547,0.763
				c4.067-2.033,11.951-3.813,11.951-3.813L612.597,333.708z"/>
		</g>
		<g>
			<path fill="#1D365B" d="M475.123,286.225c0,0,1.224,26.584-1.229,39.671c0,0,58.484-7.36,82.204-17.993c0,0,2.452-0.819,6.949-9
				c4.503-8.179,24.129-34.764,67.074-51.939l-14.725,33.127c0,0,76.068-38.037,69.114-106.742l-80.156,0.816
				c0,0,20.445,29.449-4.503,65.846c-24.947,36.398-54.387,44.581-88.334,48.261c0,0,24.941-19.222,28.215-25.769l-4.086-1.226
				C535.647,261.277,512.752,279.272,475.123,286.225z"/>
		</g>
		<g>
			<path fill="#1D365B" d="M470.575,286.206c0,0,4.02,20.107-2.238,37.978c-6.254,17.869-24.566,24.123-31.715,23.227
				c-7.148-0.892-6.255-11.613,9.829-25.015c16.079-13.402,20.548-27.699,20.995-31.72
				C467.892,286.656,470.127,283.082,470.575,286.206z"/>
		</g>
		<g>
			<path fill="#1D365B" d="M205.067,311.285c0,0-26.207-0.374-61.025,10.483c-34.815,10.854-34.065,24.335-28.824,29.574
				c5.241,5.244,19.842,4.497,34.814-7.484C165.008,331.876,172.87,324.385,205.067,311.285z"/>
		</g>
		<g>
			<path fill="#1D365B" d="M480.848,335.346c0,0,0,25.021-4.02,32.168c0,0,14.74-21.442,34.844-20.104l25.462-24.571l-7.146,33.506
				c0,0,15.187-19.21,24.124-21.447c0,0,2.682-3.121,6.255-11.612c3.572-8.486,16.084-43.332,51.375-55.841
				c0,0-16.085,36.632-27.699,72.371c0,0,22.781-31.719,58.07-26.806l-0.444,5.81c0,0,21.441-26.356,69.242-24.568
				c0,0-6.701,15.632-9.383,20.097c-2.681,4.472-29.481,15.192-30.378,25.021c0,0,5.358,6.25,8.489,10.275
				c3.123,4.019,9.383,37.972-27.25,65.669c-36.634,27.697-93.813,48.692-100.514,50.924c0,0,9.377-28.143,15.188-30.375
				l-59.415,20.545c0,0-9.822,41.557-76.39,58.979c0,0-11.168,2.23-13.846-0.896l-0.896-7.143l-4.468,1.338l-0.446-6.255
				l-4.911,2.682v-4.472l-5.81,3.58l-0.447-5.362l-5.806,4.018l-0.448-6.255l-4.467,2.687l-0.448-6.706l-7.593,2.234
				c0,0-6.256-6.7-6.256-18.312c0,0-8.932,17.868-14.296,20.098c-5.361,2.237-188.966,58.076-188.966,58.076
				s-17.871,39.316-24.572,48.693l-5.36-0.894l0.893,9.385l-9.382-5.81l-0.892,15.632l-7.147-5.357l-1.34,14.296l-7.148-5.365
				l-0.895,10.729l-6.252-3.576l-1.787,9.83l-8.934-6.254l-0.895,10.721l-4.02-1.345c0,0-29.93,16.977-79.963-3.574l10.721-21.441
				c0,0,44.226-12.951,48.693-16.531c0,0-7.149-44.227,15.636-100.065c22.783-55.842,53.161-80.412,124.636-92.915l-6.701,32.167
				c0,0,23.232-23.678,52.716-18.766v4.021c0,0,13.848-19.659,29.483-22.335l-3.573,12.957l10.721-0.896
				c0,0,8.936-21.441,34.397-28.144l-5.359,16.529c0,0,18.317-8.937,23.229-2.229c0,0,20.552-23.679,47.355-16.536l0.445,4.472
				C396.859,392.094,412.5,351.419,480.848,335.346z"/>
		</g>
		<g>
			<path fill="#FFFFFF" d="M204.543,420.01c0,0-10.122,65.372-41.756,91.518l11.811,8.014c0,0-8.014,39.228-21.513,55.255
				l-7.589-7.168v10.545l-8.857-3.799l0.842,11.393l-6.328-7.594l-2.105,16.866l-5.062-2.95l-1.688,8.433l-6.325-4.636l-2.532,14.34
				l-8.014-10.545l-1.686,13.498l-4.219-3.797L99.1,619.506c0,0-17.712,8.434-45.972,2.11c0,0,71.281-20.248,92.37-91.949
				l-25.308,3.376c0,0,41.333-35.851,55.674-83.093c0,0-29.104,3.377-53.986,58.632c0,0-24.041,58.205-28.26,78.449
				c0,0-9.056-30.965,8.013-88.574C118.503,441.523,183.452,422.534,204.543,420.01z"/>
		</g>
		<g>
			<path fill="#A0ACB5" d="M196.111,423.805l5.482-0.845c0,0-6.748,55.679-41.333,88.998l11.807,9.28
				c0,0-6.748,35.425-18.977,49.766l-2.955-3.796c0,0,14.341-21.511,15.604-47.236l-9.7-7.593
				C156.04,512.379,181.768,490.864,196.111,423.805z"/>
		</g>
		<g>
			<g>
				<path fill="#FFFFFF" d="M205.128,457.934v1.514c0,0,18.205-8.34,21.997-8.34l-0.507,2.023c0,0-17.191,9.854-29.074,30.338
					c-11.885,20.481-19.976,43.491-19.976,43.491s20.228-3.797,50.063-14.161l1.517-0.758c0,0,16.436-28.827,21.746-81.161
					C250.893,430.88,228.644,429.615,205.128,457.934z M222.572,489.792c-1.516,2.78-15.42,11.379-15.42,11.379
					s-1.52,0.504,1.009-4.807c2.529-5.308,16.941-34.892,22.502-35.65C230.664,460.713,224.09,487.006,222.572,489.792z"/>
			</g>
		</g>
		<g>
			<path fill="#A0ACB5" d="M212.713,453.131c0,0,3.794-6.074,20.989-8.092c0,0,0.753,1.261-4.301,3.034
				C224.345,449.843,216.507,451.866,212.713,453.131z"/>
		</g>
		<g>
			<path fill="#A0ACB5" d="M232.938,448.832c0,0-10.11,7.582-19.974,24.522c-9.857,16.946-18.707,36.411-18.707,36.411
				s-0.255,3.537,2.528,1.011c2.781-2.529,4.551-4.294,5.056-5.312c0.507-1.01,10.366-23.002,18.457-35.394
				c8.093-12.391,11.883-15.927,11.883-15.927L232.938,448.832z"/>
		</g>
		<g>
			<path fill="#A0ACB5" d="M248.87,433.407c0,0-5.563,47.536-21.24,76.612c0,0-29.328,10.866-46.27,13.652l0.252-2.278
				c0,0,22.503-5.814,41.72-13.65c0,0,15.172-28.065,20.733-72.816L248.87,433.407z"/>
		</g>
		<g>
			<path fill="#FFFFFF" d="M241.286,510.029c0,0,14.641-73.661,35.815-88.755l-1.352,14.872c0,0,13.066-11.94,23.88-10.364
				c0,0-29.961,14.869-36.719,78.392L241.286,510.029z"/>
		</g>
		<g>
			<path fill="#FFFFFF" d="M317.426,404.604c0,0-12.84,9.917-20.272,31.764c-7.436,21.852-13.294,53.838-13.294,61.951l21.852-6.982
				c0,0,1.125-57.894,37.17-81.773c0,0-14.868,0.451-25.23,11.939l-2.028-0.451L317.426,404.604z"/>
		</g>
		<g>
			<path fill="#A0ACB5" d="M274.625,426.233c0,0-4.957,4.056-6.984,11.488s-2.028,9.461-2.028,9.461s4.506-0.902,6.76-8.563
				C274.625,430.963,274.625,426.233,274.625,426.233z"/>
		</g>
		<g>
			<path fill="#A0ACB5" d="M291.519,429.163c0,0-9.462-0.228-19.375,17.345c-9.912,17.568-13.962,43.698-15.316,52.033l-0.226,1.132
				l-11.94,4.725v2.028l16.22-3.601c0,0,2.478-27.712,11.94-47.084C282.285,436.368,291.519,429.163,291.519,429.163z"/>
		</g>
		<g>
			<path fill="#A0ACB5" d="M314.271,410.009c0,0-4.504,3.387-6.083,10.367c-1.578,6.982-2.478,12.837-2.478,12.837
				s4.504-3.152,6.758-10.134C314.723,416.094,314.271,410.009,314.271,410.009z"/>
		</g>
		<g>
			<path fill="#A0ACB5" d="M332.97,413.619c0,0-12.392,3.828-19.824,19.372c-7.434,15.539-13.516,39.197-13.968,54.29l-12.613,5.182
				l0.223,2.25l16.672-4.73c0,0,2.026-27.94,9.91-46.86c0,0,5.632-14.413,14.644-23.202c0,0,3.829-3.832,4.504-4.735
				C333.192,414.289,332.97,413.619,332.97,413.619z"/>
		</g>
		<g>
			<g>
				<path fill="#FFFFFF" d="M345.044,419.279l20.582-6.667c0,0-17.685,12.18-31.02,35.659
					c-13.335,23.48-17.103,38.554-17.103,38.554c16.234-3.477,50.151-17.105,50.151-17.105
					c14.784-25.509,20.871-75.659,20.871-75.659C362.725,393.479,345.044,419.279,345.044,419.279z M360.696,449.718
					c-2.028,3.48-14.494,9.563-14.494,9.563s10.435-24.927,22.611-37.972C368.812,421.31,362.725,446.239,360.696,449.718z"/>
			</g>
		</g>
		<g>
			<path fill="#A0ACB5" d="M369.102,406.814c0,0-4.927,0.29-9.276,2.033c-4.346,1.737-6.955,5.213-6.955,5.213
				s5.504-1.738,8.114-2.604C363.594,410.584,368.522,407.976,369.102,406.814z"/>
		</g>
		<g>
			<path fill="#A0ACB5" d="M370.553,408.266c0,0-9.567,11.016-17.973,23.77c-8.406,12.756-20.001,37.106-20.001,37.106
				s6.376-3.189,8.694-6.38c2.319-3.184,11.599-26.379,28.99-48.988C370.263,413.774,371.421,410.875,370.553,408.266z"/>
		</g>
		<g>
			<path fill="#A0ACB5" d="M380.989,396.377c0,0-5.506,47.257-19.131,69.285l-40.585,15.944v2.898c0,0,30.437-10.146,43.772-15.652
				c0,0,12.176-15.944,21.162-72.765L380.989,396.377z"/>
		</g>
		<g>
			<path fill="#FFFFFF" d="M473.715,345.605c0,0-2.971,0.539-7.742,1.929c-14.348,4.196-44.937,16.131-59.738,44.441
				c-19.723,37.718-14.879,66.09-8.997,75.088l7.267-5.188l-0.345,6.572l7.267-7.962l-1.038,8.651l5.882-7.262l-0.345,8.651
				l5.537-3.812l0.345,7.272l3.46-1.731v5.192l2.769-1.733l1.038,3.459l4.155-3.459v12.11c0,0,26.644,0.696,54.324-24.569
				c0,0-45.673,14.533-63.324-2.421c-17.646-16.957-11.073-59.177,28.028-84.437l-5.19,20.073
				C447.068,396.471,471.641,374.672,473.715,345.605z"/>
		</g>
		<g>
			<path fill="#A0ACB5" d="M453.296,385.74l-0.348-5.882c0,0,10.82-14.471,13.024-32.324l4.278-0.896
				C470.251,346.638,470.6,365.672,453.296,385.74z"/>
		</g>
		<g>
			<path fill="#A0ACB5" d="M447.068,372.25l1.732,2.423c0,0-26.992,22.488-34.26,47.059c-7.266,24.569,1.386,35.296,1.386,35.296
				l-1.73,3.117c0,0-11.765-11.422-2.769-41.183C420.423,389.205,447.068,372.25,447.068,372.25z"/>
		</g>
		<g>
			<path fill="#3197CE" d="M449.148,414.812l-16.956,42.562c0,0-10.384-5.881-10.384-16.611c0-10.728,2.422-13.493,2.77-16.262
				c0.349-2.77,4.149-6.919,3.459-1.731c-0.689,5.189-3.11,18.688-3.11,18.688L449.148,414.812z"/>
		</g>
		<g>
			<path fill="#FFFFFF" d="M497.751,359.102c0,0-19.756,12.758-33.334,42.801c-13.585,30.045-19.347,48.567-19.347,48.567
				s16.877,1.234,45.684-20.989l4.938,1.643c0,0,19.757-56.795,27.988-82.313c0,0-15.638,15.229-24.279,35.811
				c-8.646,20.574-15.229,32.51-25.108,32.51C474.292,417.13,495.692,366.917,497.751,359.102z"/>
		</g>
		<g>
			<g>
				<path fill="#FFFFFF" d="M561.133,340.168c0,0-23.87,12.346-39.097,44.452c-15.229,32.101-20.165,48.973-20.165,48.973
					l55.968-19.758c0,0,11.936-68.318,36.22-126.76C594.059,287.075,579.241,295.72,561.133,340.168z M546.315,392.027
					l-14.403,9.876c13.993-44.035,27.163-46.511,27.163-46.511C549.609,373.504,546.315,392.027,546.315,392.027z"/>
			</g>
		</g>
		<g>
			<path fill="#A0ACB5" d="M464.827,422.068l5.353,0.409l22.635-56.795c0,0-6.995,4.944-9.057,10.292
				C481.704,381.327,464.827,422.068,464.827,422.068z"/>
		</g>
		<g>
			<path fill="#A0ACB5" d="M491.17,424.537l3.293,3.293c0,0,17.697-51.037,23.456-67.909c0,0-8.642,6.997-11.521,17.288
				C503.514,387.499,491.17,424.537,491.17,424.537z"/>
		</g>
		<g>
			<path fill="#A0ACB5" d="M448.779,445.942l0.411,2.47c0,0,20.989-2.878,40.331-21.401l-2.471-2.474
				C487.05,424.537,476.761,436.887,448.779,445.942z"/>
		</g>
		<g>
			<path fill="#A0ACB5" d="M563.193,345.106l-2.469,4.939c0,0-13.584,6.582-22.226,27.577c-8.642,20.986-10.7,33.335-18.521,35.395
				c0,0,7.821-17.288,10.291-27.987C532.737,374.329,547.14,349.226,563.193,345.106z"/>
		</g>
		<g>
			<path fill="#A0ACB5" d="M588.297,295.72c0,0-7.817,6.995-17.698,37.038c-9.875,30.047-18.106,75.731-18.106,75.731
				l-45.685,17.697l-1.65,3.703l50.215-17.696C555.373,412.193,568.541,345.932,588.297,295.72z"/>
		</g>
		<g>
			<g>
				<path fill="#FFFFFF" d="M589.946,345.932l19.751-6.178c0,0-28.806,16.462-44.035,72.438l45.685-15.229
					c0,0,10.292-12.344,22.225-76.142C633.571,320.823,608.052,319.998,589.946,345.932z M605.73,376.938l-14.237,8.138
					c8.645-22.121,21.865-37.126,21.865-37.126C611.072,358.883,605.73,376.938,605.73,376.938z"/>
			</g>
		</g>
		<g>
			<path fill="#FFFFFF" d="M686.854,303.704c0,0-21.87,17.036-28.993,32.042l13.733,16.02c0,0,3.051,2.797-0.252,9.408
				c-3.31,6.615-19.585,34.581-74.769,60.521c0,0,10.433-8.646,24.922-22.884c14.498-14.239,30.774-35.095,28.99-38.148
				c-1.779-3.05-16.017-22.122-16.017-22.122S653.033,312.349,686.854,303.704z"/>
		</g>
		<g>
			<path fill="#A0ACB5" d="M625.34,323.292l5.763-0.411c0,0-9.057,54.327-20.991,71.613l-41.15,14.015l0.519-2.723l37.821-14.299
				C607.301,391.488,619.972,367.529,625.34,323.292z"/>
		</g>
		<g>
			<path fill="#A0ACB5" d="M652.016,338.287l11.949,15.515c0,0,2.542,2.795,0,6.861c-2.541,4.071-18.054,23.65-50.352,47.81
				c0,0,17.8-5.848,35.602-22.888c17.8-17.032,22.127-26.701,20.855-31.53l-14.752-18.568c0,0,2.542-6.608,20.598-25.683
				c0,0-3.051-0.507-9.409,4.579c-6.358,5.087-15.006,18.055-15.006,18.055S648.96,334.977,652.016,338.287z"/>
		</g>
		<g>
			<path fill="#A0ACB5" d="M616.922,333.961l-1.276,6.613c0,0-5.591,6.866-15,20.85c-9.414,13.989-13.225,27.464-13.225,27.464
				l-5.083,2.292C582.338,391.18,587.927,364.734,616.922,333.961z"/>
		</g>
		<g>
			<path fill="#009A94" d="M460.817,320.533c0,0-6.768,17.183-18.221,17.183C442.596,337.715,452.488,328.345,460.817,320.533z"/>
		</g>
		<g>
			<path fill="#1D365B" d="M242.969,179.935c0,0-6.419-18.185-26.743-27.1c-20.325-8.914-39.221-1.069-42.43,3.211
				c-3.208,4.278-6.418,12.121,16.403,13.906C213.019,171.733,227.281,173.517,242.969,179.935z"/>
		</g>
		<g>
			<path fill="#1D365B" d="M247.419,170.318c0,0,31.33-44.684,73.964-78.069l-31.847-3.081l27.736-15.923
				c0,0,1.543-4.624-7.19-7.192c-8.73-2.567-34.927-7.705-41.605-5.65c-6.673,2.056-57.522,20.547-89.88,54.444
				c-32.358,33.898-32.358,58.04-32.358,58.04l19.516-5.651c0,0-11.812-11.812,18.49-23.625
				C214.548,131.799,245.366,164.668,247.419,170.318z"/>
		</g>
		<g>
			<path fill="#009A94" d="M219.874,165.672c0,0-8.524-7.502-19.095-8.184c-10.571-0.68-11.25,0.342-11.25,3.071
				C189.528,163.287,202.824,160.897,219.874,165.672z"/>
		</g>
		<g>
			<path fill="#FFFFFF" d="M351.795,162.44c0,0-48.802,45.6-57.202,82.405l12.787,6.803c0,0,20.812-38.802,32.814-57.604
				c11.999-18.803,19.6-34.803,19.6-34.803L351.795,162.44z"/>
		</g>
		<g>
			<path fill="#A0ACB5" d="M294.594,244.845c0,0,38.802-64.803,58.402-76.806c0,0-35.602,44.803-46.404,83.207l15.203,7.598
				c0,0,19.6-34.801,27.6-45.602c0,0-9.329-43.808,51.604-82.803C451,98.437,493,97.236,493,97.236s-48.588,16.622-85.602,52.404
				c-24.001,23.201-38.402,70.805-38.402,70.805s22.401-72.406,115.607-104.407c0,0-43.606,27.203-67.606,59.604
				c-21.951,29.634-30,45.203-29.601,72.002c0,0,14.401-47.202,44.805-76.804c30.4-29.602,56.001-42.802,56.001-42.802l-0.798,2.002
				c0,0-33.604,28-50.006,53.603c-16.399,25.601-28.802,75.604-2.4,87.603c0,0-22.803-23.203,2.002-68.804
				c24.804-45.601,68.402-68.802,68.402-68.802s-8.874-28.448,22.328-56.05c0,0-78.994,0.902-151.534,56.05
				c-68.404,52.002-90.406,108.408-90.406,108.408L294.594,244.845z"/>
		</g>
		<g>
			<g>
				<path fill="#FFFFFF" d="M163.172,407.938l-41.134,20.842l-20.627-40.726l40.799-20.664c6.356-3.222,10.338-3.253,11.94-0.088
					l4.318,8.527c0.704,1.383,0.792,2.659,0.264,3.821c-0.526,1.157-1.637,2.547-3.325,4.158l-3.397,3.196l4.918-1.016
					c2.43-0.52,4.289-0.612,5.57-0.28c1.283,0.332,2.266,1.177,2.951,2.525l5.077,10.021
					C172.127,401.42,169.676,404.647,163.172,407.938z M136.593,379.676l-12.526,6.35l4.292,8.475l8.315-4.217l3.43-3.677
					L136.593,379.676z M145.815,396.506l-5.135,0.862l-8.649,4.377l5.049,9.97l13.084-6.629L145.815,396.506z"/>
				<path fill="#1D365B" d="M119.699,435.916l-25.425-50.201l45.537-23.064c3.999-2.023,7.337-3.01,10.207-3.01
					c3.942,0,7.177,1.919,8.871,5.26l4.318,8.527c1.205,2.374,1.483,4.886,0.815,7.193c2.681,0.748,4.811,2.547,6.162,5.207
					l5.078,10.025c1.72,3.394,1.302,7.185-1.143,10.406c-1.735,2.286-4.53,4.383-8.548,6.421L119.699,435.916z M108.548,390.392
					l15.829,31.25l9.37-4.75l-15.827-31.246L108.548,390.392z M149.919,392.862l6.391,12.598l4.459-2.257
					c2.968-1.503,4.218-2.607,4.709-3.151l-4.663-9.207l0,0c-0.78,0-1.577,0.083-2.78,0.336L149.919,392.862z M139.17,404.086
					l0.249,0.493l3.604-1.832l-0.181-0.358l-0.488,0.083L139.17,404.086z M139.925,374.501l5.69,11.228l6.153-5.786
					c0.972-0.931,1.518-1.589,1.814-1.993l-3.873-7.656c-0.842,0.083-2.383,0.457-5.097,1.832L139.925,374.501z"/>
			</g>
			<g>
				<path fill="#FFFFFF" d="M179.466,401.389l-12.687-43.85l47.278-13.677l2.507,8.668l-26.98,7.805l2.44,8.434l21.73-6.287
					l2.424,8.383l-21.729,6.285l2.806,9.7l27.339-7.91l2.507,8.668L179.466,401.389z"/>
				<path fill="#1D365B" d="M175.84,407.966l-15.639-54.051l57.481-16.63l5.461,18.869l-5.251,1.52l4.716,16.313l5.61-1.625
					l5.461,18.869L175.84,407.966z M173.358,361.165l9.733,33.647l10.092-2.922l-9.733-33.646L173.358,361.165z"/>
			</g>
			<g>
				<path fill="#FFFFFF" d="M268.434,379.739l-16.245-14.486l-1.557-7.977l10.858-2.115l-2.218-11.382l-13.173,2.567l7.084,36.365
					l-20.736,4.041l-8.734-44.804l44.16-8.61c7.076-1.379,10.952-0.327,11.631,3.154l3.016,15.482
					c0.679,3.48-2.518,5.908-9.595,7.287l-1.097,0.212l18.237,15.622l0.081,0.41L268.434,379.739z"/>
				<path fill="#1D365B" d="M228.253,392.98l-10.768-55.227l49.373-9.628c2.364-0.462,4.413-0.685,6.265-0.685
					c9.049,0,11.123,5.618,11.595,8.034l3.016,15.482c0.727,3.719-0.689,7.252-3.89,9.68c-0.433,0.325-0.9,0.638-1.404,0.933
					l12.485,10.694l1.379,7.029l-5.14,1.427l-24.299,4.735l-9.359-8.347l1.908,9.798L228.253,392.98z M229.942,346.144l6.702,34.379
					l10.312-2.008l-6.7-34.384L229.942,346.144z M257.059,362.479l12.944,11.545l8.672-1.691l-14.374-12.308l-7.439,1.446
					L257.059,362.479z M263.857,339.531l3.019,15.492l5.039-0.974c3.18-0.623,4.652-1.328,5.268-1.713l-2.762-14.179
					c-0.809-0.13-2.995-0.095-5.528,0.395L263.857,339.531z"/>
			</g>
			<g>
				<path fill="#FFFFFF" d="M339.657,367.467l-35.258,6.156c-7.02,1.225-10.834,0.088-11.445-3.402l-6.018-34.492
					c-0.611-3.496,2.637-5.86,9.738-7.1l35.138-6.13c7.181-1.255,11.078-0.134,11.688,3.356l1.489,8.537l-20.937,3.652l-0.923-5.296
					l-14.813,2.583l4.887,28.019l14.815-2.583l-1.583-9.067l-10.895,1.903l-1.469-8.416l31.833-5.557l3.614,20.721
					C350.128,363.84,346.84,366.217,339.657,367.467z"/>
				<path fill="#1D365B" d="M299.583,379.413c-9.401,0-11.426-5.789-11.859-8.277l-6.022-34.493
					c-0.679-3.91,0.238-10.834,14.058-13.247l35.137-6.13c2.221-0.39,4.156-0.576,5.918-0.576c9.453,0,11.481,5.774,11.915,8.251
					l6.021,34.498c0.654,3.744-0.853,7.252-4.133,9.616c-2.326,1.682-5.615,2.874-10.05,3.646l-35.256,6.156
					C303.169,379.23,301.295,379.413,299.583,379.413z M298.074,368.671c0.772,0.145,2.899,0.159,5.412-0.281l5.053-0.881
					L302.516,333l-4.93,0.862c-3.197,0.556-4.687,1.234-5.306,1.607L298.074,368.671z M331.111,347.602l2.704,15.492l4.93-0.86
					c3.277-0.571,4.792-1.261,5.424-1.639l-2.587-14.819L331.111,347.602z M327.793,328.593l0.579,3.304l10.471-1.826l-0.458-2.635
					c-0.807-0.155-3.018-0.171-5.658,0.295L327.793,328.593z"/>
			</g>
			<g>
				<path fill="#FFFFFF" d="M403.948,342.363l-30.01,16.354c-6.329,3.448-10.343,3.614-12.038,0.504l-4.803-8.814l18.55-10.108
					l3.373,6.189l11.897-6.484l-3.174-5.819l-32.172,5.892c-1.467,0.254-2.549,0.259-3.252,0.005
					c-0.705-0.247-1.303-0.829-1.798-1.742l-5.377-9.864c-1.695-3.112,0.623-6.391,6.951-9.84l30.12-16.417
					c6.331-3.449,10.334-3.635,12.012-0.554l4.63,8.495l-18.66,10.171l-3.175-5.824l-11.895,6.482l3.146,5.773l32.033-5.893
					c1.464-0.253,2.59-0.264,3.376-0.036c0.785,0.234,1.426,0.798,1.921,1.712l5.404,9.917
					C412.704,335.574,410.351,338.873,403.948,342.363z"/>
				<path fill="#1D365B" d="M365.879,366.747c-3.769,0-6.919-1.815-8.643-4.985l-7.344-13.475l5.087-2.775
					c-1.876,0.187-3.197,0.021-4.465-0.437c-1.322-0.466-3.245-1.586-4.663-4.205l-5.372-9.855
					c-1.898-3.485-3.244-10.331,9.073-17.043l30.119-16.417c4.175-2.276,7.653-3.382,10.628-3.382c3.748,0,6.877,1.804,8.592,4.949
					l7.173,13.158l-5.958,3.247c2.187-0.31,3.652-0.207,5.055,0.209c1.533,0.45,3.633,1.555,5.109,4.278l5.399,9.907
					c1.9,3.485,3.231,10.337-9.182,17.105l-30.008,16.354C372.323,365.646,368.857,366.747,365.879,366.747z M364.299,352.531
					l1.945,3.566c0.716-0.093,2.3-0.492,5.151-2.043l4.396-2.397l-2.266-4.153L364.299,352.531z M390.563,328.265l6.453,11.827
					l4.391-2.391c2.917-1.594,4.133-2.735,4.61-3.294l-4.549-8.346c-0.083,0.011-0.168,0.026-0.257,0.042l-35.761,6.577l-6.42-11.78
					l-4.396,2.397c-2.844,1.55-4.041,2.671-4.51,3.221l4.539,8.324c0,0,0,0,0.002,0L390.563,328.265z M380.252,309.334l2.064,3.792
					l9.333-5.089l-1.745-3.202c-0.797,0.112-2.373,0.534-5.151,2.045L380.252,309.334z"/>
			</g>
		</g>
		<g>
			<g>
				<path fill="#FFFFFF" d="M163.172,407.938l-41.134,20.842l-20.627-40.726l40.799-20.664c6.356-3.222,10.338-3.253,11.94-0.088
					l4.318,8.527c0.704,1.383,0.792,2.659,0.264,3.821c-0.526,1.157-1.637,2.547-3.325,4.158l-3.397,3.196l4.918-1.016
					c2.43-0.52,4.289-0.612,5.57-0.28c1.283,0.332,2.266,1.177,2.951,2.525l5.077,10.021
					C172.127,401.42,169.676,404.647,163.172,407.938z M136.593,379.676l-12.526,6.35l4.292,8.475l8.315-4.217l3.43-3.677
					L136.593,379.676z M145.815,396.506l-5.135,0.862l-8.649,4.377l5.049,9.97l13.084-6.629L145.815,396.506z"/>
			</g>
			<g>
				<path fill="#FFFFFF" d="M179.466,401.389l-12.687-43.85l47.278-13.677l2.507,8.668l-26.98,7.805l2.44,8.434l21.73-6.287
					l2.424,8.383l-21.729,6.285l2.806,9.7l27.339-7.91l2.507,8.668L179.466,401.389z"/>
			</g>
			<g>
				<path fill="#FFFFFF" d="M268.434,379.739l-16.245-14.486l-1.557-7.977l10.858-2.115l-2.218-11.382l-13.173,2.567l7.084,36.365
					l-20.736,4.041l-8.734-44.804l44.16-8.61c7.076-1.379,10.952-0.327,11.631,3.154l3.016,15.482
					c0.679,3.48-2.518,5.908-9.595,7.287l-1.097,0.212l18.237,15.622l0.081,0.41L268.434,379.739z"/>
			</g>
			<g>
				<path fill="#FFFFFF" d="M339.657,367.467l-35.258,6.156c-7.02,1.225-10.834,0.088-11.445-3.402l-6.018-34.492
					c-0.611-3.496,2.637-5.86,9.738-7.1l35.138-6.13c7.181-1.255,11.078-0.134,11.688,3.356l1.489,8.537l-20.937,3.652l-0.923-5.296
					l-14.813,2.583l4.887,28.019l14.815-2.583l-1.583-9.067l-10.895,1.903l-1.469-8.416l31.833-5.557l3.614,20.721
					C350.128,363.84,346.84,366.217,339.657,367.467z"/>
			</g>
			<g>
				<path fill="#FFFFFF" d="M403.948,342.363l-30.01,16.354c-6.329,3.448-10.343,3.614-12.038,0.504l-4.803-8.814l18.55-10.108
					l3.373,6.189l11.897-6.484l-3.174-5.819l-32.172,5.892c-1.467,0.254-2.549,0.259-3.252,0.005
					c-0.705-0.247-1.303-0.829-1.798-1.742l-5.377-9.864c-1.695-3.112,0.623-6.391,6.951-9.84l30.12-16.417
					c6.331-3.449,10.334-3.635,12.012-0.554l4.63,8.495l-18.66,10.171l-3.175-5.824l-11.895,6.482l3.146,5.773l32.033-5.893
					c1.464-0.253,2.59-0.264,3.376-0.036c0.785,0.234,1.426,0.798,1.921,1.712l5.404,9.917
					C412.704,335.574,410.351,338.873,403.948,342.363z"/>
			</g>
		</g>
	</g>
</g>
</svg>
