<?xml version="1.0" encoding="utf-8"?>
<!-- Generator: Adobe Illustrator 16.0.4, SVG Export Plug-In . SVG Version: 6.00 Build 0)  -->
<!DOCTYPE svg PUBLIC "-//W3C//DTD SVG 1.1//EN" "http://www.w3.org/Graphics/SVG/1.1/DTD/svg11.dtd">
<svg version="1.1" id="Layer_1" xmlns="http://www.w3.org/2000/svg" xmlns:xlink="http://www.w3.org/1999/xlink" x="0px" y="0px" viewBox="0 0 936.375 617.591" enable-background="new 0 0 936.375 617.591"
	 xml:space="preserve">
<g>
	<g>
		<path fill="#9A9DA3" d="M452.062,11.959c31.381-11.401,65.703-15.02,98.658-9.255c32.075,5.355,62.405,18.732,89.536,36.437
			c1.094,0.736,2.317,1.395,3.711,1.112c41.438-4.097,84.033,0.018,123.281,14.284c-0.794-3.208-1.744-6.372-2.547-9.58
			c6.748,1.925,13.488,3.935,20.092,6.312c25.77,10.196,49.23,27.489,64.473,50.865c1.752,2.481,2.838,5.534,5.319,7.441
			c7.406,5.953,15.251,11.444,21.811,18.372c7.439,7.809,14.129,16.636,17.934,26.823c2.969,7.817,4.082,16.602,1.678,24.726
			c-3.139,11.889-12.452,21.016-22.674,27.251c-7.834,5.021-16.618,8.228-25.248,11.538c-3.439,4.097-6.74,8.416-11.29,11.402
			c0.222,4.72,0.539,9.502-0.369,14.18c-1.734,8.646-6.217,16.61-12.281,22.965c-6.005,6.09-12.6,12.163-15.832,20.271
			c-2.274,7.432-2.402,15.917-7.578,22.169c-5.294,6.817-14.034,9.534-22.299,10.364c-3.6,5.596-9.244,9.657-15.521,11.728
			c-6.611,2.403-13.711,2.43-20.64,2.864c-0.291,3.114-1.299,6.073-2.532,8.93c47.034-6.807,94.059-13.709,141.083-20.543
			c1.404-0.189,2.822-0.335,4.252-0.479c-11.898,12.521-24.103,24.744-36.171,37.094c-2.336,2.465-4.943,4.688-6.809,7.562
			c6.21,4.851,11.161,11.445,18.517,14.729c9.246,4.293,19.689,3.737,29.61,3.301c26.24,16.688,44.34,46.178,45.955,77.388
			c0.327,7.698,0.154,15.413,0.104,23.121c-2.505-1.328-4.977-2.704-7.449-4.074c-13.865,8.496-30.106,12.344-46.212,13.224
			c-11.932,0.65-23.948-0.28-35.624-2.795c-4.525,20.201-8.535,40.515-12.924,60.742c-158.607,19.697-317.266,39.028-475.891,58.571
			c-18.218,2.189-36.41,4.619-54.654,6.595c24.967-16.156,50.113-32.047,75.164-48.077C252.443,584.2,126.243,599.229,0,613.949
			c13.428-13.181,26.941-26.285,40.49-39.345c5.543-5.62,11.512-10.854,16.824-16.67c8.681-39.584,16.858-79.312,25.274-118.964
			c-13.703-12.24-27.567-24.299-41.038-36.797c17.816-2.983,35.667-5.79,53.525-8.467c-2.591-2.891-5.705-5.253-8.331-8.116
			c-9.152-9.529-16.327-21.365-18.671-34.504c-2.813-15.079,1.035-30.808,8.673-43.91c8.151-14.08,19.895-25.805,33.092-35.188
			c9.982-6.997,20.929-12.855,32.792-15.9c4.028-1.309,8.553-2.908,10.82-6.758c0.299-4.447-3.653-7.561-6.784-10.074
			c-6.765-5.2-11.17-13.232-11.948-21.725c-0.377-4.233-0.146-8.511,0.589-12.693c0.881-5.166,0.908-10.416,1.249-15.625
			c1.326,0.564,2.652,1.146,3.977,1.736c-3.147-10.102-2.377-21.297,1.89-30.963c5.867-13.812,17.081-24.179,26.438-35.571
			c1.53,10.973,1.146,22.28,4.456,32.964c3.242,10.93,8.75,21.853,18.2,28.669c4.995,3.72,11.017,5.808,17.157,6.603
			c3.37,0.197,5.697,2.831,8.007,4.961c7.826,7.689,14.258,17.449,15.737,28.516c1.018,5.542-0.137,11.162-1.71,16.473
			c14.292-12.282,27.737-25.788,38.72-41.158c5.115-6.824,8.75-14.573,13.36-21.724c13.59-19.192,29.371-36.804,46.691-52.687
			c-4.627-1.104-9.211-2.386-13.805-3.618c11.778-18.423,26.181-35.042,41.799-50.3C384.656,46.924,416.413,24.874,452.062,11.959
			L452.062,11.959z"/>
	</g>
	<g>
		<path fill="#041E42" d="M455.792,19.93c15.694-5.551,32.089-9.246,48.702-10.579c7.132-0.112,14.257-1.181,21.397-0.386
			c29.944,0.984,59.223,9.999,85.755,23.649c9.886,5.072,19.354,10.905,28.667,16.969c16.766-2.301,33.761-2.395,50.637-1.564
			c30.849,1.838,61.562,8.562,89.702,21.519c-0.905-3.9-2.086-7.723-3.129-11.572c22.709,8.09,43.621,22.023,58.683,40.969
			c9.553,12.12,16.431,26.386,19.594,41.508c1.395,5.79,1.813,11.743,2.55,17.637c4.071-3.113,5.935-8.237,6.465-13.181
			c0.65-6.175-0.975-12.273-2.626-18.166c9.179,7.758,17.448,16.969,22.624,27.917c4.054,8.51,5.184,18.937,0.854,27.575
			c-4.464,8.929-12.896,15.027-21.475,19.663c-7.023,3.619-14.369,6.621-21.956,8.81c-3.268,5.389-7.424,10.443-13.112,13.378
			c-0.897,0.735-3.13,1.18-2.251,2.788c2.439,7.561,1.754,15.953-1.658,23.102c-4.978,11.239-16.369,17.611-22.297,28.225
			c-4.918,7.099-4.192,16.26-7.844,23.845c-4.516,7.681-14.378,8.997-22.485,8.87c-1.437,5.338-5.662,9.538-10.761,11.488
			c-9.322,3.678-19.671,3.154-29.411,1.796c2.317,6.295,1.418,13.779-3.184,18.816c-7.682,8.51-19.123,12.265-30.029,14.558
			c15.319-1.428,30.458-4.251,45.699-6.278c38.659-5.654,77.335-11.264,115.995-16.937c-11.237,11.72-22.631,23.3-34.016,34.88
			c3.362,1.318,7.065,2.146,9.896,4.524c3.746,3.037,7.09,6.546,10.751,9.684c5.191,4.423,11.463,7.519,18.116,9.022
			c7.414,1.83,15.096,1.421,22.64,1.676c11.333,7.46,20.451,18.082,27.353,29.705c8.262,14.036,12.367,30.416,11.965,46.675
			c-10.768-5.808-21.374-11.905-32.21-17.576c5.781,8.1,12.188,15.746,18.158,23.701c0.683,0.683,1.128,2.41-0.247,2.625
			c-17.886,6.919-37.644,7.998-56.511,5.312c-5.714-0.728-11.24-2.386-16.926-3.226c-1.403,9.118-3.748,18.064-5.484,27.13
			c-2.635,12.026-4.927,24.13-7.74,36.12c-129.065,15.779-258.104,31.698-387.162,47.564c-32.938,4.105-65.917,7.937-98.822,12.265
			c12.386-8.442,25.224-16.207,37.796-24.377c12.265-7.8,24.461-15.71,36.787-23.417c-13.325,0.753-26.523,3.001-39.806,4.345
			c-116.937,13.762-233.875,27.49-350.812,41.294c12.958-12.693,26.002-25.29,39.054-37.882c1.189-1.026,2.036-2.377,2.267-3.935
			c8.63-41.61,17.748-83.128,26.207-124.764c-10.487-9.108-20.741-18.49-31.142-27.702c19.262-3.174,38.54-6.304,57.861-9.084
			c-13.53-7.825-26.505-17.576-34.888-31.022c-6.697-10.424-9.536-23.349-7.312-35.589c2.848-16.08,12.436-30.166,24.025-41.328
			c11.393-10.974,24.898-20.109,39.977-25.137c6.859-2.002,14.352-4.14,19.013-9.949c3.713-4.473,3.139-11.152-0.042-15.746
			c-3.617-6.048-10.948-8.818-13.855-15.395c-3.49-6.663-2.558-14.404-1.386-21.52c7.466,3.293,15.001,6.852,23.196,7.861
			c-7.193-5.346-14.112-11.66-17.602-20.118c-3.404-7.638-3.421-16.491-0.684-24.334c2.591-7.783,7.381-14.59,12.615-20.817
			c2.079,14.25,6.757,28.636,16.225,39.746c6.432,7.578,15.31,13.155,25.129,15.036c1.959,0.48,4.242,0.419,5.765,1.95
			c5.345,4.816,9.956,10.624,12.685,17.337c3.164,7.639,2.882,16.782-1.326,23.983c-4.653,8.288-12.402,14.215-20.339,19.142
			c-19.245,11.102-39.668,19.954-59.239,30.458c-9.964,5.533-19.936,11.743-27.07,20.825c-6.277,7.886-8.972,18.192-8.475,28.174
			c0.007,9.109,3.609,18.312,10.434,24.453c8.417,7.638,20.151,10.905,31.356,10.538c3.591-0.265,7.569-0.539,10.537-2.799
			c0.992-3.658,0.872-7.51,1.625-11.211c5.141-30.081,18.38-59.085,39.301-81.478c6.5-7.236,14.121-13.315,21.802-19.244
			c19.577-15.583,38.42-32.477,53.567-52.507c5.858-7.544,10.495-15.91,15.225-24.171c10.725-15.48,23.077-29.816,36.375-43.133
			c7.441-7.261,15.354-14.155,24.462-19.262c-6.561-2.301-13.428-3.566-20.074-5.611c12.265-17.045,26.72-32.423,42.226-46.562
			C396.578,49.455,424.719,31.118,455.792,19.93L455.792,19.93z"/>
	</g>
	<g>
		<path fill="#A6192E" d="M486.626,35.556c27.223-7.278,56.202-9.04,83.784-2.634c14.549,3.345,28.807,8.494,41.73,16.012
			c-8.622,5.389-16.661,11.744-24.239,18.526c-3.104,3.242-6.893,5.995-9.065,10.006c-0.428,0.249-1.284,0.753-1.712,1.001
			c8.612-1.753,17.1-4.098,25.78-5.534c24.795-4.558,50.01-6.954,75.231-6.363c36.215,0.684,73.069,7.758,104.963,25.547
			c5.527,2.959,10.548,6.749,15.953,9.904c0.188,0.283,0.564,0.847,0.752,1.13c0.223-3.747,0.205-7.501,0.223-11.248
			c4.113,0.787,7.406,3.524,10.76,5.851c18.867,13.984,30.089,36.744,32.116,59.905c1.771,14.78-0.326,30.697-8.801,43.253
			c-6.425,9.588-16.713,16.08-27.636,19.373c-8.219,2.352-16.823,3.156-25.351,2.866c0.043,6.799,1.634,14.472-2.565,20.416
			c-4.328,6.595-7.595,14.044-8.365,21.948c-0.111,1.967,0.514,3.865,0.865,5.78c3.642-6.876,8.953-13.018,15.651-17.081
			c6.218-4.636,11.563-11.306,12.615-19.201c0.239-0.932,0.196-2.429,1.462-2.609c2.909-1.008,5.928-1.625,8.853-2.609
			c1.036,3.011,0.223,6.176-0.291,9.212c-1.385,6.654-4.173,13.096-8.484,18.381c-4.354,5.577-10.503,9.484-14.429,15.447
			c-2.6,3.258-3.754,7.321-4.498,11.357c-0.257-0.229-0.771-0.701-1.037-0.932c-2.777-0.59-5.551-1.266-8.372-1.633
			c-5.228-0.574-10.537,0.281-15.737-0.523c-2.736-1.111-5.585-2.283-7.774-4.311c-5.936-6.817-14.789-10.956-23.77-11.512
			c-9.554-0.025-16.251,10.819-13.428,19.56c2.078,7.741,9.066,12.65,15.899,15.985c1.051,0.206,2.122,0.43,3.189,0.642
			c-1.898,0.299-3.788,0.617-5.652,1.044c-6.414,0.12-13.026-1.197-18.415-4.823c-4.141-2.61-7.202-6.545-9.689-10.675
			c-5.313,0.514-9.906,3.567-14.217,6.465c-6.757,4.987-12.897,11.154-16.84,18.63c5.832,0.614,11.701,0.692,17.55,1.076
			c7.793,1.268,16.542,1.652,22.836,6.98c2.267,1.643,2.627,4.628,1.925,7.159c-1.53,3.156-4.524,5.251-7.423,7.047
			c-8.091,4.653-17.217,7.083-26.266,9.059c-3.414,0.521-6.818,1.104-10.24,1.531c-4.223,0.897-8.585,0.197-12.804,1.087
			c-6.577,0.606-13.111-0.599-19.672-0.856c-2.523-0.564-5.147-0.547-7.628-1.241c-0.283-0.135-0.831-0.409-1.112-0.547
			c-0.412-0.429-1.24-1.273-1.659-1.692c7.654-1.72,15.635-2.532,22.837-5.868c1.839-0.898,3.754-1.633,5.713-2.257
			c-5.501,0.033-10.974,1.205-16.464,0.308c-6.468-0.376-12.957-1.438-18.869-4.185c-8.938-4.359-19.142-5.122-28.935-4.661
			c-3.609,0.351-7.21,0.848-10.837,0.821c2.659-1.855,4.987-4.233,7.972-5.618c6.149-3.165,13.104-4.241,19.946-4.585
			c4.276-0.206,8.509,0.762,12.786,0.557c11.726-0.693,23.734-2.343,34.255-7.895c5.697-13.589,17.147-24.402,30.611-30.166
			c2.78-1.378,5.746-2.284,8.835-2.644c-9.631-1.129-19.235,0.83-28.455,3.49c-9.673,3.139-18.457,8.553-25.788,15.584
			c-11.684-22.547-30.432-42.346-54.499-51.474c10.974,12.718,19.098,27.943,23.246,44.245c0.985,4.14,2.147,8.296,2.131,12.599
			c-15.788,3.952-30.688,11.206-43.741,20.913c-5.328,4.047-10.605,8.236-15.045,13.284c17.986,1.273,36.453,3.188,52.986,10.904
			c-2.618,2.831-5.68,5.174-8.384,7.911c-0.417,0.24-1.246,0.736-1.658,0.974c11.333,0.122,22.675-0.22,34.007,0.138
			c14.814,1.197,29.944,2.071,44.016,7.306c-35.213,1.59-70.512,5.115-104.809,13.581l-1.044,1.129
			c-0.069-0.564-0.206-1.685-0.274-2.247c4.66-3.791,9.238-7.673,13.787-11.591c0.043-0.291,0.137-0.863,0.181-1.156
			c-27.497-8.562-56.767-9.363-85.259-7.004c-22.116,2.163-43.911,7.074-65.053,13.865c-1.096,0.419-2.19,0.83-3.267,1.264
			c-0.446,0.105-1.335,0.317-1.789,0.42c-3.96,1.566-8.04,2.831-11.983,4.465c-1.908,0.796-3.926,1.266-5.995,1.318
			c0.461-0.257,1.367-0.78,1.83-1.036c13.206-15.908,28.995-29.395,44.827-42.594c1.042-0.881,2.214-1.592,3.396-2.274
			c-9.837-5.014-21.238-6.015-32.109-5.235c-3.147,0.557-6.287,1.096-9.399,1.754c-7.184,1.924-14.062,4.893-20.357,8.835
			c-5.96,3.756-12.308,7.005-19.099,8.955c-7.68,2.37-15.9,2.095-23.793,1.224c-5.509-1.42-10.915-3.464-15.618-6.722
			c-10.034-7.322-22.588-10.359-34.846-10.76c-4.559,0.554-9.382,0.34-13.607,2.378c-0.496,0.074-1.497,0.212-2.001,0.28
			c2.659,0.471,5.269,1.173,7.799,2.112c16.269,5.612,31.818,14.787,42.542,28.49c9.058,11.325,13.908,25.687,14.386,40.123
			c-9.314,1.779-18.782,2.617-28.139,4.105c-35.888,4.986-71.759,9.999-107.657,14.872c-0.376-6.413-2.942-12.863-8.048-16.959
			c-6.834-5.945-16.097-7.466-24.771-8.681c-0.504-15.123,1.951-30.193,6.004-44.724c8.468-30.083,26.642-57.752,52.431-75.713
			c1.428-0.77,3.062-1.026,4.619-1.436c7.706-1.823,14.515-6.193,20.672-11.017c9.485-7.775,17.217-17.483,23.598-27.909
			c3.926-6.398,7.133-13.206,11.007-19.638c10.76-18.048,24.24-34.29,38.412-49.719c13.839-14.403,28.269-28.336,44.331-40.259
			c4.55-3.302,9.254-6.44,14.344-8.87c-7.655-4.14-15.378-8.262-23.598-11.179c-0.026-0.273-0.077-0.821-0.102-1.094
			c25.572-23.615,55.014-43.167,87.035-56.87C466.56,41.869,476.473,38.311,486.626,35.556L486.626,35.556z"/>
	</g>
	<g>
		<path fill="#04244D" d="M633.967,115.237c12.993-12.59,30.534-20.271,48.488-22.067c9.313-0.393,18.774-0.513,27.873,1.839
			c10.539,2.377,20.478,6.809,29.808,12.188c0.104,0.581,0.31,1.745,0.412,2.326c-5.62-1.189-11.394-0.873-17.063-1.633
			c-4.372-0.436-8.706,0.461-13.061,0.624c-5.449,0.275-10.795,1.489-16.055,2.84c-0.847,0.299-1.692,0.581-2.531,0.864
			c-8.845,3.019-17.39,8.938-20.715,18.021c-0.282,1.18-0.591,2.361-0.891,3.541c-0.025,1.42-0.034,2.841-0.034,4.268
			c2.412,11.23,11.71,19.511,21.349,24.881c-0.017,0.992,0.067,2.002-0.119,2.985c-3.867,7.322-10.452,13.154-18.227,16.054
			c-3.721,0.83-7.45,1.941-11.299,1.737c-6.688-0.359-13.018-2.789-19.646-3.525c-12.206-1.916-25.188,0.215-35.675,6.902
			c7.919,1.044,17.593,0.231,23.281,6.971c4.576,5.089,10.981,7.895,17.013,10.871c-3.825,0.163-7.629,0.497-11.419,0.932
			c-4.251-1.025-8.681-0.161-12.94-1.12c-9.075-1.582-18.134-5.312-24.377-12.315c-6.191-6.689-9.314-15.901-9.545-24.932
			c6.817,5.012,16.045,4.909,23.708,2.026c4.217-0.83,8.502-1.231,12.798-1.239c-4.021-5.296-7.143-11.548-7.237-18.321
			C617.426,136.654,624.525,124.167,633.967,115.237L633.967,115.237z"/>
	</g>
	<g>
		<path fill="#F7F6F5" d="M649.928,114.142c5.2-3.797,11.119-6.475,17.208-8.51c-8.672,6.338-16.875,14.224-20.458,24.615
			c-2.806,7.681-2.198,17.406,4.089,23.222c4.361,3.797,10.074,6.705,12.315,12.376c0.916,2.267-0.274,4.91-2.48,5.85
			c-7.842,1.334-16.747-0.54-22.204-6.671c-6.013-6.868-6.722-16.645-5.73-25.326C634.661,129.247,641.229,120.104,649.928,114.142
			L649.928,114.142z"/>
	</g>
	<g>
		<path fill="#04244D" d="M814.643,120.77c2.224,4.312,4.9,8.384,6.552,12.984c4.738,13.668,6.457,28.456,4.551,42.808
			c-0.84,10.238-7.374,19.407-16.142,24.522c-10.187,6.012-22.271,8.612-34.03,8.398c6.781-11.033,15.42-21.186,19.739-33.562
			c0.3,1.342,0.649,2.677,1.068,4.002c1.83,4.645,1.14,9.717,1.07,14.575c8.193-5.012,12.409-14.232,14.881-23.17
			c0.369-1.66,0.721-3.327,1.138-4.986c2.207-11.266,2.31-22.812,1.78-34.239C814.77,128.34,814.591,124.561,814.643,120.77
			L814.643,120.77z"/>
	</g>
	<g>
		<path fill="#04244D" d="M434.468,150.064c6.158-1.197,12.454-1.659,18.724-1.069c7.021,1.035,14.044,2.48,20.569,5.371
			c2.172,0.985,4.346,2.011,6.603,2.797c-10.291,0.06-20.587,0.632-30.774,2.156c-14.009,2.42-28.789,6.038-39.455,16.045
			c-7.758,7.348-15.113,15.114-23.11,22.212c-21.281,20.801-45.623,39.42-74.01,49.248c-3.559,0.847-4.84,4.67-5.457,7.852
			c-0.83,6.801-0.291,13.737,1.762,20.278c4.062,12.729,12.958,24.13,25.308,29.639c15.336,7.312,33.083,3.805,48.539-1.275
			c11.607-4.251,22.597-10.042,32.921-16.816c3.841-2.617,8.596-2.993,13.009-4.028c7.355-1.599,14.916-1.386,22.392-1.171
			c-0.342-1.703-0.754-3.387-1.232-5.046c-10.119-2.011-20.348,0.487-30.492,0.933c-11.921,6.961-24.084,13.872-37.496,17.56
			c-12.334,3.343-25.703,4.286-37.933,0c-10.974-3.712-20.167-11.496-26.934-20.759c2.027,0.273,4.055,0.727,5.901,1.651
			c11.607,5.422,24.889,7.963,37.556,5.25c18.936-3.72,34.956-15.575,49.129-28.095c5.781,1.283,10.939,4.482,16.67,6.03
			c7.048,1.795,14.548,4.011,21.793,2.044c0.333-6.508,3.782-12.53,8.989-16.388c1.146,0.077,2.301,0.163,3.474,0.249
			c4.002,1.009,8.048,2.035,11.741,3.942c3.9,1.754,7.177,4.534,10.864,6.646c0.146-1.471,1.026-2.977,0.478-4.439
			c-1.17-4.13-5.124-6.44-8.518-8.578c-3.089-1.719-5.833-4.027-9.152-5.312c1.353-0.239,2.702-0.513,4.055-0.812
			c13.771,0.649,27.755,1.659,40.925,6.046c-3.805-2.352-6.729-5.96-11.023-7.526c-6.594-4.516-14.859-2.566-22.289-3.25
			c-6.697-1.822-12.232-6.441-18.869-8.417c-7.458-2.257-15.113-5.124-23.034-4.063c-2.438,0.317-4.456,1.857-6.132,3.549
			c-6.364,6.252-13.086,12.231-20.717,16.901c-1.427,0.873-3.051,1.437-4.728,1.54c-10.308,0.616-20.715,0.496-30.885-1.36
			c-4.851,1.753-9.538,3.986-14.575,5.218l-0.634,0.341c-3.728,1.009-7.44,2.292-11.358,2.086
			c8.392-7.612,17.551-14.736,28.26-18.765c5.276-1.788,10.861-0.89,16.31-0.965c4.619-0.061,9.177,0.837,13.804,0.691
			c4.808-3.463,9.563-7.073,13.575-11.477c2.539-2.575,4.771-5.937,8.509-6.826c4.201-0.993,8.586-1.548,12.89-0.872
			c9.57,0.975,18.953,3.257,28.148,6.021c4.456,1.24,8.014,4.515,12.521,5.627c7.305,2.027,14.969,1.771,22.393,3.045
			c11.521,2.925,22.579,7.398,33.656,11.649c5.533,1.916,9.896,6.022,14.077,9.964c6.091,5.988,12.368,11.899,17.114,19.065
			c-0.906,14.19-2.164,28.463-6.285,42.158c-0.573,1.438-1.146,2.883-1.712,4.337c-1.572-0.755-3.12-1.548-4.583-2.482
			c-8.707-5.593-17.406-11.179-26.19-16.644c0.078,0.504,0.24,1.514,0.317,2.027c5.089,6.372,10.083,12.821,15.173,19.201
			c2.104,2.72,4.592,5.218,5.9,8.467c-7.371,1.31-14.976,0.977-22.399,0.299c-17.9-0.896-35.64-4.096-52.995-8.518
			c-5.868-1.368-11.529-3.446-17.387-4.825c-3.891-5.515-5.141-12.35-7.347-18.619c-7.015-0.504-13.814,1.694-20.211,4.336
			c-9.871,4.174-19.049,9.776-28.175,15.346c-10.879,6.482-23.212,10.133-35.623,12.28c-10.306,1.951-20.929,0.326-30.654-3.394
			c-8.819-3.457-17.294-7.896-24.837-13.633c-3.481-2.696-7.108-5.559-9.006-9.65c-2.13-4.531-3.943-9.364-7.527-13.008
			c-0.54-5.012-1.951-9.879-2.626-14.865c1.112-6.749-1.847-13.933,1.189-20.467c3.551-8.03,12.403-11.436,20.118-14.172
			c6.08-1.78,10.237-6.877,15.609-9.939c15.695-7.792,28.584-19.894,42.748-30.004c6.946-4.943,12.394-11.589,18.86-17.089
			C403.054,163.913,417.576,153.64,434.468,150.064L434.468,150.064z"/>
	</g>
	<g>
		<path fill="#F7F6F5" d="M865.063,170.969c5.842-4.995,7.62-12.933,8.056-20.271c3.037,7.287,4.09,15.977,0.206,23.162
			c-5.328,9.946-15.917,15.848-26.368,19.056c1.558-5.242,3.011-10.529,3.873-15.934
			C855.86,175.818,861.181,174.639,865.063,170.969L865.063,170.969z"/>
	</g>
	<g>
		<path fill="#04244D" d="M702.734,183.737c0.368-0.025,1.111-0.093,1.48-0.127c1.778,9.648,4.892,19.612,12.248,26.514
			c6.312,6.399,15.626,8.553,24.359,8.151c-4.893,1.917-9.597,4.32-14.344,6.57c0.333,9.631,0.009,19.423-2.83,28.704
			c-0.446,1.445-0.788,2.917-1.054,4.405c-1.658-6.612-2.762-13.369-4.961-19.835c-0.263-0.897-0.512-1.797-0.752-2.685l-0.35-0.599
			c-1.002-3.165-2.361-6.185-3.942-9.093c-3.552,0.103-7.118-0.077-10.556-1.025c-3.438-1.506-6.764-3.644-8.588-7.04
			c-2.095-3.977-4.182-8.125-7.68-11.076c-4.723-3.995-10.494-6.68-16.5-8.057c6.022-0.821,12.146-1.523,17.852-3.763
			C693.241,192.667,698.561,188.656,702.734,183.737L702.734,183.737z"/>
	</g>
	<g>
		<path fill="#F7F6F5" d="M697.67,213.502c-2.215-4.166,0.104-8.758,1.83-12.633c1.268,2.438,2.635,4.825,4.142,7.133
			c-0.813,0.822-2.396,1.318-2.293,2.694c-0.095,3.798,3.396,6.415,6.629,7.639C704.282,217.591,699.757,217.111,697.67,213.502
			L697.67,213.502z"/>
	</g>
	<g>
		<path fill="#04244D" d="M558.393,228.351c1.129-0.213,2.267-0.427,3.414-0.641c29.173,2.011,58.468,7.099,85.709,18.055
			c8.682,3.541,17.028,7.869,24.939,12.881c0.078,0.247,0.232,0.743,0.31,0.983c-7.895,2.198-15.764,4.756-23.803,6.235
			c-27.071-17.209-57.46-29.226-88.986-35.187C559.436,229.89,558.915,229.12,558.393,228.351L558.393,228.351z"/>
	</g>
	<g>
		<path fill="#F7F6F5" d="M464.473,259.201c2.352,1.805,4.755,3.541,7.177,5.261c1.452,9.425,2.326,19.176,6.071,28.037
			c9.144,5.277,19.288,8.673,29.465,11.351l0.591,0.315c6.338,1.521,12.582,3.446,18.953,4.884c0.718,0.085,0.462,0.838,0.462,1.342
			l-0.395-0.975c-19.381-1.179-38.821-3.848-57.432-9.537C467.039,286.425,465.149,272.852,464.473,259.201L464.473,259.201z"/>
	</g>
	<g>
		<path fill="#F7F6F5" d="M523.104,260.664c10.956,12.419,22.006,24.752,32.946,37.18c-11.41-9.425-22.853-18.807-34.187-28.327
			C522.171,266.549,522.642,263.606,523.104,260.664L523.104,260.664z"/>
	</g>
	<g>
		<path fill="#F7F6F5" d="M723.799,287.787c-0.128-4.662,1.619-9.939,6.433-11.59c4.355,0.103,8.393,1.874,12.318,3.583
			c4.626,2.139,9.279,4.833,12.066,9.264c8.023-0.856,17.508-1.069,23.7,5.021c-8.859-0.514-17.798-1.241-26.616,0.102
			c-4.361-5.833-10.699-10.555-17.928-11.992C729.533,281.329,725.452,283.938,723.799,287.787L723.799,287.787z"/>
	</g>
	<g>
		<path fill="#04244D" d="M144.512,301.47c14.703-7.971,29.944-14.906,44.809-22.571c-21.725,25.043-35.529,56.715-39.661,89.577
			c-8.971,1.01-18.397-0.993-25.829-6.228c-5.611-3.934-9.041-10.537-9.657-17.302c-0.846-8.435,0.71-17.423,5.833-24.351
			C126.234,312.103,135.488,306.56,144.512,301.47L144.512,301.47z"/>
	</g>
	<g>
		<path fill="#F7F6F5" d="M687.553,299.879c1.478-0.812,2.978-1.608,4.464-2.42c7.57,4.099,14.343,9.476,20.938,14.975
			c-10.579-4.573-22.29-5.584-33.689-5.729c2.045-1.111,3.6-3.839,6.21-3.464c4.002,0.31,7.919,1.42,11.964,1.214
			C694.002,303.241,690.675,301.735,687.553,299.879L687.553,299.879z"/>
	</g>
	<g>
		<path fill="#9A9DA3" d="M616.39,342.389c1.645-0.018,3.723-1.573,5.202-0.676c0.419,0.419,1.247,1.264,1.659,1.692
			c0.281,0.138,0.829,0.412,1.112,0.547C621.738,343.244,619.085,342.687,616.39,342.389L616.39,342.389z"/>
	</g>
	<g>
		<path fill="#A6192E" d="M820.852,382.878c9.169,0.454,14.736,8.443,21.108,13.916c7.699,7.022,18.177,9.724,28.318,10.572
			c-2.436,0.717-4.874,1.429-7.328,2.068c-1.43-0.034-2.857-0.059-4.269-0.085c-4.636-0.743-9.178-2.232-13.907-2.283
			c0.3,0.238,0.89,0.735,1.182,0.983c4.472,7.32,11.896,12.59,15.043,20.774c-6.318,2.259-11.733,6.288-17.644,9.349
			c-6.329-10.938-15.474-21.065-27.576-25.546c-0.256-0.386-0.785-1.165-1.051-1.551
			C816.936,401.721,818.893,392.294,820.852,382.878L820.852,382.878z"/>
	</g>
	<g>
		<path fill="#F7F6F5" d="M873.831,417.756c16.779,8.786,29.669,23.001,44.696,34.231c-7.209-3.747-14.146-7.998-20.826-12.599
			C888.601,433.59,880.423,426.31,873.831,417.756L873.831,417.756z"/>
	</g>
	<g>
		<path fill="#04244D" d="M147.292,426.926c4.234-0.076,8.442-0.7,12.667-0.88c1.745-0.196,3.268,1.086,3.499,2.796
			c0.616,5.142-0.163,10.316-0.923,15.404c-2.258,11.195-4.517,22.503-8.921,33.101c-1.112,2.377-2.13,5.004-4.217,6.704
			c-4.645,2.438-10.05,2.482-15.114,3.364c3.071-16.697,7.074-33.221,10.495-49.849C145.546,434,146.188,430.399,147.292,426.926
			L147.292,426.926z"/>
	</g>
	<g>
		<path fill="#04244D" d="M130.639,502.16c5.209-0.488,10.435-1.6,15.679-0.864c1.855,0.368,3.899,1.473,4.258,3.524
			c0.847,4.908-0.333,9.845-0.88,14.72c-1.865,9.187-2.977,18.73-7.271,27.199c-1.548,3.069-3.899,6.081-7.321,7.098
			c-5.021,1.507-10.272,2.078-15.49,2.345c3.045-16.619,6.988-33.066,10.17-49.659l0.35-0.564
			C130.288,504.674,130.459,503.417,130.639,502.16L130.639,502.16z"/>
	</g>
	<g>
		<path fill="#A6192E" d="M776.435,505.52c5.125-1.196,10.419-1.386,15.61-2.198c3.327-0.58,6.705-0.641,10.085-0.614
			c-3.705,1.957-7.015,4.524-10.487,6.858c-0.434,2.183-0.889,4.372-1.309,6.561c-1.642,7.21-2.855,14.515-4.551,21.706
			c-5.098,0.772-10.143,2.158-15.275,2.396c-6.466-3.762-12.734-7.868-19.132-11.741c-3.021-1.729-5.766-4.209-9.323-4.723
			c-0.138,0.864-0.273,1.736-0.395,2.618c-1.555,5.824-2.437,11.802-4.02,17.619c-5.201,0.906-10.468,1.351-15.729,1.71
			c0.275-5.987,2.146-11.718,3.242-17.576c1.386-5.807,2.191-11.761,3.995-17.457c4.738-0.573,9.52-0.882,14.222-1.736
			c8.871,4.652,17.202,10.298,25.884,15.302c1.008,0.53,2.121,0.871,3.224,1.24c1.104-5.116,2.097-10.255,3.098-15.387
			C775.881,508.575,776.163,507.043,776.435,505.52L776.435,505.52z"/>
	</g>
	<g>
		<path fill="#A6192E" d="M667.813,518.189c13.488-1.413,26.891-4.054,40.474-4.185c1.282,0.729,2.573,1.48,3.856,2.252
			c0.401,5.643-1.378,11.048-2.558,16.498c-1.112,4.198-1.388,8.774-3.969,12.434c-3.387,2.191-7.185,3.698-11.222,4.047
			c-12.248,1.396-24.461,3.028-36.702,4.464c-6.175,0.625-12.358,2.131-18.584,1.303c-1.539-0.232-2.379-1.729-3.455-2.671
			c1.308-7.731,2.967-15.403,4.603-23.076c0.674-3.463,3.334-6.19,6.585-7.406C653.539,519.292,660.808,519.292,667.813,518.189
			L667.813,518.189z"/>
	</g>
	<g>
		<path fill="#04244D" d="M656.667,527.793c12.692-2.335,25.582-3.49,38.368-5.32c-0.58,6.346-2.633,12.444-3.813,18.696
			c-12.564,1.42-25.034,3.814-37.651,4.653c0.438-4.276,1.396-8.467,2.312-12.65C656.198,531.384,656.446,529.588,656.667,527.793
			L656.667,527.793z"/>
	</g>
	<g>
		<path fill="#A6192E" d="M578.09,529.554c12.257-1.564,24.539-3.01,36.804-4.541c3.233-0.264,6.467-0.05,9.71,0.008
			c1.247,1.284,2.06,2.882,2.635,4.576c-0.361,1.344-0.677,2.704-0.978,4.071c-4.943-0.026-9.8-1.438-14.753-0.89
			c-3.457,0.411-6.902,0.854-10.333,1.377c-7.509,0.95-15.019,1.89-22.501,3.045c-0.111,1.445-0.224,2.891-0.335,4.354
			c7.116,0.087,14.06-1.658,21.135-2.172c7.441-1.164,14.976-2.138,22.528-1.419c0.88,0.692,1.771,1.386,2.678,2.078
			c0.129,2.284,0.203,4.619-0.522,6.815c-0.172,0.891-0.317,1.78-0.443,2.686c-1.43,5.423-6.596,8.75-11.923,9.443
			c-15.218,1.993-30.451,3.849-45.633,6.133c-2.709,0.29-5.814,0.196-7.919-1.771c-2.087-2.062-0.325-5.038,0-7.45
			c6.603-0.086,13.257,0.591,19.809-0.531c10.066-1.358,20.134-2.743,30.209-4.009c0.412-1.661,0.848-3.295,1.25-4.944
			c-9.392,0.862-18.714,2.343-28.073,3.473c-5.978,0.717-12.28,1.82-18.13-0.206c-0.506-1.727-0.882-3.499-0.907-5.294
			c1.299-3.602,1-8.049,4.156-10.733C569.769,530.974,574.072,530.222,578.09,529.554L578.09,529.554z"/>
	</g>
	<g>
		<path fill="#A6192E" d="M536.215,534.207c4.447-0.778,8.946-1.385,13.471-1.547c-2.001,11.812-4.516,23.546-7.064,35.256
			c-5.439,0.847-10.948,1.256-16.431,1.685c2.037-11.744,4.483-23.419,7.047-35.059C534.223,534.43,535.215,534.318,536.215,534.207
			L536.215,534.207z"/>
	</g>
	<g>
		<path fill="#A6192E" d="M448.957,545.019c17.646-2.387,35.342-4.465,52.987-6.887c4.637-0.417,9.436-0.683,13.939,0.72
			c1.747,2.454,2.155,5.336,0.849,8.091c-0.315,0.812-0.617,1.635-0.899,2.463c-1.102,0.864-2.206,1.728-3.309,2.583
			c0.043,0.291,0.137,0.874,0.18,1.165c0.744,0.939,1.983,1.77,1.83,3.153c-0.017,3.552-0.907,7.084-2.164,10.393
			c-1.94,3.431-5.961,4.739-9.434,6.065c-16.354,2.958-32.997,3.806-49.471,5.928c-1.993,0.248-3.995,0.315-5.988,0.409
			c0.71-3.916,1.574-7.801,2.498-11.657c0.881-5.799,3.079-11.401,3.053-17.32c-2.514-1.53-4.918-3.309-7.724-4.293
			C446.519,545.575,447.734,545.301,448.957,545.019L448.957,545.019z"/>
	</g>
	<g>
		<path fill="#04244D" d="M479.757,548.38c7.023-0.744,14.009-2.018,21.091-2.104c-0.042,1.198-0.075,2.404-0.095,3.618
			c-7.457,1.753-15.155,2.104-22.715,3.242c-3.021,0.137-6.143,1.41-9.085,0.237c0.317-1.205,0.643-2.412,0.967-3.599
			C473.146,548.997,476.473,548.843,479.757,548.38L479.757,548.38z"/>
	</g>
	<g>
		<path fill="#04244D" d="M467.587,561.218c10.571-0.701,21.005-3.334,31.646-2.899c-0.352,1.984-0.78,3.96-1.206,5.934
			c-0.29,0.412-0.892,1.227-1.18,1.636c-1.72,0.163-3.432,0.325-5.133,0.54c-8.477,1.076-16.971,2.112-25.454,3.189
			C466.364,566.769,466.842,563.956,467.587,561.218L467.587,561.218z"/>
	</g>
	<g>
		<path fill="#FFFFFF" stroke="#9A9DA3" stroke-width="2" stroke-miterlimit="10" d="M109.433,436.636
			c0.64-2.617,0.309-4.462-2.16-5.571l-10.631-4.541c-0.652-0.534-2.52-0.892-2.361-1.547c0.16-0.654,1.129-1.427,2.755-1.665
			l50.73-7.439c42.208-6.189,60.714,4.558,54.269,30.955c-6.126,25.088-22.408,35.68-39.516,43.236
			c14.763,2.041,27.543,9.003,21.629,33.219c-7.724,31.633-30.068,49.424-63.349,54.305l-63.717,9.345
			c-1.625,0.237-2.275-0.298-2.116-0.952c0.16-0.655,2.296-1.39,3.319-2.379l13.721-8.113c3.214-1.944,4.504-4.027,5.143-6.645
			L109.433,436.636z M107.23,569.059l12.582-1.846c17.857-2.619,23.833-11.068,31.024-40.519
			c5.221-21.378-1.332-28.201-21.218-25.283l-6.087,0.892L107.23,569.059z M126.195,491.394l6.086-0.893
			c19.886-2.916,30.487-12.673,36.879-38.854c5.434-22.251-1.332-28.202-21.218-25.284l-6.086,0.891L126.195,491.394z"/>
		<path fill="#FFFFFF" stroke="#9A9DA3" stroke-width="2" stroke-miterlimit="10" d="M247.095,493.095l6.88-1.009
			c1.564-0.229,2.896-0.75,3.728-1.682l13.819-13.374c0.789-0.765,1.186-1.146,2.123-1.283c0.938-0.137,1.169,0.153,1.005,0.825
			l-8.703,35.64c-0.122,0.504-0.519,0.885-1.456,1.023c-1.252,0.183-1.441-0.274-1.902-0.854l-7.637-10.713
			c-0.421-0.751-1.589-0.902-3.153-0.674l-6.88,1.01l-12.479,51.106l17.826-2.614c4.064-0.597,7.439-2.064,9.182-4.265
			l24.771-34.755c0.477-0.719,1.498-1.191,2.434-1.329c0.939-0.139,1.441,0.274,1.318,0.779l-10.303,42.194
			c-0.206,0.842-1.307,1.652-2.871,1.882l-81.001,11.878c-1.252,0.185-1.755-0.228-1.632-0.732c0.123-0.506,1.77-1.071,2.559-1.834
			l10.572-6.252c2.477-1.497,3.472-3.103,3.963-5.12l24.876-101.874c0.493-2.018,0.237-3.438-1.665-4.293l-8.192-3.501
			c-0.501-0.412-1.943-0.687-1.82-1.192c0.123-0.505,0.873-1.101,2.124-1.284l81.002-11.879c1.25-0.184,2.336,0.306,2.131,1.147
			l-10.222,41.858c-0.164,0.672-0.873,1.101-1.812,1.239c-1.25,0.182-2.063-0.187-2.213-0.81l-9.17-29.13
			c-0.719-2-3.288-2.597-7.352-2.002l-17.827,2.615L247.095,493.095z"/>
		<path fill="#FFFFFF" stroke="#9A9DA3" stroke-width="2" stroke-miterlimit="10" d="M333.107,534.781
			c-0.493,2.018-0.238,3.44,1.664,4.295l8.193,3.5c0.502,0.411,1.943,0.686,1.82,1.19c-0.124,0.505-0.873,1.102-2.124,1.285
			l-49.1,7.2c-1.251,0.184-1.755-0.229-1.631-0.733c0.124-0.506,1.811-1.238,2.559-1.833l10.573-6.252
			c2.477-1.498,3.472-3.103,3.964-5.121l24.875-101.873c0.493-2.019,0.238-3.439-1.665-4.294l-8.193-3.501
			c-0.5-0.412-1.942-0.687-1.819-1.192c0.123-0.504,0.872-1.101,2.124-1.283l39.093-5.733c32.526-4.77,47.156,2,41.82,23.854
			c-4.557,18.66-18.601,28.013-30.451,33.316c9.896,1.467,17.677,6.646,15.419,15.894l-8.58,35.135
			c-0.287,1.177,0.717,2.003,2.077,2.614l8.611,4.247c1.086,0.49,2.173,0.979,2.05,1.484c-0.123,0.504-1.687,0.732-3.25,0.962
			l-16.264,2.385c-14.386,2.11-18.784-2.108-17.389-7.823l8.825-36.143c1.807-7.397-5.282-11.707-16.229-10.103l-5.315,0.78
			L333.107,534.781z M346.816,478.633l4.691-0.688c15.325-2.248,23.181-9.722,28.106-29.895
			c4.187-17.148-0.713-21.779-16.038-19.531l-4.691,0.688L346.816,478.633z"/>
		<path fill="#FFFFFF" stroke="#9A9DA3" stroke-width="2" stroke-miterlimit="10" d="M473.972,474.086
			c0.411-1.681-0.594-2.506-2.537-3.192l-7.771-2.753c-1.086-0.488-1.318-0.776-1.155-1.449c0.165-0.674,1.185-1.147,2.75-1.377
			l46.286-6.788c1.253-0.183,2.108,0.014,1.943,0.688c-0.164,0.673-0.871,1.101-1.974,1.911l-10.056,5.365
			c-2.394,1.161-3.617,2.476-4.028,4.156l-12.89,52.786c-0.125,0.505-0.832,0.933-1.768,1.071c-1.252,0.182-2.421,0.03-2.965-0.215
			l-8.275-3.163c-1.127-0.321-1.711-0.396-2.962-0.213c-0.938,0.137-1.917,0.443-3.292,1.13c-7.349,4.158-14.095,7.093-20.977,8.102
			c-39.093,5.733-31.298-32.366-24.443-60.441c5.049-20.677,16.137-59.908,54.604-65.55c10.321-1.514,15.96,0.091,18.76,0.978
			c1.126,0.321,3.194,0.505,4.445,0.32c1.563-0.229,4.979-1.864,8.475-3.837c3.143-1.758,5.226-2.874,6.789-3.102
			c1.562-0.231,1.901,0.856,1.492,2.537l-9.852,40.346c-0.165,0.67-0.916,1.268-1.853,1.406c-1.252,0.183-2.024-0.352-2.404-1.27
			c-3.488-11.645-11.642-31.358-25.401-29.341c-13.137,1.926-20.79,18.448-29.452,53.919c-11.822,48.415-10.368,57.281,0.891,55.629
			c9.696-1.422,18.136-8.82,22.035-24.79L473.972,474.086z"/>
		<path fill="#FFFFFF" stroke="#9A9DA3" stroke-width="2" stroke-miterlimit="10" d="M560.145,447.186l6.881-1.01
			c1.562-0.229,2.897-0.749,3.729-1.682l13.817-13.372c0.789-0.765,1.185-1.147,2.123-1.284c0.938-0.138,1.168,0.152,1.004,0.824
			l-8.701,35.64c-0.123,0.506-0.519,0.887-1.456,1.023c-1.252,0.183-1.442-0.274-1.903-0.853l-7.636-10.715
			c-0.421-0.749-1.591-0.901-3.152-0.672l-6.882,1.008l-12.479,51.106l17.826-2.613c4.066-0.598,7.439-2.064,9.184-4.265
			l24.771-34.756c0.477-0.717,1.497-1.19,2.435-1.327c0.939-0.14,1.441,0.274,1.318,0.778l-10.303,42.195
			c-0.206,0.84-1.308,1.651-2.874,1.88l-81.001,11.879c-1.25,0.184-1.753-0.229-1.63-0.733c0.124-0.504,1.77-1.07,2.56-1.833
			l10.572-6.252c2.479-1.498,3.473-3.102,3.963-5.119l24.877-101.875c0.492-2.019,0.237-3.438-1.665-4.294l-8.192-3.501
			c-0.501-0.411-1.942-0.686-1.819-1.19c0.122-0.506,0.872-1.102,2.122-1.285l81.002-11.878c1.25-0.185,2.338,0.306,2.133,1.146
			l-10.221,41.859c-0.164,0.674-0.873,1.1-1.812,1.238c-1.251,0.184-2.065-0.185-2.215-0.81l-9.17-29.129
			c-0.718-2-3.286-2.598-7.352-2.001l-17.826,2.613L560.145,447.186z"/>
		<path fill="#FFFFFF" stroke="#9A9DA3" stroke-width="2" stroke-miterlimit="10" d="M645.386,390.758
			c0.494-2.018-0.118-3.225-1.665-4.294l-6.629-3.729c-0.502-0.411-1.941-0.686-1.778-1.36c0.083-0.336,0.832-0.932,2.083-1.116
			l37.53-5.504c2.189-0.32,2.837,0.72,3.054,2.309l11.12,68.067l0.626-0.09L705.122,382c0.492-2.019,0.195-3.272-1.708-4.129
			l-7.524-3.759c-0.504-0.413-1.941-0.688-1.778-1.359c0.082-0.338,0.832-0.933,2.082-1.116l41.282-6.054
			c1.252-0.184,1.753,0.229,1.672,0.564c-0.165,0.675-1.539,1.361-2.6,2.003l-9.01,6.021c-2.205,1.62-3.472,3.104-3.964,5.121
			l-27.38,112.128c-0.287,1.178-1.389,1.988-3.58,2.309l-13.134,1.928c-2.816,0.411-4.906-0.902-5.229-3.286l-14.221-86.254
			l-0.624,0.091l-20.443,83.719c-0.491,2.019,0.118,3.226,2.02,4.082l7.213,3.805c0.814,0.365,1.943,0.687,1.778,1.36
			c-0.082,0.336-0.83,0.933-2.082,1.115l-41.281,6.055c-1.252,0.182-1.754-0.229-1.671-0.566c0.164-0.673,1.85-1.407,2.599-2.002
			l9.01-6.021c2.203-1.62,3.472-3.104,3.963-5.121L645.386,390.758z"/>
		<path fill="#FFFFFF" stroke="#9A9DA3" stroke-width="2" stroke-miterlimit="10" d="M810.027,396.923
			c-0.123,0.505-0.829,0.934-2.081,1.117c-0.938,0.138-1.441-0.277-1.588-0.901c-1.678-12.883-11.518-31.865-25.904-29.755
			c-7.818,1.146-9.308,4.77-10.375,9.139c-2.011,8.238,0.044,15.881,16.743,38.88c15.815,21.669,16.965,26.851,13.721,40.131
			c-4.353,17.82-22.866,25.721-34.438,27.418c-8.444,1.238-13.31,0.167-16.733-0.626c-3.153-0.672-4.906-0.901-5.843-0.763
			c-1.251,0.182-4.042,1.727-10.912,5.167c-1.376,0.687-2.79,1.543-4.042,1.727c-1.249,0.183-1.48-0.106-1.357-0.61l10.344-42.365
			c0.123-0.505,0.602-1.223,1.853-1.406c0.938-0.139,1.397,0.443,1.587,0.9c2.348,12.625,6.829,32.553,25.281,29.848
			c5.941-0.871,9.932-4.861,11.203-10.072c2.752-11.265-3.635-22.161-16.535-39.72c-12.209-16.688-15.345-28.547-12.348-40.818
			c3.899-15.971,17.954-22.896,33.904-25.233c5.941-0.87,12.371-0.031,16.569,1.298c1.44,0.275,3.194,0.505,4.446,0.322
			c1.25-0.185,4.664-1.819,7.85-3.746c3.142-1.758,5.224-2.874,7.101-3.148c1.563-0.229,1.982,0.519,1.736,1.529L810.027,396.923z"
			/>
	</g>
</g>
</svg>
