<?xml version="1.0" encoding="utf-8"?>
<!-- Generator: Adobe Illustrator 16.0.4, SVG Export Plug-In . SVG Version: 6.00 Build 0)  -->
<!DOCTYPE svg PUBLIC "-//W3C//DTD SVG 1.1//EN" "http://www.w3.org/Graphics/SVG/1.1/DTD/svg11.dtd">
<svg version="1.1" id="Layer_1" xmlns="http://www.w3.org/2000/svg" xmlns:xlink="http://www.w3.org/1999/xlink" x="0px" y="0px" viewBox="0 0 983.003 674.223" enable-background="new 0 0 983.003 674.223"
	 xml:space="preserve">
<g>
	<g>
		<g>
			<g>
				<path fill="#A7A9AC" d="M782.094,151.327c-18.626-77.03-56.923-127.564-58.393-129.634l-15.2-21.511L679.87,15.137
					c-14.132,6.975-77.931,28.476-190.562,29.409C362.917,45.515,297.11,11.919,296.58,11.651L276.94,0l-14.776,18.616
					c-19.211,20.267-63.616,106.889-69.42,190.718c-9.903,143.026,93.16,274.541,99.195,282.771
					c66.868,96.976,177.183,167.035,181.722,169.739l18.167,12.378l20.98-13.977c3.807-2.215,87.153-54.588,167.491-155.579
					c45.462-57.144,69.846-102.021,89.958-165.587C789.638,277.839,796.298,210.03,782.094,151.327z M746.713,331.632
					c-19.108,60.388-42.346,103.12-85.736,157.658c-77.476,97.39-163.997,148.217-167.636,150.33l-1.571,0.916l-1.566-0.938
					c-4.354-2.591-107.347-64.666-171.188-157.342l-0.226-0.323c-4.351-5.908-106.535-146.377-97.182-281.521
					c5.41-78.152,44.025-149.558,58.475-164.801l1.622-1.71l2.131,1.142c0.683,0.359,69.851,36.084,200.127,36.084
					c1.922,0,3.852-0.011,5.807-0.022c121.162-1.002,192.091-25.875,207.388-34.507l1.463-0.832l2.81-2.809l2.113,2.992
					c1.351,1.914,33.333,47.696,50.86,120.186C767.576,210.594,764.777,274.563,746.713,331.632z"/>
			</g>
		</g>
		<g>
			<path d="M491.678,654.862l-7.801-4.653c-4.45-2.654-109.677-66.081-175.024-160.945c-6.403-8.69-109.185-150.721-99.563-289.704
				c5.702-82.387,45.992-155.733,61.835-172.44l8.096-8.547l10.382,5.544c0.627,0.338,69.243,35.687,200.063,34.642
				c122.336-1.003,190.648-26.83,201.414-32.916l11.973-11.967l10.568,14.948c1.409,1.995,34.699,49.638,52.784,124.411
				c13.684,56.586,10.799,122.968-7.919,182.123c-19.612,61.976-43.423,105.779-87.845,161.621
				c-78.961,99.249-167.384,151.164-171.11,153.325L491.678,654.862L491.678,654.862z M287.224,56.924
				c-14.359,22.234-42.62,79.514-47.137,144.769c-8.929,128.915,92.711,268.032,93.738,269.426l0.311,0.43
				c51.624,75.051,132.381,130.802,157.705,147.197c22.979-14.793,92.653-63.058,154.645-140.982
				c41.837-52.588,64.216-93.705,82.569-151.724c24.245-76.601,13.216-141.294,7.35-165.545
				c-11.864-49.042-30.898-85.604-41.069-102.851c-30.03,12.519-98.718,31.103-205.409,31.976
				C381.339,90.488,313.399,67.788,287.224,56.924L287.224,56.924z"/>
		</g>
		<g>
			<path fill="#B8292F" d="M282.323,37.736c0,0,70.286,37.58,207.473,36.453c137.183-1.126,207.093-32.32,211.226-36.453
				c0,0,32.787,46.372,50.383,119.135c10.558,43.654,13.566,106.836-7.635,173.829c-20.229,63.932-45.043,106.181-85.207,156.667
				c-78.048,98.111-166.772,149.589-166.772,149.589s-106.194-63.363-170.373-156.662c0,0-106.171-143.347-96.731-279.672
				C230.075,122.792,268.819,51.981,282.323,37.736z"/>
		</g>
		<g>
			<g>
				<path d="M491.791,87.76"/>
			</g>
		</g>
	</g>
	<g>
		<path fill="#FFFFFF" d="M491.791,620.967c0,0-113.801-69.626-202.24-208.797c-108.294-170.441-9.691-353.835-2.434-353.835
			c0,0,77.563,31.988,204.673,29.425V620.967z"/>
	</g>
	<g>
		<g>
			<path d="M339.143,103.311l-13.173-2.944c1.978-7.496,0.155-12.058-5.469-13.687c-6.45-1.872-11.338,2.921-14.662,14.378
				c-1.92,6.617-2.346,11.356-1.276,14.219c1.072,2.869,3.182,4.756,6.329,5.667c5.107,1.486,9.192-0.933,12.254-7.243l11.76,4.209
				c-2.603,6.08-6.345,10.191-11.225,12.337c-4.878,2.145-10.163,2.392-15.851,0.74c-6.979-2.027-11.95-6.08-14.917-12.16
				c-2.968-6.08-3.216-13.367-0.751-21.865c2.309-7.957,6.308-13.854,12.002-17.704c5.694-3.844,12.198-4.707,19.511-2.584
				C336.344,80.347,341.5,89.225,339.143,103.311z"/>
		</g>
		<g>
			<path d="M359.075,119.878l-3.711,21.436l-12.757-2.208l9.356-54.088l23.772,4.117c4.387,0.756,7.818,1.871,10.297,3.351
				c2.479,1.475,4.356,3.721,5.627,6.745c1.274,3.019,1.622,6.193,1.049,9.517c-1.124,6.493-5.062,10.611-11.81,12.354l5.847,25.64
				l-14-2.418l-4.597-22.873L359.075,119.878z M363.056,96.855l-2.386,13.791l7.767,1.34c2.537,0.44,4.409,0.579,5.622,0.423
				c1.208-0.161,2.369-0.772,3.482-1.844c1.109-1.078,1.801-2.402,2.075-3.989c0.263-1.507,0.045-2.933-0.647-4.274
				c-0.694-1.345-1.544-2.246-2.552-2.708c-1.008-0.461-2.967-0.943-5.87-1.441L363.056,96.855z"/>
		</g>
		<g>
			<path d="M421.02,150.847c-7.369-0.605-12.84-3.844-16.414-9.705c-3.576-5.865-5.04-12.722-4.394-20.577
				c0.659-7.989,3.249-14.487,7.774-19.495c4.525-5.002,10.565-7.195,18.119-6.574c7.636,0.627,13.158,3.958,16.573,9.979
				c3.413,6.026,4.817,12.712,4.214,20.058c-0.654,7.936-3.208,14.46-7.661,19.581C434.778,149.238,428.706,151.479,421.02,150.847z
				 M425.162,104.946c-6.719-0.552-10.565,5.078-11.539,16.884c-0.973,11.838,1.898,18.03,8.616,18.588
				c6.506,0.531,10.246-5.104,11.22-16.911C434.435,111.669,431.668,105.482,425.162,104.946z"/>
		</g>
		<g>
			<path d="M500.492,97.729l-0.203,34.18c-0.031,5.523-0.686,9.63-1.962,12.316c-1.276,2.686-3.614,4.884-7.013,6.594
				c-3.402,1.706-7.743,2.547-13.024,2.515c-5.28-0.033-9.479-0.832-12.591-2.408c-3.116-1.572-5.442-3.796-6.979-6.676
				c-1.539-2.879-2.292-7.077-2.26-12.599l0.204-34.18l13.951,0.08l-0.2,34.181c-0.016,2.949,0.217,5.125,0.708,6.519
				c0.486,1.399,1.472,2.51,2.955,3.335c1.482,0.826,3.31,1.25,5.481,1.261c2.414,0.015,4.379-0.376,5.898-1.175
				c1.521-0.793,2.531-1.855,3.032-3.179c0.505-1.319,0.768-3.539,0.783-6.649l0.204-34.18L500.492,97.729z"/>
		</g>
		<g>
			<path d="M545.085,95.606l0.525,10.841l-13.575,0.659l2.139,43.982l-13.012,0.632l-2.14-43.981l-13.657,0.665l-0.525-10.842
				L545.085,95.606z"/>
		</g>
		<g>
			<path d="M590.337,101.542l-26.004,2.691l1.163,11.201l20.438-2.118l1.062,10.278l-20.439,2.118l1.232,11.919l26-2.692
				l1.12,10.798l-39.001,4.038l-5.65-54.597l39.001-4.038L590.337,101.542z"/>
		</g>
		<g>
			<path d="M615.285,120.484l3.882,21.403l-12.739,2.312l-9.79-54.014l23.741-4.299c4.381-0.793,7.983-0.922,10.819-0.392
				c2.837,0.537,5.373,2.005,7.604,4.402c2.235,2.401,3.651,5.26,4.252,8.583c1.173,6.482-1.105,11.705-6.848,15.657l14.3,22.073
				l-13.983,2.531l-12.171-19.902L615.285,120.484z M611.12,97.494l2.498,13.769l7.753-1.405c2.536-0.461,4.343-0.97,5.426-1.533
				c1.082-0.563,1.962-1.544,2.632-2.932c0.677-1.389,0.868-2.874,0.584-4.457c-0.272-1.505-0.964-2.766-2.074-3.79
				c-1.115-1.024-2.225-1.582-3.329-1.667c-1.105-0.086-3.11,0.133-6.011,0.659L611.12,97.494z"/>
		</g>
		<g>
			<path d="M690.599,80.396l-9.394,6.691c-2.676-3.722-6.289-4.89-10.841-3.496c-4.857,1.484-6.81,3.801-5.845,6.955
				c0.386,1.259,1.164,2.181,2.337,2.776c1.176,0.596,3.464,0.725,6.858,0.386c5.684-0.552,9.93-0.66,12.75-0.316
				c2.821,0.343,5.459,1.479,7.908,3.41c2.45,1.925,4.14,4.401,5.061,7.426c1.449,4.745,0.875,9.404-1.714,13.978
				c-2.596,4.579-7.48,7.962-14.649,10.149c-5.383,1.646-10.331,1.818-14.862,0.525c-4.524-1.297-8.122-4.171-10.797-8.622
				l10.594-6.053c2.776,4.503,7.077,5.866,12.911,4.086c2.814-0.858,4.75-2.042,5.796-3.555c1.05-1.512,1.346-3.024,0.88-4.542
				c-0.467-1.534-1.46-2.536-2.971-2.997c-1.518-0.466-4.178-0.52-7.989-0.171c-7.104,0.654-12.444,0.219-16.021-1.309
				c-3.575-1.528-6.064-4.6-7.475-9.217c-1.427-4.664-0.933-9.12,1.486-13.36c2.413-4.241,6.53-7.25,12.342-9.023
				C677.259,70.969,685.14,73.066,690.599,80.396z"/>
		</g>
	</g>
	<g>
		<g>
			<g>
				<path fill="#A7A9AC" d="M150.181,218.465c-5.252,0.772-11.375,2.542-14.074,3.645v-52.372h-22.846
					c-1.222-0.219-5.702,0-12.005,0c-13.45,0-38.936,3.319-58.865,25.473c-8.112,8.476-45.316,52.114-42.207,135.755
					c3.681,98.965,41.976,158.056,102.429,158.056c2.729,0,33.494,0,33.494,0v-16.61h142.551l54.754,114.046l-1.451-114.046h47.523
					c0,0,11.042,28.063,22.007,49.853c8.387,16.675,31.277,51.037,31.277,51.037V263.604l40.017-46.754H181.793
					C181.793,216.851,160.347,216.958,150.181,218.465z"/>
			</g>
			<g>
				<path fill="#A7A9AC" d="M982.479,422.56l-0.144-3.174l-0.841-3.013c-13.003-46.699-29.282-105.275-39.505-142.313l40.521,38.845
					V180.28h-95.574c-24.756,0-39.612,18.454-42.932,35.542l-0.198,1.029H730.645l0.145,0.167c-2.321-0.113-8.15-0.167-10.611-0.167
					c-27.825,0-40.774,10.129-49.529,21.114c-16.053-15.672-38.47-20.916-52.522-21.114h-98.294l33.611,46.024v162.95
					l-28.347,46.587h318.388v15.641h96.295c21.223,0,36.829-10.794,41.746-28.835C982.608,455.25,983.67,448.82,982.479,422.56z"/>
			</g>
		</g>
		<g>
			<g>
				<path d="M222.139,258.505v172.012l-2.571,3.598l-2.499-3.951V260.596c0-13.635-16.018-28.314-51.187-28.314
					c-39.071,0-43.585,24.524-43.762,25.559l-0.164,1.009v56.988l-13.817,39.145h14.541v75.024l-2.008,3.013v-55.921l-27.771,31.516
					c-1.088-0.702-2.763-2.139-4.927-5.077c-9.625-13.028-15.539-37.548-17.573-72.87c-2.101-36.405,14.549-76.012,20.324-80.393
					c1.292-0.933,2.345-1.591,3.166-2.042c2.177,3.071,4.465,6.188,4.49,6.219l22.292,25.317V187.71l-10.15-1.844
					c-0.643-0.113-4.107-0.691-9.267-0.691c-10.922,0-31.599,2.67-47.55,20.541c-4.683,4.846-41.059,45.134-38.097,124.673
					c3.335,89.667,35.861,143.197,87.003,143.197c2.247,0,4.557-0.107,6.86-0.327l11.2-1.04v-15.237H286.17l-15.016-26.305v-26.352
					l23.099,65.915l22.274,48.79v-62.049h70.246l-16.034-26.39v-28.062l26.824,73.979l19.771,39.665V257.905l21.929-25.623H202.716
					L222.139,258.505z M316.527,436.624V257.813l2.067-2.477l2.472,3.249v171.84L316.527,436.624z"/>
			</g>
			<g>
				<path d="M967.065,423.263l-0.063-1.405l-0.382-1.346c-14.379-51.638-38.668-139.053-46.774-168.757h21.18l26.051,24.975v-81.008
					h-80.139c-18.434,0-26.235,15.115-27.784,23.092l-0.236,1.18v28.025l1.946,6.992c24.117,86.794,39.655,142.7,45.53,163.765
					h-19.827l-17.018-15.264l5.646-25.908l-33.505,30.6h-5.452V258.376l16.963-26.095h-89.987l21.354,26.117v171.635l-3.662,5.078
					l-3.484-5.147V260.596c0-13.635-16.842-28.314-53.805-28.314c-40.844,0-45.686,24.385-45.874,25.425l-0.192,1.078v56.919
					l-12.418,32.968c-2.605-3.431-5.303-6.155-7.727-8.268c9.105-9.458,20.696-28.405,16.585-61.562
					c-4.499-36.271-38.449-46.313-55.863-46.56h-67.91l18.664,25.559v172.306l-16.326,26.835h67.829l0.751-0.091
					c36.169-4.45,52.274-22.166,55.584-61.149c1.56-18.331-2.241-31.435-7.465-40.759h9.078v74.82l-19.355,27.179h198.911
					l1.029-4.735v20.374h80.863c19.222,0,25.081-10.953,26.857-17.483C967.039,453.684,968.241,449.271,967.065,423.263z
					 M620.748,314.7v-30.48c2.445,1.737,4.771,4.744,5.63,10.465c1.925,12.863-3.153,18.739-5.089,19.791
					C621.171,314.539,620.995,314.614,620.748,314.7z M620.748,369.378c2.408,2.092,4.719,5.673,5.608,12.22
					c2.112,15.617-3.816,22.626-5.521,23.645c-0.027,0.016-0.055,0.026-0.087,0.048V369.378z"/>
			</g>
		</g>
		<g>
			<g>
				<path fill="#FFFFFF" d="M101.256,191.346c-9.917,0-28.668,2.418-43.027,18.572c-3.019,3.094-39.357,42.073-36.454,120.245
					c3.2,85.94,33.416,137.252,80.837,137.252c2.056,0,4.177-0.102,6.286-0.306l5.604-0.515v-73.148l-19.342,21.939
					c-1.62,0.258-6.03,0.119-12.153-8.176c-10.348-14.016-16.661-39.65-18.769-76.184c-2.177-37.671,15.123-80.15,22.868-85.759
					c5.214-3.775,7.949-4.182,8.876-4.182c0.381,0,0.525,0.07,0.515,0.07c2.23,3.345,6.667,9.382,6.857,9.634l11.147,15.146v-73.068
					l-5.073-0.921C109.095,191.882,106.006,191.346,101.256,191.346z"/>
			</g>
			<g>
				<path fill="#FFFFFF" d="M371.602,256.157v30.786l-17.851-48.49h-29.127h-11.114h-52.466l10.466,17.661v29.95l-17.068-47.61
					h-39.467l13.339,18.015v176.027l-9.05,12.669l-8.367-13.212V260.596c0-8.895-11.988-22.143-45.013-22.143
					c-33.883,0-37.532,19.569-37.668,20.4l-0.086,0.51v57.53l-11.262,31.913h11.989v83.066l-12.622,18.938h99h7.603h54.517
					l-12.372-18.239v-64.538l18.382,52.469l18.942,52.119l8.049,15.421V255.573l8.458-10.15l8.43,11.087v175.942l-13.466,18.357
					h63.522l-12.733-18.283v-65.39l34.612,96.193l11.979,29.446V255.62l14.694-17.167h-65.023L371.602,256.157z M164.796,311.777
					v-37.745h9.793v37.745H164.796z M164.796,432.184v-83.737h10.158v82.483l-5.152,8.508L164.796,432.184z"/>
			</g>
			<g>
				<path fill="#FFFFFF" d="M830.059,414.372V256.548l11.765-18.095h-65.583l14.497,17.741v175.84l-9.999,13.854l-9.49-14.036
					V260.596c0-8.895-12.69-22.143-47.633-22.143c-35.768,0-39.644,19.511-39.794,20.341l-0.096,0.531v57.503l-12.048,31.977h12.825
					v82.97l-13.549,19.034h106.24h6.867h68.854l12.116-55.562l-20.947,19.125H830.059z M722.034,311.777v-37.745h11.293v37.745
					H722.034z M722.034,432.076v-83.63h11.679v82.387l-5.888,9.104L722.034,432.076z"/>
			</g>
			<g>
				<path fill="#FFFFFF" d="M960.9,423.541l-0.037-0.698l-0.19-0.674c-15.537-55.811-44.29-159.278-48.896-176.591h31.725
					l17.398,16.686v-60.372h-73.963c-14.402,0-20.515,11.849-21.726,18.123l-0.118,0.573v26.583l0.225,0.815
					c1.871,6.729,44.361,159.686,49.208,176.956h-30.33l-19.103-17.126v58.623h74.687c14.363,0,19.297-7.029,20.904-12.927
					C961.855,449.207,961.324,432.887,960.9,423.541z"/>
			</g>
			<g>
				<path fill="#FFFFFF" d="M647.787,340.753l-0.017-0.007c8.172-6.149,24.755-23.532,20.09-61.149
					c-3.967-32.041-34.212-40.919-49.733-41.144h-55.756l12.686,17.377v176.048L563.54,450.81h56.464l0.38-0.048
					c33.065-4.063,47.141-19.639,50.185-55.541C673.635,359.089,654.858,345.771,647.787,340.753z M617.424,275.871l0.783,0.284
					c3.683,1.324,12.304,4.434,14.271,17.619c2.375,15.833-4.349,24.014-8.241,26.127c-1.968,1.067-5.436,1.726-9.666,1.85v-46.008
					c0.247-0.005,0.493-0.011,0.729-0.011C616.802,275.731,617.403,275.871,617.424,275.871L617.424,275.871z M614.572,360.37
					c0.247-0.005,0.493-0.016,0.729-0.016c1.416,0,2.006,0.155,1.936,0.112l0.783,0.327c3.716,1.479,12.418,4.943,14.45,19.982
					c2.449,18.058-4.461,27.361-8.461,29.763c-1.915,1.146-5.298,1.854-9.437,1.995V360.37z"/>
			</g>
		</g>
		<g>
			<g>
				<path fill="#B8292F" d="M108.323,247.128v-49.112c0,0-27.009-4.906-45.582,16.122c0,0-37.698,37.751-34.794,115.79
					c2.906,78.049,29.72,135.762,80.376,131.043v-51.188l-9.592,10.889c0,0-9.437,5.449-20.693-9.795
					c-11.251-15.248-17.785-41.746-19.964-79.497c-2.177-37.745,14.886-83.485,25.411-91.104c10.527-7.63,15.972-5.812,18.149-2.542
					C103.808,240.995,108.323,247.128,108.323,247.128z"/>
			</g>
			<g>
				<path fill="#B8292F" d="M173.869,444.634h37.75l-6.894-10.895c0,0,0-168.06,0-173.143c0-5.078-9.804-15.966-38.842-15.966
					c-29.042,0-31.58,15.248-31.58,15.248v58.071l-8.713,24.685h9.44v91.105l-7.26,10.895h38.113l-7.26-10.53V342.27h22.502v90.386
					L173.869,444.634z M180.764,317.949h-22.141v-50.093h22.141V317.949z"/>
			</g>
			<g>
				<path fill="#B8292F" d="M732.135,444.634h40.298l-7.361-10.895c0,0,0-168.06,0-173.143c0-5.078-10.466-15.966-41.456-15.966
					c-31,0-33.714,15.248-33.714,15.248v58.071l-9.301,24.685h10.072v91.105l-7.747,10.895h40.689l-7.754-10.53V342.27h24.026
					v90.386L732.135,444.634z M739.502,317.949h-23.641v-50.093h23.641V317.949z"/>
			</g>
			<g>
				<polygon fill="#B8292F" points="227.228,244.63 250.097,244.63 277.682,321.584 277.682,254.431 271.876,244.63 311.442,244.63 
					304.18,253.342 304.18,461.238 258.808,331.745 258.808,434.474 265.705,444.634 227.228,444.634 234.487,434.474 
					234.487,254.431 				"/>
			</g>
			<g>
				<polygon fill="#B8292F" points="325.961,244.63 349.443,244.63 377.773,321.584 377.773,254.431 371.811,244.63 412.441,244.63 
					404.986,253.342 404.986,461.238 358.391,331.745 358.391,434.474 365.474,444.634 325.961,444.634 333.417,434.474 
					333.417,254.431 				"/>
			</g>
			<g>
				<polygon fill="#B8292F" points="789.264,244.63 830.447,244.63 823.883,254.715 823.883,420.55 846.482,420.55 854.863,412.894 
					847.94,444.634 789.264,444.634 796.914,434.033 796.914,253.99 				"/>
			</g>
			<g>
				<path fill="#B8292F" d="M871.264,421.638l10.572,9.474h37.538c0,0,3.645,1.1,1.463-6.558
					c-2.193-7.655-49.573-178.22-49.573-178.22v-25.145c0,0,2.552-13.12,15.673-13.12c13.118,0,67.792,0,67.792,0v39.729
					l-8.75-8.391H905.89c0,0-2.188-1.223-0.729,5.223c1.458,6.444,49.568,179.195,49.568,179.195s1.094,24.053,0,28.067
					c-1.094,4.006-4.377,8.381-14.949,8.381c-10.562,0-68.516,0-68.516,0V421.638z"/>
			</g>
			<g>
				<path fill="#B8292F" d="M642.614,344.629c-5.363-4.113-1.341-6.954-1.341-6.954c9.393-5.367,24.824-22.144,20.464-57.315
					c-4.363-35.172-43.61-35.729-43.61-35.729H574.52l6.713,9.184v179.803l-6.713,11.018h45.107
					c27.661-3.399,41.773-14.38,44.791-49.934C667.431,359.138,647.98,348.742,642.614,344.629z M627.187,415.832
					c-6.712,4.026-18.787,2.68-18.787,2.68v-63.733c0,0,8.054-1.34,11.228,0c3.175,1.346,16.278,5.373,18.959,25.167
					C641.273,399.73,633.895,411.81,627.187,415.832z M627.187,325.332c-6.712,3.641-18.787,2.418-18.787,2.418v-57.648
					c0,0,8.054-1.211,11.228,0c3.175,1.211,16.278,4.853,18.959,22.761C641.273,310.764,633.895,321.686,627.187,325.332z"/>
			</g>
		</g>
	</g>
	<g>
		<g>
			<path fill="#FFFFFF" d="M484.172,592.636c-17.515,0-27.382-20.314-29.739-33.967c-0.857-4.959-1.908-12.434-3.075-20.743
				c-1.396-9.936-2.975-21.195-4.581-30.577c-2.043-11.978-7.97-37.381-12.731-57.793c-2.029-8.697-3.866-16.567-5.142-22.288
				c-4.346-19.441-8.887-30.781-10.292-32.969c-0.002,0-0.002,0-0.006-0.006c-0.992,0.092-2.281,0.289-3.579,0.499
				c-9.653,1.55-25.492-9.431-30.486-20.888c-2.042-4.692-6.533-8.253-12.748-13.175c-3.008-2.386-6.417-5.093-10.01-8.316
				c-13.369-12.01-12.187-31.574-6.622-45.879c4.898-12.588,17.761-30.89,24.148-34.362c1.556-0.841,3.223-1.267,4.96-1.267
				c6.294,0,11.09,5.472,14.623,10.517c4.737-21.948,20.109-38.327,25.628-43.627c5.467-5.244,13.075-10.042,20.546-13.726
				c-10.063-0.793-16.477-8.707-17.162-21.114c-1.652-0.266-4.196-0.378-5.896-0.455c-1.105-0.051-2.209-0.099-3.278-0.172
				c-3.888-0.269-7.139-2.121-9.169-5.219c-3.429-5.228-2.311-12.335-1.113-15.709c0.805-2.271,2.338-5.346,4.115-8.905
				c1.576-3.159,3.204-6.421,4.128-8.781c2.453-6.275,7.386-6.951,9.391-6.951c3.284,0,6.681,1.558,10.386,4.767
				c3.506,3.037,11.754,9.034,14.237,10.194c1.013,0.475,4.14,0.944,6.206,1.255c2.992,0.45,5.821,0.874,8.121,1.729
				c1.066,0.396,3.072,0.822,4.962,0.822c1.6,0,2.396-0.3,2.57-0.416c1.915-3.517,5.776-5.795,10.084-5.795
				c4.706,0,9.357,2.603,12.831,7.16c1.094-0.667,2.945-2.342,3.92-3.225l1.153-1.032c2.155-1.885,4.783-2.877,7.597-2.877
				c4.719,0,8.552,2.765,10.402,4.397c0.252,0.027,0.601,0.048,1.078,0.048c3.028,0,7.28-0.895,9.474-1.994
				c2.648-1.322,11.345-10.7,16.02-15.739c2.456-2.643,4.751-5.12,6.627-7.03c3.346-3.407,8.558-7.935,15.232-7.935
				c3.62,0,7.195,1.292,10.927,3.954c7.206,5.153,15.936,18.273,13.791,27.939c-1.817,8.188-10.37,15.241-15.003,19.048
				c2.982,2.499,4.934,6.677,4.934,10.943c0,6.578-8.176,15.784-13.828,19.634c-2.478,1.683-5.291,2.536-8.363,2.536
				c-6.713,0-12.541-4.241-14.171-5.542c-1.507-1.203-11.119-7.688-16.825-11.492c-0.611-0.411-2.792-1.049-6.09-1.049
				c-0.972,0-1.797,0.043-2.275,0.138c-1.612,0.341-3.516,0.389-4.508,0.389c-3.957,0-6.928-0.678-8.997-2.067
				c-0.182,1.252-0.316,2.885-0.316,4.95c0,3.063,0.842,3.758,5.545,6.289l1.002,0.541c1.85,1.01,5.329,2.601,9.361,4.442
				c6.192,2.831,13.903,6.356,20.809,10.087c11.742,6.338,25.017,20.567,32.288,34.602c3.088,5.951,4.663,11.04,5.281,15.329
				c2.883-2.627,5.73-3.201,7.672-3.201c2.702,0,6.676,1.081,10.252,6.228c8.159,11.784,13.532,21.403,15.983,28.588
				c4.11,12.057,0.037,22.92-4.172,26.775c-0.584,0.579-1.958,2.231-3.822,4.44c-6.179,7.303-16.509,19.531-24.376,25.349
				c-8.545,6.316-15.575,6.676-19.772,6.891c-0.231,0.011-0.445,0.021-0.654,0.026c-2.14,4.219-6.197,15.967-8.986,24.042
				c-2.273,6.595-4.423,12.818-6.203,17.317c-3.555,8.96-5.549,23.741-5.929,43.934c-0.259,13.844-4.74,45.98-16.022,77.775
				c-10.089,28.448-20.036,52.055-39.634,52.7L484.172,592.636z M419.395,381.897c5.467,0,7.823,2.959,9.604,5.73
				c2.731,4.248,7.637,17.625,11.953,36.949c1.273,5.693,3.1,13.521,5.118,22.175c4.799,20.572,10.771,46.174,12.878,58.517
				c1.635,9.565,3.23,20.921,4.638,30.941c1.145,8.154,2.171,15.49,3.014,20.358c1.718,9.946,8.782,23.72,17.573,23.72v6.177
				l0.307-6.183c9.435-0.31,16.865-11.95,28.404-44.485c10.712-30.192,15.076-61.336,15.313-73.883
				c0.412-21.983,2.632-37.762,6.792-48.249c1.679-4.235,3.785-10.338,6.017-16.793c8.804-25.511,10.738-29.606,14.771-31.333
				c1.951-0.837,3.963-0.938,5.909-1.04c3.345-0.173,7.507-0.381,13.056-4.488c6.707-4.96,16.845-16.947,22.287-23.392
				c2.853-3.373,4.043-4.772,4.918-5.565c0.567-0.665,3.408-6.107,0.819-13.694c-1.432-4.198-5.094-12.037-14.444-25.534
				c-0.049-0.076-0.102-0.145-0.15-0.212c-1.007,1.027-2.032,2.118-3.109,3.266c-7.469,7.967-8.911,9.27-11.023,9.988l-0.959,0.322
				l-4.59,0.048l-2.113-2.943c-2.177-3.335-0.798-7.125,1.394-12.114c0.634-1.448,2.264-7.032-3.462-18.063
				c-6.145-11.857-17.581-24.229-27.195-29.422c-6.546-3.536-14.047-6.965-20.079-9.721c-4.418-2.019-7.913-3.617-10.138-4.833
				l-0.934-0.504c-4.799-2.58-12.042-6.477-12.042-17.165c0-14.611,5.148-18.542,9.463-19.262c5.501-0.909,8.601,1.924,10.272,3.922
				c1.014,0.134,3.539,0.064,3.903-0.016c1.656-0.346,3.716-0.4,4.8-0.4c3.779,0,9.088,0.545,12.953,3.129
				c2.525,1.686,15.312,10.227,17.672,12.114c1.709,1.368,4.466,2.838,6.461,2.838c0.734,0,1.146-0.211,1.42-0.396
				c4.172-2.842,8.043-8.208,8.472-9.919c-0.043-0.255-0.434-0.855-0.572-0.99c-2.436-1.179-4.308-4.104-4.703-7.632
				c-0.482-4.236,1.292-8.466,4.744-11.316c2.729-2.244,9.945-8.18,10.847-12.238c0.606-2.734-3.65-11.453-8.915-15.211
				c-1.54-1.099-2.8-1.656-3.749-1.656c-1.479,0-3.699,1.464-6.417,4.232c-1.808,1.842-4.022,4.23-6.392,6.783
				c-8.996,9.702-15.223,16.225-19.543,18.382c-4.547,2.279-10.814,3.299-15.001,3.299c-4.123,0-7.062-0.945-8.986-2.892
				c-0.74-0.75-1.689-1.306-2.231-1.488l-0.729,0.652c-3.115,2.819-7.384,6.68-12.761,6.683c-3.555,0-6.802-1.761-9.136-4.957
				c-1.362-1.866-2.703-2.469-3.138-2.469c-0.948,2.22-4.441,6.212-12.653,6.212c-3.121,0-6.584-0.599-9.268-1.599
				c-1.096-0.407-3.517-0.772-5.654-1.091c-3.58-0.538-6.961-1.048-9.6-2.281c-4.216-1.971-13.591-9.018-17.089-12.044
				c-0.362-0.312-0.684-0.571-0.97-0.786c-1.11,2.531-2.475,5.265-3.804,7.927c-1.461,2.93-2.973,5.959-3.525,7.522
				c-0.552,1.555-0.579,3.577-0.327,4.488c0.989,0.067,1.898,0.111,2.807,0.15c6.593,0.298,17.624,0.794,17.624,10.539
				c0,4.998,1.107,10.978,6.375,11.083c0.008,0,0.019,0,0.027,0c5.056,0,5.525-1.187,7.072-5.102
				c0.464-1.174,0.927-2.316,1.467-3.365c3.277-6.374,6.106-10.305,17.085-10.605c2.4-0.064,4.289-0.115,6.001-0.115
				c4.129,0,15.099,0,15.099,9.236c0,7.109-0.655,14.089-5.401,17.015c-1.204,0.74-2.609,1.386-3.971,1.989
				c-0.729,0.324-1.834,0.812-2.164,1.049l-0.15,0.291c-1.686,2.205-5.708,7.56-14.023,6.924c-4.707,0.003-24.135,7.62-34.534,17.6
				c-5.927,5.688-25.106,26.199-23.095,51.361L411.65,319l-12.734-16.702c-0.273-0.354-6.71-8.801-9.718-13.189
				c-2.391-3.499-3.914-4.94-4.697-5.528c-3.587,3.236-13.6,16.551-17.833,27.43c-4.066,10.456-5.318,24.413,3.368,32.213
				c3.31,2.977,6.42,5.442,9.431,7.828c7.04,5.581,13.117,10.402,16.393,17.919c3.008,6.9,12.927,13.646,16.98,13.646
				C415.819,382.155,417.739,381.897,419.395,381.897z M478.22,204.946c-1.611,0-3.388,0.048-5.275,0.099
				c-4.882,0.134-4.882,0.134-6.616,3.503c-0.579,1.127-0.872,1.893-1.18,2.673c-0.705,1.786-1.652,4.179-3.349,6.42
				c2.303-0.577,4.284-0.885,5.796-0.885l0.931,0.033c1.493,0.028,1.998-0.417,3.303-2.118c0.599-0.785,1.144-1.437,1.621-1.884
				c1.598-1.51,3.576-2.387,5.488-3.236c0.497-0.22,1.006-0.437,1.491-0.673c0.155-0.644,0.356-1.826,0.466-3.866
				C480.22,204.972,479.347,204.946,478.22,204.946z"/>
		</g>
		<g>
			<path d="M531.875,202.976c0,0,14.98,9.988,17.253,11.806c2.269,1.812,9.528,6.583,15.206,2.724
				c5.678-3.866,11.131-11.356,11.131-14.53c0-3.18-1.818-5.909-3.636-6.81c-1.817-0.912-2.948-5.677,0.906-8.863
				c3.86-3.174,11.581-9.527,12.943-15.656c1.361-6.133-4.998-17.034-11.351-21.575c-6.359-4.536-11.351-3.667-18.165,3.276
				c-6.81,6.942-19.297,21.473-24.288,23.966c-4.998,2.504-14.814,3.635-16.831,1.593c-2.021-2.042-6.781-5.216-10.417-2.042
				c-3.63,3.178-9.533,9.537-13.85,3.629c-4.313-5.903-10.511-6.579-13.09-2.038c-2.574,4.536-11.127,3.405-14.798,2.038
				c-3.67-1.362-11.389-1.587-14.795-3.18c-3.405-1.591-12.256-8.171-15.665-11.12c-3.404-2.949-7.942-5.453-9.986-0.23
				c-2.045,5.223-6.812,13.656-8.174,17.5c-1.364,3.839-1.826,12.241,4.876,12.702c6.703,0.45,14.874,0,14.874,4.536
				c0,4.541,1.021,17.029,12.428,17.254c11.412,0.225,11.712-7.035,14.173-11.807c2.459-4.766,3.368-7.034,11.767-7.265
				c8.398-0.225,14.755-0.45,14.755,2.95c0,3.409-0.166,10.342-2.469,11.757c-2.295,1.416-5.542,2.322-6.986,3.684
				s-3.482,6.133-9.614,5.672c-6.127-0.451-27.922,8.408-39.273,19.302c-11.353,10.895-26.913,32.046-24.974,56.308
				c0,0-6.58-8.627-9.533-12.938c-2.952-4.316-7.72-10.359-12.034-8.02c-4.314,2.342-16.573,18.915-21.343,31.171
				c-4.769,12.263-6.129,29.061,4.994,39.048c11.128,9.994,20.436,14.771,24.291,23.619c3.861,8.856,16.804,18.389,23.843,17.258
				c7.035-1.136,7.719-0.91,9.761,2.268c2.043,3.18,6.812,15.668,11.123,34.959c4.313,19.307,14.988,63.122,17.935,80.387
				c2.952,17.248,5.767,40.41,7.654,51.31c1.883,10.895,10.113,29.285,24.157,28.835c14.056-0.46,22.677-16.584,34.027-48.592
				c11.355-32.003,15.441-63.798,15.667-75.83c0.225-12.03,1.136-32.926,6.357-46.087c5.218-13.174,14.301-43.37,17.479-44.732
				c3.181-1.361,10.22,1.152,20.209-6.236c9.988-7.387,25.425-27.29,27.697-29.37c2.273-2.085,5.903-10.257,2.499-20.24
				c-3.406-9.994-12.713-23.447-15.211-27.055c-2.498-3.597-5.679-5.072-9.083-1.614c-3.399,3.458-10.895,11.86-12.257,12.32
				c-1.367,0.451-0.23-2.729,1.362-6.358c1.592-3.629,2.724-11.131-3.636-23.387c-6.353-12.262-18.39-25.88-29.74-32.009
				c-11.351-6.133-25.2-11.812-30.191-14.541c-4.998-2.724-9.764-4.766-9.764-12.25c0-7.496,1.588-12.718,4.312-13.174
				c2.729-0.456,4.091,1.137,5.222,2.729c1.137,1.582,7.051,1.582,9.2,1.132C520.973,200.707,528.255,200.551,531.875,202.976z"/>
		</g>
		<g>
			<path fill="#FFFFFF" d="M465.664,257.685l13.303,12.969c0,0-8.979,4.987-6.654,9.641c2.332,4.654,7.651,8.648,10.308,7.147
				c2.665-1.497,5.157-3.989,5.157-3.989l6.984,8.975c0,0-8.148,8.145-17.458,3.829c-9.31-4.327-17.456-12.466-16.626-20.449
				C461.508,267.829,465.664,257.685,465.664,257.685z"/>
		</g>
		<g>
			<path fill="#FFFFFF" d="M515.537,286.112c0,0,4.493,5.988,8.316,4.986c3.823-0.997,7.979-6.487,4.155-11.635l9.808-6.472
				c0,0,2.492,6.139,0,13.281c-2.494,7.158-13.464,14.139-19.781,14.139c-6.32,0-11.972-4.328-11.308-7.984L515.537,286.112z"/>
		</g>
		<g>
			<path fill="#B8292F" d="M520.942,280.987c0,0,2.472-2.102,5.125,1.388c2.081,2.729-1.265,6.477-3.265,5.872
				C520.792,287.64,516.1,284.611,520.942,280.987z"/>
		</g>
		<g>
			<path fill="#B8292F" d="M478.722,275.823c0,0,2.713-2.306,5.621,1.523c2.285,2.996-1.386,7.115-3.585,6.45
				C478.553,283.132,473.409,279.807,478.722,275.823z"/>
		</g>
		<g>
			<path fill="#FFFFFF" d="M522.802,314.748l29.644-8.518l-12.015,53.942c0,0-10.203,0.439-17.661,4.804L522.802,314.748z"/>
		</g>
		<g>
			<path fill="#FFFFFF" d="M490.423,367.378l4.337-51.106c0,0-30.545-0.209-63.739-25.982c0,0,1.441,39.746,19.935,64.854
				l4.743-40.181c0,0,2.183-3.168,1.528,4.644c-0.657,7.807-1.312,37.505-1.312,37.505s5.678,5.893,13.979,3.5l3.93-37.343
				c0,0,3.798-9.174,3.866,2.403c0.063,11.569-1.295,33.192-1.295,33.192s-1.86,6.767,4.334,7.641
				C486.928,367.378,490.423,367.378,490.423,367.378z"/>
		</g>
		<g>
			<path fill="#FFFFFF" d="M462.305,426.505c0,0,3.182,14.751,3.616,16.778c0.434,2.021,2.892,4.472,3.041,2.171
				c0.139-2.316-1.741-20.68-1.741-20.68s7.234-4.488,13.308-3.329c0,0,6.504,20.823,8.099,19.672
				c1.587-1.164-1.737-19.388-3.909-22.712c0,0,18.08-2.166,18.658-0.72c0.579,1.448,1.014,21.399,1.304,22.412
				c0.284,1.02,2.455,1.737,3.613-5.2c1.157-6.949,3.614-16.777,4.911-16.054c1.303,0.724,3.33,8.102,3.475,17.345
				c0.146,9.266-1.153,22.424-2.601,20.97c-1.447-1.442-7.231-11.704-22.272-8.959c0,0-9.401,3.034-13.736,14.749
				c-4.337,11.71-6.802,17.786-7.377,17.495c-0.576-0.29-6.22-12.729-8.388-26.609C460.139,439.953,459.702,425.782,462.305,426.505
				z"/>
		</g>
		<g>
			<path fill="#FFFFFF" d="M517.794,195.93c0,0-2.493-0.45-2.724-4.767c-0.23-4.311,0.923-8.627,3.753-8.396
				c2.831,0.226,13.73-0.68,16.905-1.817c3.18-1.131,13.41-9.077,17.827-15.661c4.424-6.589,7.829-11.131,11.913-11.806
				c4.087-0.681,7.721,1.131,12.487,8.401c4.767,7.26,2.269,14.074-1.361,16.798c-3.636,2.729-15.437,14.755-13.85,17.249
				c1.588,2.504,8.402,1.593,7.266,8.177c-1.131,6.589-7.49,11.806-14.755,8.407c-7.266-3.41-19.758-15.672-24.524-15.897
				C525.971,196.391,517.794,195.93,517.794,195.93z"/>
		</g>
		<g>
			<path fill="#FFFFFF" d="M472.615,194.799l1.134-9.309c0,0-20.887-0.455-27.243-3.404c-6.355-2.955-12.712-9.764-14.303-10.9
				c-1.586-1.132-5.9-3.856-9.76,4.771c-3.863,8.627-4.539,16.337-0.909,16.573c3.63,0.226,17.251-2.042,17.935,7.946
				c0.682,9.983,2.381,12.809,6.979,13.104c4.602,0.29,7.549-6.07,8.686-9.93c1.133-3.854,5.296-8.171,7.755-8.851
				C465.349,194.112,472.615,194.799,472.615,194.799z"/>
		</g>
		<g>
			<path fill="#A7A9AC" d="M604.733,321.949c-1.089-12.797-10.343-25.864-16.331-27.231c-5.99-1.357-13.613,8.992-16.61,13.076
				c-2.991,4.076-4.896,8.976-4.896,8.976s-1.362-0.273-1.635-6.798c-0.273-6.542-0.814-9.56-0.814-9.56l-7.352,2.112
				c0,0-7.897,36.577-12.525,50.732c-4.627,14.16-22.051,66.424-22.593,72.955c-0.548,6.537-6.81,45.74-5.448,61.53
				c0,0-1.088,0-2.724-9.255c-1.635-9.254-7.078-26.137-11.431-27.773c-4.359-1.635-18.785,3.271-24.776,25.323
				c-5.989,22.052-4.629,40.019-4.629,40.019l-10.616-41.928l-26.138-124.956l-11.431-59.349c0,0-2.997,5.447-4.358,5.989
				c-1.36,0.541-3.536-5.104,0.546-11.946c4.085-6.836,10.892-13.64,12.522-12.283c0,0-5.992,9.592-3.81,12.283
				c2.18,2.692,30.76,28.277,69.425,27.735c38.651-0.546,59.621-15.789,62.614-18.781c2.991-2.998,7.618-6.987,3.811-19.828
				c-3.811-12.846-21.264-30.267-38.812-37.896c-17.542-7.62-18.314-6.526-24.465,2.188c0,0-7.233-1.636-11.591-5.994
				c-4.356-4.354-14.154-6.531-21.509-4.628c-7.348,1.909-39.745,21.232-50.091,37.301c-10.345,16.058-12.521,29.124-10.07,54.442
				c2.449,25.322,3.809,32.941,3.809,32.941s-5.989-19.06-6.804-26.953c-0.815-7.898-8.439-22.32-15.52-28.042
				c-7.077-5.715-13.61-9.854-18.784,4.06c-5.174,13.908-9.801,26.98-5.445,36.239c4.357,9.254,10.619,13.061,14.699,16.604
				c4.085,3.538,13.614,16.058,18.79,22.046c5.168,5.995,13.334,9.26,19.596,9.26c6.265,0,10.893-4.627,10.893,1.361
				c0,5.984,19.055,83.031,25.588,112.708c6.536,29.67,6.81,47.637,11.436,60.437c4.627,12.797,8.983,13.34,16.608,14.158
				c7.625,0.815,14.154-4.627,22.325-23.687c8.166-19.061,16.063-47.096,20.144-72.146c4.086-25.043,3.539-57.17,8.173-69.416
				c4.626-12.258,21.23-50.367,21.23-50.367s0.814,8.439,7.346,8.712c6.535,0.274,19.062-10.348,26.958-18.24
				C597.929,340.185,605.827,334.742,604.733,321.949z M451.13,264.387c0,0,1.969-7.389,3.448-11.083
				c1.474-3.694,2.461-6.155,0.494-9.844c0,0,38.654,33.731,44.809,43.328c0,0,9.356-0.987,5.416-43.328
				c0,0,10.589,12.799,4.188,37.419c0,0,14.53-13.785,44.072-9.351l-4.927,1.479c0,0-0.734,15.752-15.26,24.369
				c-8.567,5.083-18.257,6.568-24.453,3.694c-2.554-1.179-3.459-2.321-4.505-5.05c-0.719-1.867-1.121-4.751-1.817-7.506
				c0,0-2.407,3.072-5.614,6.037c-3.742,3.464-8.967,6.782-18.518,4.793C460.731,295.656,449.407,281.126,451.13,264.387z
				 M408.23,363.63c-1.672,0-4.089-3.163-5.759-3.716c-1.672-0.558-6.504-2.418-7.804-2.782c-1.303-0.375-2.974-6.321-4.085-10.777
				c-1.115-4.465-5.019-8.915-13.004-17.28c0,0,9.477,3.716,19.875,14.674C407.857,354.715,409.902,363.63,408.23,363.63z
				 M590.161,338.259c-2.815,3.989-11.731,15.248-16.896,12.906c0,0,2.815-6.333,0-4.338c-2.814,1.994-11.027,8.327-2.578-3.168
				c8.444-11.497,8.444-11.497,8.444-11.497s11.5-11.494,12.669-12.439c1.17-0.938,2.58,3.753,2.58,6.22
				C594.38,328.411,592.975,334.275,590.161,338.259z"/>
		</g>
	</g>
</g>
</svg>
