<?xml version="1.0" encoding="utf-8"?>
<!-- Generator: Adobe Illustrator 16.0.4, SVG Export Plug-In . SVG Version: 6.00 Build 0)  -->
<!DOCTYPE svg PUBLIC "-//W3C//DTD SVG 1.1//EN" "http://www.w3.org/Graphics/SVG/1.1/DTD/svg11.dtd">
<svg version="1.1" id="Layer_1" xmlns="http://www.w3.org/2000/svg" xmlns:xlink="http://www.w3.org/1999/xlink" x="0px" y="0px" viewBox="0 0 791.182 667.547" enable-background="new 0 0 791.182 667.547"
	 xml:space="preserve">
<path fill="#F47932" d="M771.615,402.619l-8.743,6.939c-2.68-4.156-5.405-6.237-8.184-6.237c-1.378,0-2.569,0.404-3.591,1.228
	c-1.019,0.82-1.601,1.794-1.752,2.939c-0.145,1.067,0.115,2.248,0.784,3.546c0.656,1.301,2.802,4.173,6.427,8.615
	c1.918,2.363,3.17,4.04,3.739,5.025c1.39,2.288,2.316,4.426,2.802,6.408c0.472,1.989,0.582,4.013,0.311,6.063
	c-0.604,4.599-2.749,8.461-6.432,11.58c-3.689,3.117-8.092,4.674-13.21,4.674c-7.792,0-13.652-3.707-17.59-11.106l9.136-6.664
	c2.656,5.066,5.923,7.597,9.792,7.597c1.845,0,3.481-0.593,4.894-1.791c1.422-1.194,2.24-2.636,2.46-4.329
	c0.174-1.325-0.028-2.675-0.61-4.051c-0.588-1.379-2.433-3.977-5.54-7.792c-3.29-4.029-5.399-7.066-6.326-9.119
	c-1.24-2.782-1.69-5.508-1.339-8.188c0.469-3.532,2.041-6.703,4.721-9.509c3.378-3.511,7.528-5.264,12.459-5.264
	C762.612,393.184,767.875,396.331,771.615,402.619z"/>
<g>
	<g>
		<g>
			<line stroke="#FFFFFF" stroke-miterlimit="10" x1="500.752" y1="37.588" x2="494.123" y2="33.614"/>
		</g>
		<g>
			<path stroke="#FFFFFF" stroke-miterlimit="10" d="M556.794,45.626c31.513-11.175,33.469,18.69,32.488,37.152
				c-0.98,18.474-20.225,52.667-34.593,67.59c-14.367,14.924-17.185,23.383-17.185,23.383s-1.279,37.624,0,53.352
				c1.278,15.733-39.589,19.835-39.589,19.835c23.261,26.68,47.195,27.361,74.509,24.983c27.318-2.377,17.838-28.403,21.94-27.725
				c4.099,0.695,7.52,15.055,7.52,15.055s4.11-6.155,6.156-12.313c2.057-6.155,6.155-2.047,6.155-2.047
				c6.155,40.353-34.88,42.408-34.88,42.408c-61.562,0.678-86.189-35.573-95.757-40.361c-9.578-4.78-10.945,5.072-10.945,5.072
				s99.176,111.21,120.38,145.553c21.202,34.345,11.636,61.594,11.636,61.594s6.148-2.237,19.14,0
				c13.001,2.241,17.785,12.812,17.785,12.812c13.683-15.049,34.892-16.409,34.892-16.409h95.757c0,0-34.205,135.421-45.146,175.102
				c-10.948,39.67-49.247,36.315-49.247,36.315H355.646v-6.911c-6.149,7.526-29.126,6.905-29.126,6.905s-65.262,0-77.577,0
				c-12.304,0-7.523-9.637-7.523-9.637c-7.516,9.578-31.458,9.637-31.458,9.637s-34.883,0-51.986,0
				c-17.094,0-24.624-17.851-24.624-17.851c-17.782,19.845-36.932,17.792-36.932,17.792s-19.153,0-63.615,0
				c-44.455,0-30.093-47.196-30.093-47.196S32.117,497.967,41.01,464.613c8.896-33.356,50.622-34.37,50.622-34.37h98.493
				c26.672-40.35,67.039-52.159,67.039-52.159c8.881-69.252,38.976-25.809,38.976-25.809l30.381-56.088
				c-13.393-9.578-103.562-86.867-145.286-151.228C139.508,80.6,170.969,35.583,170.969,35.583S204.881-9.452,294.771,8.222
				c0,0,39.358-11.098,89.421-6.685c59.525,5.245,94.659,29.041,94.659,29.041S502.573,48.021,556.794,45.626z"/>
		</g>
	</g>
	<g>
		<g>
			<path fill="#F47932" d="M502.578,57.694c0,0,25.52,5.382,44.325,5.382c18.808,0,25.521,0,25.521,0s1.341,61.776-42.978,87.292
				c0,0-2.017-13.432,4.028-21.489c6.04-8.054,14.097-26.187,15.445-32.9c1.345-6.717,0-11.426,3.36-13.431
				c3.354-2.02,1.338-8.063-10.748-3.36c-12.086,4.709-15.445,10.748-15.445,10.748S521.384,71.8,502.578,57.694z"/>
		</g>
	</g>
	<g>
		<g>
			<path fill="#F47932" d="M520.075,167.831l-10.108-4.034C542.202,84.554,491.842,48.3,436.099,28.82
				c-55.734-19.472-119.53-6.715-119.53-6.715l42.975,24.175C323.957,25.459,220.542,8.674,191.735,34.869
				c-28.802,26.188-16.857,81.256,40.222,149.073c57.082,67.835,97.369,87.98,97.369,87.98S215.839,158.428,197.034,104.028
				c-18.796-54.396,13.431-81.248,81.257-63.116c67.826,18.131,116.179,76.553,116.179,76.553l-16.791,1.34
				c10.743,45.666,43.648,73.2,70.512,93.347c26.862,20.145,58.423,21.492,67.155,9.408
				C524.069,209.462,520.075,167.831,520.075,167.831z M421.996,57.694c22.165-6.708,34.926,11.422,35.6,31.568
				c0.662,20.145,6.714,44.321,6.714,44.321c-16.119-10.744-16.119-26.861-18.13-42.987c-2.023-16.111-4.703-20.805-15.451-24.165
				C419.991,63.077,421.996,57.694,421.996,57.694z M431.402,150.369c-36.266-18.8-22.161-37.607-16.789-40.961
				c5.378-3.359,7.234-29.548,7.234-29.548s2.834-4.699,8.206,35.591c5.383,40.287,37.611,53.72,37.611,53.72
				C443.486,170.514,431.402,150.369,431.402,150.369z M484.217,219.587c0,0,3.556-7.126-5.597-19.837c0,0,8.145-1.535,11.198,8.135
				C492.868,217.553,484.217,219.587,484.217,219.587z"/>
		</g>
	</g>
	<g>
		<g>
			<rect x="412.498" y="114.796" fill="#FFFFFF" width="7.631" height="7.126"/>
		</g>
	</g>
	<g>
		<g>
			<path fill="#F47932" d="M315.293,134.397c0,0-17.578,14.873-16.897,37.86c0,0-16.898-29.746-16.898-43.949
				c0,0-14.2,18.932,13.516,71.659c0,0-38.534-24.956-46.643-78.045c0,0-15.215,8.744,14.873,60.463
				c30.088,51.733,66.249,69.625,66.249,69.625s-1.353-8.784-5.415-16.899C320.022,227.009,305.152,193.884,315.293,134.397z"/>
		</g>
	</g>
	<g>
		<g>
			<polygon fill="#FFFFFF" points="339.556,310.655 345.617,314.906 313.497,372.489 307.428,368.235 			"/>
		</g>
	</g>
	<g>
		<g>
			<path fill="#FFFFFF" d="M334.101,150.369c0,0-15.761,76.04,35.764,126.947c51.519,50.922,64.857,58.795,90.308,76.378
				c25.462,17.579,74.561,55.771,74.561,105.463h7.266c0,0,2.428-12.726,0-19.394c0,0,7.274,7.277,9.095,15.758h21.331
				c0,0,16.857-4.847,16.857-10.905c0-6.063-5.465-33.34-26.674-56.982l-45.454,8.489c0,0-16.368-20.603-24.853-27.888
				c0,0,6.622-4.237,10.276,0c3.666,4.254,10.328,10.315,10.328,10.315l34.552-10.914c0,0-24.248-32.726-36.973-41.826
				l-63.649,5.454l-38.183-29.095c0,0,0-2.689,13.941,2.593c13.937,5.292,14.547,5.892,32.73,5.892c18.183,0,41.824,0,41.824,0
				s-32.124-40.615-39.404-47.273c0,0-46.267,0.719-77.582-6.669c-31.306-7.389-38.182-49.1-38.182-58.794
				c0,0,9.091,32.736,51.518,40.009c42.434,7.261,53.942,4.85,53.942,4.85s-12.915-12.123-34.943-22.428
				C390.467,210.035,354.703,189.501,334.101,150.369z"/>
		</g>
	</g>
	<g>
		<g>
			<path fill="#F47932" d="M334.705,425.816c0,0-32.968-29.088-47.701-56.965c0,0-8.059,18.173,8.905,39.996
				C312.883,430.669,334.705,425.816,334.705,425.816z"/>
		</g>
	</g>
	<g>
		<g>
			<path fill="#F47932" d="M256.515,411.875l13.336-2.425c0,0,0.606-11.661-6.668-11.887c-7.272-0.229-56.982,15.539-65.469,59.167
				h50.923l7.274-16.362c0,0,25.458,16.362,58.191,16.362c32.73,0,75.157,0,75.157,0l14.547,7.883l3.636-9.699h83.041v-3.636
				c0,0-9.095-4.237-9.699-6.662c-0.606-2.427,4.246-21.214,4.246-21.214l9.09,2.88c0,0-12.731-38.043-30.913-45.31
				c-18.18-7.274-18.784,0.599-10.911,8.482c7.879,7.879,22.58,35.15,8.264,52.123v-10.909
				C460.558,430.669,320.159,459.762,256.515,411.875z"/>
		</g>
	</g>
	<g>
		<g>
			<g>
				<path fill="#FFFFFF" d="M155.241,518.737l18.448-72.398H88.831c0,0-24.442-3.687-34.585,29.969
					C44.102,509.979,18.734,622.04,18.734,622.04s-11.522,29.053,17.527,31.357h58.82c0,0,26.497-0.46,34.338-24.448
					c7.839-23.975,11.982-52.105,11.982-52.105h-46.32l-9.941,41.04H66.242l28.839-124.966c0,0,2.513-13.382,11.276-13.382
					c8.761,0,12.91,1.85,11.066,8.76c-1.838,6.928-5.994,29.986-5.994,29.986L155.241,518.737z"/>
			</g>
		</g>
		<g>
			<g>
				<path fill="#FFFFFF" d="M259.456,468.933c-25.355,0-49.8,0-49.8,0s-20.757-2.307-30.9,29.513l-31.353,129.127
					c0,0-8.763,25.825,15.68,25.825c24.436,0,52.57,0,52.57,0s23.061,3.222,31.358-30.892c8.299-34.129,29.05-124.061,29.05-124.061
					S284.824,468.933,259.456,468.933z M234.56,515.51c0,0-18.907,80.243-22.863,93.151c-3.951,12.91-7.576,14.3-16.339,13.845
					c-8.764-0.466-4.613-13.845-4.613-13.845l25.831-102.378c0,0,2.761-8.3,12.446-5.526
					C238.714,503.517,234.56,515.51,234.56,515.51z"/>
			</g>
		</g>
		<g>
			<g>
				<path fill="#FFFFFF" d="M377.515,468.892c-25.823,0-73.778,0-73.778,0l-46.573,184.506h82.075c0,0,18.448,0.461,24.445-23.982
					c5.993-24.44,10.606-44.272,10.606-44.272s7.375-18.448-16.146-23.054l0.468-6.914c0,0,17.058,1.843,21.208-10.612
					c4.156-12.455,15.686-50.267,15.686-50.267S403.346,468.892,377.515,468.892z M323.242,619.699h-16.602l10.682-44.268h17.322
					L323.242,619.699z M340.627,546.868h-16.604l10.682-44.273h17.318L340.627,546.868z"/>
			</g>
		</g>
		<g>
			<g>
				<path fill="#FFFFFF" d="M494.118,470.821c-24.477,0-75.978,0-75.978,0l-45.392,182.657h40.586l18.239-70.693h18.24
					l-18.701,70.612h40.591l15.498-56.485c0,0,6.385-20.519-15.498-24.16l0.536-6.726c0,0,15.608,5.014,24.454-16.218
					c8.84-21.239,14.562-50.372,14.562-50.372S518.594,470.821,494.118,470.821z M456.427,555.52h-19.001l14.164-53.189h17.966
					L456.427,555.52z"/>
			</g>
		</g>
		<g>
			<g>
				<path fill="#FFFFFF" d="M609.314,470.821c-27.353,0-51.2,0-51.2,0s-22.812-2.574-29.786,21.561
					c-6.974,24.126-40.765,161.097-40.765,161.097h42.374l17.699-69.385h18.765l-18.23,69.385h41.111l37.727-155.199
					C627.009,498.279,636.662,470.821,609.314,470.821z M573.911,556.198h-19.837l14.477-53.633h18.236L573.911,556.198z"/>
			</g>
		</g>
		<g>
			<g>
				<path fill="#FFFFFF" d="M683.857,501.493h19.85l-7.51,30.032h38.62l15.543-60.704h-74.549c0,0-23.054-1.509-30.032,24.234
					c-6.969,25.746-21.981,83.137-21.981,83.137h63.282l-15.021,43.443h-17.698l6.98-28.431h-39.694l-14.845,60.273h75.982
					c0,0,22.522-0.208,30.568-28.632c8.048-28.42,17.706-78.307,17.706-78.307h-58.464L683.857,501.493z"/>
			</g>
		</g>
	</g>
	<g>
		<path fill="#F47932" d="M220.183,394.633h10.8l-5.216,19.282l20.823-19.282h13.36l-28.437,26.198l15.642,31.127h-12.04
			l-12.764-25.41l-6.871,25.41h-10.686L220.183,394.633z"/>
		<polygon points="271.444,466.938 185.267,466.938 208.696,379.652 298.309,379.652 249.965,424.196 		"/>
	</g>
	<g>
		<path fill="#F47932" d="M295.97,393.184c7.874,0,14.04,2.535,18.494,7.603c4.449,5.066,6.161,11.491,5.134,19.295
			c-0.783,5.977-3.042,11.602-6.766,16.888c-3.722,5.296-8.282,9.347-13.682,12.184c-5.405,2.828-11.366,4.248-17.884,4.248
			c-8.161,0-14.356-2.415-18.597-7.245c-4.231-4.836-5.827-11.197-4.784-19.101c1.181-8.963,5.096-16.668,11.77-23.11
			C277.095,396.775,285.873,393.184,295.97,393.184z M294.247,403.356c-4.109,0-7.981,0.992-11.636,2.979
			c-3.649,1.989-6.766,4.847-9.336,8.581c-2.565,3.725-4.116,7.573-4.641,11.55c-0.615,4.703,0.306,8.691,2.755,11.965
			c2.449,3.274,6.38,4.917,11.786,4.917c6.266,0,11.872-2.214,16.83-6.628c4.961-4.421,7.86-9.78,8.691-16.099
			c0.686-5.22-0.3-9.403-2.969-12.546C303.058,404.931,299.232,403.356,294.247,403.356z"/>
		<path d="M281.267,468.379c-15.716,0-24.909-6.71-29.85-12.34c-4.95-5.66-10.405-15.601-8.379-30.943
			c1.631-12.374,7.085-23.111,16.214-31.929c10.307-9.931,22.658-14.961,36.718-14.961c15.359,0,24.653,6.897,29.742,12.69
			c5.094,5.798,10.738,15.906,8.737,31.138c-1.095,8.363-4.25,16.289-9.371,23.562c-5.068,7.21-11.452,12.875-18.964,16.817
			C298.549,466.373,290.195,468.379,281.267,468.379z M293.884,418.342c-1.456,0.051-2.772,0.42-4.116,1.151
			c-1.57,0.854-2.934,2.138-4.157,3.914c-1.206,1.751-1.9,3.377-2.12,4.956c2.437-0.063,4.412-0.922,6.55-2.829
			c2.272-2.023,3.448-4.14,3.804-6.865C293.86,418.556,293.875,418.444,293.884,418.342z"/>
	</g>
	<g>
		<path fill="#F47932" d="M329.075,394.633h34.994l-2.593,10.211h-11.948l-12.639,47.114h-10.685l12.639-47.114h-12.442
			L329.075,394.633z"/>
		<polygon points="348.378,466.938 306.678,466.938 319.316,419.821 306.995,419.821 317.512,379.652 383.328,379.652 
			373.127,419.821 361.017,419.821 		"/>
	</g>
	<g>
		<path fill="#F47932" d="M398.09,402.619l-8.744,6.939c-2.674-4.156-5.405-6.237-8.183-6.237c-1.378,0-2.57,0.404-3.591,1.228
			c-1.02,0.82-1.602,1.794-1.751,2.939c-0.146,1.067,0.114,2.248,0.783,3.546c0.656,1.301,2.796,4.173,6.427,8.615
			c1.918,2.363,3.169,4.04,3.739,5.025c1.39,2.288,2.318,4.426,2.801,6.408c0.474,1.989,0.583,4.013,0.312,6.063
			c-0.604,4.599-2.75,8.461-6.432,11.58c-3.683,3.117-8.093,4.674-13.21,4.674c-7.792,0-13.652-3.707-17.589-11.106l9.136-6.664
			c2.657,5.066,5.925,7.597,9.792,7.597c1.845,0,3.481-0.593,4.893-1.791c1.423-1.194,2.235-2.636,2.46-4.329
			c0.179-1.325-0.027-2.675-0.61-4.051c-0.587-1.379-2.432-3.977-5.538-7.792c-3.292-4.029-5.402-7.066-6.329-9.119
			c-1.241-2.782-1.688-5.508-1.338-8.188c0.468-3.532,2.04-6.703,4.722-9.509c3.371-3.511,7.532-5.264,12.466-5.264
			C389.082,393.184,394.35,396.331,398.09,402.619z"/>
		<path d="M370.241,468.379c-13.335,0-24.277-6.768-30.812-19.054l-6.104-11.476l19.951-14.553
			c-0.166-0.328-0.322-0.655-0.468-0.978c-2.41-5.419-3.254-10.877-2.539-16.311c0.89-6.743,3.83-12.767,8.737-17.908
			c6.229-6.483,14.275-9.895,23.298-9.895c12.053,0,22.231,5.952,28.654,16.754l6.697,11.255l-16.649,13.211
			c1.386,2.644,2.455,5.405,3.115,8.108c0.919,3.866,1.119,7.728,0.61,11.571c-1.085,8.267-5.099,15.544-11.603,21.049
			C386.778,465.538,378.864,468.379,370.241,468.379z"/>
	</g>
	<g>
		<path fill="#F47932" d="M438.035,393.184c7.873,0,14.034,2.535,18.488,7.603c4.449,5.066,6.162,11.491,5.137,19.295
			c-0.785,5.977-3.045,11.602-6.768,16.888c-3.723,5.296-8.282,9.347-13.683,12.184c-5.405,2.828-11.365,4.248-17.884,4.248
			c-8.16,0-14.355-2.415-18.591-7.245c-4.237-4.836-5.833-11.197-4.79-19.101c1.182-8.963,5.101-16.668,11.77-23.11
			C419.154,396.775,427.927,393.184,438.035,393.184z M436.307,403.356c-4.109,0-7.987,0.992-11.637,2.979
			c-3.646,1.989-6.765,4.847-9.336,8.581c-2.565,3.725-4.115,7.573-4.639,11.55c-0.617,4.703,0.304,8.691,2.753,11.965
			c2.45,3.274,6.381,4.917,11.788,4.917c6.265,0,11.872-2.214,16.827-6.628c4.963-4.421,7.854-9.78,8.691-16.099
			c0.686-5.22-0.3-9.403-2.969-12.546C445.117,404.931,441.292,403.356,436.307,403.356z"/>
		<path d="M423.326,468.379c-15.722,0-24.911-6.716-29.854-12.346c-4.94-5.648-10.401-15.589-8.376-30.938
			c1.631-12.362,7.083-23.104,16.209-31.923c10.312-9.937,22.668-14.967,36.729-14.967c15.354,0,24.644,6.897,29.74,12.69
			c5.093,5.798,10.736,15.906,8.735,31.138c-1.101,8.363-4.252,16.289-9.37,23.562c-5.071,7.21-11.457,12.875-18.967,16.817
			C440.606,466.373,432.254,468.379,423.326,468.379z M435.943,418.342c-1.457,0.051-2.772,0.42-4.104,1.146
			c-1.579,0.858-2.944,2.143-4.167,3.919c-1.208,1.751-1.901,3.377-2.119,4.956c2.437-0.063,4.409-0.922,6.552-2.829
			c2.265-2.019,3.44-4.14,3.804-6.876C435.92,418.55,435.933,418.439,435.943,418.342z"/>
	</g>
	<g>
		<path fill="#F47932" d="M478.645,394.633h10.062c6.107,0,10.35,0.527,12.719,1.595c2.933,1.325,5.049,3.171,6.347,5.533
			c1.29,2.367,1.723,5.134,1.306,8.304c-0.455,3.482-1.814,6.627-4.062,9.453c-2.248,2.812-5.038,4.863-8.368,6.15
			c-3.338,1.289-8.691,1.98-16.068,2.086l-6.514,24.204h-10.799L478.645,394.633z M483.226,417.62
			c5.845-0.021,9.735-0.633,11.67-1.831c1.938-1.194,3.066-2.969,3.378-5.338c0.174-1.327-0.023-2.443-0.599-3.354
			c-0.577-0.904-1.522-1.539-2.842-1.909c-1.309-0.361-3.988-0.542-8.033-0.542L483.226,417.62z"/>
		<path d="M485.548,466.938h-41.807l23.411-87.286h21.555c8.569,0,14.384,0.899,18.867,2.915
			c5.879,2.658,10.479,6.801,13.325,11.989c2.854,5.227,3.863,11.089,3.032,17.451c-0.813,6.189-3.233,11.855-7.199,16.835
			c-3.935,4.926-8.868,8.553-14.695,10.799c-2.731,1.055-5.942,1.826-9.775,2.341L485.548,466.938z"/>
	</g>
	<g>
		<path fill="#F47932" d="M549.774,393.184c7.873,0,14.034,2.535,18.489,7.603c4.448,5.066,6.16,11.491,5.134,19.295
			c-0.783,5.977-3.043,11.602-6.766,16.888c-3.723,5.296-8.281,9.347-13.682,12.184c-5.405,2.828-11.365,4.248-17.884,4.248
			c-8.16,0-14.356-2.415-18.592-7.245c-4.236-4.836-5.833-11.197-4.79-19.101c1.182-8.963,5.102-16.668,11.77-23.11
			C530.895,396.775,539.667,393.184,549.774,393.184z M548.046,403.356c-4.109,0-7.989,0.992-11.636,2.979
			c-3.649,1.989-6.768,4.847-9.336,8.581c-2.566,3.725-4.116,7.573-4.642,11.55c-0.616,4.703,0.306,8.691,2.756,11.965
			c2.449,3.274,6.38,4.917,11.785,4.917c6.264,0,11.873-2.214,16.83-6.628c4.961-4.421,7.854-9.78,8.691-16.099
			c0.686-5.22-0.301-9.403-2.969-12.546C556.857,404.931,553.031,403.356,548.046,403.356z"/>
		<path d="M535.066,468.379c-15.723,0-24.914-6.716-29.854-12.346c-4.944-5.648-10.403-15.589-8.374-30.938
			c1.626-12.362,7.084-23.104,16.207-31.923c10.312-9.937,22.666-14.967,36.729-14.967c15.354,0,24.645,6.897,29.737,12.69
			c5.097,5.798,10.737,15.906,8.738,31.138c-1.101,8.363-4.254,16.289-9.371,23.562c-5.072,7.21-11.458,12.875-18.966,16.817
			C552.346,466.373,543.993,468.379,535.066,468.379z M547.683,418.342c-1.46,0.051-2.773,0.42-4.104,1.146
			c-1.58,0.858-2.945,2.143-4.167,3.919c-1.211,1.751-1.902,3.377-2.121,4.956c2.438-0.063,4.409-0.922,6.553-2.829
			c2.266-2.019,3.441-4.14,3.805-6.876C547.659,418.55,547.67,418.439,547.683,418.342z"/>
	</g>
	<g>
		<path fill="#F47932" d="M589.956,394.633h10.732l-9.458,35.385c-0.824,3.09-1.32,5.273-1.488,6.547
			c-0.287,2.156,0.168,3.839,1.344,5.05c1.182,1.208,3.043,1.808,5.59,1.808c2.059,0,3.907-0.447,5.562-1.36
			c1.238-0.678,2.299-1.797,3.191-3.37c0.899-1.58,1.978-4.697,3.245-9.377l9.302-34.682h10.847l-9.134,34.221
			c-1.893,7.036-3.815,12.092-5.78,15.158c-1.961,3.06-4.524,5.394-7.684,6.99c-3.164,1.603-6.857,2.398-11.094,2.398
			c-5.718,0-9.971-1.522-12.772-4.561c-2.795-3.042-3.849-7.198-3.151-12.471c0.299-2.283,1.054-5.666,2.276-10.133L589.956,394.633
			z"/>
		<path d="M595.132,468.379c-12.507,0-19.838-5.106-23.78-9.385c-4.097-4.459-8.615-12.321-6.99-24.592
			c0.391-3.007,1.269-6.979,2.675-12.119l11.427-42.631h69.857l-14.159,53.062c-2.357,8.768-4.784,14.916-7.643,19.378
			c-3.411,5.331-7.965,9.463-13.538,12.275C607.735,467.03,601.726,468.379,595.132,468.379z"/>
	</g>
	<g>
		<path fill="#F47932" d="M641.526,394.633h10.822l-12.812,47.465h17.798l-2.548,9.86h-28.643L641.526,394.633z"/>
		<polygon points="666.389,466.938 606.618,466.938 630.04,379.652 671.904,379.652 659.093,427.119 676.67,427.119 		"/>
	</g>
	<g>
		<path fill="#F47932" d="M703.021,393.184c7.873,0,14.033,2.535,18.488,7.603c4.448,5.066,6.16,11.491,5.134,19.295
			c-0.783,5.977-3.043,11.602-6.765,16.888c-3.724,5.296-8.283,9.347-13.683,12.184c-5.405,2.828-11.365,4.248-17.884,4.248
			c-8.16,0-14.356-2.415-18.592-7.245c-4.236-4.836-5.833-11.197-4.79-19.101c1.182-8.963,5.102-16.668,11.77-23.11
			C684.14,396.775,692.912,393.184,703.021,393.184z M701.292,403.356c-4.11,0-7.988,0.992-11.636,2.979
			c-3.65,1.989-6.768,4.847-9.337,8.581c-2.565,3.725-4.115,7.573-4.641,11.55c-0.615,4.703,0.306,8.691,2.755,11.965
			c2.45,3.274,6.381,4.917,11.786,4.917c6.266,0,11.872-2.214,16.829-6.628c4.962-4.421,7.855-9.78,8.692-16.099
			c0.686-5.22-0.301-9.403-2.97-12.546C710.104,404.931,706.277,403.356,701.292,403.356z"/>
		<path d="M688.312,468.379c-15.723,0-24.915-6.716-29.854-12.346c-4.944-5.648-10.404-15.589-8.374-30.938
			c1.624-12.362,7.084-23.104,16.206-31.923c10.312-9.937,22.666-14.967,36.73-14.967c15.354,0,24.644,6.897,29.737,12.69
			c5.096,5.798,10.737,15.906,8.737,31.138c-1.101,8.363-4.254,16.289-9.371,23.562c-5.072,7.21-11.458,12.875-18.967,16.817
			C705.592,466.373,697.239,468.379,688.312,468.379z M700.929,418.342c-1.459,0.051-2.773,0.42-4.104,1.146
			c-1.58,0.858-2.944,2.143-4.167,3.919c-1.211,1.751-1.902,3.377-2.121,4.956c2.438-0.063,4.409-0.922,6.553-2.829
			c2.266-2.019,3.441-4.14,3.805-6.876C700.905,418.55,700.917,418.439,700.929,418.342z"/>
	</g>
	<path d="M743.767,468.379c-13.335,0-24.281-6.768-30.811-19.054l-6.109-11.476l19.953-14.553c-0.161-0.328-0.322-0.655-0.467-0.978
		c-2.41-5.419-3.25-10.877-2.542-16.311c0.894-6.743,3.833-12.767,8.736-17.908c6.249-6.488,14.289-9.895,23.295-9.895
		c12.06,0,22.235,5.952,28.662,16.754l6.697,11.255l-16.65,13.211c1.389,2.644,2.456,5.405,3.117,8.108
		c0.918,3.866,1.113,7.728,0.606,11.571c-1.083,8.267-5.095,15.544-11.601,21.049C760.291,465.538,752.377,468.379,743.767,468.379z
		"/>
	<g>
		<g>
			<path fill="#F47932" d="M220.177,394.633h10.8l-5.21,19.282l20.829-19.282h13.36l-28.442,26.198l15.642,31.127h-12.04
				l-12.764-25.41l-6.871,25.41h-10.686L220.177,394.633z"/>
		</g>
		<g>
			<path fill="#F47932" d="M295.976,393.184c7.873,0,14.035,2.535,18.489,7.603c4.449,5.066,6.161,11.491,5.134,19.295
				c-0.783,5.977-3.042,11.602-6.766,16.888c-3.722,5.296-8.282,9.347-13.682,12.184c-5.405,2.828-11.366,4.248-17.884,4.248
				c-8.161,0-14.356-2.415-18.591-7.245c-4.237-4.836-5.833-11.197-4.79-19.101c1.181-8.963,5.102-16.668,11.77-23.11
				C277.095,396.775,285.867,393.184,295.976,393.184z M294.247,403.356c-4.109,0-7.987,0.992-11.636,2.979
				c-3.649,1.989-6.766,4.847-9.336,8.581c-2.565,3.725-4.116,7.573-4.641,11.55c-0.615,4.703,0.306,8.691,2.755,11.965
				c2.449,3.274,6.38,4.917,11.786,4.917c6.266,0,11.872-2.214,16.83-6.628c4.961-4.421,7.854-9.78,8.691-16.099
				c0.686-5.22-0.3-9.403-2.969-12.546C303.058,404.931,299.232,403.356,294.247,403.356z"/>
		</g>
		<g>
			<path fill="#F47932" d="M329.069,394.633h35.005l-2.598,10.211h-11.948l-12.639,47.114h-10.685l12.639-47.114h-12.442
				L329.069,394.633z"/>
		</g>
		<g>
			<path fill="#F47932" d="M398.09,402.619l-8.744,6.939c-2.679-4.156-5.405-6.237-8.183-6.237c-1.378,0-2.57,0.404-3.591,1.228
				c-1.02,0.82-1.602,1.794-1.751,2.939c-0.146,1.067,0.114,2.248,0.783,3.546c0.656,1.301,2.802,4.173,6.427,8.615
				c1.918,2.363,3.169,4.04,3.739,5.025c1.39,2.288,2.318,4.426,2.801,6.408c0.474,1.989,0.583,4.013,0.312,6.063
				c-0.604,4.599-2.75,8.461-6.432,11.58c-3.688,3.117-8.093,4.674-13.21,4.674c-7.792,0-13.652-3.707-17.589-11.106l9.136-6.664
				c2.657,5.066,5.925,7.597,9.792,7.597c1.845,0,3.481-0.593,4.893-1.791c1.423-1.194,2.241-2.636,2.46-4.329
				c0.173-1.325-0.027-2.675-0.61-4.051c-0.587-1.379-2.432-3.977-5.538-7.792c-3.292-4.029-5.402-7.066-6.329-9.119
				c-1.241-2.782-1.688-5.508-1.338-8.188c0.468-3.532,2.04-6.703,4.722-9.509c3.376-3.511,7.527-5.264,12.46-5.264
				C389.088,393.184,394.35,396.331,398.09,402.619z"/>
		</g>
		<g>
			<path fill="#F47932" d="M438.03,393.184c7.872,0,14.039,2.535,18.493,7.603c4.449,5.066,6.162,11.491,5.137,19.295
				c-0.785,5.977-3.045,11.602-6.768,16.888c-3.723,5.296-8.282,9.347-13.683,12.184c-5.405,2.828-11.365,4.248-17.884,4.248
				c-8.16,0-14.355-2.415-18.596-7.245c-4.232-4.836-5.828-11.197-4.785-19.101c1.182-8.963,5.096-16.668,11.77-23.11
				C419.154,396.775,427.932,393.184,438.03,393.184z M436.307,403.356c-4.109,0-7.982,0.992-11.637,2.979
				c-3.646,1.989-6.765,4.847-9.336,8.581c-2.565,3.725-4.115,7.573-4.639,11.55c-0.617,4.703,0.304,8.691,2.753,11.965
				c2.45,3.274,6.381,4.917,11.788,4.917c6.265,0,11.872-2.214,16.827-6.628c4.963-4.421,7.863-9.78,8.691-16.099
				c0.686-5.22-0.3-9.403-2.969-12.546C445.117,404.931,441.292,403.356,436.307,403.356z"/>
		</g>
		<g>
			<path fill="#F47932" d="M478.65,394.633h10.062c6.109,0,10.344,0.527,12.713,1.595c2.933,1.325,5.049,3.171,6.347,5.533
				c1.29,2.367,1.723,5.134,1.306,8.304c-0.46,3.482-1.81,6.627-4.062,9.453c-2.248,2.812-5.038,4.863-8.374,6.15
				c-3.332,1.289-8.686,1.98-16.062,2.086l-6.514,24.204h-10.799L478.65,394.633z M483.226,417.62
				c5.845-0.021,9.735-0.633,11.67-1.831c1.942-1.194,3.066-2.969,3.378-5.338c0.174-1.327-0.023-2.443-0.599-3.354
				c-0.582-0.904-1.522-1.539-2.842-1.909c-1.309-0.361-3.988-0.542-8.033-0.542L483.226,417.62z"/>
		</g>
		<g>
			<path fill="#F47932" d="M549.77,393.184c7.871,0,14.039,2.535,18.494,7.603c4.448,5.066,6.16,11.491,5.134,19.295
				c-0.783,5.977-3.043,11.602-6.766,16.888c-3.723,5.296-8.281,9.347-13.682,12.184c-5.405,2.828-11.365,4.248-17.884,4.248
				c-8.16,0-14.356-2.415-18.598-7.245c-4.23-4.836-5.827-11.197-4.784-19.101c1.182-8.963,5.095-16.668,11.77-23.11
				C530.895,396.775,539.672,393.184,549.77,393.184z M548.046,403.356c-4.109,0-7.983,0.992-11.636,2.979
				c-3.649,1.989-6.768,4.847-9.336,8.581c-2.566,3.725-4.116,7.573-4.642,11.55c-0.616,4.703,0.306,8.691,2.756,11.965
				c2.449,3.274,6.38,4.917,11.785,4.917c6.264,0,11.873-2.214,16.83-6.628c4.961-4.421,7.859-9.78,8.691-16.099
				c0.686-5.22-0.301-9.403-2.969-12.546C556.857,404.931,553.031,403.356,548.046,403.356z"/>
		</g>
		<g>
			<path fill="#F47932" d="M589.962,394.633h10.72l-9.451,35.385c-0.83,3.09-1.32,5.273-1.488,6.547
				c-0.287,2.156,0.168,3.839,1.344,5.05c1.182,1.208,3.043,1.808,5.59,1.808c2.059,0,3.907-0.447,5.562-1.36
				c1.232-0.678,2.299-1.797,3.191-3.37c0.899-1.58,1.978-4.697,3.245-9.377l9.309-34.682h10.847l-9.141,34.221
				c-1.893,7.036-3.815,12.092-5.775,15.158c-1.972,3.06-4.529,5.394-7.688,6.99c-3.164,1.603-6.857,2.398-11.094,2.398
				c-5.718,0-9.971-1.522-12.772-4.561c-2.795-3.042-3.844-7.198-3.151-12.471c0.299-2.283,1.061-5.666,2.276-10.133
				L589.962,394.633z"/>
		</g>
		<g>
			<path fill="#F47932" d="M641.52,394.633h10.836l-12.818,47.465h17.798l-2.548,9.86h-28.643L641.52,394.633z"/>
		</g>
		<g>
			<path fill="#F47932" d="M703.015,393.184c7.871,0,14.04,2.535,18.495,7.603c4.448,5.066,6.16,11.491,5.134,19.295
				c-0.783,5.977-3.043,11.602-6.765,16.888c-3.724,5.296-8.283,9.347-13.683,12.184c-5.405,2.828-11.365,4.248-17.884,4.248
				c-8.16,0-14.356-2.415-18.597-7.245c-4.231-4.836-5.828-11.197-4.785-19.101c1.182-8.963,5.094-16.668,11.77-23.11
				C684.14,396.775,692.918,393.184,703.015,393.184z M701.292,403.356c-4.11,0-7.983,0.992-11.636,2.979
				c-3.65,1.989-6.768,4.847-9.337,8.581c-2.565,3.725-4.115,7.573-4.641,11.55c-0.615,4.703,0.306,8.691,2.755,11.965
				c2.45,3.274,6.381,4.917,11.786,4.917c6.266,0,11.872-2.214,16.829-6.628c4.962-4.421,7.861-9.78,8.692-16.099
				c0.686-5.22-0.301-9.403-2.97-12.546C710.104,404.931,706.277,403.356,701.292,403.356z"/>
		</g>
		<g>
			<path fill="#F47932" d="M771.615,402.619l-8.743,6.939c-2.675-4.156-5.405-6.237-8.184-6.237c-1.378,0-2.569,0.404-3.591,1.228
				c-1.019,0.82-1.601,1.794-1.752,2.939c-0.145,1.067,0.115,2.248,0.784,3.546c0.656,1.301,2.794,4.173,6.427,8.615
				c1.918,2.363,3.17,4.04,3.739,5.025c1.39,2.288,2.316,4.426,2.802,6.408c0.472,1.989,0.582,4.013,0.311,6.063
				c-0.604,4.599-2.749,8.461-6.432,11.58c-3.682,3.117-8.092,4.674-13.21,4.674c-7.792,0-13.652-3.707-17.59-11.106l9.136-6.664
				c2.656,5.066,5.923,7.597,9.792,7.597c1.845,0,3.481-0.593,4.894-1.791c1.422-1.194,2.234-2.636,2.46-4.329
				c0.179-1.325-0.028-2.675-0.61-4.051c-0.588-1.379-2.433-3.977-5.54-7.792c-3.29-4.029-5.399-7.066-6.326-9.119
				c-1.24-2.782-1.69-5.508-1.339-8.188c0.469-3.532,2.041-6.703,4.721-9.509c3.372-3.511,7.533-5.264,12.467-5.264
				C762.607,393.184,767.875,396.331,771.615,402.619z"/>
		</g>
	</g>
	<g>
		<g>
			<path fill="#FFFFFF" d="M251.94,454.909h-18.647l-10.11-20.131l-5.444,20.131h-16.791l16.966-63.229h16.916l-3.539,13.1
				l14.148-13.1h22.073l-32.364,29.814L251.94,454.909z M236.937,449.008h5.431l-14.491-28.84l24.518-22.586h-4.644l-25.016,23.162
				L236.937,449.008z M208.642,449.008h4.578l8.297-30.69l0.002,0.007l5.606-20.742h-4.687L208.642,449.008z"/>
		</g>
		<g>
			<path fill="#FFFFFF" d="M281.267,456.35c-9.008,0-16.009-2.776-20.81-8.246c-4.801-5.481-6.651-12.69-5.496-21.435
				c1.267-9.601,5.518-17.964,12.643-24.846c7.982-7.694,17.527-11.59,28.372-11.59c8.717,0,15.686,2.893,20.706,8.604
				c5.013,5.711,6.981,12.985,5.844,21.63c-0.842,6.414-3.292,12.534-7.28,18.201c-3.966,5.642-8.922,10.05-14.723,13.094
				C294.708,454.806,288.233,456.35,281.267,456.35z M295.976,396.136c-9.397,0-17.336,3.249-24.271,9.936
				c-6.141,5.931-9.805,13.123-10.894,21.37c-0.933,7.083,0.402,12.563,4.084,16.771c3.682,4.197,9.036,6.237,16.373,6.237
				c6.001,0,11.559-1.313,16.515-3.914c4.959-2.6,9.213-6.392,12.637-11.261c3.435-4.877,5.538-10.116,6.255-15.579
				c0.918-6.979-0.529-12.524-4.425-16.962C308.344,398.295,303.021,396.136,295.976,396.136z M283.175,446.299
				c-6.358,0-11.121-2.051-14.148-6.099c-2.919-3.901-4.034-8.65-3.317-14.118c0.582-4.421,2.311-8.737,5.136-12.836
				c2.814-4.098,6.299-7.291,10.354-9.502c4.065-2.214,8.453-3.338,13.048-3.338c5.87,0,10.488,1.937,13.73,5.763
				c3.214,3.781,4.441,8.778,3.644,14.841c-0.925,7.009-4.176,13.03-9.653,17.912C296.472,443.814,290.148,446.299,283.175,446.299z
				 M294.247,406.307c-3.594,0-7.034,0.883-10.225,2.623c-3.23,1.758-6.03,4.341-8.315,7.659c-2.292,3.326-3.686,6.778-4.146,10.266
				c-0.516,3.937,0.201,7.146,2.191,9.808c1.879,2.514,4.963,3.735,9.423,3.735c5.562,0,10.423-1.925,14.867-5.879
				c4.454-3.972,6.983-8.639,7.729-14.28c0.575-4.405-0.173-7.752-2.291-10.247C301.379,407.512,298.358,406.307,294.247,406.307z"
				/>
		</g>
		<g>
			<path fill="#FFFFFF" d="M339.154,454.909h-16.796l12.639-47.115h-12.417l4.211-16.114h41.082l-4.101,16.114h-11.978
				L339.154,454.909z M330.052,449.008h4.572l12.639-47.115h11.919l1.098-4.311h-28.933l-1.126,4.311h12.47L330.052,449.008z"/>
		</g>
		<g>
			<path fill="#FFFFFF" d="M370.241,456.35c-8.927,0-15.722-4.265-20.193-12.674l-1.202-2.259l13.966-10.185l1.588,3.026
				c3.156,6.018,6.185,6.018,7.179,6.018c1.159,0,2.106-0.345,2.982-1.09c0.868-0.726,1.323-1.503,1.444-2.46
				c0.107-0.807-0.026-1.631-0.401-2.524c-0.212-0.502-1.148-2.214-5.108-7.077c-3.483-4.265-5.689-7.458-6.729-9.765
				c-1.467-3.296-1.994-6.586-1.574-9.791c0.548-4.15,2.404-7.906,5.511-11.163c3.944-4.099,8.855-6.173,14.596-6.173
				c7.866,0,14.032,3.659,18.326,10.875l1.319,2.219l-13.313,10.565l-1.766-2.733c-2.903-4.517-5.827-5.614-7.438-4.315
				c-0.539,0.433-0.649,0.76-0.682,1.026c-0.061,0.46,0.107,1.083,0.481,1.81c0.322,0.64,1.528,2.512,6.089,8.104
				c2.077,2.558,3.35,4.275,4.008,5.41c1.499,2.466,2.557,4.904,3.115,7.193c0.562,2.363,0.684,4.761,0.369,7.146
				c-0.7,5.331-3.207,9.855-7.449,13.446C381.14,454.541,376.054,456.35,370.241,456.35z M356.562,443.094
				c3.323,4.947,7.817,7.355,13.678,7.355c4.441,0,8.139-1.304,11.307-3.977c3.129-2.652,4.898-5.828,5.411-9.711
				c0.219-1.672,0.132-3.351-0.256-4.998c-0.413-1.677-1.241-3.556-2.453-5.555c-0.365-0.628-1.238-1.902-3.509-4.697
				c-5.006-6.139-6.248-8.114-6.769-9.147c-0.937-1.814-1.299-3.597-1.074-5.273c0.243-1.873,1.224-3.556,2.828-4.84
				c3.841-3.107,9.652-2.417,14.195,3.083l4.202-3.332c-3.028-3.941-6.917-5.866-11.823-5.866c-4.134,0-7.514,1.423-10.335,4.356
				c-2.25,2.357-3.535,4.929-3.922,7.85c-0.278,2.137,0.085,4.299,1.109,6.605c0.555,1.222,2.035,3.7,5.916,8.449
				c4.407,5.411,5.516,7.445,5.97,8.5c0.787,1.866,1.063,3.747,0.82,5.592c-0.313,2.443-1.489,4.529-3.489,6.206
				c-1.937,1.643-4.224,2.483-6.789,2.483c-4.162,0-7.731-2.104-10.649-6.27L356.562,443.094z"/>
		</g>
		<g>
			<path fill="#FFFFFF" d="M423.326,456.35c-9.008,0-16.007-2.776-20.813-8.246c-4.801-5.486-6.647-12.696-5.492-21.435
				c1.266-9.607,5.521-17.97,12.643-24.846c7.982-7.694,17.527-11.59,28.367-11.59c8.718,0,15.687,2.893,20.706,8.604
				c5.021,5.711,6.985,12.985,5.851,21.63c-0.841,6.414-3.29,12.534-7.279,18.201c-3.97,5.642-8.921,10.05-14.726,13.094
				C436.768,454.806,430.289,456.35,423.326,456.35z M438.03,396.136c-9.395,0-17.332,3.249-24.271,9.936
				c-6.222,6.006-9.786,12.996-10.89,21.37c-0.932,7.077,0.402,12.563,4.081,16.771c3.687,4.197,9.04,6.237,16.376,6.237
				c6.001,0,11.556-1.313,16.52-3.914c4.955-2.604,9.209-6.392,12.633-11.261c3.436-4.877,5.538-10.116,6.253-15.579
				c0.922-6.979-0.531-12.524-4.427-16.962C450.403,398.295,445.079,396.136,438.03,396.136z M425.236,446.299
				c-6.364,0-11.124-2.051-14.15-6.099c-2.916-3.901-4.034-8.65-3.317-14.118c0.581-4.421,2.31-8.737,5.133-12.836
				c2.817-4.098,6.305-7.291,10.357-9.502c4.074-2.214,8.461-3.338,13.048-3.338c5.866,0,10.488,1.937,13.729,5.763
				c3.216,3.781,4.443,8.778,3.648,14.841c-0.923,6.996-4.174,13.024-9.654,17.912C438.53,443.814,432.208,446.299,425.236,446.299z
				 M436.307,406.307c-3.644,0-6.984,0.859-10.225,2.623c-3.232,1.758-6.028,4.341-8.315,7.659
				c-2.295,3.326-3.689,6.778-4.145,10.266c-0.519,3.937,0.195,7.146,2.189,9.808c1.88,2.514,4.963,3.735,9.425,3.735
				c5.561,0,10.426-1.925,14.862-5.879c4.46-3.977,6.99-8.646,7.729-14.28c0.582-4.405-0.166-7.752-2.287-10.247
				C443.436,407.512,440.423,406.307,436.307,406.307z"/>
		</g>
		<g>
			<path fill="#FFFFFF" d="M476.325,454.909h-16.903l16.963-63.229h12.328c6.592,0,11.151,0.605,13.923,1.856
				c3.521,1.59,6.115,3.878,7.724,6.806c1.591,2.917,2.144,6.316,1.647,10.103c-0.536,4.018-2.109,7.684-4.684,10.911
				c-2.571,3.221-5.812,5.597-9.621,7.065c-3.319,1.286-8.188,2.018-14.845,2.231L476.325,454.909z M467.111,449.008h4.698
				l6.5-24.177l2.229-0.03c7.003-0.098,12.059-0.731,15.037-1.884c2.865-1.105,5.198-2.817,7.136-5.244
				c1.923-2.409,3.048-5.025,3.44-7.993c0.339-2.56,0.017-4.691-0.975-6.508c-0.986-1.799-2.61-3.191-4.967-4.253
				c-1.35-0.61-4.445-1.337-11.498-1.337h-7.798L467.111,449.008z M479.347,420.588l5.204-18.892h2.249
				c5.81,0,7.819,0.37,8.821,0.651c2.03,0.564,3.553,1.626,4.536,3.151c0.958,1.518,1.309,3.31,1.045,5.332
				c-0.428,3.24-2.075,5.822-4.763,7.47c-2.454,1.521-6.656,2.248-13.202,2.271L479.347,420.588z M489.04,407.621l-1.907,6.922
				c4.143-0.281,5.688-0.939,6.213-1.263c1.192-0.736,1.804-1.723,1.999-3.216c0.082-0.614,0.03-1.089-0.166-1.39
				c-0.161-0.258-0.554-0.478-1.143-0.645C493.651,407.921,492.43,407.691,489.04,407.621z"/>
		</g>
		<g>
			<path fill="#FFFFFF" d="M535.066,456.35c-9.009,0-16.01-2.776-20.815-8.246c-4.796-5.486-6.646-12.696-5.495-21.435
				c1.269-9.607,5.522-17.97,12.645-24.846c7.983-7.694,17.526-11.59,28.369-11.59c8.719,0,15.687,2.893,20.707,8.604
				c5.02,5.711,6.985,12.985,5.85,21.63c-0.842,6.414-3.292,12.534-7.28,18.201c-3.97,5.642-8.922,10.05-14.725,13.094
				C548.507,454.806,542.029,456.35,535.066,456.35z M549.77,396.136c-9.396,0-17.331,3.249-24.271,9.936
				c-6.225,6.006-9.785,12.996-10.886,21.37c-0.939,7.077,0.396,12.563,4.075,16.771c3.687,4.197,9.041,6.237,16.378,6.237
				c6.001,0,11.555-1.313,16.518-3.914c4.956-2.604,9.21-6.392,12.634-11.261c3.433-4.877,5.538-10.116,6.253-15.579
				c0.922-6.979-0.53-12.524-4.427-16.962C562.144,398.295,556.816,396.136,549.77,396.136z M536.974,446.299
				c-6.362,0-11.122-2.051-14.148-6.099c-2.918-3.901-4.034-8.65-3.318-14.118c0.58-4.421,2.31-8.737,5.134-12.836
				c2.817-4.098,6.305-7.291,10.357-9.502c4.075-2.214,8.459-3.338,13.048-3.338c5.866,0,10.488,1.937,13.728,5.763
				c3.217,3.781,4.443,8.778,3.647,14.841c-0.922,6.996-4.172,13.024-9.653,17.912C550.271,443.814,543.947,446.299,536.974,446.299
				z M548.046,406.307c-3.644,0-6.986,0.859-10.224,2.623c-3.233,1.758-6.028,4.341-8.318,7.659
				c-2.292,3.326-3.688,6.778-4.143,10.266c-0.521,3.937,0.195,7.146,2.189,9.808c1.879,2.514,4.963,3.735,9.423,3.735
				c5.562,0,10.426-1.925,14.863-5.879c4.462-3.977,6.992-8.646,7.729-14.28c0.584-4.405-0.167-7.752-2.288-10.247
				C555.175,407.512,552.159,406.307,548.046,406.307z"/>
		</g>
		<g>
			<path fill="#FFFFFF" d="M595.132,456.35c-6.541,0-11.567-1.854-14.939-5.51c-3.406-3.707-4.72-8.702-3.912-14.857
				c0.322-2.432,1.088-5.872,2.357-10.519l9.06-33.784h16.828l-10.442,39.098c-0.976,3.625-1.309,5.356-1.412,6.175
				c-0.243,1.809,0.317,2.384,0.528,2.604c0.74,0.755,2.301,0.916,3.477,0.916c1.568,0,2.923-0.322,4.14-0.998
				c0.747-0.408,1.439-1.162,2.051-2.24c0.531-0.929,1.469-3.188,2.961-8.691l9.892-36.862h16.955l-10.133,37.936
				c-1.993,7.404-3.999,12.633-6.143,15.987c-2.259,3.509-5.233,6.206-8.842,8.033C604.001,455.434,599.818,456.35,595.132,456.35z
				 M592.227,397.582l-7.89,29.421c-1.182,4.335-1.925,7.613-2.201,9.752c-0.584,4.404,0.207,7.698,2.396,10.091
				c2.208,2.387,5.769,3.604,10.6,3.604c3.751,0,7.036-0.699,9.764-2.081c2.695-1.359,4.834-3.308,6.541-5.955
				c1.78-2.788,3.603-7.613,5.405-14.326l8.143-30.505h-4.735l-8.721,32.498c-1.372,5.037-2.49,8.236-3.533,10.069
				c-1.151,2.034-2.611,3.551-4.335,4.496c-2.08,1.146-4.43,1.729-6.984,1.729c-3.359,0-5.953-0.909-7.699-2.698
				c-1.274-1.309-2.669-3.665-2.155-7.504c0.185-1.434,0.708-3.764,1.562-6.92l8.455-31.67H592.227z"/>
		</g>
		<g>
			<path fill="#FFFFFF" d="M657.076,454.909H622.3l16.955-63.229h16.955l-12.817,47.467h17.751L657.076,454.909z M629.989,449.008
				H652.5l1.025-3.961h-17.844l12.818-47.465h-4.715L629.989,449.008z"/>
		</g>
		<g>
			<path fill="#FFFFFF" d="M688.312,456.35c-9.009,0-16.01-2.776-20.816-8.246c-4.795-5.486-6.645-12.696-5.494-21.435
				c1.268-9.607,5.522-17.97,12.646-24.846c7.983-7.694,17.526-11.59,28.367-11.59c8.72,0,15.688,2.893,20.708,8.604
				c5.021,5.711,6.985,12.985,5.85,21.63c-0.843,6.414-3.292,12.534-7.28,18.201c-3.97,5.642-8.921,10.05-14.725,13.094
				C701.753,454.806,695.275,456.35,688.312,456.35z M703.015,396.136c-9.395,0-17.331,3.249-24.269,9.936
				c-6.226,6.006-9.786,12.996-10.887,21.37c-0.939,7.077,0.396,12.563,4.074,16.771c3.688,4.197,9.042,6.237,16.379,6.237
				c6.001,0,11.556-1.313,16.518-3.914c4.956-2.604,9.209-6.392,12.634-11.261c3.434-4.877,5.538-10.116,6.254-15.579
				c0.921-6.979-0.531-12.524-4.428-16.962C715.389,398.295,710.062,396.136,703.015,396.136z M690.22,446.299
				c-6.362,0-11.122-2.051-14.148-6.099c-2.917-3.901-4.034-8.65-3.319-14.118c0.581-4.421,2.312-8.737,5.135-12.836
				c2.817-4.098,6.305-7.291,10.357-9.502c4.075-2.214,8.459-3.338,13.048-3.338c5.867,0,10.488,1.937,13.729,5.763
				c3.216,3.781,4.442,8.778,3.646,14.841c-0.921,6.996-4.172,13.024-9.653,17.912C703.517,443.814,697.193,446.299,690.22,446.299z
				 M701.292,406.307c-3.644,0-6.986,0.859-10.225,2.623c-3.232,1.758-6.028,4.341-8.316,7.659
				c-2.293,3.326-3.688,6.778-4.145,10.266c-0.52,3.937,0.196,7.146,2.19,9.808c1.88,2.514,4.963,3.735,9.423,3.735
				c5.562,0,10.426-1.925,14.863-5.879c4.462-3.977,6.992-8.646,7.729-14.28c0.582-4.405-0.168-7.752-2.289-10.247
				C708.42,407.512,705.405,406.307,701.292,406.307z"/>
		</g>
		<g>
			<path fill="#FFFFFF" d="M743.767,456.35c-8.928,0-15.723-4.265-20.195-12.674l-1.203-2.259l13.97-10.185l1.585,3.026
				c3.158,6.018,6.185,6.018,7.182,6.018c1.157,0,2.108-0.345,2.985-1.09c0.858-0.726,1.314-1.503,1.441-2.466
				c0.108-0.801-0.024-1.62-0.404-2.519c-0.214-0.502-1.147-2.214-5.106-7.077c-3.486-4.265-5.688-7.458-6.732-9.765
				c-1.463-3.296-1.994-6.586-1.571-9.791c0.553-4.15,2.402-7.906,5.514-11.163c3.937-4.099,8.849-6.173,14.6-6.173
				c7.866,0,14.027,3.659,18.321,10.875l1.319,2.219l-13.318,10.571l-1.765-2.744c-2.888-4.496-5.792-5.609-7.434-4.311
				c-0.543,0.433-0.646,0.76-0.681,1.026c-0.062,0.46,0.104,1.083,0.479,1.81c0.329,0.65,1.539,2.535,6.086,8.104
				c2.081,2.558,3.354,4.275,4.012,5.41c1.499,2.466,2.559,4.904,3.111,7.193c0.566,2.363,0.686,4.761,0.376,7.146
				c-0.704,5.331-3.21,9.855-7.453,13.446C754.671,454.541,749.589,456.35,743.767,456.35z M730.09,443.094
				c3.321,4.947,7.816,7.355,13.677,7.355c4.443,0,8.144-1.304,11.302-3.977c3.13-2.652,4.905-5.828,5.412-9.711
				c0.225-1.672,0.138-3.351-0.253-4.998c-0.409-1.677-1.24-3.556-2.457-5.555c-0.363-0.628-1.237-1.902-3.503-4.697
				c-5.054-6.18-6.283-8.186-6.771-9.147c-0.934-1.814-1.302-3.597-1.072-5.273c0.242-1.873,1.222-3.556,2.829-4.84
				c3.851-3.112,9.647-2.411,14.196,3.083l4.194-3.332c-3.023-3.941-6.909-5.866-11.813-5.866c-4.145,0-7.521,1.423-10.34,4.356
				c-2.247,2.357-3.533,4.929-3.919,7.85c-0.281,2.137,0.081,4.299,1.106,6.605c0.552,1.222,2.035,3.7,5.919,8.449
				c4.403,5.411,5.517,7.445,5.966,8.5c0.795,1.88,1.064,3.764,0.818,5.603c-0.322,2.443-1.499,4.529-3.487,6.195
				c-1.937,1.643-4.226,2.483-6.789,2.483c-4.161,0-7.735-2.104-10.65-6.27L730.09,443.094z"/>
		</g>
	</g>
	<g>
		<g>
			<path fill="#F47932" d="M220.177,394.633h10.8l-5.21,19.282l20.829-19.282h13.36l-28.442,26.198l15.642,31.127h-12.04
				l-12.764-25.41l-6.871,25.41h-10.686L220.177,394.633z"/>
		</g>
		<g>
			<path fill="#F47932" d="M295.976,393.184c7.873,0,14.035,2.535,18.489,7.603c4.449,5.066,6.161,11.491,5.134,19.295
				c-0.783,5.977-3.042,11.602-6.766,16.888c-3.722,5.296-8.282,9.347-13.682,12.184c-5.405,2.828-11.366,4.248-17.884,4.248
				c-8.161,0-14.356-2.415-18.591-7.245c-4.237-4.836-5.833-11.197-4.79-19.101c1.181-8.963,5.102-16.668,11.77-23.11
				C277.095,396.775,285.867,393.184,295.976,393.184z M294.247,403.356c-4.109,0-7.987,0.992-11.636,2.979
				c-3.649,1.989-6.766,4.847-9.336,8.581c-2.565,3.725-4.116,7.573-4.641,11.55c-0.615,4.703,0.306,8.691,2.755,11.965
				c2.449,3.274,6.38,4.917,11.786,4.917c6.266,0,11.872-2.214,16.83-6.628c4.961-4.421,7.854-9.78,8.691-16.099
				c0.686-5.22-0.3-9.403-2.969-12.546C303.058,404.931,299.232,403.356,294.247,403.356z"/>
		</g>
		<g>
			<path fill="#F47932" d="M329.069,394.633h35.005l-2.598,10.211h-11.948l-12.639,47.114h-10.685l12.639-47.114h-12.442
				L329.069,394.633z"/>
		</g>
		<g>
			<path fill="#F47932" d="M398.09,402.619l-8.744,6.939c-2.679-4.156-5.405-6.237-8.183-6.237c-1.378,0-2.57,0.404-3.591,1.228
				c-1.02,0.82-1.602,1.794-1.751,2.939c-0.146,1.067,0.114,2.248,0.783,3.546c0.656,1.301,2.802,4.173,6.427,8.615
				c1.918,2.363,3.169,4.04,3.739,5.025c1.39,2.288,2.318,4.426,2.801,6.408c0.474,1.989,0.583,4.013,0.312,6.063
				c-0.604,4.599-2.75,8.461-6.432,11.58c-3.688,3.117-8.093,4.674-13.21,4.674c-7.792,0-13.652-3.707-17.589-11.106l9.136-6.664
				c2.657,5.066,5.925,7.597,9.792,7.597c1.845,0,3.481-0.593,4.893-1.791c1.423-1.194,2.241-2.636,2.46-4.329
				c0.173-1.325-0.027-2.675-0.61-4.051c-0.587-1.379-2.432-3.977-5.538-7.792c-3.292-4.029-5.402-7.066-6.329-9.119
				c-1.241-2.782-1.688-5.508-1.338-8.188c0.468-3.532,2.04-6.703,4.722-9.509c3.376-3.511,7.527-5.264,12.46-5.264
				C389.088,393.184,394.35,396.331,398.09,402.619z"/>
		</g>
		<g>
			<path fill="#F47932" d="M438.03,393.184c7.872,0,14.039,2.535,18.493,7.603c4.449,5.066,6.162,11.491,5.137,19.295
				c-0.785,5.977-3.045,11.602-6.768,16.888c-3.723,5.296-8.282,9.347-13.683,12.184c-5.405,2.828-11.365,4.248-17.884,4.248
				c-8.16,0-14.355-2.415-18.596-7.245c-4.232-4.836-5.828-11.197-4.785-19.101c1.182-8.963,5.096-16.668,11.77-23.11
				C419.154,396.775,427.932,393.184,438.03,393.184z M436.307,403.356c-4.109,0-7.982,0.992-11.637,2.979
				c-3.646,1.989-6.765,4.847-9.336,8.581c-2.565,3.725-4.115,7.573-4.639,11.55c-0.617,4.703,0.304,8.691,2.753,11.965
				c2.45,3.274,6.381,4.917,11.788,4.917c6.265,0,11.872-2.214,16.827-6.628c4.963-4.421,7.863-9.78,8.691-16.099
				c0.686-5.22-0.3-9.403-2.969-12.546C445.117,404.931,441.292,403.356,436.307,403.356z"/>
		</g>
		<g>
			<path fill="#F47932" d="M478.65,394.633h10.062c6.109,0,10.344,0.527,12.713,1.595c2.933,1.325,5.049,3.171,6.347,5.533
				c1.29,2.367,1.723,5.134,1.306,8.304c-0.46,3.482-1.81,6.627-4.062,9.453c-2.248,2.812-5.038,4.863-8.374,6.15
				c-3.332,1.289-8.686,1.98-16.062,2.086l-6.514,24.204h-10.799L478.65,394.633z M483.226,417.62
				c5.845-0.021,9.735-0.633,11.67-1.831c1.942-1.194,3.066-2.969,3.378-5.338c0.174-1.327-0.023-2.443-0.599-3.354
				c-0.582-0.904-1.522-1.539-2.842-1.909c-1.309-0.361-3.988-0.542-8.033-0.542L483.226,417.62z"/>
		</g>
		<g>
			<path fill="#F47932" d="M549.77,393.184c7.871,0,14.039,2.535,18.494,7.603c4.448,5.066,6.16,11.491,5.134,19.295
				c-0.783,5.977-3.043,11.602-6.766,16.888c-3.723,5.296-8.281,9.347-13.682,12.184c-5.405,2.828-11.365,4.248-17.884,4.248
				c-8.16,0-14.356-2.415-18.598-7.245c-4.23-4.836-5.827-11.197-4.784-19.101c1.182-8.963,5.095-16.668,11.77-23.11
				C530.895,396.775,539.672,393.184,549.77,393.184z M548.046,403.356c-4.109,0-7.983,0.992-11.636,2.979
				c-3.649,1.989-6.768,4.847-9.336,8.581c-2.566,3.725-4.116,7.573-4.642,11.55c-0.616,4.703,0.306,8.691,2.756,11.965
				c2.449,3.274,6.38,4.917,11.785,4.917c6.264,0,11.873-2.214,16.83-6.628c4.961-4.421,7.859-9.78,8.691-16.099
				c0.686-5.22-0.301-9.403-2.969-12.546C556.857,404.931,553.031,403.356,548.046,403.356z"/>
		</g>
		<g>
			<path fill="#F47932" d="M589.962,394.633h10.72l-9.451,35.385c-0.83,3.09-1.32,5.273-1.488,6.547
				c-0.287,2.156,0.168,3.839,1.344,5.05c1.182,1.208,3.043,1.808,5.59,1.808c2.059,0,3.907-0.447,5.562-1.36
				c1.232-0.678,2.299-1.797,3.191-3.37c0.899-1.58,1.978-4.697,3.245-9.377l9.309-34.682h10.847l-9.141,34.221
				c-1.893,7.036-3.815,12.092-5.775,15.158c-1.972,3.06-4.529,5.394-7.688,6.99c-3.164,1.603-6.857,2.398-11.094,2.398
				c-5.718,0-9.971-1.522-12.772-4.561c-2.795-3.042-3.844-7.198-3.151-12.471c0.299-2.283,1.061-5.666,2.276-10.133
				L589.962,394.633z"/>
		</g>
		<g>
			<path fill="#F47932" d="M641.52,394.633h10.836l-12.818,47.465h17.798l-2.548,9.86h-28.643L641.52,394.633z"/>
		</g>
		<g>
			<path fill="#F47932" d="M703.015,393.184c7.871,0,14.04,2.535,18.495,7.603c4.448,5.066,6.16,11.491,5.134,19.295
				c-0.783,5.977-3.043,11.602-6.765,16.888c-3.724,5.296-8.283,9.347-13.683,12.184c-5.405,2.828-11.365,4.248-17.884,4.248
				c-8.16,0-14.356-2.415-18.597-7.245c-4.231-4.836-5.828-11.197-4.785-19.101c1.182-8.963,5.094-16.668,11.77-23.11
				C684.14,396.775,692.918,393.184,703.015,393.184z M701.292,403.356c-4.11,0-7.983,0.992-11.636,2.979
				c-3.65,1.989-6.768,4.847-9.337,8.581c-2.565,3.725-4.115,7.573-4.641,11.55c-0.615,4.703,0.306,8.691,2.755,11.965
				c2.45,3.274,6.381,4.917,11.786,4.917c6.266,0,11.872-2.214,16.829-6.628c4.962-4.421,7.861-9.78,8.692-16.099
				c0.686-5.22-0.301-9.403-2.97-12.546C710.104,404.931,706.277,403.356,701.292,403.356z"/>
		</g>
		<g>
			<path fill="#F47932" d="M771.615,402.619l-8.743,6.939c-2.675-4.156-5.405-6.237-8.184-6.237c-1.378,0-2.569,0.404-3.591,1.228
				c-1.019,0.82-1.601,1.794-1.752,2.939c-0.145,1.067,0.115,2.248,0.784,3.546c0.656,1.301,2.794,4.173,6.427,8.615
				c1.918,2.363,3.17,4.04,3.739,5.025c1.39,2.288,2.316,4.426,2.802,6.408c0.472,1.989,0.582,4.013,0.311,6.063
				c-0.604,4.599-2.749,8.461-6.432,11.58c-3.682,3.117-8.092,4.674-13.21,4.674c-7.792,0-13.652-3.707-17.59-11.106l9.136-6.664
				c2.656,5.066,5.923,7.597,9.792,7.597c1.845,0,3.481-0.593,4.894-1.791c1.422-1.194,2.234-2.636,2.46-4.329
				c0.179-1.325-0.028-2.675-0.61-4.051c-0.588-1.379-2.433-3.977-5.54-7.792c-3.29-4.029-5.399-7.066-6.326-9.119
				c-1.24-2.782-1.69-5.508-1.339-8.188c0.469-3.532,2.041-6.703,4.721-9.509c3.372-3.511,7.533-5.264,12.467-5.264
				C762.607,393.184,767.875,396.331,771.615,402.619z"/>
		</g>
	</g>
</g>
</svg>
