<?xml version="1.0" encoding="utf-8"?>
<!-- Generator: Adobe Illustrator 16.0.4, SVG Export Plug-In . SVG Version: 6.00 Build 0)  -->
<!DOCTYPE svg PUBLIC "-//W3C//DTD SVG 1.1//EN" "http://www.w3.org/Graphics/SVG/1.1/DTD/svg11.dtd">
<svg version="1.1" id="Layer_1" xmlns="http://www.w3.org/2000/svg" xmlns:xlink="http://www.w3.org/1999/xlink" x="0px" y="0px" viewBox="0 0 681.725 668.662" enable-background="new 0 0 681.725 668.662"
	 xml:space="preserve">
<g>
	<path fill="#231F20" stroke="#FFFFFF" stroke-miterlimit="10" d="M196.362,617.134c27.979,25.017,5.595,43.124-1.976,43.78
		c-7.571,0.66-10.86,6.915-21.066,7.24c-6.017,0.198-12.151-4.305-16.168-8.03c-44.626,13.693-59.905-10.964-61.471-14.171
		c-1.924-3.936-3.756-8.754-4.984-14.333c-3.621-16.459,9.875-20.08,9.875-20.08c1.645-11.197,17.118-15.804,17.118-15.804
		c6.254-12.179,19.421-12.179,19.421-12.179c7.241-5.594,21.067-4.607,21.067-4.607l11.648-23.094
		c-27.977,4.302-30.848-14.348-30.848-14.348c2.871,0,10.759-5.022,10.759-5.022c-7.173-2.869-10.041-13.627-10.041-13.627
		c25.108,0.72,34.433-15.063,41.608-28.692c7.172-13.63,11.477-31.563,2.149-39.455c-9.324-7.893-25.106,10.042-25.106,10.042
		s5.739,8.607-7.174,29.413c-12.911,20.806-36.584,5.74-36.584,5.74s-40.89,11.474-55.956-20.09
		c-18.379-38.507,17.935-68.146,17.935-68.146c6.456-32.999,26.544-55.238,26.544-55.238l-52.369-58.107V123.291L1.246,75.947
		l679.214-0.414l-50.262,47.15v31.582c26.246-19.125,40.92-9.788,42.7,1.779c1.781,11.564-7.562,28.468-7.562,28.468
		c3.113,23.571-12.454,39.141-12.454,39.141c-2.668,31.581-22.685,42.695-22.685,42.695v32.47l-22.24,23.132l27.577-17.348
		c0,0,3.112-5.337,4.893-7.118c1.781-1.778,8.448-2.668,12.011,0.892c3.557,3.558,2.225,10.229,2.225,10.229
		s-44.48,105.863-45.374,107.645c-0.887,1.779-24.455,7.557-24.455,7.557l-20.465,48.93h-27.128l-45.37,66.717
		c-5.336-22.241-44.925-42.257-44.925-42.257L334.415,616.848l-58.714-64.049c0,0-15.308,7.139-31.116,3.167
		c0,0-29.464-1.87-20.867-27.833c0,0-6.474,0.566-7.039,6.194c-0.562,5.627,4.784,12.1,9.007,14.634c0,0-6.474-0.843-9.85-3.098
		c-3.38-2.248-3.661-2.248-6.193,1.125c-2.532,3.379,0.281,10.979,1.971,16.327c0,0,5.612,20.424-5.12,33.264
		c0,0-4.333-15.265-14.734-10.939C181.36,589.964,191.679,612.511,196.362,617.134z"/>
	<path fill="#C2CBD3" d="M374.39,211.833c0,0-4.104,17.364-25.26,17.364c-21.152,0-40.095-2.522-44.198-3.157
		c-4.107-0.631-11.371,1.581-3.476,3.474c7.895,1.895,33.47,5.048,56.519,2.524c0,0-0.951,16.735-18.314,18.63
		c-17.364,1.894-47.043-2.841-47.043-2.841s-2.212-0.947-3.16,0.631c-0.947,1.579,1.896,2.526,4.422,2.841
		s25.891,4.735,41.362,3.788c0,0-2.212,25.259-24.313,25.259c-22.102,0-47.674-5.367-58.726-7.261
		c-11.05-1.895-31.26-3.476-42.624,6.628c-11.366,10.105-5.369,26.523,1.895,30.942l-21.154,6.316c0,0-20.837-11.683-9.154-35.048
		c11.68-23.364,55.567-43.886,80.825-54.623C287.25,216.567,330.819,209.307,374.39,211.833z"/>
	<path fill="#C2CBD3" d="M115.041,437.829c0,0,12.943-9.057,15.854-23.292c2.913-14.234,9.706-40.12,34.94-53.059
		c25.234-12.945,52.414-8.092,56.294,20.056c0,0-14.558-10.349-24.911-5.499c0,0,14.232,3.236,16.823,14.561
		c0,0-8.736-6.471-21.676,0.972c0,0,28.147,10.999,29.439,31.705c0,0-10.999-10.027-26.203-9.382c0,0,16.499,15.527,16.175,41.735
		c0,0-15.853-20.061-30.088-19.735c-14.234,0.32-29.44,19.088-29.44,19.088s-5.178-2.264-1.941-32.352
		C150.305,422.626,136.394,441.715,115.041,437.829z"/>
	<path fill="#0080C7" d="M131.862,400.302c0,0,9.06-43.357,60.178-50.152c51.119-6.793,95.119,40.12,77.325,100.947
		c0,0-8.412-27.825-15.207-31.707c0,0,4.854,33.645-2.913,53.06c0,0-6.471-20.386-11.645-22.972c0,0,4.851,39.466-20.707,62.763
		c0,0-1.293-22.646-2.913-23.618c0,0-11.969,20.707-27.176,28.797c0,0-11.972,18.762-28.147,28.79c0,0,21.028,2.27,50.146-31.706
		l0.971,10.999c0,0,7.766-5.174,13.59-2.263c0,0,5.5-4.203,11.645-4.203c0,0-1.616-15.532,11.002-17.472
		c0,0,3.557-15.532,19.086-11.324c0,0,3.562-2.909,12.296-0.972c0,0,11.647-19.089,14.56-29.117l-8.412,2.591
		c0,0,26.528-21.673,28.793-55.648c2.263-33.971-14.881-69.237-64.059-83.796c0,0-42.381-14.558-99.971,16.502
		c-57.589,31.06-57.913,71.827-57.913,71.827s6.472-4.854,10.354-15.854c3.882-10.999,11.969-31.06,33.324-32.03
		c0,0-15.529,4.526-22.325,22.969C113.745,386.712,126.687,385.742,131.862,400.302z"/>
	<path fill="#0080C7" d="M167.288,287.205c0,0-3.856,20.162,16.306,32.02c0,0-23.125,6.524-45.361,19.57
		c0,0-16.898-10.97-7.413-28.167C140.307,293.433,167.288,287.205,167.288,287.205z"/>
	<path fill="#ED145B" d="M107.696,397.792c0,0,2.964-5.629,5.633-5.93c2.668-0.295,16.306,6.526,7.41,31.431
		C120.739,423.292,125.187,403.43,107.696,397.792z"/>
	<g>
		<g>
			<path fill="#FACA49" d="M141.198,438.706c-8.597,4.746-21.346,9.786-37.061,3.261c-15.712-6.521-12.452-23.419-12.452-23.419
				s-25.794,14.822-24.014,42.099c1.991,30.513,34.984,25.496,34.984,25.496c-2.967-8.894-6.225-17.194,7.114-27.272
				c13.343-10.082,31.724-13.046,31.724-13.046L141.198,438.706z M85.46,446.416c-0.594,3.261-7.414,4.153-7.414-0.296
				s10.674-7.71,10.674-6.225C88.72,439.895,86.052,443.156,85.46,446.416z"/>
		</g>
	</g>
	<path fill="#ED145B" d="M127.854,456.202c0,0,0.297,8.598-4.15,13.041c-4.447,4.449-7.116,8.006-7.116,8.006
		S115.699,455.907,127.854,456.202z"/>
	<path fill="#FACA49" d="M132.896,455.308l9.188-1.779c0,0,8.301,11.271,2.967,26.388c-5.336,15.118-14.23,18.379-24.014,10.97
		C121.038,490.886,132.303,484.662,132.896,455.308z"/>
	<path fill="#FFFFFF" d="M105.323,405.797c0,0,0.89-9.188,4.446-8.894c2.716,0.227,13.026,5.46,12.493,17.672
		c-0.092,2.024-0.292,7.039-2.68,11.113c-2.101,3.587-6.289,6.334-8.077,7.108c-3.048,1.312-6.779,1.692-10.333-1.204
		c0,0-3.263-2.076-3.263-11.863c0,0,9.49,13.936,18.975,3.562C126.373,412.914,112.737,403.129,105.323,405.797z"/>
	<path fill="#FFFFFF" d="M102.655,417.363c0,0,6.818-0.597,6.818,2.367C109.474,422.696,104.137,424.476,102.655,417.363z"/>
	<path fill="#FACA49" d="M178.509,634.535l-0.947,7.884c8.516,0,6.937,11.665,6.937,11.665s9.461,0,11.037-8.197
		c1.578-8.199-6.306-11.036-6.306-11.036v-9.144c0-9.145-7.884-24.283-7.884-24.283c-1.576-11.35,1.892-26.482,9.459-27.429
		s12.298,6.936,12.298,6.936c3.152-8.199,0-14.187-2.838-19.864c-2.838-5.677-2.207-10.092-0.315-12.611
		c1.892-2.526,2.207-13.56,2.207-13.56l-14.818,8.513c0,0-1.892,5.678-6.623,19.232c-4.73,13.559-17.974,28.696-20.181,32.796
		c-2.207,4.099-5.043,2.52-5.043,2.52s-3.154-2.835-7.252-2.835c-4.097,0-6.306,4.414-6.306,4.414
		c-5.676-2.841-14.189-2.21-14.189,3.783c0,5.992,3.783,10.719,3.783,10.719c-1.576,1.577-5.359-0.626-8.197-1.574
		c-2.838-0.947-8.198-0.632-10.09,3.151s-1.262,14.822-1.262,14.822l-5.991-6.94c0,0-6.935,2.526-6.621,7.884
		c0.315,5.361,3.154,8.197,3.154,8.197c10.089-7.882,14.82,0.315,14.82,0.315c3.152-2.521,2.207-3.468,2.207-3.468
		c-3.783-6.304-1.892-11.98,3.152-13.87c5.045-1.894,9.775,1.89,9.775,1.89c-0.631-14.19,12.298-13.244,14.82-8.83
		c2.523,4.415,4.415,1.265,4.415,1.265s1.576-2.211,5.675-5.048c4.099-2.841,10.09,2.206,10.09,2.206
		S178.094,619.665,178.509,634.535z"/>
	<path fill="#FACA49" d="M306.845,532.369c0.155,2.901-3.152,1.259-5.99,5.047c-2.838,3.783-0.314,5.355,4.414,4.414
		c4.729-0.946,6.306,1.889,6.306,1.889c2.207,4.101-0.943,9.776-0.943,9.776s6.937,0.315,8.825-5.676
		c1.894-5.989-1.259-9.777-2.519-13.245c-1.264-3.467-0.631-11.98-0.631-11.98c-0.938-15.325-21.95-34.079-6.938-52.659
		c5.334-6.605,14.191,3.156,14.191,3.156c0.629-7.255-4.102-13.875-4.102-13.875l-8.825-13.875l-9.776,9.776
		c-1.892,10.402-19.235,39.416-19.235,39.416c-9.773-5.363-14.82,1.257-14.82,1.257c-17.025-3.468-13.872,12.929-13.872,12.929
		C240.312,498.316,240,523.541,240,523.541c-6.309-1.896-11.037,2.203-11.037,2.203c-8.198,8.83,0,17.027,0,17.027
		c-2.837-17.343,13.556-12.296,13.556-12.296c0.948-13.244,11.984-10.087,11.984-10.087c0.315-12.296,9.773-9.461,15.136-6.31
		c5.359,3.152,7.566-2.519,8.198-4.729c0.629-2.205,4.729-5.362,7.566-5.362C288.245,503.987,305.562,508.244,306.845,532.369z"/>
	<path fill="#0080C7" d="M596.405,405.609l24.845-64.869c0,0-60.27,38.761-143.535,35.428c-30.67-1.229-78.208-18.868-97.528-28.527
		c0,0,14.723,31.284,47.385,47.383C427.571,395.024,487.022,429.064,596.405,405.609z"/>
	<path fill="#0080C7" d="M424.352,434.129c0,0,45.541,25.303,129.733,20.701l12.879-33.121c0,0-134.025,11.359-178.038-50.144
		c-12.587-17.593-25.303-34.967-76.367-51.069c0,0-26.682-10.121-55.204-5.061c0,0,47.844,17.022,61.645,52.45
		c12.045,30.916,5.52,47.38,5.52,47.38s-1.839,9.205,2.761,16.563c4.603,7.359,7.361,14.261,5.98,15.642
		c-1.377,1.381-13.34-5.061-13.34-5.061s3.679,15.183,7.36,15.183c3.679,0,17.022-2.763,29.904-1.841
		c0,0,92.169,8.455,138.011,56.128l28.062-46.006c0,0-61.183-3.222-106.729-24.84L424.352,434.129z"/>
	<path fill="#0080C7" d="M482.317,307.611c41.585-4.548,75.446-9.202,118.69-33.583c40.15-22.638,40.485-44.625,40.485-44.625
		c-50.148,43.704-97.987,49.685-126.971,54.287c-28.985,4.599-29.907-1.842-29.907-1.842c35.427-4.142,72.691-7.361,123.293-34.042
		c50.608-26.682,46.927-59.347,46.927-59.347c-44.624,51.066-122.373,63.025-152.28,65.787c-29.899,2.762-27.597-5.523-27.597-5.523
		s64.861-1.378,119.148-25.762c59.146-26.566,64.41-54.746,64.867-62.567c0.459-7.819-8.281-0.918-8.281-0.918
		c-25.762,12.881-55.664,27.604-123.75,43.704c-68.088,16.103-145.38,8.282-145.38,8.282c-3.222,14.258-19.325,20.702-19.325,20.702
		c-7.36,23.921-23.922,23.463-23.922,23.463c-4.138,28.063-25.762,29.442-38.642,28.98c-12.881-0.461-40.025-5.98-48.307-6.439
		c-8.278-0.461-34.962-5.061-40.942,9.661c-5.98,14.723,8.281,21.622,8.281,21.622c93.848-17.943,134.336,13.342,134.336,13.342
		c-5.52-23.003,13.343-23.46,28.066-19.322C395.826,307.611,443.672,311.838,482.317,307.611z"/>
	<path fill="#FFFFFF" d="M154.838,635.853c0,0-7.169-4.779-8.706-12.805s-5.463-8.194-8.706-6.319
		c-3.245,1.879-0.342,7.853,2.902,12.637C143.572,634.147,150.059,636.194,154.838,635.853z"/>
	<path fill="#FFFFFF" d="M142.889,645.244c0,0-8.366-5.465-10.242-11.784c-1.88-6.312-4.953-9.559-8.708-8.02
		c-3.757,1.533-3.243,7.853,1.878,13.486C130.937,644.558,135.377,645.244,142.889,645.244z"/>
	<path fill="#FFFFFF" d="M131.963,653.437c0,0-9.218,0-13.313-6.831c-4.1-6.827-7.168-9.076-11.099-5.802
		c-4.096,3.413,1.023,11.434,8.536,13.485C123.599,656.336,129.23,654.97,131.963,653.437z"/>
	<path fill="#FFFFFF" d="M178.054,646.097c0,0-4.949,4.948-18.265,3.754c0,0,2.05,6.659,11.953,7.852
		C181.641,658.897,182.325,650.191,178.054,646.097z"/>
	<path fill="#FFFFFF" d="M285.354,547.55c0,0,1.974,7.32,12.667,6.479c10.695-0.845,10.695-5.067,10.134-7.602
		c-0.565-2.531-3.942-1.125-8.165-0.282C295.77,546.989,290.138,547.838,285.354,547.55z"/>
	<path fill="#FFFFFF" d="M278.037,534.609c0,0-6.474-5.914-8.161-12.668c-1.69-6.757-5.349-8.443-9.007-7.6
		c-3.659,0.843-4.503,4.504,0,10.411C265.372,530.667,270.438,533.484,278.037,534.609z"/>
	<path fill="#FFFFFF" d="M265.372,543.616c0,0-6.476-6.476-7.882-12.668c-1.406-6.195-5.065-7.882-9.007-6.195
		c-3.941,1.692-3.376,7.04,0.844,11.263C253.549,540.236,258.055,543.334,265.372,543.616z"/>
	<path fill="#FFFFFF" d="M253.271,549.806c0,0-8.164-3.379-10.981-11.257c-2.813-7.882-6.19-8.163-9.85-5.07
		c-3.657,3.098,1.69,10.417,5.35,13.51C241.447,550.086,247.078,551.216,253.271,549.806z"/>
	<g>
		<polygon fill="#231F20" stroke="#231F20" stroke-width="0.2735" points="159.112,100.617 61.873,100.617 82.257,123.208 
			82.257,286.99 111.721,318.423 113.439,318.423 113.439,213.326 136.521,213.326 148.308,230.025 148.308,190.983 
			113.439,190.983 113.439,120.017 133.083,120.017 159.357,146.537 		"/>
		<g>
			<g>
				<path fill="#231F20" d="M198.648,100.617l-34.873,0.003l10.313,13.996l-24.554,151.751c0,0,16.206-12.524,31.185-18.663
					l3.192-27.992l21.853-12.279l6.385,16.698c0,0,17.438-9.823,27.014-12.032L198.648,100.617z M186.369,192.455l4.665-28.978
					l8.35,24.065L186.369,192.455z"/>
			</g>
			<g>
				<path fill="none" stroke="#231F20" stroke-width="0.2735" d="M198.648,100.617l-34.873,0.003l10.313,13.996l-24.554,151.751
					c0,0,16.206-12.524,31.185-18.663l3.192-27.992l21.853-12.279l6.385,16.698c0,0,17.438-9.823,27.014-12.032L198.648,100.617z
					 M186.369,192.455l4.665-28.978l8.35,24.065L186.369,192.455z"/>
			</g>
		</g>
		<path fill="#231F20" stroke="#231F20" stroke-width="0.2735" d="M217.8,100.617l13.996,15.715v67.772l11.787,25.292
			c0,0,25.291-8.595,48.373-14.734v-49.11h-1.966l-24.063,32.415l-9.086,1.963v-79.556L217.8,100.617z"/>
		<path fill="#231F20" stroke="#231F20" stroke-width="0.2735" d="M303.992,100.617l13.505,15.962l-22.101,35.604v22.345
			l10.313,16.205c0,0,22.592-4.419,55.249-4.664l10.067-36.585l-19.646,14.977c0,0-20.379-0.491-36.093,1.472l24.554-39.777
			l8.102,15.469l21.121-8.594l-14.246-32.658L303.992,100.617z"/>
		<g>
			<g>
				<path fill="#231F20" d="M439.045,113.141l-28.484-13.015l-34.868,41.006l-8.592,30.695l9.079,14.977
					c0,0,17.189,2.21,43.713,12.033l20.134-13.015L439.045,113.141z M389.444,167.162l25.294-35.116l0.981,44.446
					C409.825,174.038,389.444,167.162,389.444,167.162z"/>
			</g>
			<g>
				<path fill="none" stroke="#231F20" stroke-width="0.2735" d="M439.045,113.141l-28.484-13.015l-34.868,41.006l-8.592,30.695
					l9.079,14.977c0,0,17.189,2.21,43.713,12.033l20.134-13.015L439.045,113.141z M389.444,167.162l25.294-35.116l0.981,44.446
					C409.825,174.038,389.444,167.162,389.444,167.162z"/>
			</g>
		</g>
		<polygon fill="#231F20" stroke="#231F20" stroke-width="0.2735" points="433.64,101.157 447.331,116.754 446.951,214.147 
			470.539,225.941 471.684,173.06 489.943,237.735 517.712,256.375 517.712,101.157 477.39,101.157 489.563,115.614 
			489.563,142.625 473.202,100.777 		"/>
		<path fill="#231F20" stroke="#231F20" stroke-width="0.2735" d="M614.725,100.777l-21.304,20.545v27.772
			c0,0-10.648-5.328-24.346-8.75v-16.358l-3.409-3.608l-11.142,0.171l-3.088,3.945v49.375l41.831,18.86v97.977l-29.825,23.715
			c0,0-22.413-39.307-41.582-50.354v-45.482l27.287,12.995v27.94l18.843,18.192v-67.575l-42.553-22.091v-72.119
			c0,0,4.548-14.946,13.643-14.946C548.176,100.982,614.725,100.777,614.725,100.777z"/>
	</g>
	<g>
		<polygon fill="#FFFFFF" points="159.112,100.617 61.873,100.617 82.257,123.208 82.257,286.99 111.721,318.423 113.439,318.423 
			113.439,213.326 136.521,213.326 148.308,230.025 148.308,190.983 113.439,190.983 113.439,120.017 133.083,120.017 
			159.357,146.537 		"/>
		<g>
			<g>
				<path fill="#FFFFFF" d="M198.648,100.617l-34.873,0.003l10.313,13.996l-24.554,151.751c0,0,16.206-12.524,31.185-18.663
					l3.192-27.992l21.853-12.279l6.385,16.698c0,0,17.438-9.823,27.014-12.032L198.648,100.617z M186.369,192.455l4.665-28.978
					l8.35,24.065L186.369,192.455z"/>
			</g>
		</g>
		<path fill="#FFFFFF" d="M217.8,100.617l13.996,15.715v67.772l11.787,25.292c0,0,25.291-8.595,48.373-14.734v-49.11h-1.966
			l-24.063,32.415l-9.086,1.963v-79.556L217.8,100.617z"/>
		<path fill="#FFFFFF" d="M303.992,100.617l13.505,15.962l-22.101,35.604v22.345l10.313,16.205c0,0,22.592-4.419,55.249-4.664
			l10.067-36.585l-19.646,14.977c0,0-20.379-0.491-36.093,1.472l24.554-39.777l8.102,15.469l21.121-8.594l-14.246-32.658
			L303.992,100.617z"/>
		<g>
			<g>
				<path fill="#FFFFFF" d="M439.045,113.141l-28.484-13.015l-34.868,41.006l-8.592,30.695l9.079,14.977
					c0,0,17.189,2.21,43.713,12.033l20.134-13.015L439.045,113.141z M389.444,167.162l25.294-35.116l0.981,44.446
					C409.825,174.038,389.444,167.162,389.444,167.162z"/>
			</g>
		</g>
		<polygon fill="#FFFFFF" points="433.64,101.157 447.331,116.754 446.951,214.147 470.539,225.941 471.684,173.06 489.943,237.735 
			517.712,256.375 517.712,101.157 477.39,101.157 489.563,115.614 489.563,142.625 473.202,100.777 		"/>
		<path fill="#FFFFFF" d="M614.725,100.777l-21.304,20.545v27.772c0,0-10.648-5.328-24.346-8.75v-16.358l-3.409-3.608l-11.142,0.171
			l-3.088,3.945v49.375l41.831,18.86v97.977l-29.825,23.715c0,0-22.413-39.307-41.582-50.354v-45.482l27.287,12.995v27.94
			l18.843,18.192v-67.575l-42.553-22.091v-72.119c0,0,4.548-14.946,13.643-14.946C548.176,100.982,614.725,100.777,614.725,100.777z
			"/>
	</g>
	<polygon fill="#231F20" stroke="#FFFFFF" stroke-miterlimit="10" points="585.001,81.644 96.704,81.644 28.517,0.5 653.188,0.5 	
		"/>
	<g>
		<g>
			<path fill="#FFFFFF" d="M181.401,29.89h-33.288v12.755h26.308v10.627h-26.308v22.258h-17.299V18.639h50.587V29.89z"/>
			<path fill="#FFFFFF" d="M216.649,76.406c-9.579,0-16.988-2.876-22.228-8.626c-5.24-5.754-7.86-12.714-7.86-20.882
				c0-8.309,2.655-15.242,7.964-20.798c5.31-5.559,12.876-8.336,22.697-8.336c9.924,0,17.411,2.964,22.461,8.899
				c5.049,5.931,7.575,12.718,7.575,20.358c0,8.254-2.604,15.214-7.808,20.882C234.243,73.572,226.642,76.406,216.649,76.406z
				 M217.115,28.642c-8.732,0-13.101,6.142-13.101,18.421c0,12.311,4.368,18.465,13.101,18.465c8.46,0,12.689-6.142,12.689-18.423
				C229.804,34.796,225.575,28.642,217.115,28.642z"/>
			<path fill="#FFFFFF" d="M307.274,31.144l-14.171,3.791c-1.906-4.501-5.944-6.75-12.113-6.75c-6.582,0-9.874,1.706-9.874,5.125
				c0,1.361,0.616,2.516,1.847,3.46c1.23,0.945,4.016,1.766,8.351,2.461c7.247,1.171,12.555,2.353,15.918,3.549
				c3.365,1.193,6.2,3.117,8.506,5.771c2.308,2.652,3.463,5.618,3.463,8.896c0,5.14-2.473,9.584-7.418,13.335
				c-4.946,3.751-12.277,5.626-21.992,5.626c-7.289,0-13.49-1.327-18.61-3.98c-5.12-2.654-8.495-6.592-10.124-11.816l15.42-2.792
				c1.735,5.308,6.554,7.958,14.455,7.958c3.813,0,6.654-0.589,8.528-1.771c1.87-1.181,2.807-2.589,2.807-4.229
				c0-1.667-0.851-2.959-2.549-3.877c-1.7-0.917-4.978-1.777-9.831-2.584c-9.053-1.501-15.506-3.551-19.355-6.15
				c-3.853-2.597-5.775-6.397-5.775-11.396c0-5.059,2.298-9.323,6.896-12.795c4.598-3.473,10.834-5.209,18.711-5.209
				C294.314,17.764,303.283,22.223,307.274,31.144z"/>
			<path fill="#FFFFFF" d="M365.156,18.639V29.89h-17.609v45.641h-16.88V29.89h-17.713V18.639H365.156z"/>
			<path fill="#FFFFFF" d="M423.088,29.476h-33.861v11.671h26.62v10.711h-26.62v12.42h33.861v11.253h-50.795V18.639h50.795V29.476z"
				/>
			<path fill="#FFFFFF" d="M449.867,52.981v22.549h-16.776V18.639h31.263c5.766,0,10.393,0.533,13.886,1.604
				c3.485,1.068,6.381,3.033,8.67,5.895c2.294,2.858,3.439,6.04,3.439,9.537c0,6.831-4.114,11.731-12.348,14.703l13.13,25.154
				h-18.406l-10.922-22.549H449.867z M449.867,28.765V43.27h10.214c3.336,0,5.758-0.188,7.266-0.562
				c1.511-0.375,2.856-1.208,4.04-2.501c1.179-1.292,1.771-2.772,1.771-4.439c0-1.583-0.592-3-1.771-4.249
				c-1.184-1.25-2.465-2.023-3.856-2.314c-1.391-0.293-3.996-0.439-7.813-0.439H449.867z"/>
			<path fill="#FFFFFF" d="M552.349,31.144l-14.171,3.791c-1.908-4.501-5.944-6.75-12.114-6.75c-6.58,0-9.874,1.706-9.874,5.125
				c0,1.361,0.616,2.516,1.849,3.46c1.229,0.945,4.016,1.766,8.351,2.461c7.246,1.171,12.554,2.353,15.917,3.549
				c3.364,1.193,6.2,3.117,8.508,5.771c2.31,2.652,3.463,5.618,3.463,8.896c0,5.14-2.475,9.584-7.417,13.335
				c-4.948,3.751-12.278,5.626-21.994,5.626c-7.285,0-13.49-1.327-18.611-3.98c-5.12-2.654-8.493-6.592-10.12-11.816l15.418-2.792
				c1.736,5.308,6.556,7.958,14.457,7.958c3.812,0,6.654-0.589,8.529-1.771c1.868-1.181,2.806-2.589,2.806-4.229
				c0-1.667-0.853-2.959-2.55-3.877c-1.701-0.917-4.978-1.777-9.831-2.584c-9.055-1.501-15.508-3.551-19.354-6.15
				c-3.852-2.597-5.776-6.397-5.776-11.396c0-5.059,2.299-9.323,6.896-12.795c4.598-3.473,10.833-5.209,18.71-5.209
				C539.387,17.764,548.359,22.223,552.349,31.144z"/>
		</g>
	</g>
	<rect x="88.3" y="76.541" fill="#231F20" width="509" height="9"/>
</g>
</svg>
