<?xml version="1.0" encoding="utf-8"?>
<!-- Generator: Adobe Illustrator 16.0.4, SVG Export Plug-In . SVG Version: 6.00 Build 0)  -->
<!DOCTYPE svg PUBLIC "-//W3C//DTD SVG 1.1//EN" "http://www.w3.org/Graphics/SVG/1.1/DTD/svg11.dtd">
<svg version="1.1" id="Layer_1" xmlns="http://www.w3.org/2000/svg" xmlns:xlink="http://www.w3.org/1999/xlink" x="0px" y="0px" viewBox="0 0 643.504 668.794" enable-background="new 0 0 643.504 668.794"
	 xml:space="preserve">
<g>
	<path stroke="#FFFFFF" stroke-miterlimit="10" d="M588.882,374.106c0,162.48-131.708,294.188-294.189,294.188
		C132.216,668.294,0.5,536.587,0.5,374.106c0-162.479,131.716-294.193,294.193-294.193
		C457.174,79.913,588.882,211.627,588.882,374.106L588.882,374.106z"/>
	<path fill="#FFFFFF" d="M515.812,376.609c0,123.483-100.099,223.582-223.581,223.582c-123.479,0-223.576-100.099-223.576-223.582
		c0-123.475,100.097-223.575,223.576-223.575C415.713,153.034,515.812,253.135,515.812,376.609L515.812,376.609z"/>
	<path fill="#BD342E" d="M502.409,375.295c0,116.072-94.101,210.177-210.178,210.177c-116.074,0-210.174-94.104-210.174-210.177
		c0-116.079,94.1-210.176,210.174-210.176C408.309,165.119,502.409,259.216,502.409,375.295L502.409,375.295z"/>
	<path stroke="#FFFFFF" stroke-miterlimit="10" d="M593.147,129.397c0,0-2.577-44.682-5.438-58.428
		c-2.869-13.749-16.048-50.987-23.772-59.291c-7.731-8.305-39.527-20.335-65.018,0c-25.497,20.335-61.005,68.741-68.169,77.045
		c0,0-4.677,15.711-28.352,9.708c-23.666-6.006-35.508-10.556-35.508-10.556l-86.484,65.158l-60.996,44.086l35.504-3.184
		l-79.406,77.381c0,0,4.76,0.945,7.979,0c3.215-0.948,10.072-2.707,9.215,0.419c-0.859,3.138-15.003,6.992-21.43,8.92
		c-6.428,1.929-25.284,6.858-34.499,19.924c-9.217,13.077-13.289,23.578-11.359,30.437c1.927,6.854,13.072,27.429,13.072,27.429
		l-18.857,10.93l8.354,5.92l-34.665,21.431l20.146,3.417L84.003,421.65h28.777L10.02,556.16l158.409-80.915
		c0,0,4.777-0.34-1.022,6.488c-5.805,6.832-17.755,23.899-17.755,23.899l108.906-34.146c0,0,8.193-2.727,4.095,2.051
		c-4.095,4.777-53.258,86.372-53.258,86.372l116.079-76.813c0,0,6.828-5.121,5.118,2.051c-1.711,7.169-3.758,36.867-3.758,36.867
		l40.289-35.84l0.68,22.527l11.266-8.875l-24.923,60.083l68.283-40.286c0,0,2.734,14.001,5.116,14.688
		c2.391,0.679,90.814,30.379,111.642,82.614l11.603-40.97l0.688-63.497l-1.022-58.043l18.772-40.623l58.376,5.806l-34.821-34.485
		l34.485-0.339l-40.626-33.457c0,0-5.46-5.118,1.024-8.192c6.484-3.07,17.75-10.242,17.75-10.242l-8.531-7.168l21.06-6.145
		l-40.521-18.094c0,0-6.148-4.441-0.344-12.977c5.806-8.535,35.3-47.454,40.865-53.938c5.565-6.492,24.347-25.267,25.026-44.724
		c0.681-19.46-8.875-34.141-22.531-39.262S593.147,129.397,593.147,129.397L593.147,129.397z"/>
	<rect x="0.5" y="0.499" fill="none" width="642.5" height="667.795"/>
	<path fill="#908E8D" d="M320.276,238.896l-16.317,35.348l5.438,5.442l-22.432,11.55l-28.551-8.155l17.673-2.379l-6.119-9.861
		l19.375-6.79c0,0-13.257-4.083-15.976-6.462C273.368,257.588,302.262,260.643,320.276,238.896L320.276,238.896z"/>
	<path fill="#FFFFFF" d="M540.278,151.153l10.257,18.029c0,0-21.762,14.924-29.225,18.341c-7.448,3.418-14.292,5.906-14.292,5.906
		s11.498-22.073,17.721-39.79c6.216-17.72,10.563-38.548,10.563-38.548l8.396,17.406l1.24-39.169l9.332-17.406l4.348,7.773v31.396
		l10.257-21.763c0.313,2.798,4.669,60.311,4.976,65.283c0.313,4.976-9.323,2.178-9.323,2.178L540.278,151.153L540.278,151.153z
		 M474.32,520.312c-17.752-8.194-28.218-19.576-28.218-19.576l1.54-34.257l-31.736,28.239l10.481-51.824l-20.672-1.744L394.36,452.5
		l-10.772-11.351l-16.01,2.617l-12.513,16.38l-9.606-26.565l-46.875,33.188l10.188-46.292l-84.426,36.102l60.844-64.919
		l-49.198,29.109l23.29-26.2L97.408,486.566l80.351-70.455l-33.771,6.406l21.252-20.089l-18.051,0.877l16.889-15.435l-7.864-5.239
		l13.393-7.273l-5.241-6.118l8.153-8.155c0,0-15.431-12.523-20.089-22.419c-4.657-9.898-3.201-28.53,18.631-35.81
		c21.837-7.273,62.885-20.085,62.885-20.085h-26.2l44.832-25.909l-12.229-1.752l34.937-34.35l-18.632,5.823
		c0,0,21.422-19.223,32.689-29.991c11.272-10.772,28.154-34.062,28.154-34.062h-9.182c0,0,11.51-11.354,19.661-16.888
		c8.15-5.532,29.696-16.595,34.357-17.754l-3.205-6.409c0,0,18.924,0.291,21.837,0c2.906-0.292,9.892-6.112,15.137-4.367
		c5.243,1.748,18.631,6.406,18.631,6.406l-62.88,19.797c0,0-0.874,6.111,1.456,9.898c2.331,3.784,5.819,5.532,5.819,5.532
		l25.909-11.355c0,0,0.29,7.568,6.692,9.316c6.411,1.744,9.615-4.658,4.662-7.862c-4.944-3.202-25.616-2.619-25.616-2.619
		s13.096-3.201,20.672-4.657c7.566-1.458,20.662-7.86,24.741-9.608c4.08-1.748,9.316-2.91,9.316-2.91s-6.402,10.19-12.229,16.014
		c-5.82,5.82-15.135,15.427-15.135,15.427l-0.583,3.789l-29.113,27.364c0,0,0-5.827,1.748-10.481
		c1.749-4.658,1.166-9.897,1.166-9.897l-7.277-1.749l-27.664,18.341l-7.858,26.494l26.782-4.658l-25.908,35.231l-10.477,36.682
		l25.037-5.241l-40.178,86.175l43.375-35.807l-1.45,33.476c0,0,46.871-62.302,66.661-71.034c0,0-43.084,58.227-50.068,96.658
		l33.769-25.328l-4.654,52.406c0,0,42.792-71.33,48.618-74.822c0,0-9.323,52.111-5.826,79.768l33.483-52.403
		c0,0-17.176,40.465-5.529,67.834l29.988-26.207c0,0-0.875,36.4-4.37,61.729c-3.489,25.33-3.489,25.33-3.489,25.33
		s22.994-30.145,32.169-46.949c0,0-7.673,77.224,2.734,101.873C519.227,549.062,492.07,528.507,474.32,520.312L474.32,520.312z
		 M476.956,63.521l35.598-38.234c-1.366,5.116,2.391,13.312,2.391,13.312s16.384,15.703,18.087,17.07
		c1.695,1.367,5.812,13.312,5.812,13.312l-22.329-1.367l-21.367,17.758l2.728-15.024l-11.946,15.024l-1.023-7.851l-21.172,19.116
		l0.68-6.828l-19.11,15.704L476.956,63.521L476.956,63.521z M521.773,21.529c7.508-3.07,10.242,0,10.242,0l17.526,32.09
		c0,0-6.261-3.41-9.106-5.801c-2.84-2.391-12.178-5.121-18.662-10.926C515.288,31.088,514.266,24.603,521.773,21.529L521.773,21.529
		z M555.914,34.502c2.047,5.464,0,13.316,0,13.316l-13.656-26.289C548.398,23.236,553.867,29.037,555.914,34.502L555.914,34.502z
		 M611.533,224.478c12.2-13.045,26.089-32.819,18.094-47.962c-7.994-15.146-25.243-18.936-25.243-18.936l-14.725-14.724
		l2.944,14.303h-10.229c0,0-2.816-71.939-6.604-86.246c-3.787-14.302-11.782-34.921-14.306-41.652
		c-2.519-6.73-20.612-23.98-45.438-12.621c-24.817,11.359-62.687,64.797-71.098,74.471c-8.421,9.675-14.307,18.513-29.458,20.193
		c-15.143,1.686-35.336-7.152-35.336-7.152v9.259l-34.5,3.378l4.206,7.138l-27.767,4.629l10.936,3.787l-60.582,43.755l20.616-0.421
		l-18.093,15.986l8.415,2.947c0,0-17.521,8.83-24.955,15.143c-7.438,6.311-34.781,31.553-34.781,31.553l23.14-6.734
		c0,0-39.13,44.177-49.225,49.228c-10.099,5.051-37.869,12.621-46.701,20.193c-8.836,7.576-13.464,19.353-12.201,24.825
		c1.262,5.468,12.983,24.369,19.351,32.396l-12.62,7.99l8.836,5.894l-22.3,13.462l17.252,2.525l-27.77,20.612l21.878,0.836
		l-21.878,20.201L65.441,511.41l149.775-70.265l-31.132,40.395l97.606-29.876l-33.656,71.103l93.397-59.326l1.688,27.77l36.6-34.496
		l1.688,21.456l24.398-21.456l-23.98,69l47.118-22.297l6.312,15.14c0,0,66.467,22.722,98.441,65.212c0,0-2.099-83.721,0-108.546
		c2.106-24.821,16.831-66.893,22.3-68.158c5.47-1.26,35.763-4.202,35.763-4.202l-29.495-31.134h29.495L562.264,344.8l18.558-11.871
		l-14.307-10.425l14.726-5.473l-22.719-9.253c0,0,0.748-8.681,3.742-16.543C565.253,283.376,599.333,237.521,611.533,224.478
		L611.533,224.478z"/>
	<path fill="#8F8F93" d="M532.874,98.432c0,0-16.846,32.557-24.122,44.047c-7.284,11.49-26.432,67.797-28.344,91.546
		c0,0,45.578-25.665,57.831-30.645c12.258-4.979,27.193-12.259,21.836-0.381c-5.364,11.871-25.661,32.558-51.323,53.624
		c0,0,18.767-0.385,26.812-4.213c8.037-3.832,17.996-8.812,17.996-7.28c0,1.535-5.744,16.469-36.77,54.383
		c-31.025,37.925-39.835,48.264-39.835,48.264l45.579-31.792l-11.108,39.839l20.687-27.579c0,0-2.303,22.219-4.976,32.942
		c-2.683,10.724,3.062,52.859,4.594,61.282l10.721-26.809l16.854-1.536l-17.997-39.448l17.616,4.595l-14.554-15.707
		c0,0-3.832-1.913,1.532-4.214c5.355-2.297,15.292-6.126,15.292-6.126l-15.292-11.493l9.576-6.507l-8.045-6.134
		c0,0-3.063-12.641,8.427-33.704c11.489-21.067,45.197-55.536,54.775-68.942c9.569-13.406,8.808-23.365,3.062-31.792
		c-5.745-8.423-21.837-8.812-48.268,0.385c-26.424,9.193-55.425,22.435-69.71,36.771c0,0-4.594,2.683,1.539-16.854
		C503.389,175.418,532.874,114.136,532.874,98.432L532.874,98.432z"/>
	<path fill="#FFFFFF" d="M309.811,304.846h-12.176l9.553-10.114c0,0-25.286,4.303-28.283,2.436
		c-2.996-1.875-14.047-4.311-18.916-4.685c-4.871-0.373-13.861,7.867-13.861,7.867s0.936-5.058,0-5.058
		c-0.936,0-8.43,2.436-16.669,9.554c-8.242,7.116-25.661,23.597-25.661,23.597l5.434-11.235c0,0-11.987-0.37-22.289,3.933
		c-10.301,4.307-14.798,11.05-8.616,19.107c6.182,8.049,17.607,12.359,17.607,12.359s15.735,0.564,25.473,2.622
		c9.738,2.059,41.391,9.737,41.391,9.737l-46.822-28.839l26.686-0.19l2.907-1.499c0,0,10.113,0.374,23.599-1.871
		c13.483-2.249,28.844-15.92,28.844-15.92l-20.417,1.686C277.593,318.332,307.376,306.531,309.811,304.846L309.811,304.846z"/>
	<path fill="#FFFFFF" d="M37.058,370.97l0.52,23.805l14.882-0.321c0.603-0.014,1.067-0.172,1.395-0.47
		c0.331-0.299,0.576-0.804,0.739-1.51l0.967-0.022l0.279,12.883l-0.966,0.027c-0.215-0.722-0.488-1.223-0.816-1.499
		c-0.331-0.28-0.799-0.407-1.403-0.393l-35.001,0.748c-0.6,0.015-1.062,0.164-1.38,0.456c-0.316,0.291-0.566,0.8-0.755,1.531
		l-0.967,0.022l-0.278-12.891l0.965-0.019c0.2,0.725,0.467,1.221,0.807,1.493c0.336,0.273,0.809,0.411,1.416,0.396l13.309-0.288
		l-0.52-23.809l-13.309,0.288c-0.607,0.011-1.07,0.164-1.396,0.456c-0.327,0.286-0.574,0.799-0.738,1.527l-0.971,0.019
		l-0.282-12.887l0.971-0.019c0.217,0.72,0.492,1.221,0.818,1.497c0.331,0.276,0.798,0.404,1.401,0.393l34.999-0.755
		c0.605-0.011,1.068-0.16,1.382-0.452c0.316-0.286,0.567-0.799,0.754-1.531l0.967-0.019l0.284,12.887l-0.971,0.019
		c-0.196-0.697-0.463-1.194-0.804-1.479c-0.335-0.284-0.809-0.423-1.415-0.407L37.058,370.97L37.058,370.97z"/>
	<path fill="#FFFFFF" d="M44.963,322.361l-15.722,3.803l13.158,9.458L44.963,322.361L44.963,322.361z M51.011,320.886l-3.565,18.427
		l5.173,3.824c0.722,0.531,1.31,0.838,1.764,0.927c0.872,0.169,1.604-0.381,2.2-1.636l0.951,0.18l-2.597,13.414l-0.95-0.184
		c-0.004-0.822-0.165-1.479-0.483-1.974c-0.314-0.492-0.998-1.112-2.038-1.871l-28.288-20.902c-0.897-0.665-1.644-1.054-2.234-1.169
		c-0.911-0.176-1.679,0.276-2.296,1.349l-0.953-0.187l2.783-14.374l0.95,0.183c0.114,1.233,0.583,1.928,1.418,2.088
		c0.571,0.108,1.265,0.049,2.069-0.187l34.247-9.439c1.455-0.398,2.467-0.803,3.052-1.202c0.581-0.399,1.029-1.002,1.348-1.804
		l0.951,0.183l-2.888,14.926l-0.953-0.183c0.039-1.352-0.448-2.125-1.462-2.319c-0.413-0.079-1.066,0-1.956,0.239L51.011,320.886
		L51.011,320.886z"/>
	<path fill="#FFFFFF" d="M48.174,284.508l5.342-12.847c0.788-1.904,1.288-3.268,1.503-4.094c0.213-0.828,0.278-1.643,0.196-2.446
		c-0.176-1.733-1.261-3.014-3.25-3.844c-1.995-0.828-3.665-0.695-5.019,0.404c-0.651,0.516-1.184,1.127-1.6,1.837
		c-0.415,0.718-1.025,2.04-1.832,3.975l-5.338,12.853L48.174,284.508L48.174,284.508z M54.459,287.127l12.653,5.27
		c0.559,0.231,1.047,0.276,1.468,0.139c0.418-0.146,0.848-0.509,1.283-1.092l0.895,0.374l-4.941,11.905l-0.895-0.37
		c0.093-0.75,0.043-1.318-0.146-1.703c-0.188-0.382-0.563-0.695-1.123-0.926l-32.286-13.447c-0.581-0.239-1.072-0.288-1.477-0.153
		c-0.407,0.135-0.843,0.504-1.307,1.094l-0.895-0.374l9.917-23.86c1.207-2.906,2.331-5.141,3.375-6.705
		c1.042-1.566,2.247-2.806,3.612-3.724c1.58-1.069,3.351-1.622,5.306-1.656c1.888-0.021,3.741,0.348,5.571,1.106
		c6.219,2.589,8.421,7.56,6.611,14.911l13.608-3.019c2.386-0.533,3.968-0.997,4.75-1.382c0.781-0.385,1.382-1,1.803-1.856
		l0.895,0.374l-5.726,13.78l-0.895-0.37c0.249-1.009,0.106-1.63-0.411-1.847c-0.334-0.137-1.332-0.037-2.979,0.301l-14.437,3.051
		L54.459,287.127L54.459,287.127z"/>
	<path fill="#FFFFFF" d="M86.074,245.216l8.621-12.651c1.597-2.35,2.428-4.266,2.48-5.742c0.056-1.695-0.764-3.122-2.462-4.279
		c-1.686-1.151-3.313-1.394-4.885-0.732c-1.343,0.57-2.818,2.043-4.434,4.411l-8.616,12.651L86.074,245.216L86.074,245.216z
		 M71.153,235.041l8.91-13.081c1.352-1.983,2.002-3.564,1.953-4.748c-0.063-1.338-0.801-2.487-2.198-3.44
		c-1.435-0.979-2.736-1.255-3.913-0.836c-1.177,0.413-2.438,1.617-3.791,3.6l-8.909,13.082L71.153,235.041L71.153,235.041z
		 M88.372,215.504c4.06-2.842,8.052-2.931,11.967-0.261c3.117,2.13,4.797,4.909,5.041,8.349c0.112,1.736-0.144,3.484-0.77,5.245
		c-0.624,1.759-1.687,3.738-3.184,5.935l-15.892,23.334l-0.8-0.541c0.245-0.717,0.31-1.281,0.204-1.696
		c-0.106-0.413-0.418-0.799-0.938-1.149l-28.863-19.696c-0.52-0.352-0.99-0.505-1.417-0.452c-0.426,0.052-0.925,0.321-1.501,0.807
		l-0.8-0.545l15.735-23.107c1.513-2.215,2.895-3.885,4.146-5.014c1.253-1.12,2.624-1.916,4.116-2.391
		c2.954-0.933,5.926-0.388,8.911,1.648C87.659,208.239,89.011,211.423,88.372,215.504L88.372,215.504z"/>
	<path fill="#FFFFFF" d="M106.387,176.295c-2.849,2.716-4.422,5.824-4.712,9.323c-0.351,4.143,1.018,7.834,4.104,11.068
		c3.088,3.242,6.709,4.789,10.865,4.643c3.513-0.115,6.712-1.542,9.594-4.284c2.879-2.745,4.46-5.856,4.736-9.346
		c0.168-2.077-0.146-4.132-0.934-6.163c-0.71-1.797-1.722-3.393-3.043-4.774c-3.23-3.385-6.89-4.976-10.996-4.773
		C112.505,172.148,109.297,173.583,106.387,176.295L106.387,176.295z M101.523,171.233c5.225-4.964,10.704-7.493,16.447-7.582
		c6.044-0.12,11.287,2.151,15.741,6.824c2.725,2.865,4.498,6.271,5.312,10.23c1.593,7.726-1.063,14.875-7.967,21.441
		c-5.179,4.923-10.638,7.429-16.376,7.519c-3.074,0.053-6.032-0.566-8.884-1.863c-2.514-1.146-4.744-2.742-6.692-4.785
		c-2.856-2.995-4.691-6.466-5.524-10.406C92.001,185.069,94.646,177.943,101.523,171.233L101.523,171.233z"/>
	<path fill="#FFFFFF" d="M168.62,127.317l12.102,19.733c2.29,3.729,3.315,6.944,3.081,9.646c-0.435,4.852-4.529,9.652-12.282,14.402
		c-5.611,3.438-10.459,5.159-14.542,5.178c-2.377,0.015-4.46-0.677-6.235-2.069c-1.753-1.39-3.388-3.32-4.907-5.797l-12.101-19.729
		c-0.326-0.531-0.696-0.864-1.104-0.991c-0.411-0.13-0.98-0.089-1.705,0.116l-0.502-0.822l10.989-6.731l0.506,0.826
		c-0.518,0.527-0.809,1.008-0.88,1.441c-0.075,0.434,0.056,0.92,0.387,1.454l10.769,17.563c1.245,2.028,2.277,3.458,3.099,4.292
		c0.815,0.837,1.736,1.389,2.758,1.661c2.726,0.748,6.086-0.104,10.073-2.547c4.011-2.458,6.301-5.064,6.88-7.829
		c0.201-1.023,0.115-2.088-0.258-3.198c-0.373-1.104-1.18-2.677-2.425-4.706l-10.772-17.563c-0.329-0.531-0.695-0.862-1.104-0.989
		c-0.411-0.127-0.977-0.086-1.702,0.119l-0.507-0.825l10.372-6.354l0.507,0.825c-0.514,0.554-0.807,1.039-0.883,1.461
		C168.167,126.306,168.294,126.786,168.62,127.317L168.62,127.317z"/>
	<path fill="#FFFFFF" d="M198.135,130.246l13.094-4.71c1.936-0.703,3.283-1.249,4.037-1.651c0.759-0.396,1.401-0.9,1.938-1.502
		c1.16-1.292,1.381-2.958,0.648-4.991c-0.729-2.03-1.954-3.178-3.677-3.436c-0.821-0.135-1.631-0.112-2.439,0.056
		c-0.804,0.176-2.195,0.617-4.171,1.327l-13.094,4.713L198.135,130.246L198.135,130.246z M200.436,136.652l4.636,12.897
		c0.202,0.572,0.502,0.964,0.887,1.176c0.388,0.217,0.944,0.289,1.671,0.221l0.328,0.908l-12.127,4.37l-0.331-0.914
		c0.617-0.434,1-0.853,1.158-1.252c0.159-0.396,0.135-0.885-0.067-1.453l-11.83-32.919c-0.211-0.587-0.505-0.982-0.881-1.192
		c-0.374-0.205-0.94-0.284-1.687-0.228l-0.33-0.911l24.308-8.753c2.971-1.063,5.375-1.736,7.234-2.024
		c1.86-0.28,3.588-0.227,5.188,0.161c1.852,0.448,3.45,1.383,4.801,2.809c1.287,1.378,2.268,3,2.935,4.86
		c2.281,6.339,0.09,11.314-6.563,14.934l11.401,8.021c2.005,1.396,3.411,2.26,4.226,2.576c0.812,0.321,1.67,0.348,2.583,0.082
		l0.326,0.912l-14.039,5.055l-0.326-0.912c0.913-0.496,1.273-1.012,1.08-1.546c-0.121-0.341-0.863-1.006-2.227-1.995l-11.979-8.613
		L200.436,136.652L200.436,136.652z"/>
	<path fill="#FFFFFF" d="M275.186,97.065l-3.403,10.361l-0.911-0.352c-0.013-0.201-0.025-0.362-0.046-0.48
		c-0.101-0.677-0.792-1.319-2.07-1.916c-3.926-1.933-8.279-2.525-13.064-1.787c-2.114,0.321-3.935,0.867-5.475,1.636
		c-1.117,0.579-1.976,1.323-2.577,2.23c-0.61,0.908-0.84,1.831-0.698,2.765c0.233,1.534,1.322,2.439,3.26,2.712
		c0.995,0.131,3.096,0.115,6.294-0.049l4.773-0.243c2.836-0.134,5.155-0.07,6.958,0.184c1.806,0.25,3.442,0.742,4.925,1.475
		c1.508,0.771,2.774,1.887,3.803,3.359c1.031,1.475,1.684,3.119,1.962,4.931c0.435,2.868-0.103,5.562-1.612,8.075
		c-1.363,2.294-3.737,4.198-7.119,5.715c-2.516,1.144-5.282,1.945-8.292,2.409c-5.402,0.829-10.934,0.354-16.594-1.431
		c-1.196-0.348-1.905-0.501-2.122-0.471c-0.261,0.041-0.632,0.325-1.127,0.849l-0.932-0.318l2.896-10.697l0.93,0.284
		c0.024,0.18,0.042,0.309,0.06,0.393c0.132,0.896,0.688,1.658,1.665,2.281c1.468,0.956,3.624,1.647,6.469,2.07
		c2.837,0.417,5.469,0.439,7.903,0.065c2.652-0.407,4.847-1.202,6.586-2.387c0.959-0.652,1.686-1.445,2.179-2.363
		c0.49-0.919,0.665-1.831,0.532-2.727c-0.21-1.354-1.083-2.204-2.627-2.56c-1.076-0.242-3.186-0.295-6.329-0.16l-4.679,0.231
		c-3.14,0.157-5.369,0.187-6.688,0.097c-1.319-0.093-2.67-0.362-4.04-0.803c-1.953-0.619-3.583-1.752-4.897-3.384
		c-1.184-1.477-1.935-3.258-2.252-5.354c-0.527-3.451,0.218-6.488,2.25-9.106c2.659-3.455,7.092-5.658,13.313-6.615
		c2.613-0.4,5.088-0.509,7.417-0.321c2.338,0.183,5.296,0.725,8.88,1.629c1.23,0.288,1.976,0.406,2.232,0.365
		c0.419-0.067,0.871-0.37,1.36-0.914L275.186,97.065L275.186,97.065z"/>
	<path fill="#FFFFFF" d="M156.04,596.42l-19.413-13.788l-8.633,12.126c-0.354,0.493-0.503,0.963-0.458,1.4
		c0.045,0.437,0.303,0.937,0.773,1.491l-0.561,0.791l-10.508-7.464l0.561-0.791c0.708,0.262,1.269,0.335,1.688,0.239
		c0.419-0.102,0.804-0.396,1.152-0.89l20.303-28.521c0.352-0.492,0.505-0.948,0.461-1.378c-0.042-0.421-0.301-0.927-0.774-1.516
		l0.561-0.789l10.507,7.468l-0.56,0.787c-0.698-0.275-1.258-0.354-1.683-0.249c-0.42,0.108-0.809,0.411-1.16,0.899l-7.72,10.844
		l19.412,13.791l7.72-10.84c0.35-0.496,0.505-0.963,0.472-1.393c-0.041-0.438-0.301-0.935-0.789-1.505l0.564-0.793l10.504,7.464
		l-0.561,0.791c-0.707-0.254-1.271-0.336-1.689-0.231c-0.418,0.093-0.803,0.393-1.155,0.882l-20.3,28.519
		c-0.352,0.494-0.505,0.948-0.46,1.386c0.041,0.419,0.299,0.927,0.773,1.51l-0.56,0.789l-10.507-7.46l0.562-0.792
		c0.681,0.265,1.237,0.344,1.667,0.238c0.434-0.101,0.822-0.396,1.173-0.889L156.04,596.42L156.04,596.42z"/>
	<path fill="#FFFFFF" d="M221.021,606.16l-9.168,21.255c-1.734,4.02-3.773,6.713-6.119,8.068c-4.215,2.446-10.5,1.863-18.852-1.744
		c-6.039-2.604-10.239-5.574-12.604-8.901c-1.384-1.938-2.014-4.03-1.896-6.29c0.127-2.234,0.761-4.677,1.916-7.345l9.166-21.251
		c0.251-0.574,0.307-1.067,0.176-1.479c-0.132-0.402-0.493-0.847-1.08-1.318l0.384-0.885l11.834,5.106l-0.385,0.884
		c-0.724-0.118-1.29-0.073-1.685,0.117c-0.395,0.186-0.719,0.574-0.963,1.146l-8.164,18.924c-0.942,2.182-1.522,3.847-1.731,5.002
		c-0.208,1.146-0.135,2.215,0.229,3.208c0.963,2.655,3.593,4.912,7.888,6.769c4.317,1.859,7.77,2.233,10.363,1.117
		c0.952-0.434,1.773-1.114,2.464-2.056c0.694-0.94,1.513-2.507,2.454-4.687l8.162-18.924c0.247-0.574,0.307-1.065,0.176-1.473
		c-0.134-0.414-0.493-0.851-1.08-1.325l0.383-0.885l11.169,4.821l-0.383,0.886c-0.747-0.102-1.315-0.063-1.701,0.123
		C221.587,605.205,221.266,605.59,221.021,606.16L221.021,606.16z"/>
	<path fill="#FFFFFF" d="M265.976,616.855l-6.877,8.46l-0.723-0.653c0.06-0.194,0.104-0.352,0.131-0.468
		c0.144-0.668-0.271-1.516-1.248-2.531c-2.981-3.201-6.836-5.327-11.567-6.354c-2.088-0.457-3.988-0.598-5.694-0.438
		c-1.247,0.145-2.318,0.531-3.206,1.161c-0.892,0.632-1.435,1.409-1.636,2.335c-0.328,1.514,0.366,2.749,2.078,3.697
		c0.889,0.482,2.853,1.223,5.897,2.213l4.543,1.488c2.693,0.886,4.84,1.783,6.436,2.664c1.591,0.882,2.949,1.928,4.067,3.142
		c1.131,1.255,1.918,2.757,2.355,4.505c0.438,1.74,0.461,3.512,0.077,5.305c-0.616,2.838-2.075,5.165-4.385,6.967
		c-2.092,1.654-4.987,2.58-8.685,2.785c-2.757,0.165-5.625-0.082-8.603-0.729c-5.341-1.153-10.335-3.582-14.987-7.283
		c-0.991-0.747-1.596-1.15-1.812-1.195c-0.258-0.061-0.709,0.07-1.356,0.381l-0.761-0.627l6.518-8.953l0.769,0.602
		c-0.038,0.174-0.066,0.309-0.082,0.384c-0.191,0.89,0.053,1.8,0.74,2.727c1.033,1.423,2.802,2.843,5.304,4.255
		c2.499,1.411,4.953,2.372,7.358,2.895c2.619,0.576,4.953,0.617,6.999,0.135c1.13-0.272,2.091-0.743,2.878-1.43
		c0.786-0.682,1.278-1.465,1.468-2.358c0.288-1.337-0.225-2.446-1.539-3.327c-0.918-0.609-2.872-1.416-5.853-2.417l-4.452-1.464
		c-2.985-0.979-5.081-1.752-6.277-2.309c-1.201-0.561-2.363-1.29-3.487-2.196c-1.603-1.274-2.724-2.918-3.366-4.92
		c-0.579-1.794-0.646-3.731-0.198-5.802c0.74-3.417,2.521-5.983,5.349-7.705c3.711-2.268,8.64-2.738,14.792-1.396
		c2.581,0.556,4.928,1.344,7.041,2.352c2.114,1.017,4.683,2.578,7.713,4.715c1.041,0.702,1.691,1.083,1.949,1.14
		c0.415,0.086,0.947-0.034,1.599-0.374L265.976,616.855L265.976,616.855z"/>
	<path fill="#FFFFFF" d="M288.222,636.525l-6.324,4.887l-0.229,11.071c-0.013,0.627,0.123,1.108,0.409,1.445
		c0.284,0.34,0.777,0.609,1.479,0.803l-0.019,0.965l-12.883-0.262l0.017-0.972c0.729-0.187,1.238-0.438,1.529-0.751
		c0.288-0.318,0.44-0.789,0.452-1.412l0.726-34.967c0.01-0.608-0.121-1.075-0.396-1.404c-0.276-0.329-0.777-0.602-1.498-0.818
		l0.019-0.967l12.888,0.266l-0.021,0.967c-0.728,0.164-1.24,0.414-1.528,0.743c-0.289,0.329-0.44,0.796-0.452,1.396l-0.299,14.449
		l17.288-13.519c0.801-0.635,1.205-1.131,1.212-1.52c0.009-0.587-0.564-0.994-1.728-1.248l0.019-0.967l16.876,0.35l-0.018,0.972
		c-0.71,0.127-1.219,0.277-1.524,0.449c-0.307,0.179-1.196,0.843-2.673,2.013l-2.369,1.879L294.9,631.355l15.521,19.495
		c1.434,1.801,2.473,2.97,3.123,3.496c0.642,0.527,1.456,0.881,2.442,1.061l-0.02,0.976l-16.14-0.34l0.019-0.971
		c1.077-0.198,1.62-0.568,1.629-1.118c0.008-0.276-0.461-1.033-1.405-2.263L288.222,636.525L288.222,636.525z"/>
	<path fill="#FFFFFF" d="M326.67,651.235l-4.264-34.709c-0.073-0.604-0.271-1.046-0.589-1.336c-0.321-0.28-0.856-0.486-1.599-0.595
		l-0.119-0.96l12.785-1.588l0.127,0.961c-0.693,0.271-1.166,0.589-1.412,0.955c-0.238,0.37-0.32,0.853-0.246,1.449l4.266,34.713
		c0.075,0.619,0.277,1.079,0.613,1.374c0.328,0.296,0.851,0.486,1.576,0.58l0.119,0.964l-12.789,1.583l-0.121-0.964
		c0.695-0.28,1.158-0.605,1.405-0.963C326.67,652.345,326.752,651.855,326.67,651.235L326.67,651.235z"/>
	<path fill="#FFFFFF" d="M355.843,631.304l2.905,10.94l25.662-6.854c0.591-0.148,1.002-0.41,1.239-0.769
		c0.239-0.352,0.359-0.912,0.374-1.659l0.935-0.254l2.742,10.324l-0.935,0.247c-0.389-0.65-0.763-1.067-1.151-1.264
		c-0.388-0.187-0.873-0.2-1.456-0.048l-36.24,9.679l-0.247-0.935c0.643-0.38,1.069-0.769,1.256-1.15
		c0.187-0.392,0.201-0.882,0.045-1.486l-8.973-33.774c-0.156-0.602-0.418-1.028-0.777-1.264c-0.351-0.241-0.903-0.368-1.658-0.376
		l-0.254-0.931l35.553-9.484c0.583-0.159,0.994-0.421,1.233-0.78c0.239-0.358,0.357-0.919,0.374-1.659l0.933-0.249l2.742,10.324
		l-0.935,0.246c-0.381-0.639-0.761-1.058-1.149-1.252c-0.382-0.194-0.867-0.213-1.458-0.06l-24.958,6.669l2.518,9.472l16.195-4.321
		c0.583-0.157,0.994-0.411,1.233-0.771c0.239-0.358,0.357-0.906,0.374-1.665l0.933-0.251l2.683,10.094l-0.935,0.249
		c-0.381-0.634-0.763-1.041-1.149-1.247c-0.382-0.196-0.867-0.217-1.458-0.067L355.843,631.304L355.843,631.304z"/>
	<path fill="#FFFFFF" d="M419.462,585.903l-0.254,10.905l-0.971-0.079c-0.074-0.19-0.127-0.34-0.179-0.448
		c-0.3-0.617-1.151-1.03-2.541-1.233c-4.317-0.713-8.665-0.028-13.036,2.062c-1.927,0.915-3.519,1.965-4.766,3.138
		c-0.904,0.882-1.509,1.841-1.83,2.88c-0.307,1.047-0.262,1.998,0.142,2.846c0.672,1.401,1.979,1.953,3.914,1.659
		c0.993-0.164,3.004-0.784,6.014-1.867l4.498-1.61c2.682-0.941,4.923-1.558,6.724-1.834c1.792-0.277,3.51-0.279,5.14-0.012
		c1.666,0.303,3.204,1.009,4.617,2.122c1.419,1.113,2.525,2.491,3.309,4.149c1.263,2.611,1.532,5.346,0.808,8.188
		c-0.643,2.585-2.361,5.091-5.155,7.519c-2.077,1.824-4.49,3.385-7.247,4.699c-4.93,2.35-10.369,3.493-16.308,3.419
		c-1.248,0.007-1.965,0.069-2.166,0.159c-0.239,0.117-0.517,0.498-0.838,1.136l-0.985-0.029l-0.329-11.068l0.971,0.004
		c0.075,0.165,0.135,0.28,0.172,0.352c0.389,0.817,1.144,1.389,2.257,1.703c1.688,0.497,3.951,0.53,6.798,0.112
		c2.84-0.41,5.372-1.154,7.591-2.219c2.421-1.146,4.288-2.548,5.617-4.18c0.726-0.905,1.188-1.868,1.391-2.887
		c0.209-1.021,0.11-1.943-0.276-2.761c-0.591-1.233-1.681-1.806-3.266-1.697c-1.098,0.086-3.131,0.644-6.104,1.677l-4.415,1.574
		c-2.958,1.053-5.088,1.725-6.38,2.017c-1.293,0.299-2.652,0.43-4.101,0.403c-2.047-0.033-3.938-0.639-5.671-1.834
		c-1.562-1.061-2.801-2.551-3.713-4.465c-1.51-3.151-1.673-6.264-0.485-9.359c1.532-4.067,5.147-7.449,10.824-10.164
		c2.384-1.139,4.722-1.958,7.008-2.455c2.294-0.492,5.29-0.824,8.987-0.996c1.256-0.086,1.994-0.184,2.241-0.299
		c0.374-0.18,0.725-0.605,1.031-1.268L419.462,585.903L419.462,585.903z"/>
</g>
</svg>
