<?xml version="1.0" encoding="utf-8"?>
<!-- Generator: Adobe Illustrator 16.0.4, SVG Export Plug-In . SVG Version: 6.00 Build 0)  -->
<!DOCTYPE svg PUBLIC "-//W3C//DTD SVG 1.1//EN" "http://www.w3.org/Graphics/SVG/1.1/DTD/svg11.dtd">
<svg version="1.1" id="Layer_1" xmlns="http://www.w3.org/2000/svg" xmlns:xlink="http://www.w3.org/1999/xlink" x="0px" y="0px" viewBox="0 0 765.66 651.536" enable-background="new 0 0 765.66 651.536"
	 xml:space="preserve">
<g>
	<g>
		<g>
			<path fill="#343465" d="M540.354,547.542c2.11-2.055,10.345-10.311,9.798-13.842c-0.629-4.053-3.868-10.263,1.262-15.659
				s8.635-11.603,5.935-18.351c-2.696-6.749-11.938-6.215-22.972,1.081c-11.039,7.282-39.411,21.916-43.179,21.081
				c-3.765-0.844,3.276-14.608-11.719-3.54c-14.992,11.068-32.537,25.788-63.042,28.278c0,0-11.603,0.452-19.977-1.629
				c-8.371-2.084-6.479-5.861-1.351-11.809c5.134-5.935,38.334-35.177,65.601-54.027c27.262-18.851,46.697-26.409,57.766-27.219
				c11.072-0.813,17.816,2.997,19.169,6.219c1.349,3.217,3.234,5.654,8.635,5.654c5.401,0,13.23,3.781,7.83,9.717
				c-5.396,5.939-1.908,11.072,4.173,13.769c6.086,2.7,10.134,1.619,13.644,0c3.511-1.624,4.616-0.909,10.005,3.19
				c5.383,4.092,14.561,9.501,9.16,15.436c-5.396,5.939-24.565,20.466-20.784,24.406c3.777,3.937,20.788,5.508,32.934,0
				c12.148-5.513,26.185-19.814,26.185-19.814l8.368-0.276c0,0-4.32,8.98-6.211,11.646c-1.886,2.666-4.586,8.877,0.543,11.301
				c5.13,2.429,28.227-11.603,37.193-26.448c8.967-14.853,9.237-28.079,18.957-44.005c9.716-15.926,18.352-29.656,19.976-34.127
				c1.618-4.475-1.082-14.466-21.056-21.215c-19.979-6.744-74.777-24.035-99.071-31.856c-24.295-7.829-25.376-14.308-31.047-19.174
				c-5.664-4.854-4.049-9.164,0-14.569c4.052-5.405,18.631-39.688,14.582-41.304c-4.053-1.619-17.008,1.615-17.816-1.891
				c-0.814-3.51-3.515-32.128-39.416-53.722l-7.016,11.607c0,0-29.694-26.728-77.477-31.857l-0.539,11.606
				c0,0-17.55,0.542-24.294,0.542c0,0-56.515-53.726-170.077-83.688c0,0,7.286,33.205,20.246,51.022
				c0,0-58.314-31.585-127.696-40.225c0,0-40.759,90.166,39.146,147.665l-25.649,0.271l9.184,23.905l-41.306-16.079l10.787,18.896
				c0,0-28.605,1.353-49.121,15.66l31.583,5.671c0,0-31.583,35.092-33.198,47.237l50.736-7.012c0,0-34.271,71-39.396,94.218
				l32.656-22.137l6.172,75.397H0v103.994h765.66V547.542H540.354z"/>
		</g>
		<g>
			<path fill="#BCBEC0" d="M562.586,309.464c0,0-11.606,3.071-13.652-3.755c-2.05-6.822-15.018-44.713-32.081-48.809l-7.851,11.607
				c0,0-30.376-30.375-71.677-34.471v7.847c0,0-58.362,3.076-88.738,14.682l26.967,7.506c0,0,76.449-35.84,138.908,16.724
				l7.167-10.922c0,0,16.383,22.524,20.134,36.861c3.76,14.333,6.485,18.433,11.607,18.433
				C558.49,325.167,561.905,315.61,562.586,309.464z"/>
		</g>
		<g>
			<path fill="#BCBEC0" d="M398.418,260.997l22.185,5.46c0,0-5.457,22.189,11.946,32.43c0,0-45.055,5.116-63.823,10.577
				l26.279-17.748l-37.545-19.113l44.374,4.096C401.833,276.699,398.418,268.167,398.418,260.997z"/>
		</g>
		<g>
			<polygon fill="#C4161C" points="538.012,325.167 530.161,332.675 538.012,349.739 			"/>
		</g>
		<g>
			<path fill="#C4161C" d="M477.941,337.456l2.051,20.135l-15.702,3.406C464.29,360.997,467.364,338.132,477.941,337.456z"/>
		</g>
		<g>
			<path fill="#C4161C" d="M461.219,320.391c0,0-17.408,21.16,0,42.319c0,0-9.216,3.411-15.362-9.217
				C439.716,340.867,435.619,327.212,461.219,320.391z"/>
		</g>
		<g>
			<path fill="#FFFFFF" d="M513.778,366.802l-9.558-41.636h-7.851c0,0-18.429-23.208-24.229-23.894
				c-5.801-0.685-16.555,3.756-16.555,3.756l16.555-22.869c0,0,18.772,16.387,23.549,29.69l8.531-5.801
				c0,0,13.312,44.03,41.982,67.919l-4.776,4.798c0,0,55.63,19.44,90.785,26.267l12.968-4.44c0,0-33.446-11.263-59.385-19.109
				c-25.939-7.854-54.609-23.893-63.141-56.316c0,0,7.166-3.759,7.507-12.292c0.344-8.531-6.481-23.544-6.481-23.544l-2.051,6.146
				l-7.851,5.797c0,0-30.375-39.591-83.96-34.471c0,0-5.456,21.844,13.652,34.811c0,0-11.603,12.288-15.698,23.554
				c0,0,18.769-16.047,36.518-12.976c17.747,3.075,23.549,9.217,26.279,17.41C493.304,337.796,494.324,358.611,513.778,366.802z"/>
		</g>
		<g>
			<path fill="#FFFFFF" d="M447.227,380.798c0,0-1.37-6.83,0-9.221c0,0-17.068-13.648-18.093-34.122h-34.129l13.654-21.169
				c0,0-70.312-5.117-117.071,58.361l31.743-9.211l-31.743,31.06l46.418-11.942l-30.714,48.8c0,0,78.499-18.773,95.221-17.068
				c0,0-81.576,35.496-98.979,43.348c-17.408,7.851-20.819,10.922-20.138,17.403c0.687,6.486,6.143,33.105,17.067,36.865
				c0,0,5.461-22.524,7.167-22.869c1.705-0.345,16.38,49.834,25.595,53.929h8.538c0,0-16.723-53.584-15.019-56.659
				c1.71-3.07,74.064-48.803,140.62-63.141c66.552-14.337,115.36-2.734,118.771,16.384c3.411,19.112,11.942,38.57,37.201,44.027
				c25.259,5.46,55.294-12.627,59.045-29.351c0,0-11.602-1.71-11.602-10.926c0-9.208-8.191-25.595-31.741-31.396
				c-23.553-5.806-47.103,2.73-47.103,2.73l-92.49-46.418l2.39,15.018c0,0-34.475-18.428-84.304,21.499l-0.34-13.651
				c0,0-12.973-3.071-19.798-12.288l-17.406,9.217l23.891-40.78C403.879,349.226,416.507,372.262,447.227,380.798z"/>
		</g>
		<g>
			<path fill="#B5B5B8" d="M635.503,476.808c0,0-19.733-2.438-27.74-13.479c-7.997-11.052-7.993-15.853-6.396-23.321
				c1.599-7.463,1.599-14.401-53.339-27.731c0,0-64.535-9.074-132.271,16c-67.738,25.065-114.141,53.868-115.207,59.738
				c-0.79,4.367-0.407,18.773-0.155,25.858c0.023,0.012,0.045,0.021,0.069,0.029c0,0,5.461-22.524,7.167-22.869
				c1.705-0.345,16.38,49.834,25.595,53.929h8.538c0,0-16.723-53.584-15.019-56.659c1.71-3.07,74.064-48.803,140.62-63.141
				c66.552-14.337,115.36-2.734,118.771,16.384c3.411,19.112,11.942,38.57,37.201,44.027c25.147,5.439,55.014-12.464,58.985-29.123
				C675.009,465.198,659.482,478.983,635.503,476.808z"/>
		</g>
		<g>
			<path fill="#BCBEC0" d="M327.71,323.638c0,0-90.86,27.367-133.661,65.253l18.245,2.105l-3.51,22.805l17.888-8.769
				c0,0,12.982,70.51,52.62,116.819c0,0-28.061-61.393-5.605-86.306l9.627,7.368l10.715-33.67l-41.042,9.819
				C252.987,419.064,266.667,364.333,327.71,323.638z"/>
		</g>
		<g>
			<path fill="#FFFFFF" d="M375.677,243.318l15.969-3.489c0,0-58.657-42.977-124.868-66.789
				C266.778,173.041,346.055,217.478,375.677,243.318z"/>
		</g>
		<g>
			<path fill="#FFFFFF" d="M138.136,173.041c0,0,87.699,23.523,114.414,41.237c0,0-65.632-19.165-119.64-29.329L138.136,173.041z"/>
		</g>
		<g>
			<path fill="#BCBEC0" d="M132.91,193.661c0,0,105.409,20.328,184.688,57.495c0,0-130.969-33.687-167.852-34.845
				c0,0,11.327,48.205,70.859,66.211l-15.97,6.968l56.244,11.327l-68.152,26.715l11.615-20.328
				C204.343,307.204,131.745,278.164,132.91,193.661z"/>
		</g>
		<g>
			<path fill="#FFFFFF" d="M317.598,266.341l55.12,26.551c0,0-111.949,25.792-206.886,91.102l16.464,21.038
				c0,0-26.34,42.067-26.34,68.411l32.923-16.464l46.097,73.537c0,0-8.346-35.022-1.643-57.073c0,0,15.913,50.286,44.449,71.518
				h-45.55l-58.715-64.932l-35.123,57.619l2.743-94.386h-18.661l27.993-54.334l-30.732-10.163c0,0,66.463-54.042,197.86-84.775
				l-39.269-12.072L317.598,266.341z"/>
		</g>
		<g>
			<path fill="#C4161C" d="M432.549,450.395c0,0,15.354,20.85-8.247,40.061c-23.597,19.208-43.354,32.185-42.807,54.506h-24.035
				c0,0-9.716-5.121-11.083-36.947c0,0,0-21.43,19.21-30.198c19.204-8.764,31.275-15.896,32.927-18.093c0,0,6.705,9.88-3.508,20.307
				c-10.215,10.426-17.888,12.08-14.053,30.724c0,0,9.878-19.199,26.89-29.079C424.853,471.799,429.271,460.275,432.549,450.395z"/>
		</g>
		<g>
			<path fill="#FFFFFF" d="M564.536,477.717c0.741,0.955,8.477,2.604,11.103,0.025c0.879-0.857,1.563-2.287,1.822-4.552
				c1.047-9.083-2.799-41.03-20.357-42.615c-17.559-1.581-68.154-4.875-65.905,3.351c2.252,8.234,12.678,1.654,14.87,3.299
				c2.197,1.645,10.974,3.842,14.269,2.197c3.29-1.654,7.028-1.654,9.824,1.093c2.799,2.748,10.478,3.295,16.516,1.646
				c6.038-1.646,12.623,0.551,10.978,4.939c-1.649,4.393-7.683,11.521,0,13.722c7.684,2.196,10.427,3.842,8.23,9.324
				C564.27,474.19,563.111,475.895,564.536,477.717z"/>
		</g>
		<g>
			<path fill="#C4161C" d="M607.591,490.456c0,0-26.551-13.721-31.279-42.804c-4.726-29.087-52.495-22.624-104.171-17.076
				c0,0,88.805-2.679,94.291,11.585C571.919,456.433,571.371,485.516,607.591,490.456z"/>
		</g>
		<g>
			<path fill="#FFFFFF" d="M669.319,484.737c0,0-11.918,30.363-28.089,37.739c0,0,7.334-16.456,3.949-18.872l-24.096,1.284
				c0,0-8.795,20.995-39.152,20.142c0,0,17.589-17.027,22.696-25.538c5.104-8.511,7.661-7.946,14.187-5.668
				c6.524,2.266,22.131,2.266,32.059-1.421C660.804,488.708,668.467,482.467,669.319,484.737z"/>
		</g>
		<g>
			<path fill="#C4161C" d="M539.868,508.002c0,0-28.872,16.18-51.569,24.693l-5.447,12.266c0,0,14.811,1.353,35.525-8.02
				c20.707-9.357,31.775-30.633,31.775-30.633S549.726,500.628,539.868,508.002z"/>
		</g>
		<g>
			<path fill="#FFFFFF" d="M515.255,545.027h16.456c0,0,11.064-8.647,11.633-14.604c0.563-5.961-9.363,2.55-14.045,5.957
				C524.618,539.785,515.255,545.027,515.255,545.027z"/>
		</g>
		<g>
			<path fill="#FFFFFF" d="M449.427,546.59h26.107c0,0,7.089-14.751,2.265-16.168C472.976,529,469.573,540.066,449.427,546.59z"/>
		</g>
		<g>
			<path fill="#BCBEC0" d="M75.872,576.703H89.97v35.548c0,0-1.378,11.348-14.098,11.348c-12.729,0-19.493,0-19.493,0
				s-13.413-0.802-13.413-12.149v-8.602h14.1v4.354c0,0-1.146,4.247,3.559,4.247c4.698,0,11.803,0,11.803,0s3.329,0.569,3.329-4.932
				C75.757,601.013,75.872,576.703,75.872,576.703z"/>
		</g>
		<g>
			<path fill="#BCBEC0" d="M177.077,575.324h-17.078l-24.507,48.274h15.316l4.191-8.463h27.726l3.706,8.463h16.921L177.077,575.324z
				 M159.999,604.17l8.215-16.599l9.673,16.599H159.999z"/>
		</g>
		<g>
			<path fill="#BCBEC0" d="M496.404,575.324h-17.089l-24.506,48.274h15.315l4.19-8.463h27.727l3.708,8.463h16.926L496.404,575.324z
				 M479.315,604.17l8.218-16.599l9.673,16.599H479.315z"/>
		</g>
		<g>
			<path fill="#BCBEC0" d="M291.38,593.856h13.86v-8.863c0,0-2.093-9.669-14.664-9.669c-12.573,0-26.921,0-26.921,0
				s-16.443,0.638-16.443,13.541c0,12.89,0,21.43,0,21.43s-0.642,13.304,14.512,13.304c15.148,0,31.592,0,31.592,0
				s12.571-0.724,12.571-11.202v-7.897H291.7c0,0,0.969,6.933-3.702,6.933c-4.675,0-21.605,0-21.605,0s-4.834,0.314-4.834-6.615
				s0-11.279,0-11.279s0.48-6.774,6.604-6.774c6.129,0,16.932,0,16.932,0S291.38,585.152,291.38,593.856z"/>
		</g>
		<g>
			<polygon fill="#BCBEC0" points="393.218,575.324 375.564,593.645 368.635,593.645 368.635,575.324 355.035,575.324 
				355.035,623.598 368.246,623.598 368.246,604.499 375.694,604.499 394.008,622.811 413.884,622.811 387.337,599.459 
				410.58,575.324 			"/>
		</g>
		<g>
			<polygon fill="#BCBEC0" points="581.932,575.324 567.72,575.324 567.72,623.598 612.643,623.598 612.643,610.497 
				581.932,610.497 			"/>
		</g>
		<g>
			<path fill="#BCBEC0" d="M699.298,590.368h13.756v-6.318c0,0-0.005-8.726-11.899-8.726c-11.896,0-28.442,0-28.442,0
				s-13.94,0.181-13.94,7.521c0,7.342,0,14.22,0,14.22s-1.495,7.249,14.682,7.435c16.176,0.189,17.477,0,17.477,0
				s10.044-0.564,10.044,3.717s-2.977,5.018-9.3,5.018c-6.321,0-14.5,0-14.5,0s-4.646,1.122-5.017-5.385h-13.425
				c0,0-3.682,15.75,10.819,15.75c14.5,0,30.487,0,30.487,0s14.871,0.423,14.871-10.177c0-10.594,0-9.293,0-9.293
				s1.119-10.226-17.657-10.226c-18.778,0-21.009,0-21.009,0s-4.087-0.56-4.087-4.65c0-4.092,4.087-3.902,6.133-3.902
				s13.565,0,13.565,0S698.738,584.235,699.298,590.368z"/>
		</g>
	</g>
	<g>
		<g>
			<path fill="#343465" stroke="#FFFFFF" stroke-miterlimit="10" d="M63.75,165.515c6.268,10.743,3.656,19.355-7.574,26.462
				c-2.536,1.611-6.682,3.551-12.427,5.939c-2.177-3.26-4.354-6.519-6.531-9.776c5.129-1.309,8.756-2.61,10.915-3.995
				c2.253-1.445,3.56-3.296,3.946-5.58c0.378-2.284-0.216-4.707-1.807-7.27c-13.5-21.723-26.997-43.446-40.496-65.167
				c4.644-2.888,9.313-5.713,14.007-8.48C37.107,120.272,50.43,142.894,63.75,165.515z"/>
		</g>
		<g>
			<path fill="#343465" stroke="#FFFFFF" stroke-miterlimit="10" d="M93.07,114.607C83.949,95.88,80.267,82.665,82.233,74.953
				c1.938-7.686,8.329-14.057,19.091-18.674c12.319-5.269,21.891-5.265,28.366-0.42c6.512,4.848,12.784,15.689,18.993,32.393
				c5.568,14.966,8.596,25.651,9.16,32.037c0.553,6.392-0.588,11.687-3.402,15.925c-2.817,4.242-7.481,7.687-14.034,10.491
				c-6.755,2.892-12.431,4.002-17.151,3.221c-4.711-0.781-9.249-3.44-13.631-8.021C105.246,137.325,99.705,128.245,93.07,114.607z
				 M135.205,96.771c-6.765-16.919-12.133-26.897-16.167-29.889c-4.02-2.998-8.492-3.48-13.329-1.413
				c-5.687,2.436-8.522,6.531-8.473,12.147c0.043,5.626,2.631,13.979,7.696,25.076c0.728,1.597,1.458,3.195,2.186,4.795
				c5.648,12.378,10.552,21.049,14.641,26.06c4.1,5.009,8.955,6.24,14.682,3.785c3.52-1.505,5.863-4.375,7.086-8.673
				c1.212-4.29-1.096-13.827-7.005-28.603C136.083,98.961,135.644,97.867,135.205,96.771z"/>
		</g>
		<g>
			<path fill="#343465" stroke="#FFFFFF" stroke-miterlimit="10" d="M185.901,28.348c5.11-1.444,10.231-2.827,15.366-4.149
				c3.11,12.067,6.221,24.133,9.333,36.2c7.479-1.928,14.986-3.719,22.516-5.377c-2.681-12.169-5.36-24.338-8.041-36.508
				c5.168-1.137,10.347-2.214,15.535-3.23c6.161,31.409,12.324,62.817,18.486,94.225c-4.464,0.874-8.921,1.802-13.368,2.78
				c-3.421-15.531-6.841-31.062-10.261-46.592c-7.403,1.627-14.785,3.391-22.139,5.284c3.971,15.401,7.942,30.8,11.91,46.201
				c-4.416,1.137-8.825,2.327-13.221,3.57C203.311,89.95,194.608,59.147,185.901,28.348z"/>
		</g>
		<g>
			<path fill="#343465" stroke="#FFFFFF" stroke-miterlimit="10" d="M353.788,98.758c-3.553,0.117-7.106,0.263-10.657,0.444
				c-9.667-21.505-20.276-42.779-31.82-63.755c-0.116,0.02-0.232,0.041-0.349,0.062c2.076,21.859,4.149,43.717,6.225,65.576
				c-4.042,0.383-8.08,0.808-12.112,1.274c-3.678-31.796-7.356-63.59-11.034-95.384c4.172-0.483,8.345-0.924,12.522-1.332
				c12.065,20.896,23.196,42.103,33.381,63.554c0.112,0.013,0.224,0.026,0.333,0.039c-1.16-21.951-2.321-43.903-3.482-65.856
				c4.615-0.243,9.234-0.439,13.853-0.589C351.695,34.781,352.742,66.769,353.788,98.758z"/>
		</g>
		<g>
			<path fill="#343465" stroke="#FFFFFF" stroke-miterlimit="10" d="M443.501,18.447c-4.794-2.773-9.251-4.322-13.286-4.66
				c-4.04-0.34-7.589,0.61-10.603,2.817c-3.016,2.211-4.604,5.035-4.82,8.443c-0.15,2.406,0.53,5.026,2.003,7.866
				c1.473,2.845,4.91,7.459,10.096,13.929c5.188,6.475,8.939,12.097,11.416,16.802c2.477,4.707,3.347,9.918,2.718,15.614
				c-0.793,7.099-3.742,12.593-8.708,16.565c-4.975,3.981-11.003,5.666-18.239,5.164c-3.988-0.275-8.785-1.704-14.496-4.221
				c0.173-3.839,0.34-7.681,0.513-11.52c0.154,0.06,0.318,0.142,0.469,0.248c0.789,0.59,2.442,1.507,4.953,2.771
				c2.516,1.268,4.987,1.982,7.446,2.145c4.005,0.267,7.387-0.73,10.198-3.019c2.812-2.287,4.415-5.37,4.768-9.274
				c0.241-2.702-0.211-5.265-1.374-7.686c-1.171-2.418-3.38-5.762-6.727-10c-2.959-3.777-5.969-7.532-9.04-11.266
				c-3.578-4.346-6.258-8.248-7.959-11.749c-1.705-3.501-2.48-7.606-2.286-12.328c0.283-6.981,2.928-12.574,8.079-16.689
				c5.133-4.115,11.736-5.915,19.625-5.284c5.509,0.439,10.986,2.078,16.345,4.912C444.229,11.5,443.867,14.974,443.501,18.447z"/>
		</g>
		<g>
			<path fill="#343465" stroke="#FFFFFF" stroke-miterlimit="10" d="M490.194,60.928c3.786-20.482,8.622-33.31,14.689-38.364
				c6.035-5.049,14.812-6.413,26.065-3.776c12.877,3.03,20.517,8.688,22.824,16.423c2.335,7.754,0.948,20.203-3.957,37.333
				c-4.393,15.354-8.286,25.752-11.611,31.232c-3.333,5.479-7.373,9.067-12.119,10.821s-10.495,1.776-17.342,0.166
				c-7.06-1.661-12.197-4.115-15.462-7.533c-3.26-3.411-5.275-8.236-6.046-14.517C486.473,86.433,487.43,75.84,490.194,60.928z
				 M534.028,71.441c4.587-17.634,6.193-28.849,4.75-33.644c-1.434-4.789-4.707-7.823-9.759-9.012
				c-5.943-1.395-10.591,0.231-13.851,4.789c-3.273,4.559-6.128,12.821-8.644,24.757c-0.361,1.719-0.724,3.438-1.086,5.156
				c-2.803,13.314-4.021,23.202-3.729,29.655c0.302,6.458,3.416,10.317,9.401,11.724c3.679,0.865,7.231-0.066,10.737-2.808
				c3.492-2.741,7.278-11.79,11.287-27.19C533.434,73.723,533.731,72.583,534.028,71.441z"/>
		</g>
		<g>
			<path fill="#343465" stroke="#FFFFFF" stroke-miterlimit="10" d="M626.161,155.155c-3.29-1.554-6.589-3.077-9.896-4.567
				c1.042-23.623,1.137-47.458,0.271-71.446c-0.116-0.034-0.229-0.069-0.345-0.103c-8.105,20.407-16.211,40.814-24.316,61.222
				c-3.833-1.523-7.674-3.002-11.528-4.44c11.193-29.988,22.387-59.975,33.579-89.963c3.983,1.488,7.959,3.015,11.921,4.578
				c1.374,24.156,1.779,48.17,1.232,71.982c0.095,0.064,0.188,0.127,0.283,0.189c8.976-20.067,17.955-40.134,26.932-60.201
				c4.301,1.927,8.596,3.902,12.867,5.922C653.496,97.269,639.826,126.211,626.161,155.155z"/>
		</g>
		<g>
			<path fill="#343465" stroke="#FFFFFF" stroke-miterlimit="10" d="M745.117,126.289c-3.157-4.787-6.56-8.307-10.116-10.547
				c-3.562-2.241-7.261-3.101-11.038-2.578c-3.782,0.525-6.537,2.281-8.292,5.211c-1.235,2.069-1.808,4.722-1.751,7.955
				c0.05,3.234,1.103,8.979,2.924,17.229c1.812,8.253,2.708,15.068,2.843,20.453c0.133,5.385-1.443,10.45-4.627,15.213
				c-3.97,5.939-9.202,9.397-15.595,10.541c-6.402,1.144-12.725-0.26-19.151-4.168c-3.54-2.151-7.295-5.71-11.382-10.664
				c1.912-3.333,3.824-6.668,5.736-10.004c0.115,0.125,0.224,0.277,0.318,0.443c0.447,0.898,1.55,2.5,3.277,4.822
				c1.728,2.326,3.675,4.141,5.857,5.46c3.562,2.149,7.128,2.886,10.763,2.199c3.634-0.685,6.521-2.658,8.626-5.965
				c1.456-2.288,2.214-4.785,2.244-7.499c0.029-2.715-0.483-6.754-1.62-12.125c-0.994-4.778-2.05-9.561-3.16-14.346
				c-1.305-5.573-1.973-10.316-1.938-14.24c0.034-3.924,1.201-7.944,3.535-12.053c3.451-6.074,8.434-9.795,15.04-11.005
				c6.598-1.215,13.48,0.332,20.457,4.677c4.862,3.034,9.165,7.129,12.812,12.242C748.959,120.456,747.039,123.374,745.117,126.289z
				"/>
		</g>
	</g>
	<g>
		<g>
			<path fill="#343465" stroke="#FFFFFF" stroke-miterlimit="10" d="M63.75,165.515c6.268,10.743,3.656,19.355-7.574,26.462
				c-2.536,1.611-6.682,3.551-12.427,5.939c-2.177-3.26-4.354-6.519-6.531-9.776c5.129-1.309,8.756-2.61,10.915-3.995
				c2.253-1.445,3.56-3.296,3.946-5.58c0.378-2.284-0.216-4.707-1.807-7.27c-13.5-21.723-26.997-43.446-40.496-65.167
				c4.644-2.888,9.313-5.713,14.007-8.48C37.107,120.272,50.43,142.894,63.75,165.515z"/>
		</g>
		<g>
			<path fill="#343465" stroke="#FFFFFF" stroke-miterlimit="10" d="M93.07,114.607C83.949,95.88,80.267,82.665,82.233,74.953
				c1.938-7.686,8.329-14.057,19.091-18.674c12.319-5.269,21.891-5.265,28.366-0.42c6.512,4.848,12.784,15.689,18.993,32.393
				c5.568,14.966,8.596,25.651,9.16,32.037c0.553,6.392-0.588,11.687-3.402,15.925c-2.817,4.242-7.481,7.687-14.034,10.491
				c-6.755,2.892-12.431,4.002-17.151,3.221c-4.711-0.781-9.249-3.44-13.631-8.021C105.246,137.325,99.705,128.245,93.07,114.607z
				 M135.205,96.771c-6.765-16.919-12.133-26.897-16.167-29.889c-4.02-2.998-8.492-3.48-13.329-1.413
				c-5.687,2.436-8.522,6.531-8.473,12.147c0.043,5.626,2.631,13.979,7.696,25.076c0.728,1.597,1.458,3.195,2.186,4.795
				c5.648,12.378,10.552,21.049,14.641,26.06c4.1,5.009,8.955,6.24,14.682,3.785c3.52-1.505,5.863-4.375,7.086-8.673
				c1.212-4.29-1.096-13.827-7.005-28.603C136.083,98.961,135.644,97.867,135.205,96.771z"/>
		</g>
		<g>
			<path fill="#343465" stroke="#FFFFFF" stroke-miterlimit="10" d="M185.901,28.348c5.11-1.444,10.231-2.827,15.366-4.149
				c3.11,12.067,6.221,24.133,9.333,36.2c7.479-1.928,14.986-3.719,22.516-5.377c-2.681-12.169-5.36-24.338-8.041-36.508
				c5.168-1.137,10.347-2.214,15.535-3.23c6.161,31.409,12.324,62.817,18.486,94.225c-4.464,0.874-8.921,1.802-13.368,2.78
				c-3.421-15.531-6.841-31.062-10.261-46.592c-7.403,1.627-14.785,3.391-22.139,5.284c3.971,15.401,7.942,30.8,11.91,46.201
				c-4.416,1.137-8.825,2.327-13.221,3.57C203.311,89.95,194.608,59.147,185.901,28.348z"/>
		</g>
		<g>
			<path fill="#343465" stroke="#FFFFFF" stroke-miterlimit="10" d="M353.788,98.758c-3.553,0.117-7.106,0.263-10.657,0.444
				c-9.667-21.505-20.276-42.779-31.82-63.755c-0.116,0.02-0.232,0.041-0.349,0.062c2.076,21.859,4.149,43.717,6.225,65.576
				c-4.042,0.383-8.08,0.808-12.112,1.274c-3.678-31.796-7.356-63.59-11.034-95.384c4.172-0.483,8.345-0.924,12.522-1.332
				c12.065,20.896,23.196,42.103,33.381,63.554c0.112,0.013,0.224,0.026,0.333,0.039c-1.16-21.951-2.321-43.903-3.482-65.856
				c4.615-0.243,9.234-0.439,13.853-0.589C351.695,34.781,352.742,66.769,353.788,98.758z"/>
		</g>
		<g>
			<path fill="#343465" stroke="#FFFFFF" stroke-miterlimit="10" d="M443.501,18.447c-4.794-2.773-9.251-4.322-13.286-4.66
				c-4.04-0.34-7.589,0.61-10.603,2.817c-3.016,2.211-4.604,5.035-4.82,8.443c-0.15,2.406,0.53,5.026,2.003,7.866
				c1.473,2.845,4.91,7.459,10.096,13.929c5.188,6.475,8.939,12.097,11.416,16.802c2.477,4.707,3.347,9.918,2.718,15.614
				c-0.793,7.099-3.742,12.593-8.708,16.565c-4.975,3.981-11.003,5.666-18.239,5.164c-3.988-0.275-8.785-1.704-14.496-4.221
				c0.173-3.839,0.34-7.681,0.513-11.52c0.154,0.06,0.318,0.142,0.469,0.248c0.789,0.59,2.442,1.507,4.953,2.771
				c2.516,1.268,4.987,1.982,7.446,2.145c4.005,0.267,7.387-0.73,10.198-3.019c2.812-2.287,4.415-5.37,4.768-9.274
				c0.241-2.702-0.211-5.265-1.374-7.686c-1.171-2.418-3.38-5.762-6.727-10c-2.959-3.777-5.969-7.532-9.04-11.266
				c-3.578-4.346-6.258-8.248-7.959-11.749c-1.705-3.501-2.48-7.606-2.286-12.328c0.283-6.981,2.928-12.574,8.079-16.689
				c5.133-4.115,11.736-5.915,19.625-5.284c5.509,0.439,10.986,2.078,16.345,4.912C444.229,11.5,443.867,14.974,443.501,18.447z"/>
		</g>
		<g>
			<path fill="#343465" stroke="#FFFFFF" stroke-miterlimit="10" d="M490.194,60.928c3.786-20.482,8.622-33.31,14.689-38.364
				c6.035-5.049,14.812-6.413,26.065-3.776c12.877,3.03,20.517,8.688,22.824,16.423c2.335,7.754,0.948,20.203-3.957,37.333
				c-4.393,15.354-8.286,25.752-11.611,31.232c-3.333,5.479-7.373,9.067-12.119,10.821s-10.495,1.776-17.342,0.166
				c-7.06-1.661-12.197-4.115-15.462-7.533c-3.26-3.411-5.275-8.236-6.046-14.517C486.473,86.433,487.43,75.84,490.194,60.928z
				 M534.028,71.441c4.587-17.634,6.193-28.849,4.75-33.644c-1.434-4.789-4.707-7.823-9.759-9.012
				c-5.943-1.395-10.591,0.231-13.851,4.789c-3.273,4.559-6.128,12.821-8.644,24.757c-0.361,1.719-0.724,3.438-1.086,5.156
				c-2.803,13.314-4.021,23.202-3.729,29.655c0.302,6.458,3.416,10.317,9.401,11.724c3.679,0.865,7.231-0.066,10.737-2.808
				c3.492-2.741,7.278-11.79,11.287-27.19C533.434,73.723,533.731,72.583,534.028,71.441z"/>
		</g>
		<g>
			<path fill="#343465" stroke="#FFFFFF" stroke-miterlimit="10" d="M626.161,155.155c-3.29-1.554-6.589-3.077-9.896-4.567
				c1.042-23.623,1.137-47.458,0.271-71.446c-0.116-0.034-0.229-0.069-0.345-0.103c-8.105,20.407-16.211,40.814-24.316,61.222
				c-3.833-1.523-7.674-3.002-11.528-4.44c11.193-29.988,22.387-59.975,33.579-89.963c3.983,1.488,7.959,3.015,11.921,4.578
				c1.374,24.156,1.779,48.17,1.232,71.982c0.095,0.064,0.188,0.127,0.283,0.189c8.976-20.067,17.955-40.134,26.932-60.201
				c4.301,1.927,8.596,3.902,12.867,5.922C653.496,97.269,639.826,126.211,626.161,155.155z"/>
		</g>
		<g>
			<path fill="#343465" stroke="#FFFFFF" stroke-miterlimit="10" d="M745.117,126.289c-3.157-4.787-6.56-8.307-10.116-10.547
				c-3.562-2.241-7.261-3.101-11.038-2.578c-3.782,0.525-6.537,2.281-8.292,5.211c-1.235,2.069-1.808,4.722-1.751,7.955
				c0.05,3.234,1.103,8.979,2.924,17.229c1.812,8.253,2.708,15.068,2.843,20.453c0.133,5.385-1.443,10.45-4.627,15.213
				c-3.97,5.939-9.202,9.397-15.595,10.541c-6.402,1.144-12.725-0.26-19.151-4.168c-3.54-2.151-7.295-5.71-11.382-10.664
				c1.912-3.333,3.824-6.668,5.736-10.004c0.115,0.125,0.224,0.277,0.318,0.443c0.447,0.898,1.55,2.5,3.277,4.822
				c1.728,2.326,3.675,4.141,5.857,5.46c3.562,2.149,7.128,2.886,10.763,2.199c3.634-0.685,6.521-2.658,8.626-5.965
				c1.456-2.288,2.214-4.785,2.244-7.499c0.029-2.715-0.483-6.754-1.62-12.125c-0.994-4.778-2.05-9.561-3.16-14.346
				c-1.305-5.573-1.973-10.316-1.938-14.24c0.034-3.924,1.201-7.944,3.535-12.053c3.451-6.074,8.434-9.795,15.04-11.005
				c6.598-1.215,13.48,0.332,20.457,4.677c4.862,3.034,9.165,7.129,12.812,12.242C748.959,120.456,747.039,123.374,745.117,126.289z
				"/>
		</g>
	</g>
	<g>
		<path fill="#343465" stroke="#FFFFFF" stroke-miterlimit="10" d="M42.923,200.648l-9.269-13.874l3.019-0.771
			c4.936-1.259,8.392-2.51,10.27-3.714c1.714-1.098,2.683-2.438,2.961-4.092c0.292-1.757-0.201-3.637-1.505-5.738L6.74,105.421
			l1.872-1.166c4.659-2.896,9.343-5.729,14.052-8.505l1.902-1.12l41.083,69.764c6.843,11.728,4.051,21.633-8.292,29.445
			c-2.513,1.596-6.57,3.537-12.761,6.113L42.923,200.648z M40.756,189.466l3.816,5.713c5.013-2.125,8.349-3.747,10.422-5.062
			c10.383-6.574,12.497-13.818,6.852-23.49l-38.843-65.954c-3.408,2.024-6.806,4.081-10.189,6.167l39.332,63.294
			c1.867,3.008,2.577,5.966,2.108,8.794c-0.491,2.914-2.149,5.291-4.929,7.073C47.433,187.214,44.671,188.334,40.756,189.466z"/>
	</g>
	<g>
		<path fill="#343465" stroke="#FFFFFF" stroke-miterlimit="10" d="M126.322,152.375c-1.189,0-2.33-0.09-3.425-0.274
			c-5.182-0.858-10.182-3.776-14.865-8.671c-4.58-4.791-10.282-14.165-16.945-27.858c-9.49-19.485-13.086-32.95-10.991-41.164
			c2.143-8.497,8.993-15.28,20.358-20.155c12.888-5.508,23.371-5.538,30.557-0.159c6.817,5.073,13.275,15.997,19.739,33.39
			c5.577,14.987,8.702,25.961,9.29,32.612c0.594,6.854-0.672,12.686-3.762,17.34c-3.045,4.584-7.953,8.282-15.002,11.296
			C135.55,151.184,130.659,152.375,126.322,152.375z M117.991,54.479c-4.548,0-9.863,1.288-15.799,3.826
			C92.157,62.611,86.16,68.394,84.371,75.492c-1.803,7.067,1.793,19.899,10.683,38.151c6.462,13.282,11.901,22.278,16.165,26.738
			c4.01,4.19,8.181,6.671,12.399,7.371c4.251,0.702,9.526-0.335,15.922-3.072c6.236-2.668,10.509-5.836,13.065-9.684
			c2.523-3.801,3.546-8.685,3.042-14.516c-0.553-6.253-3.592-16.839-9.032-31.459c-6.072-16.341-12.209-26.904-18.241-31.394
			C125.58,55.539,122.089,54.479,117.991,54.479z M131.025,140.762L131.025,140.762c-4.121,0-7.814-1.957-10.974-5.815
			c-4.259-5.22-9.286-14.148-14.942-26.542l-2.185-4.798c-5.268-11.538-7.849-20.032-7.894-25.972
			c-0.059-6.509,3.335-11.419,9.81-14.19c5.53-2.367,10.877-1.788,15.515,1.671c4.425,3.282,9.795,13.082,16.897,30.838l1.316,3.288
			c6.134,15.343,8.452,25.163,7.078,30.021c-1.404,4.938-4.21,8.335-8.34,10.101C135.141,140.291,133.026,140.762,131.025,140.762z
			 M111.421,66.416c-1.536,0-3.168,0.363-4.847,1.083c-4.84,2.074-7.175,5.377-7.134,10.1c0.041,5.235,2.562,13.368,7.498,24.18
			l2.186,4.797c5.498,12.048,10.323,20.655,14.342,25.58c2.312,2.823,4.784,4.197,7.56,4.197l0,0c1.399,0,2.929-0.351,4.544-1.044
			c2.892-1.236,4.799-3.607,5.835-7.25c0.609-2.153,0.519-8.551-6.932-27.182l-1.314-3.284
			c-8.219-20.552-12.931-27.08-15.436-28.937C115.702,67.147,113.642,66.416,111.421,66.416z"/>
	</g>
	<g>
		<path fill="#343465" stroke="#FFFFFF" stroke-miterlimit="10" d="M210.495,123.473L183.18,26.826l2.121-0.598
			c5.127-1.452,10.265-2.839,15.418-4.165l2.134-0.549l9.333,36.204c6.046-1.537,12.186-3.001,18.304-4.371l-8.041-36.512
			l2.153-0.474c5.186-1.142,10.379-2.22,15.583-3.241l2.164-0.424l19.335,98.552l-2.164,0.424c-4.447,0.87-8.89,1.796-13.319,2.769
			l-2.153,0.474l-10.261-46.587c-5.892,1.318-11.854,2.741-17.772,4.242l11.908,46.196l-2.136,0.551
			c-4.399,1.133-8.79,2.319-13.172,3.556L210.495,123.473z M188.624,29.873l24.916,88.161c3.002-0.836,6.005-1.648,9.014-2.434
			l-11.91-46.205l2.137-0.551c7.388-1.901,14.862-3.684,22.214-5.302l2.154-0.474l10.26,46.597c3.029-0.655,6.064-1.286,9.1-1.894
			l-17.636-89.897c-3.728,0.743-7.45,1.518-11.167,2.323l8.039,36.503l-2.154,0.474c-7.498,1.651-15.047,3.454-22.437,5.359
			l-2.137,0.55l-9.333-36.198C195.99,27.851,192.303,28.846,188.624,29.873z"/>
	</g>
	<g>
		<path fill="#343465" stroke="#FFFFFF" stroke-miterlimit="10" d="M303.137,104.805l-11.54-99.768l2.189-0.251
			c4.184-0.485,8.372-0.928,12.563-1.335l1.413-0.137l0.71,1.229c10.3,17.838,20.054,36.157,29.062,54.579l-3.058-57.826
			l2.203-0.116c4.629-0.243,9.264-0.439,13.897-0.59l2.203-0.073l3.284,100.374l-2.203,0.071c-3.54,0.117-7.081,0.263-10.618,0.444
			l-1.505,0.075l-0.618-1.374c-8.299-18.462-17.369-36.891-27.022-54.908l5.493,57.875l-2.194,0.207
			c-4.027,0.383-8.049,0.806-12.067,1.271L303.137,104.805z M296.484,8.916l10.528,91.006c2.588-0.291,5.179-0.562,7.771-0.819
			l-6.208-65.394l3.551-0.658l1.115,1.333c11.239,20.42,21.757,41.454,31.282,62.542c2.328-0.112,4.658-0.211,6.988-0.295
			l-2.996-91.561c-3.135,0.114-6.268,0.245-9.401,0.4l3.504,66.263l-3.81-0.448l-0.857-1.141
			c-9.953-20.958-20.914-41.867-32.589-62.165C302.402,8.273,299.443,8.584,296.484,8.916z"/>
	</g>
	<g>
		<path fill="#343465" stroke="#FFFFFF" stroke-miterlimit="10" d="M416.516,103.279c-0.85,0-1.71-0.031-2.589-0.091
			c-4.187-0.291-9.169-1.731-15.237-4.404l-1.378-0.609l0.719-16.099l2.864,1.115c0.336,0.129,0.65,0.297,0.935,0.496
			c0.706,0.527,2.261,1.391,4.678,2.607c2.273,1.146,4.431,1.772,6.602,1.915c3.437,0.23,6.279-0.593,8.661-2.528
			c2.369-1.927,3.665-4.466,3.962-7.763c0.206-2.33-0.172-4.468-1.167-6.533c-1.142-2.358-3.381-5.676-6.469-9.587
			c-2.955-3.771-5.952-7.513-9.01-11.234c-3.807-4.619-6.503-8.605-8.243-12.186c-1.869-3.837-2.713-8.34-2.507-13.381
			c0.314-7.686,3.312-13.85,8.907-18.32c5.594-4.481,12.695-6.419,21.18-5.761c5.814,0.465,11.603,2.201,17.196,5.162l1.318,0.696
			l-1.602,15.284l-2.938-1.703c-4.475-2.586-8.635-4.057-12.369-4.371c-3.453-0.287-6.537,0.51-9.117,2.398
			c-2.459,1.807-3.742,4.033-3.919,6.805c-0.125,1.964,0.47,4.223,1.761,6.712c1.279,2.472,4.32,6.656,9.854,13.564
			c5.064,6.316,8.984,12.087,11.649,17.153c2.645,5.028,3.64,10.707,2.959,16.882c-0.849,7.6-4.053,13.67-9.522,18.048
			C428.939,101.349,423.16,103.279,416.516,103.279z M401.851,95.344c4.957,2.082,9.019,3.212,12.377,3.443
			c6.71,0.452,12.176-1.057,16.711-4.684c4.591-3.671,7.171-8.607,7.894-15.09c0.591-5.356-0.22-10.048-2.477-14.341
			c-2.536-4.82-6.3-10.354-11.188-16.452c-5.801-7.239-8.894-11.514-10.332-14.292c-1.661-3.208-2.415-6.242-2.243-9.019
			c0.258-4.1,2.184-7.491,5.715-10.083c3.453-2.526,7.537-3.621,12.094-3.235c3.518,0.296,7.291,1.424,11.249,3.367l0.59-5.653
			c-4.646-2.269-9.406-3.611-14.169-3.99c-7.262-0.582-13.372,1.038-18.071,4.806c-4.621,3.69-6.994,8.616-7.253,15.058
			c-0.177,4.303,0.518,8.094,2.063,11.273c1.589,3.265,4.1,6.964,7.679,11.312c3.084,3.75,6.106,7.518,9.074,11.31
			c3.325,4.21,5.677,7.711,6.978,10.398c1.33,2.767,1.86,5.741,1.584,8.842c-0.404,4.483-2.282,8.111-5.573,10.788
			c-3.237,2.634-7.188,3.789-11.735,3.51c-2.73-0.181-5.521-0.979-8.295-2.377c-0.913-0.46-1.705-0.87-2.386-1.236L401.851,95.344z"
			/>
	</g>
	<g>
		<path fill="#343465" stroke="#FFFFFF" stroke-miterlimit="10" d="M517.96,118.148c-2.954,0-6.228-0.416-9.721-1.238
			c-7.605-1.79-13.02-4.458-16.551-8.157c-3.583-3.747-5.818-9.053-6.641-15.771c-0.797-6.572,0.202-17.49,2.979-32.456
			c3.937-21.308,8.988-34.279,15.444-39.656c6.62-5.539,16.163-6.997,27.98-4.229c13.618,3.204,21.84,9.24,24.437,17.939
			c2.446,8.125,1.154,20.744-3.953,38.571c-4.397,15.375-8.386,26.064-11.844,31.769c-3.57,5.868-8.027,9.819-13.243,11.747
			C524.191,117.648,521.198,118.148,517.96,118.148z M520.514,19.679c-5.801,0-10.586,1.54-14.212,4.576
			c-5.561,4.63-10.246,17.102-13.941,37.074c-2.691,14.524-3.678,24.994-2.938,31.118c0.707,5.751,2.541,10.213,5.452,13.258
			c2.93,3.064,7.628,5.323,14.372,6.91c6.451,1.518,11.822,1.481,16.073-0.086c4.264-1.574,7.963-4.906,11.003-9.899
			c3.256-5.368,7.081-15.694,11.374-30.694c4.798-16.753,6.133-28.895,3.967-36.09c-2.115-7.081-9.256-12.098-21.22-14.912
			C526.888,20.101,523.546,19.679,520.514,19.679z M513.743,107.383c-1.033,0-2.088-0.125-3.135-0.371
			c-6.917-1.625-10.754-6.385-11.099-13.766c-0.306-6.709,0.965-16.874,3.772-30.214l1.085-5.155
			c2.619-12.418,5.564-20.789,9.01-25.588c3.79-5.302,9.329-7.254,16.146-5.65c5.784,1.361,9.712,5,11.365,10.526
			c1.586,5.267,0.087,16.334-4.724,34.832l-0.892,3.426c-4.164,15.986-8.109,25.268-12.063,28.37
			C520.16,106.175,516.978,107.383,513.743,107.383z M525.096,30.506c-3.376,0-6.037,1.424-8.135,4.352
			c-3.041,4.236-5.823,12.285-8.278,23.928l-1.085,5.155c-2.73,12.976-3.971,22.767-3.687,29.103
			c0.254,5.424,2.704,8.501,7.705,9.675c3.036,0.715,5.891-0.065,8.876-2.399c1.753-1.376,5.456-6.59,10.512-26.009l0.87-3.352
			c5.591-21.491,5.69-29.544,4.794-32.527c-1.21-4.042-3.876-6.494-8.152-7.5C527.31,30.65,526.16,30.506,525.096,30.506z"/>
	</g>
	<g>
		<path fill="#343465" stroke="#FFFFFF" stroke-miterlimit="10" d="M627.213,158.09l-1.994-0.941
			c-3.277-1.548-6.564-3.066-9.858-4.55l-1.365-0.616l0.069-1.492c0.896-20.315,1.085-40.972,0.563-61.547l-21.517,54.181
			l-2.05-0.813c-3.819-1.518-7.644-2.991-11.485-4.426l-2.068-0.771l35.122-94.095l2.067,0.773
			c3.996,1.493,7.984,3.023,11.959,4.591l1.313,0.519l0.078,1.408c1.18,20.704,1.649,41.587,1.408,62.219l23.726-53.037l2.011,0.9
			c4.315,1.934,8.626,3.915,12.912,5.941l1.99,0.943L627.213,158.09z M618.529,149.192c2.197,0.997,4.389,2.007,6.577,3.03
			l39.117-82.839c-2.932-1.376-5.874-2.728-8.82-4.06l-27.089,60.553l-3.187-2.103l-0.255-1.408
			c0.534-23.261,0.146-46.937-1.149-70.396c-2.829-1.111-5.663-2.201-8.506-3.273l-32.037,85.83
			c2.493,0.941,4.979,1.897,7.459,2.873l24.247-61.05l3.449,1.025l0.404,1.686C619.585,102.452,619.512,126.04,618.529,149.192z"/>
	</g>
	<g>
		<path fill="#343465" stroke="#FFFFFF" stroke-miterlimit="10" d="M695.154,192.356c-5.287,0-10.668-1.641-15.985-4.875
			c-3.7-2.249-7.606-5.894-11.938-11.144l-0.97-1.177l7.899-13.775l2.123,2.041c0.228,0.246,0.435,0.532,0.62,0.853
			c0.418,0.831,1.451,2.343,3.131,4.6c1.546,2.082,3.304,3.728,5.228,4.89c3.118,1.884,6.115,2.5,9.213,1.918
			c3.062-0.577,5.41-2.207,7.175-4.982c1.254-1.968,1.873-4.04,1.899-6.337c0.03-2.625-0.513-6.651-1.572-11.646
			c-0.99-4.769-2.045-9.535-3.152-14.303c-1.377-5.885-2.028-10.712-1.993-14.759c0.037-4.309,1.325-8.723,3.824-13.123
			c3.807-6.703,9.375-10.769,16.56-12.084c7.131-1.322,14.62,0.368,22.019,4.975c5.125,3.197,9.647,7.515,13.441,12.832l0.879,1.232
			l-8.437,12.805l-1.839-2.792c-2.955-4.477-6.134-7.806-9.453-9.895c-3.101-1.953-6.293-2.7-9.561-2.261
			c-3.093,0.431-5.285,1.792-6.701,4.16c-1.004,1.683-1.485,3.965-1.438,6.784c0.042,2.821,0.93,8,2.872,16.792
			c1.779,8.092,2.752,15.114,2.894,20.875c0.143,5.767-1.537,11.316-4.995,16.492c-4.256,6.359-9.988,10.225-17.042,11.486
			C698.294,192.214,696.714,192.356,695.154,192.356z M671.609,174.695c3.613,4.236,6.844,7.192,9.851,9.018
			c6.024,3.667,11.77,4.932,17.619,3.883c5.908-1.058,10.538-4.197,14.146-9.596c2.946-4.403,4.377-9.092,4.256-13.935
			c-0.134-5.478-1.072-12.217-2.792-20.032c-2.036-9.214-2.924-14.499-2.976-17.668c-0.064-3.65,0.633-6.721,2.063-9.119
			c2.119-3.541,5.443-5.649,9.884-6.264c4.29-0.603,8.518,0.385,12.516,2.894c3.126,1.97,6.103,4.821,8.879,8.499l3.137-4.763
			c-3.26-4.29-7.055-7.797-11.292-10.442c-6.452-4.018-12.848-5.501-18.891-4.379c-5.921,1.085-10.344,4.333-13.522,9.927
			c-2.123,3.738-3.216,7.433-3.247,10.982c-0.035,3.688,0.581,8.176,1.882,13.719c1.115,4.804,2.171,9.604,3.17,14.397
			c1.137,5.375,1.701,9.617,1.666,12.6c-0.034,3.101-0.903,6.014-2.587,8.658c-2.426,3.807-5.815,6.144-10.079,6.947
			c-4.155,0.789-8.29-0.049-12.312-2.476c-2.416-1.462-4.6-3.493-6.485-6.036c-0.668-0.898-1.237-1.675-1.711-2.349L671.609,174.695
			z"/>
	</g>
</g>
</svg>
