<?xml version="1.0" encoding="utf-8"?>
<!-- Generator: Adobe Illustrator 16.0.4, SVG Export Plug-In . SVG Version: 6.00 Build 0)  -->
<!DOCTYPE svg PUBLIC "-//W3C//DTD SVG 1.1//EN" "http://www.w3.org/Graphics/SVG/1.1/DTD/svg11.dtd">
<svg version="1.1" id="Layer_1" xmlns="http://www.w3.org/2000/svg" xmlns:xlink="http://www.w3.org/1999/xlink" x="0px" y="0px" viewBox="0 0 773.094 668.905" enable-background="new 0 0 773.094 668.905"
	 xml:space="preserve">
<g>
	<g>
		<path d="M772.25,134.669"/>
	</g>
	<g>
		<path d="M636.967,303.824"/>
	</g>
	<g>
		<path stroke="#FFFFFF" stroke-miterlimit="10" d="M599.882,254.807l-9.492-14.963c0,0,4.431-28.582-1.578-38.703
			c-6.012-10.121-25.299-16.445-31.629-18.344c-6.329-1.896-12.017-3.164-13.282-10.751c-1.266-7.59-6.643-20.557-11.704-24.035
			c0,0,6.643-1.902,11.387,0.318c0,0-3.568-16.454-22.024-34.479c0,0,4.312-35.738,3.364-47.441c0,0-3.259-2.213-7.639-3.478
			c-4.379-1.266-5.961-1.266-11.655-7.591c-5.688-6.326-8.045-5.061-16.832-25.299C480.012,9.796,467.49,8.53,460.31,6.948
			c-7.18-1.581-18.218,3.478-31.993-2.528c-13.771-6.011-23.647-5.063-33.894,2.528c-10.243,7.59-14.183,17.396-14.183,17.396
			s-23.404-1.582-28.074,4.744c-4.672,6.325-6.571,13.286-10.047,16.606c-3.483,3.319-13.282,13.439-12.018,18.817
			c1.264,5.376,1.264,5.376,1.264,5.376s0.948,2.626-4.111,1.786c-5.059-0.838-12.019,0.744-15.497,2.01
			c-3.483,1.265-21.826,1.582-21.826,1.582s4.292,13.282,12.582,15.498c0,0,0.703,1.927-6.571,1.281
			c-7.275-0.648-31.627-3.228-31.627-3.228s8.223,14.597,3.162,13.966c-5.062-0.633-45.86-1.584-64.205,6.641
			c-18.344,8.222-23.14,24.983-27.514,44.114c0,0-30.995-6.474-35.736,25.148c0,0-31.945,6.959-31.945,41.431
			c0,0-49.022,0.633-23.407,49.657c0,0-1.263,51.552,49.337,67.369c0,0-5.182,16.126-1.479,36.687l-6.81,65.491L21.102,482.307
			l-13.603,3.482l24.986,25.299l2.532,122.713L23.313,665.43l170.472-40.794l10.375,42.373l14.611-48.386l208.426-44.104
			l-7.904,15.104c0,0,33.843-7.69,43.325-11.171c9.491-3.476,19.294-12.966,19.294-12.966l101.84-17.077l111.644-13.601
			c0,0,31.63-3.479,39.538-11.387c7.904-7.907,6.639-34.029,6.639-42.792c0-8.757-4.426-21.728-9.801-27.735l9.801-0.951v-46.49
			c0,0,2.534-13.914-22.139-21.508c-24.668-7.592-100.892-20.239-100.892-20.239s0.953-11.703-1.265-14.229
			c-2.214-2.535-2.526-10.541-1.9-15.237c0.635-4.692-1.579-20.186-4.742-24.303c-3.162-4.11-5.062-7.821-5.062-7.821"/>
	</g>
	<g>
		<path d="M772.25,133.403"/>
	</g>
	<g>
		<g>
			<path fill="#A62B43" d="M497.141,64.19c0,0-12.52-12.158-16.874-23.224c-4.355-11.071-9.072-17.603-24.857-19.6
				c-15.784-1.994-15.42,3.086-13.606,4.355c1.813,1.27,13.606,9.254,12.522,9.621c-1.094,0.36-14.885-0.729-23.412-5.627
				c-8.526-4.898-24.312-13.074-29.756-8.805c-5.445,4.267-18.872,16.606-21.956,23.502c-3.085,6.896-4.356,9.799,6.35,13.971
				c10.705,4.175,41.186,12.521,65.143,13.245C474.643,72.354,497.141,64.19,497.141,64.19z"/>
		</g>
		<g>
			<path fill="#A62B43" d="M517.285,104.651V82.879c0,0-6.896-1.813-8.17,5.444c-1.269,7.256-0.356,10.522,1.818,11.972
				C513.111,101.749,517.285,104.651,517.285,104.651z"/>
		</g>
		<g>
			<rect x="486.44" y="84.875" fill="#A62B43" width="10.701" height="14.333"/>
		</g>
		<g>
			<path fill="#A62B43" d="M478.27,86.326c0,0-14.513,1.594-45.543-3.649c0,0-29.753-7.601-41.002-12.136l-13.427,31.208
				l4.715,1.996c0,0,1.813-11.248,7.619-17.601c5.808-6.35,13.787-8.567,24.132-3.467s18.327,14.718,18.327,14.718
				s4.9-4.536,8.343,0.182c3.451,4.717,7.807,20.319,9.445,24.677c1.628,4.357,3.077,9.616,5.075,4.9
				c1.998-4.722,8.347-24.135,8.347-24.135l6.349,6.896c0,0,3.993-5.082,5.445-7.804C477.548,99.389,478.637,88.321,478.27,86.326z"
				/>
		</g>
		<g>
			<polygon fill="#A62B43" points="383.735,68.001 373.396,61.832 356.341,93.665 370.042,99.208 			"/>
		</g>
		<g>
			<polyline fill="#A62B43" points="363.962,57.112 357.247,53.847 340.373,80.521 346.181,85.964 363.962,57.838 			"/>
		</g>
		<g>
			<g>
				<path fill="#6E4D29" d="M445.615,133.503c0,0-3.627-23.772-7.075-28.852c0,0-5.264,5.08-5.992,7.44
					c-0.725,2.36-0.725-1.633-1.631-4.898c-0.907-3.267-3.446-9.436-4.358-5.989c-0.904,3.446,0,5.808,0,5.808
					s-3.983-7.46-8.707-13.349c-4.72-5.888-19.78-5.888-22.318-2.801c0,0-0.361,1.612,2.178,2.801
					c2.541,1.189,4.172,3.186,0.908,4.456c-3.268,1.269-9.616,3.811-11.253,5.442c-1.633,1.633-3.812,5.263,2.726,3.087
					c6.533-2.176,14.696-1.996,18.691,1.451c3.988,3.447,11.427,10.525,17.235,11.611c5.805,1.089,9.432,3.447,12.338,5.805
					C441.258,127.88,445.615,133.503,445.615,133.503z"/>
			</g>
			<g>
				<path fill="#6E4D29" d="M460.31,130.965l4.536-17.242l7.438,3.996c0,0,9.076-11.796,16.514-13.067v7.26
					c0,0,6.354-6.351,9.253-7.26c2.902-0.906,15.061-1.087,19.234,17.056C517.285,121.708,484.986,112.456,460.31,130.965z"/>
			</g>
			<g>
				<path fill="#6E4D29" d="M514.379,137.493l13.975,1.815c0,0-1.996-6.349-11.069-8.343c-9.074-2-14.516-3.448-14.516-3.448
					l-2.178,13.425c0,0-5.987-0.726-6.894-1.269c-0.909-0.544-7.258-0.364-8.347,1.269c-1.089,1.635-4.578,1.816-7.008,0
					c-2.432-1.813-5.33-3.812-5.33-3.812s5.984,17.059,10.34,17.781c4.355,0.726,17.6-5.077,26.13,9.438h-9.98
					c0,0,2.907,3.99,5.08,5.625c2.178,1.633,1.271,11.972,1.089,13.246c-0.184,1.269-4.171-4.9-4.171-4.9s-2.182,8.527-5.445,7.801
					c-3.267-0.725-7.258-2.178-7.258-2.178s5.622,7.263,2.907,8.893c-2.728,1.633-10.529,4.899-11.069,8.892
					c-0.549,3.991,0,6.896-1.453,6.35c-1.454-0.544-9.076-2.356-13.247-3.988c-4.172-1.635-11.979-1.273-20.32,2.538
					c-8.348,3.808-17.298,8.711-17.298,8.711s6.229-10.165,14.396-15.245c0,0-11.069-2.359-19.781-1.27
					c-8.711,1.092-19.413,3.45-19.413,3.45s5.262-9.616,27.76-12.157c0,0,14.701-0.728,23.588,1.995
					c8.892,2.721,14.877,4.535,20.505-2.902c5.625-7.438,10.16-12.701,11.069-13.793c0.904-1.088,3.812-10.883-9.439-10.161
					c-13.243,0.726-33.498,2.541-48.684,5.263c-15.186,2.721-30.606,8.89-49.115,10.89c-18.507,1.996-36.29,1.266-37.56,0.178
					c-1.269-1.089,13.247-6.351,10.705-11.068c-2.538-4.717-2.901-19.233,4.542-27.035c0,0,1.084-2.178-3.27-1.452
					c-4.353,0.728-10.888,0.363-6.169-3.083c4.717-3.45,11.43-5.443,11.43-5.443s-2.539-3.367-4.534-4.495
					c-2-1.132,3.446-2.684,10.523,0c7.078,2.679,11.98,5.764,28.486,16.287c16.514,10.525,25.041,16.331,30.846,16.692
					c5.809,0.366,16.878-0.182,16.334-3.445c-0.545-3.268-8.348-18.87-10.89-21.229c-2.538-2.357-6.166-2.721-8.162-0.547
					c-2.003,2.181-6.534,6.169-8.712,1.816c-2.178-4.354-7.258-11.248-11.975-12.154c-4.719-0.911-5.989-3.815-3.63-5.265
					c2.357-1.451-0.182-3.038-5.262-3.516c-5.08-0.476-11.429-2.109-11.794-5.192c-0.364-3.086-3.631-7.622-22.864-7.804
					c-19.234-0.178-35.745,4.307-32.119,6.508c3.631,2.204,14.88,7.646,13.794,9.279c-1.089,1.635-7.622-1.449-15.969,3.812
					c-8.348,5.262-18.872,9.978-22.134,9.253c-3.268-0.727-4.722,2.358,2.536,7.073c7.26,4.72,12.16,6.174,15.787,6.174
					c3.631,0,11.432-0.546,10.523,1.449c-0.906,1.997-10.338,9.8-21.045,10.525c-10.708,0.728-20.508,1.267-20.508,1.267
					s9.8,10.164,23.23,18.147c13.427,7.981,23.585,11.795,20.68,13.972c-2.901,2.178-23.95,5.263-35.199,3.451
					c0,0,0.07,4.653,19.967,14.159c19.898,9.508,34.516,7.921,34.516,7.921s-8.452,10.216-32.579,13.211
					c0,0,12.502,11.622,29.23,13.556c16.731,1.94,34.868-4.75,34.868-4.75s-0.881,8.095-10.213,15.317
					c-9.334,7.219-14.089,9.509-14.089,9.509s16.022,14.259,32.75,13.911c16.733-0.352,18.846-1.762,23.248-8.629
					c4.397-6.868,10.035-8.275,14.438-8.983c4.402-0.701,12.503-2.288,14.618-5.104c2.11-2.816,10.74-3.874,13.027-8.45
					c2.288-4.58-1.763-13.56,15.318-16.024c17.078-2.466,28.17-1.583,30.812-2.817c2.644-1.235,4.057-19.019,4.057-22.361
					c0-3.348,0.349-6.518,5.105-2.996c4.75,3.522,13.908,7.924,14.438,7.396c0.528-0.529-0.182-14.211,0.876-18.901
					c1.062-4.697,4.407-16.668-0.524-23.359c-4.931-6.69-12.327-13.735-11.27-13.91c1.055-0.177,11.446,0.175,11.446,0.175
					L514.379,137.493z"/>
			</g>
		</g>
		<g>
			<path fill="#FFFFFF" d="M417.193,166.569c0,0-10.368,4.52-15.417,4.52v-5.584L417.193,166.569z"/>
		</g>
		<g>
			<path fill="#FFFFFF" d="M394.064,162.847h-10.329v12.762C383.735,175.609,396.723,176.405,394.064,162.847z"/>
		</g>
		<g>
			<path fill="#FFFFFF" d="M380.241,162.847h-17.808c0,0-1.266,7.708,7.608,10.898c8.871,3.19,10.199,1.062,10.199,1.062V162.847z"
				/>
		</g>
		<g>
			<path fill="#FFFFFF" d="M373.064,139.985v17.517h-13.559C359.506,157.502,358.977,136.797,373.064,139.985z"/>
		</g>
		<g>
			<polygon fill="#FFFFFF" points="383.735,146.084 383.735,159.128 405.493,160.988 			"/>
		</g>
		<g>
			<path fill="#FFFFFF" d="M404.169,113.404l26.575,13.557c0,0-7.175,8.241-18.604,0
				C400.71,118.719,404.169,113.404,404.169,113.404z"/>
		</g>
		<g>
			<path fill="#D8C5B0" d="M149.06,233.873c0,0-11.893-8.415-16.531-8.415l-10.736,9.863c0,0-12.468-1.448-22.62,1.742
				c-10.157,3.19-8.993,14.502,2.318,22.628c11.31,8.12,30.749,11.313,47.569,13.343c16.823,2.027,32.783,8.12,39.163,14.505
				c0,0-58.015-13.924-62.659,7.831c-4.642,21.755,38.003,35.68,88.185,33.359c0,0,20.305-0.195,29.587,4.832
				c9.281,5.032,14.212,10.833,16.537,17.507c2.319,6.667,3.771,20.881,11.312,25.236c7.542,4.348,15.297,2.029,16.927,0
				c1.638-2.034,3.959-2.034,5.698-0.584c1.743,1.449,8.993,3.772,15.666,0.584c6.67-3.196,7.541-4.646,8.122-7.544
				c0.579-2.902,2.902-3.483,5.221-2.033c2.32,1.452,8.12,0.873,13.346-0.58c5.219-1.449,6.671-9.858,6.671-9.858
				s3.478,4.638,9.281,1.735c5.803-2.899,10.443-6.956,7.835-14.5c-2.613-7.542-7.256-6.096-10.154-6.672
				c-2.902-0.583-15.378-7.544-18.856-16.249c0,0,9.863,5.803,9.281,3.484c-0.581-2.318-8.993-7.833-9.861-16.243
				c-0.872-8.411-0.581-17.404-0.581-17.404s4.639,15.079,6.671,15.079c2.031,0,3.481-12.471,3.481-12.471s4.062,4.354,8.993,5.514
				c4.93,1.159,4.644-4.062,2.031-7.834c-2.611-3.771-11.606-12.177-20.015-12.327c-8.411-0.146-15.951,3.045-17.113,5.945
				c-1.162,2.902-10.154,6.094-19.147,8.413c-8.993,2.32-20.305,8.993-27.267,19.146c0,0-2.609-5.803,2.319-16.825
				c0,0-7.831,1.164-11.313,8.704c0,0-2.608-9.57,0.291-11.312c2.899-1.743-1.112-5.223-5.194-7.834
				c-4.089-2.613-31.354-19.435-45.569-30.748c-14.211-11.31-21.463-17.115-35.969-16.825c-14.502,0.29-32.195,2.208-32.195,2.208
				L149.06,233.873z"/>
		</g>
		<g>
			<path fill="#6E4D29" d="M185.598,374.066c0,0-12.351-7.688-14.449-15.378l-23.297,8.856c0,0,5.129,12.812,13.744,13.514
				L185.598,374.066z"/>
		</g>
		<g>
			<polygon fill="#6E4D29" points="353.123,324.176 416.942,311.008 416.942,299.852 346.877,315.026 			"/>
		</g>
		<g>
			<g>
				<path fill="#CFC08E" d="M435.801,134.669c0,0,5.582,19.939,18.605,22.065c13.023,2.126,17.549,0,15.688-8.242
					c-1.865-8.237-6.275-11.961-9.785-11.427C456.801,137.595,447.498,139.457,435.801,134.669z"/>
			</g>
			<g>
				<path fill="#CFC08E" d="M288.112,122.013c0,0-25.338-5.043-56.955-2.725l11.889,14.215L288.112,122.013z"/>
			</g>
			<g>
				<path fill="#CFC08E" d="M235.213,134.669l-10.729-14.802c0,0-20.307,4.065-19.435,23.207L235.213,134.669z"/>
			</g>
			<g>
				<path fill="#CFC08E" d="M241.887,144.526l24.077,31.087l-35.971,13.294c0,0-19.437-24.948-22.046-33.647L241.887,144.526z"/>
			</g>
			<g>
				<path fill="#CFC08E" d="M249.427,143.074c0,0,12.765-6.38,28.72-9.57l16.24,15.076c0,0-7.811,2.106-24.654-2.496
					c0,0,0.581,13.278,13.056,25.005l-6.673,2.444L249.427,143.074z"/>
			</g>
			<g>
				<path fill="#CFC08E" d="M286.851,175.502l15.663,11.375c0,0-15.954,4.935-21.469-7.831L286.851,175.502z"/>
			</g>
			<g>
				<path fill="#CFC08E" d="M271.908,183.106l-25.089,13.343c0,0,19.728,13.342,38.001,19.146c0,0-22.046,12.183-53.663-5.514
					c0,0-6.385-2.32-1.164,4.063c5.219,6.382,35.389,27.269,54.827,24.95c19.433-2.323,17.983-14.219,17.693-17.407
					c-0.288-3.19-13.053-10.156-19.724-21.466C276.117,188.907,271.908,183.106,271.908,183.106z"/>
			</g>
			<g>
				<path fill="#CFC08E" d="M224.483,225.165c0,0-23.207-20.882-28.428-28.716c-5.226-7.829-15.955-22.916-15.955-22.916
					s-22.334-6.248-26.978,14.281c0,0,32.78,9.795,41.191,31.26c0,0-13.924-9.57-31.039-15.663
					c-17.111-6.091-27.554-6.384-30.746,3.479c0,0,32.487,10.734,38.868,20.305c0,0,29.011-1.159,37.713,6.673
					c8.701,7.833,15.374,13.633,22.048,18.275c6.668,4.639,13.342,11.313,13.342,11.313s9.571-2.902,8.989-12.762
					c-0.578-9.864-8.124-11.894-13.05-14.796C235.507,233.003,224.483,225.165,224.483,225.165z"/>
			</g>
			<g>
				<path fill="#CFC08E" d="M182.8,349.371l47.996,1.167l-42.168,12.114C188.628,362.652,180.006,360.092,182.8,349.371z"/>
			</g>
			<g>
				<path fill="#CFC08E" d="M171.149,347.741l-19.106-3.498c0,0-8.615,11.884-4.191,23.302l23.297-7.92V347.741z"/>
			</g>
			<g>
				<polygon fill="#CFC08E" points="346.877,307.659 416.942,290.479 416.942,299.852 346.877,315.026 				"/>
			</g>
			<g>
				<path fill="#CFC08E" d="M543.263,199.011c0,0,13.877,5.232,16.693,6.236s4.226,4.225,2.616,8.45
					c-1.61,4.223-5.831,12.47-11.469,12.066c-5.629-0.4-15.69-3.821-15.69-3.821s4.629-4.226,5.841-10.659
					C542.46,204.846,543.263,199.011,543.263,199.011z"/>
			</g>
			<g>
				<path fill="#CFC08E" d="M574.84,212.395c0,0,5.837,16.587,5.03,18.803c-0.803,2.211-13.678-2.416-13.678-2.416
					S574.238,218.137,574.84,212.395z"/>
			</g>
			<g>
				<polygon fill="#CFC08E" points="565.19,239.843 579.949,241.856 586.913,250.504 571.39,254.807 				"/>
			</g>
			<g>
				<polygon fill="#CFC08E" points="560.024,254.807 551.711,235.824 520.737,229.99 533.611,241.658 534.21,247.487 
					540.379,259.452 				"/>
			</g>
		</g>
		<g>
			<path fill="#D8C5B0" d="M528.164,259.356c0,0-1.6-7.241-6.021-12.874c-4.427-5.634-11.066-8.045-14.481-8.045
				c-3.424,0-27.56,2.411-30.979,2.211c-3.42-0.202-8.853,0.402-8.853,0.402s-3.623,2.414-2.612,14.485c0,0,2.009-0.402,3.017-2.816
				c1.006-2.416,7.44-6.438,12.268-6.236c4.83,0.201,8.651,0.401,9.858,2.415c1.206,2.01,5.226,1.61,9.253,0
				c4.022-1.612,10.257,0,12.271,2.112C513.893,253.12,523.729,260.361,528.164,259.356z"/>
		</g>
		<g>
			<path fill="#D8C5B0" d="M518.806,299.852c0,0-8.438-15.314-7.231-24.717c1.206-9.4,3.134-16.382-4.097-17.714
				c-7.234-1.332-15.43-1.089-15.189,10.481c0.239,11.573,1.445,21.941,2.651,27.244c1.206,5.305,1.688,8.922-1.206,9.16
				c-2.895,0.24-4.58-2.156-3.134-4.454c1.448-2.295-1.446-12.66-2.17-16.517c-0.722-3.86-1.449-17.488-1.206-21.161
				c0.242-3.673,0.242-8.014-7.717-7.288c-7.956,0.72-15.92,6.509-14.466,16.394c1.45,9.88,3.62,25.084,4.826,28.572
				c1.202,3.494,0.964,2.802-1.45,4.473c-2.407,1.669-6.99,0.18-5.06-2.209c1.928-2.388-2.17-20.953-2.17-27.704
				s0.239-13.745-6.028-13.982c-6.268-0.241-11.574,1.447-12.057,11.571c-0.477,10.126,0.482,33.271,1.688,35.438
				c1.206,2.169,1.928,4.583,0,5.546c-1.928,0.965-6.268,2.411-7.474-3.134c-1.207-5.546-1.207-26.256-1.207-31.452
				c0-5.194,0.248-9.293-5.541-8.087c-5.786,1.205-6.028,4.34-6.268,17.601c-0.243,13.26,0.481,33.511,4.579,40.262
				c4.096,6.752,12.776,6.674,16.149,5.384c3.379-1.286,5.307-2.25,6.028-3.7c0.725-1.444,1.691-2.406,4.101-0.477
				c2.412,1.927,4.101,3.373,10.851,3.129c6.747-0.238,8.198-3.373,9.16-4.817c0.964-1.449,2.409-2.413,3.615-0.964
				c1.207,1.446,6.992,2.652,11.09,0.964c4.101-1.689,9.647-5.546,9.647-7.234s-1.931,4.099,8.193,0.725
				C517.842,317.808,526.036,310.101,518.806,299.852z"/>
		</g>
		<g>
			<path fill="#D8C5B0" d="M539.376,290.479h34.474c0,0,10.774,14.067,14.391,16.719c3.615,2.655,15.672,13.745,13.74,23.869
				c-1.927,10.13-12.295,9.886-20.732,8.199c-8.436-1.688-25.796-5.025-25.796-5.025s9.131,9.365,20.599,12.985
				c11.468,3.614,24.246,3.614,23.277,15.905c-0.962,12.301-7.717,17.603-18.08,17.843c-10.368,0.239-30.293-4.583-39.255-16.396
				c0,0,5.021,19.53,1.884,20.497c-3.134,0.964-25.071-1.449-35.922-10.606c-10.846-9.162-14.513-29.459-11.355-29.917
				c3.162-0.464,20.235-4.082,24.959-7.456c4.724-3.373,11.469-11.329,14.363-13.98c2.894-2.653,5.79-6.268,14.947-6.51
				c9.165-0.244,14.32,0.723,14.32,0.723L539.376,290.479z"/>
		</g>
		<g>
			<path fill="#FFFFFF" d="M482.628,127.705c0,0,7.227-1.524,11.027-2.096c3.803-0.57,5.518,0.952,2.662,4.375
				c-2.854,3.423-7.791,5.518-14.449,4.375c-6.659-1.142-7.986-1.332-7.986-1.332S472.551,130.936,482.628,127.705z"/>
		</g>
	</g>
	<g>
		<g>
			<g>
				<g>
					<path fill="#CFC08E" d="M26.913,425.906c2.208-0.561,4.417-1.115,6.627-1.671c3.596,13.917,7.166,27.833,10.711,41.758
						c5.284-1.328,10.574-2.644,15.865-3.952c0.547,2.173,1.091,4.348,1.637,6.521c-7.477,1.849-14.947,3.717-22.408,5.601
						C35.236,458.073,31.093,441.986,26.913,425.906z"/>
					<path d="M23.425,500.92l-5.439-21.304C13.886,463.556,9.75,447.5,5.578,431.454L0,409.993l49.404-12.48l5.479,21.206
						c1.774,6.867,3.541,13.73,5.304,20.596l15.955-3.944l12.385,49.279l-21.482,5.312c-7.441,1.841-14.876,3.701-22.303,5.577
						L23.425,500.92z"/>
				</g>
				<g>
					<path fill="#CFC08E" d="M56.872,425.668c7.795-1.919,15.597-3.818,23.41-5.694c0.47,1.887,0.938,3.779,1.406,5.671
						c-5.9,1.423-11.797,2.855-17.69,4.297c0.869,3.454,1.738,6.914,2.603,10.368c5.879-1.438,11.762-2.866,17.653-4.285
						c0.46,1.868,0.922,3.74,1.382,5.608c-5.881,1.418-11.76,2.845-17.632,4.282c1.189,4.758,2.376,9.522,3.559,14.28
						c5.854-1.434,11.714-2.855,17.577-4.266c0.458,1.873,0.917,3.746,1.375,5.617c-7.746,1.86-15.482,3.745-23.21,5.645
						C63.854,453.346,60.375,439.507,56.872,425.668z"/>
					<path d="M51.228,493.842l-5.313-21.319c-3.445-13.818-6.916-27.63-10.414-41.445l-5.446-21.508l21.547-5.308
						c7.836-1.927,15.679-3.839,23.531-5.723l21.259-5.106l3.991,16.035l0.031-0.008l4.904,19.905l0.013-0.003l3.054,12.4
						l-0.014,0.003l3.968,16.107l-0.027,0.003l4.878,19.935l-21.526,5.171c-7.709,1.853-15.406,3.728-23.097,5.616L51.228,493.842z"
						/>
				</g>
				<g>
					<path fill="#CFC08E" d="M129.638,415.401c-1.103,1.717-2.204,3.429-3.304,5.144c-5.311-3.166-10.818-4.086-16.496-2.757
						c-4.963,1.167-8.717,3.704-11.25,7.617c-2.532,3.918-3.22,8.218-2.076,12.914c1.004,4.113,3.498,7.438,7.479,9.978
						c3.979,2.545,8.752,3.152,14.344,1.845c8.393-1.962,12.828-6.784,13.29-14.501c-3.803,0.878-7.603,1.754-11.4,2.64
						c-0.451-1.895-0.903-3.796-1.357-5.69c6.002-1.398,12.01-2.781,18.02-4.157c0.668,2.855,1.012,5.175,1.026,6.961
						c0.008,1.787-0.357,3.843-1.085,6.174c-0.735,2.326-1.924,4.531-3.559,6.62c-1.634,2.087-3.525,3.74-5.66,4.974
						c-2.135,1.227-4.801,2.217-7.984,2.961c-7.262,1.699-13.584,0.806-18.997-2.675c-5.417-3.49-8.843-8.123-10.265-13.933
						c-1.498-6.111-0.562-11.841,2.837-17.204c3.394-5.351,8.266-8.781,14.616-10.262c3.774-0.889,7.357-1.131,10.748-0.725
						C121.955,411.716,125.649,413.08,129.638,415.401z"/>
					<path d="M112.786,479.001c-8.743,0.003-16.845-2.357-24.083-7.016c-10.167-6.549-16.992-15.962-19.75-27.229
						c-2.934-11.959-0.986-23.803,5.627-34.242c6.504-10.255,16.263-17.141,28.231-19.934c6.199-1.461,12.451-1.857,18.384-1.144
						c6.308,0.729,12.915,3.059,19.536,6.914l10.591,6.169l2.035-0.467l0.446,1.912l6.833,3.976l-4.326,6.732l2.042,8.739
						c1.055,4.505,1.579,8.37,1.607,11.812c0.017,4.165-0.667,8.367-2.09,12.919c-1.544,4.896-3.976,9.464-7.244,13.635
						c-3.353,4.288-7.388,7.813-11.982,10.47c-4.05,2.327-8.743,4.113-14.001,5.339
						C120.638,478.527,116.646,479.001,112.786,479.001z"/>
				</g>
				<g>
					<path fill="#CFC08E" d="M142.734,427.083c-1.408-6.018-0.315-11.693,3.304-17.035c3.625-5.343,8.696-8.743,15.209-10.191
						c6.354-1.411,12.335-0.442,17.914,2.89c5.581,3.329,9.034,7.987,10.367,13.953c1.415,6.312,0.34,12.143-3.196,17.48
						c-3.534,5.346-8.567,8.738-15.109,10.188c-6.454,1.433-12.438,0.469-17.983-2.895
						C147.7,438.116,144.192,433.317,142.734,427.083z M183.412,418.301c-1.034-4.603-3.602-8.117-7.708-10.537
						c-4.101-2.409-8.633-3.071-13.579-1.97c-4.7,1.042-8.355,3.548-10.952,7.505c-2.602,3.955-3.372,8.183-2.33,12.675
						c1.064,4.559,3.667,8.026,7.811,10.402c4.146,2.386,8.685,3.029,13.645,1.933c4.559-1.016,8.131-3.49,10.725-7.431
						C183.608,426.926,184.41,422.734,183.412,418.301z"/>
					<path d="M165.561,467.054c-8.4,0-16.393-2.264-23.758-6.736c-10.619-6.433-17.724-16.193-20.534-28.217
						c-2.82-12.054-0.566-23.957,6.52-34.414c6.782-10.001,16.694-16.683,28.672-19.351c11.881-2.624,23.612-0.722,34.009,5.483
						c10.791,6.44,17.908,16.149,20.574,28.068c2.726,12.171,0.537,24.09-6.33,34.461c-6.674,10.1-16.609,16.859-28.72,19.543
						C172.515,466.663,169.001,467.054,165.561,467.054z M164.304,422.389c0.05,0.028,0.169,0.114,0.36,0.232
						c1.231,0.744,0.953,0.406,1.777,0.227c1.12-0.246,1.224-0.407,1.502-0.826c0.089-0.036,0.122-0.102,0.117-0.224
						c-0.056-0.034-0.12-0.078-0.195-0.121c-1.38-0.827-1.084-0.471-1.84-0.302C164.836,421.642,164.639,421.896,164.304,422.389z"
						/>
				</g>
				<g>
					<path fill="#CFC08E" d="M227.436,385.227c7.062,13.724,14.064,27.466,21.007,41.221c-1.898,0.389-3.795,0.776-5.693,1.167
						c-4.228-8.404-8.479-16.808-12.753-25.201c-2.026,10.259-4.04,20.521-6.041,30.784c-6.089-8.649-12.213-17.285-18.37-25.908
						c-0.408,9.457-0.813,18.916-1.217,28.37c-1.882,0.404-3.763,0.808-5.642,1.215c0.656-15.346,1.317-30.697,1.987-46.044
						c6.776,9.437,13.512,18.89,20.207,28.354C223.077,407.862,225.249,396.543,227.436,385.227z"/>
					<path d="M235.695,488.163l-22.434-31.864l-37.779,8.171l1.22-28.535c0.657-15.354,1.321-30.713,1.99-46.063l2.777-63.632
						l27.513,38.31l8.902-46.065l29.154,56.656c7.087,13.775,14.117,27.567,21.085,41.374l12.998,25.755l-37.992,7.778
						L235.695,488.163z"/>
				</g>
				<g>
					<path fill="#CFC08E" d="M272.784,382.754c-1.328,1.556-2.657,3.11-3.982,4.666c-1.523-1.031-2.855-1.751-4.007-2.175
						c-1.148-0.423-2.689-0.438-4.618-0.055c-2.104,0.424-3.719,1.227-4.833,2.422c-1.114,1.19-1.516,2.521-1.209,3.986
						c0.269,1.269,1.076,2.271,2.425,3.017c1.347,0.744,3.516,1.422,6.51,2.024c2.996,0.607,5.362,1.261,7.1,1.954
						c1.743,0.693,3.225,1.552,4.459,2.566c1.231,1.01,2.22,2.139,2.98,3.381c0.755,1.24,1.285,2.612,1.591,4.105
						c0.715,3.485,0.028,6.712-2.05,9.678c-2.076,2.965-4.941,4.81-8.597,5.539c-3.569,0.712-6.914,0.388-10.044-0.984
						c-3.132-1.371-5.833-3.819-8.114-7.359c1.827-0.933,3.658-1.86,5.487-2.793c3.112,4.29,6.843,5.997,11.218,5.124
						c2.123-0.424,3.758-1.403,4.91-2.926c1.148-1.528,1.53-3.243,1.139-5.147c-0.238-1.136-0.84-2.209-1.818-3.207
						c-0.975-1.003-2.092-1.767-3.337-2.293c-1.253-0.528-3.179-1.037-5.778-1.519c-2.593-0.479-4.625-0.992-6.08-1.536
						c-1.459-0.537-2.78-1.27-3.958-2.179c-1.18-0.92-2.101-1.879-2.774-2.882c-0.665-1.011-1.137-2.139-1.398-3.384
						c-0.638-3.004,0.051-5.817,2.073-8.43c2.023-2.613,4.8-4.272,8.332-4.979c2.337-0.47,4.815-0.442,7.43,0.067
						C268.454,379.942,270.771,381.055,272.784,382.754z"/>
					<path d="M264.961,446.275c-5.297,0-10.442-1.078-15.293-3.2c-7.156-3.134-13.147-8.386-17.805-15.617l-13.205-20.492
						l9.234-4.713c-0.623-1.609-1.109-3.264-1.466-4.962c-1.971-9.284,0.23-18.697,6.215-26.432
						c5.29-6.831,12.707-11.359,21.451-13.106c5.074-1.021,10.525-1.014,15.962,0.047c6.308,1.219,12.023,3.948,16.952,8.112
						l16.937,14.3l-9.029,10.576c0.531,0.729,1.03,1.478,1.499,2.244c2.103,3.451,3.567,7.203,4.384,11.19
						c1.921,9.361-0.064,18.867-5.592,26.753c-5.351,7.641-13.078,12.66-22.342,14.508
						C270.235,446.005,267.574,446.275,264.961,446.275z"/>
				</g>
				<g>
					<path fill="#CFC08E" d="M280.122,376.455c1.96-0.383,3.92-0.764,5.883-1.144c1.162,5.685,2.32,11.368,3.475,17.051
						c4.916-6.857,9.854-13.709,14.81-20.556c2.738-0.518,5.476-1.034,8.217-1.547c-5.659,7.803-11.292,15.615-16.899,23.441
						c8.474,6.161,16.915,12.348,25.325,18.551c-2.484,0.467-4.966,0.938-7.444,1.404c-7.676-5.635-15.378-11.251-23.107-16.845
						c1.385,6.825,2.761,13.651,4.132,20.479c-1.944,0.376-3.886,0.756-5.83,1.132C285.856,404.432,283.004,390.444,280.122,376.455
						z"/>
					<path d="M277.949,446.291l-0.652-3.212l-5.888,1.141l-4.332-21.43c-2.822-13.964-5.67-27.925-8.545-41.889L254.04,359.1
						l5.959-1.167l-2.455-12.099l13.684,9.902l32.009-6.213l0.009,0.047l59.597-11.158l-32.493,44.793
						c-1.356,1.868-2.711,3.74-4.065,5.613c2.58,1.895,5.16,3.794,7.735,5.695l40.747,30.062l-94.041,17.842L277.949,446.291z"/>
				</g>
				<g>
					<path fill="#CFC08E" d="M318.268,369.179c1.943-0.364,3.885-0.725,5.83-1.081c2.76,14.011,5.49,28.025,8.196,42.044
						c-1.927,0.356-3.856,0.714-5.782,1.068C323.789,397.196,321.043,383.185,318.268,369.179z"/>
					<path d="M309.037,436.863l-4.165-21.449c-2.719-13.987-5.458-27.971-8.228-41.95l-4.328-21.849l49.206-9.123l4.206,21.344
						c2.765,14.038,5.499,28.08,8.212,42.125l4.21,21.814L309.037,436.863z"/>
				</g>
				<g>
					<path fill="#CFC08E" d="M360.92,366.276c-1.361,1.527-2.723,3.059-4.082,4.586c-1.507-1.058-2.833-1.801-3.98-2.249
						c-1.148-0.442-2.691-0.484-4.634-0.136c-2.122,0.384-3.757,1.159-4.897,2.334c-1.139,1.163-1.566,2.491-1.284,3.96
						c0.247,1.277,1.039,2.296,2.378,3.063c1.339,0.767,3.503,1.485,6.496,2.143c2.999,0.661,5.357,1.359,7.092,2.084
						c1.73,0.729,3.208,1.614,4.428,2.646c1.219,1.034,2.193,2.179,2.93,3.437c0.734,1.258,1.244,2.636,1.521,4.132
						c0.654,3.501-0.092,6.713-2.232,9.639c-2.139,2.926-5.047,4.726-8.73,5.382c-3.594,0.651-6.945,0.264-10.063-1.167
						c-3.118-1.43-5.787-3.924-8.009-7.508c1.851-0.896,3.703-1.795,5.557-2.691c3.043,4.344,6.759,6.119,11.165,5.327
						c2.142-0.385,3.796-1.331,4.983-2.836c1.178-1.501,1.594-3.212,1.236-5.123c-0.216-1.14-0.804-2.221-1.765-3.239
						c-0.962-1.022-2.067-1.806-3.312-2.354c-1.248-0.549-3.168-1.094-5.767-1.622c-2.596-0.529-4.625-1.081-6.08-1.652
						c-1.45-0.561-2.768-1.317-3.929-2.253c-1.167-0.94-2.073-1.915-2.73-2.931c-0.652-1.017-1.103-2.157-1.347-3.411
						c-0.582-3.016,0.158-5.809,2.239-8.386c2.073-2.578,4.892-4.184,8.452-4.826c2.356-0.426,4.842-0.353,7.458,0.205
						C356.627,363.382,358.93,364.536,360.92,366.276z"/>
					<path d="M352.62,429.647c-5.546,0-10.913-1.171-15.947-3.479c-7.117-3.262-13.023-8.624-17.556-15.931l-12.892-20.786
						l9.351-4.531c-0.574-1.575-1.021-3.193-1.347-4.857c-1.824-9.455,0.566-18.833,6.717-26.455
						c5.39-6.698,12.898-11.088,21.694-12.68c5.102-0.923,10.537-0.818,15.957,0.338c6.297,1.332,11.969,4.164,16.83,8.41
						l16.756,14.648l-9.259,10.392c0.521,0.745,1.006,1.509,1.464,2.288c2.033,3.478,3.432,7.253,4.172,11.245
						c1.758,9.403-0.412,18.888-6.115,26.683c-5.507,7.539-13.341,12.403-22.645,14.065
						C357.439,429.425,355.006,429.647,352.62,429.647z"/>
				</g>
			</g>
			<g>
				<g>
					<path d="M26.913,425.906c2.208-0.561,4.417-1.115,6.627-1.671c3.596,13.917,7.166,27.833,10.711,41.758
						c5.284-1.328,10.574-2.644,15.865-3.952c0.547,2.173,1.091,4.348,1.637,6.521c-7.477,1.849-14.947,3.717-22.408,5.601
						C35.236,458.073,31.093,441.986,26.913,425.906z"/>
				</g>
				<g>
					<path d="M56.872,425.668c7.795-1.919,15.597-3.818,23.41-5.694c0.47,1.887,0.938,3.779,1.406,5.671
						c-5.9,1.423-11.797,2.855-17.69,4.297c0.869,3.454,1.738,6.914,2.603,10.368c5.879-1.438,11.762-2.866,17.653-4.285
						c0.46,1.868,0.922,3.74,1.382,5.608c-5.881,1.418-11.76,2.845-17.632,4.282c1.189,4.758,2.376,9.522,3.559,14.28
						c5.854-1.434,11.714-2.855,17.577-4.266c0.458,1.873,0.917,3.746,1.375,5.617c-7.746,1.86-15.482,3.745-23.21,5.645
						C63.854,453.346,60.375,439.507,56.872,425.668z"/>
				</g>
				<g>
					<path d="M129.638,415.401c-1.103,1.717-2.204,3.429-3.304,5.144c-5.311-3.166-10.818-4.086-16.496-2.757
						c-4.963,1.167-8.717,3.704-11.25,7.617c-2.532,3.918-3.22,8.218-2.076,12.914c1.004,4.113,3.498,7.438,7.479,9.978
						c3.979,2.545,8.752,3.152,14.344,1.845c8.393-1.962,12.828-6.784,13.29-14.501c-3.803,0.878-7.603,1.754-11.4,2.64
						c-0.451-1.895-0.903-3.796-1.357-5.69c6.002-1.398,12.01-2.781,18.02-4.157c0.668,2.855,1.012,5.175,1.026,6.961
						c0.008,1.787-0.357,3.843-1.085,6.174c-0.735,2.326-1.924,4.531-3.559,6.62c-1.634,2.087-3.525,3.74-5.66,4.974
						c-2.135,1.227-4.801,2.217-7.984,2.961c-7.262,1.699-13.584,0.806-18.997-2.675c-5.417-3.49-8.843-8.123-10.265-13.933
						c-1.498-6.111-0.562-11.841,2.837-17.204c3.394-5.351,8.266-8.781,14.616-10.262c3.774-0.889,7.357-1.131,10.748-0.725
						C121.955,411.716,125.649,413.08,129.638,415.401z"/>
				</g>
				<g>
					<path d="M142.734,427.083c-1.408-6.018-0.315-11.693,3.304-17.035c3.625-5.343,8.696-8.743,15.209-10.191
						c6.354-1.411,12.335-0.442,17.914,2.89c5.581,3.329,9.034,7.987,10.367,13.953c1.415,6.312,0.34,12.143-3.196,17.48
						c-3.534,5.346-8.567,8.738-15.109,10.188c-6.454,1.433-12.438,0.469-17.983-2.895
						C147.7,438.116,144.192,433.317,142.734,427.083z M183.412,418.301c-1.034-4.603-3.602-8.117-7.708-10.537
						c-4.101-2.409-8.633-3.071-13.579-1.97c-4.7,1.042-8.355,3.548-10.952,7.505c-2.602,3.955-3.372,8.183-2.33,12.675
						c1.064,4.559,3.667,8.026,7.811,10.402c4.146,2.386,8.685,3.029,13.645,1.933c4.559-1.016,8.131-3.49,10.725-7.431
						C183.608,426.926,184.41,422.734,183.412,418.301z"/>
				</g>
				<g>
					<path d="M227.436,385.227c7.062,13.724,14.064,27.466,21.007,41.221c-1.898,0.389-3.795,0.776-5.693,1.167
						c-4.228-8.404-8.479-16.808-12.753-25.201c-2.026,10.259-4.04,20.521-6.041,30.784c-6.089-8.649-12.213-17.285-18.37-25.908
						c-0.408,9.457-0.813,18.916-1.217,28.37c-1.882,0.404-3.763,0.808-5.642,1.215c0.656-15.346,1.317-30.697,1.987-46.044
						c6.776,9.437,13.512,18.89,20.207,28.354C223.077,407.862,225.249,396.543,227.436,385.227z"/>
				</g>
				<g>
					<path d="M272.784,382.754c-1.328,1.556-2.657,3.11-3.982,4.666c-1.523-1.031-2.855-1.751-4.007-2.175
						c-1.148-0.423-2.689-0.438-4.618-0.055c-2.104,0.424-3.719,1.227-4.833,2.422c-1.114,1.19-1.516,2.521-1.209,3.986
						c0.269,1.269,1.076,2.271,2.425,3.017c1.347,0.744,3.516,1.422,6.51,2.024c2.996,0.607,5.362,1.261,7.1,1.954
						c1.743,0.693,3.225,1.552,4.459,2.566c1.231,1.01,2.22,2.139,2.98,3.381c0.755,1.24,1.285,2.612,1.591,4.105
						c0.715,3.485,0.028,6.712-2.05,9.678c-2.076,2.965-4.941,4.81-8.597,5.539c-3.569,0.712-6.914,0.388-10.044-0.984
						c-3.132-1.371-5.833-3.819-8.114-7.359c1.827-0.933,3.658-1.86,5.487-2.793c3.112,4.29,6.843,5.997,11.218,5.124
						c2.123-0.424,3.758-1.403,4.91-2.926c1.148-1.528,1.53-3.243,1.139-5.147c-0.238-1.136-0.84-2.209-1.818-3.207
						c-0.975-1.003-2.092-1.767-3.337-2.293c-1.253-0.528-3.179-1.037-5.778-1.519c-2.593-0.479-4.625-0.992-6.08-1.536
						c-1.459-0.537-2.78-1.27-3.958-2.179c-1.18-0.92-2.101-1.879-2.774-2.882c-0.665-1.011-1.137-2.139-1.398-3.384
						c-0.638-3.004,0.051-5.817,2.073-8.43c2.023-2.613,4.8-4.272,8.332-4.979c2.337-0.47,4.815-0.442,7.43,0.067
						C268.454,379.942,270.771,381.055,272.784,382.754z"/>
				</g>
				<g>
					<path d="M280.122,376.455c1.96-0.383,3.92-0.764,5.883-1.144c1.162,5.685,2.32,11.368,3.475,17.051
						c4.916-6.857,9.854-13.709,14.81-20.556c2.738-0.518,5.476-1.034,8.217-1.547c-5.659,7.803-11.292,15.615-16.899,23.441
						c8.474,6.161,16.915,12.348,25.325,18.551c-2.484,0.467-4.966,0.938-7.444,1.404c-7.676-5.635-15.378-11.251-23.107-16.845
						c1.385,6.825,2.761,13.651,4.132,20.479c-1.944,0.376-3.886,0.756-5.83,1.132C285.856,404.432,283.004,390.444,280.122,376.455
						z"/>
				</g>
				<g>
					<path d="M318.268,369.179c1.943-0.364,3.885-0.725,5.83-1.081c2.76,14.011,5.49,28.025,8.196,42.044
						c-1.927,0.356-3.856,0.714-5.782,1.068C323.789,397.196,321.043,383.185,318.268,369.179z"/>
				</g>
				<g>
					<path d="M360.92,366.276c-1.361,1.527-2.723,3.059-4.082,4.586c-1.507-1.058-2.833-1.801-3.98-2.249
						c-1.148-0.442-2.691-0.484-4.634-0.136c-2.122,0.384-3.757,1.159-4.897,2.334c-1.139,1.163-1.566,2.491-1.284,3.96
						c0.247,1.277,1.039,2.296,2.378,3.063c1.339,0.767,3.503,1.485,6.496,2.143c2.999,0.661,5.357,1.359,7.092,2.084
						c1.73,0.729,3.208,1.614,4.428,2.646c1.219,1.034,2.193,2.179,2.93,3.437c0.734,1.258,1.244,2.636,1.521,4.132
						c0.654,3.501-0.092,6.713-2.232,9.639c-2.139,2.926-5.047,4.726-8.73,5.382c-3.594,0.651-6.945,0.264-10.063-1.167
						c-3.118-1.43-5.787-3.924-8.009-7.508c1.851-0.896,3.703-1.795,5.557-2.691c3.043,4.344,6.759,6.119,11.165,5.327
						c2.142-0.385,3.796-1.331,4.983-2.836c1.178-1.501,1.594-3.212,1.236-5.123c-0.216-1.14-0.804-2.221-1.765-3.239
						c-0.962-1.022-2.067-1.806-3.312-2.354c-1.248-0.549-3.168-1.094-5.767-1.622c-2.596-0.529-4.625-1.081-6.08-1.652
						c-1.45-0.561-2.768-1.317-3.929-2.253c-1.167-0.94-2.073-1.915-2.73-2.931c-0.652-1.017-1.103-2.157-1.347-3.411
						c-0.582-3.016,0.158-5.809,2.239-8.386c2.073-2.578,4.892-4.184,8.452-4.826c2.356-0.426,4.842-0.353,7.458,0.205
						C356.627,363.382,358.93,364.536,360.92,366.276z"/>
				</g>
			</g>
		</g>
		<g>
			<g>
				<path d="M26.424,423.048c2.716-0.686,5.432-1.371,8.151-2.053c4.42,17.105,8.8,34.219,13.137,51.335
					c6.488-1.624,12.983-3.239,19.483-4.836c0.666,2.674,1.332,5.346,1.996,8.021c-9.181,2.26-18.347,4.544-27.502,6.854
					C36.655,462.589,31.567,442.816,26.424,423.048z"/>
			</g>
			<g>
				<path d="M63.274,422.782c9.587-2.348,19.189-4.661,28.804-6.948c0.572,2.324,1.141,4.652,1.711,6.979
					c-7.262,1.727-14.517,3.473-21.765,5.233c1.062,4.249,2.121,8.498,3.177,12.748c7.229-1.754,14.463-3.494,21.708-5.217
					c0.56,2.299,1.12,4.599,1.68,6.896c-7.234,1.722-14.461,3.459-21.68,5.21c1.449,5.856,2.896,11.708,4.337,17.563
					c7.194-1.742,14.395-3.475,21.602-5.189c0.556,2.304,1.112,4.606,1.666,6.909c-9.516,2.264-19.02,4.552-28.508,6.875
					C71.802,456.815,67.557,439.796,63.274,422.782z"/>
			</g>
			<g>
				<path d="M152.819,410.443c-1.367,2.099-2.735,4.203-4.099,6.303c-6.516-3.921-13.282-5.088-20.272-3.483
					c-6.117,1.407-10.745,4.521-13.87,9.319c-3.132,4.798-3.996,10.086-2.604,15.862c1.211,5.057,4.262,9.154,9.135,12.291
					c4.878,3.142,10.744,3.921,17.622,2.344c10.313-2.362,15.787-8.266,16.406-17.751c-4.68,1.053-9.356,2.11-14.029,3.179
					c-0.544-2.334-1.089-4.668-1.637-6.998c7.388-1.688,14.779-3.357,22.179-5.007c0.806,3.51,1.214,6.369,1.212,8.566
					c0.005,2.193-0.454,4.725-1.372,7.575c-0.917,2.855-2.386,5.56-4.411,8.117c-2.021,2.546-4.348,4.578-6.978,6.073
					c-2.631,1.506-5.907,2.699-9.828,3.601c-8.923,2.048-16.674,0.933-23.314-3.38c-6.635-4.309-10.822-10.023-12.552-17.168
					c-1.817-7.513-0.648-14.562,3.547-21.127c4.195-6.565,10.212-10.765,18.032-12.56c4.646-1.073,9.056-1.35,13.226-0.841
					C143.377,405.867,147.918,407.563,152.819,410.443z"/>
			</g>
			<g>
				<path d="M168.845,424.885c-1.69-7.407-0.305-14.383,4.187-20.92c4.497-6.541,10.764-10.682,18.793-12.413
					c7.838-1.681,15.192-0.446,22.029,3.702c6.842,4.147,11.038,9.904,12.626,17.25c1.681,7.774,0.3,14.918-4.091,21.46
					c-4.398,6.53-10.612,10.649-18.659,12.379c-7.942,1.702-15.287,0.477-22.071-3.702
					C174.877,438.473,170.595,432.559,168.845,424.885z M218.945,414.411c-1.231-5.668-4.359-10.016-9.389-13.017
					c-5.031-2.999-10.606-3.846-16.697-2.538c-5.797,1.242-10.313,4.298-13.535,9.139c-3.232,4.849-4.208,10.038-2.957,15.565
					c1.269,5.609,4.451,9.89,9.522,12.852c5.077,2.965,10.658,3.785,16.756,2.476c5.612-1.207,10.02-4.219,13.239-9.044
					C219.103,425.01,220.132,419.872,218.945,414.411z"/>
			</g>
			<g>
				<path d="M273.485,374.215c8.54,16.957,16.988,33.934,25.343,50.933c-2.34,0.454-4.681,0.904-7.019,1.359
					c-5.091-10.384-10.216-20.76-15.375-31.132c-2.616,12.584-5.214,25.174-7.793,37.763c-7.385-10.697-14.822-21.375-22.311-32.036
					c-0.601,11.617-1.198,23.235-1.791,34.857c-2.316,0.474-4.633,0.951-6.945,1.428c0.958-18.855,1.929-37.715,2.91-56.571
					c8.25,11.669,16.44,23.356,24.566,35.068C267.854,401.993,270.656,388.105,273.485,374.215z"/>
			</g>
			<g>
				<path d="M329.39,371.783c-1.66,1.887-3.318,3.78-4.974,5.672c-1.857-1.281-3.494-2.186-4.905-2.727
					c-1.413-0.532-3.308-0.579-5.69-0.134c-2.6,0.49-4.598,1.462-5.984,2.91c-1.389,1.45-1.904,3.079-1.542,4.885
					c0.314,1.563,1.292,2.809,2.943,3.737c1.649,0.94,4.315,1.793,7.99,2.585c3.68,0.787,6.581,1.618,8.713,2.503
					c2.131,0.873,3.951,1.951,5.453,3.208c1.502,1.261,2.707,2.667,3.62,4.207c0.911,1.535,1.544,3.223,1.896,5.064
					c0.828,4.296-0.067,8.253-2.665,11.864c-2.597,3.615-6.146,5.845-10.653,6.689c-4.396,0.826-8.506,0.373-12.335-1.352
					c-3.834-1.728-7.125-4.778-9.885-9.157c2.263-1.12,4.525-2.235,6.787-3.353c3.769,5.312,8.342,7.453,13.729,6.447
					c2.618-0.493,4.642-1.67,6.08-3.525c1.438-1.856,1.932-3.96,1.477-6.307c-0.272-1.406-0.997-2.729-2.189-3.971
					c-1.185-1.25-2.545-2.201-4.081-2.868c-1.536-0.666-3.896-1.312-7.086-1.942c-3.188-0.634-5.676-1.285-7.469-1.966
					c-1.79-0.689-3.399-1.599-4.839-2.737c-1.438-1.148-2.558-2.339-3.375-3.585c-0.809-1.25-1.369-2.636-1.682-4.176
					c-0.747-3.701,0.136-7.144,2.665-10.324c2.526-3.188,5.97-5.194,10.331-6.013c2.891-0.544,5.944-0.481,9.156,0.18
					C324.094,368.267,326.927,369.66,329.39,371.783z"/>
			</g>
			<g>
				<path d="M338.525,364.146c2.42-0.439,4.842-0.878,7.264-1.312c1.347,7,2.686,14.003,4.022,21.007
					c6.16-8.354,12.351-16.698,18.573-25.024c3.384-0.597,6.771-1.185,10.16-1.769c-7.111,9.495-14.18,19.01-21.209,28.536
					c10.338,7.708,20.628,15.451,30.869,23.228c-3.063,0.528-6.124,1.061-9.183,1.598c-9.348-7.059-18.735-14.086-28.168-21.089
					c1.601,8.414,3.188,16.826,4.767,25.241c-2.397,0.43-4.792,0.864-7.188,1.3C345.17,398.617,341.869,381.379,338.525,364.146z"/>
			</g>
			<g>
				<path d="M385.662,355.817c2.405-0.411,4.806-0.821,7.212-1.229c3.157,17.27,6.273,34.543,9.35,51.821
					c-2.378,0.403-4.757,0.81-7.133,1.217C391.988,390.354,388.846,373.084,385.662,355.817z"/>
			</g>
			<g>
				<path d="M438.312,353.04c-1.711,1.854-3.418,3.707-5.122,5.559c-1.833-1.328-3.464-2.269-4.865-2.836
					c-1.407-0.563-3.314-0.657-5.716-0.267c-2.619,0.431-4.648,1.36-6.073,2.777c-1.431,1.422-1.982,3.032-1.657,4.849
					c0.274,1.567,1.233,2.837,2.866,3.804c1.642,0.977,4.298,1.893,7.972,2.762c3.678,0.874,6.576,1.771,8.695,2.698
					c2.127,0.925,3.925,2.042,5.406,3.334c1.479,1.296,2.658,2.726,3.543,4.289c0.883,1.555,1.482,3.259,1.79,5.104
					c0.737,4.316-0.245,8.25-2.937,11.806c-2.695,3.554-6.307,5.703-10.854,6.443c-4.438,0.721-8.554,0.18-12.365-1.629
					c-3.808-1.813-7.047-4.939-9.719-9.378c2.297-1.068,4.595-2.139,6.896-3.204c3.665,5.402,8.206,7.646,13.646,6.76
					c2.64-0.433,4.7-1.561,6.189-3.384c1.483-1.829,2.024-3.921,1.621-6.273c-0.243-1.415-0.943-2.751-2.107-4.02
					c-1.167-1.276-2.515-2.26-4.038-2.957c-1.524-0.706-3.882-1.406-7.07-2.103c-3.196-0.706-5.68-1.42-7.462-2.136
					c-1.781-0.732-3.389-1.676-4.802-2.855c-1.419-1.17-2.523-2.39-3.311-3.65c-0.786-1.269-1.32-2.672-1.597-4.22
					c-0.667-3.716,0.297-7.136,2.91-10.262c2.604-3.126,6.109-5.052,10.512-5.777c2.91-0.478,5.981-0.345,9.193,0.393
					C433.071,349.406,435.892,350.862,438.312,353.04z"/>
			</g>
		</g>
		<g>
			<g>
				<path fill="#CFC08E" d="M15.71,422.574c4.438-1.34,8.886-2.668,13.337-3.98c4.919,15.778,9.757,31.579,14.517,47.387
					c6.012-1.777,12.036-3.529,18.075-5.257c1.274,4.353,2.542,8.712,3.805,13.064c-10.364,2.965-20.691,5.997-30.98,9.103
					C28.341,462.761,22.092,442.656,15.71,422.574z"/>
			</g>
			<g>
				<path fill="#CFC08E" d="M58.78,419.28c10.086-2.849,20.205-5.629,30.355-8.344c0.979,3.446,1.953,6.898,2.924,10.345
					c-6.238,1.668-12.463,3.36-18.676,5.075c1.019,3.507,2.031,7.016,3.042,10.526c6.185-1.708,12.383-3.394,18.592-5.053
					c0.95,3.399,1.894,6.799,2.836,10.199c-6.183,1.648-12.356,3.326-18.516,5.029c1.028,3.599,2.053,7.203,3.073,10.81
					c6.13-1.695,12.275-3.363,18.431-5.005c0.948,3.451,1.894,6.906,2.833,10.36c-9.933,2.652-19.835,5.367-29.704,8.147
					C69.002,453.991,63.938,436.628,58.78,419.28z"/>
			</g>
			<g>
				<path fill="#CFC08E" d="M148.286,408.073c-1.996,2.978-3.985,5.958-5.967,8.938c-2.331-2.331-4.872-3.869-7.621-4.622
					c-2.751-0.752-5.444-0.802-8.062-0.153c-4.243,1.065-7.507,3.562-9.781,7.475c-2.277,3.908-2.829,7.979-1.688,12.213
					c1.21,4.496,3.784,7.912,7.701,10.251c3.912,2.342,8.032,2.965,12.386,1.871c2.366-0.592,4.49-1.743,6.382-3.463
					c1.895-1.711,3.101-4.351,3.616-7.907c-4.255,1.042-8.505,2.092-12.748,3.156c-0.893-3.411-1.787-6.826-2.685-10.238
					c8.304-2.084,16.627-4.121,24.972-6.115c0.574,2.272,1.147,4.544,1.716,6.815c0.878,3.511,0.584,7.564-0.87,12.174
					c-1.454,4.619-3.943,8.336-7.464,11.168c-3.525,2.84-7.31,4.76-11.369,5.778c-7.361,1.848-14.236,0.813-20.694-3.115
					c-6.459-3.929-10.763-9.721-12.881-17.43c-2.009-7.305-1.123-14.242,2.738-20.807c3.862-6.557,9.559-10.799,17.062-12.684
					C132.605,398.974,141.07,401.219,148.286,408.073z"/>
			</g>
			<g>
				<path fill="#CFC08E" d="M162.396,420.481c-1.936-7.781-0.901-14.841,3.192-21.15c4.088-6.315,9.846-10.313,17.241-11.963
					c8.172-1.824,15.569-0.743,22.103,3.232c6.543,3.979,10.678,9.897,12.435,17.72c1.748,7.779,0.549,14.779-3.508,21.026
					c-4.06,6.247-10.007,10.226-17.861,11.977c-7.86,1.748-14.907,0.675-21.211-3.235
					C168.481,434.18,164.347,428.32,162.396,420.481z M185.912,397.783c-4.622,0.943-7.958,3.313-9.996,7.083
					c-2.045,3.775-2.442,8.142-1.238,13.094c1.142,4.688,3.497,8.248,7.064,10.685c3.57,2.433,7.504,3.17,11.822,2.209
					c4.536-1.01,7.853-3.341,9.957-6.995c2.1-3.658,2.589-7.987,1.442-12.984c-1.129-4.916-3.433-8.566-6.904-10.939
					C194.586,397.557,190.529,396.835,185.912,397.783z"/>
			</g>
			<g>
				<path fill="#CFC08E" d="M225.291,378.896c4.742-0.968,9.492-1.92,14.247-2.859c5.786,9.921,11.5,19.857,17.138,29.819
					c1.239-11.285,2.497-22.565,3.772-33.846c4.6-0.865,9.208-1.72,13.816-2.559c6.006,17.309,11.872,34.641,17.603,51.993
					c-3.756,0.67-7.508,1.348-11.259,2.033c-4.042-12.201-8.156-24.391-12.335-36.568c-1.532,13.238-3.04,26.482-4.526,39.722
					c-1.782,0.342-3.562,0.686-5.343,1.03c-6.676-11.786-13.454-23.541-20.337-35.269c1.186,12.867,2.352,25.73,3.497,38.595
					c-3.785,0.759-7.566,1.529-11.345,2.311C228.615,415.162,226.974,397.027,225.291,378.896z"/>
			</g>
			<g>
				<path fill="#CFC08E" d="M322.767,366.139c-2.039,3.024-4.071,6.049-6.094,9.076c-4.365-1.571-7.427-2.206-9.164-1.915
					c-1.337,0.219-2.398,0.899-3.184,2.024c-0.786,1.123-1.053,2.354-0.804,3.678c0.5,2.632,3.426,4.477,8.768,5.573
					c3.934,0.886,6.942,1.782,9.028,2.688c2.09,0.899,3.954,2.326,5.596,4.265c1.64,1.943,2.679,4.163,3.115,6.663
					c0.804,4.591-0.427,8.887-3.663,12.898c-3.236,4.022-7.443,6.451-12.644,7.328c-5.701,0.959-11.792-0.677-18.341-4.896
					c2.045-3.396,4.096-6.787,6.162-10.18c4.168,2.891,7.765,4.081,10.827,3.564c1.435-0.242,2.7-1.086,3.8-2.538
					c1.098-1.45,1.53-2.852,1.284-4.203c-0.502-2.785-4.013-4.742-10.532-5.828c-3.724-0.636-6.427-1.353-8.095-2.17
					c-1.669-0.818-3.204-2.163-4.6-4.026c-1.394-1.872-2.306-3.878-2.719-6.012c-0.922-4.736-0.053-8.868,2.624-12.379
					c2.674-3.518,6.643-5.722,11.906-6.607C312.269,362.098,317.862,363.099,322.767,366.139z"/>
			</g>
			<g>
				<path fill="#CFC08E" d="M332.381,359.633c4.063-0.63,8.126-1.258,12.195-1.867c1.305,7.534,2.596,15.071,3.871,22.607
					c0.055-0.008,0.112-0.021,0.167-0.028c4.917-8.468,9.885-16.921,14.904-25.356c5.006-0.714,10.02-1.411,15.037-2.097
					c-5.847,9.521-11.626,19.06-17.342,28.622c8.934,8.261,17.769,16.568,26.512,24.927c-4.807,0.65-9.613,1.315-14.408,1.993
					c-7.828-7.441-15.733-14.845-23.714-22.212c-0.057,0.008-0.111,0.019-0.166,0.026c1.402,8.354,2.787,16.709,4.154,25.064
					c-3.98,0.599-7.956,1.207-11.926,1.825C338.655,395.296,335.562,377.463,332.381,359.633z"/>
			</g>
			<g>
				<path fill="#CFC08E" d="M387.707,351.666c4.094-0.541,8.189-1.069,12.287-1.591c2.69,17.913,5.296,35.825,7.818,53.741
					c-4.011,0.509-8.021,1.021-12.025,1.551C393.178,387.462,390.484,369.562,387.707,351.666z"/>
			</g>
			<g>
				<path fill="#CFC08E" d="M444.228,349.841c-2.217,2.915-4.423,5.833-6.619,8.754c-4.321-1.79-7.377-2.58-9.144-2.374
					c-1.358,0.153-2.468,0.771-3.313,1.86c-0.854,1.078-1.184,2.295-0.998,3.632c0.364,2.651,3.223,4.642,8.562,6.009
					c3.921,1.081,6.909,2.13,8.97,3.141c2.061,1.007,3.869,2.519,5.424,4.54c1.552,2.024,2.487,4.296,2.806,6.815
					c0.578,4.626-0.883,8.853-4.353,12.694c-3.466,3.851-7.837,6.07-13.122,6.683c-5.8,0.67-11.867-1.276-18.257-5.817
					c2.232-3.29,4.482-6.575,6.733-9.858c4.059,3.099,7.626,4.469,10.741,4.108c1.456-0.168,2.772-0.951,3.96-2.342
					c1.183-1.394,1.684-2.77,1.508-4.132c-0.364-2.809-3.804-4.939-10.326-6.356c-3.725-0.823-6.411-1.673-8.056-2.574
					c-1.646-0.901-3.126-2.318-4.434-4.254c-1.317-1.938-2.128-3.988-2.438-6.143c-0.688-4.773,0.396-8.859,3.274-12.229
					c2.883-3.376,7-5.38,12.354-5.997C433.844,345.273,439.429,346.554,444.228,349.841z"/>
			</g>
		</g>
	</g>
	<g>
		<g>
			<polygon fill="#CFC08E" points="70.734,615.803 70.734,499.095 79.508,484.465 38.976,495.726 46.837,505.276 48.19,635.224 
				42.317,650.232 87.059,636.367 93.655,599.194 80.021,613.738 			"/>
		</g>
		<g>
			<path fill="#CFC08E" d="M313.366,555.576c0.111-2.859,1.058-28.343-0.039-36.847c-0.728-5.632-3.286-9.17-5.902-11.21
				l5.218-11.527l0.073-0.61c0.06-0.466,1.411-11.61,0.023-32.355c-0.85-12.752-9.281-20.065-23.135-20.065
				c-3.578,0-6.168,0.509-6.402,0.556l-37.363,7.219l0.067,0.075l-22.509,3.796l-18.864,70.344l-21.584-62.659l-24.935,5.794
				l0.544-1.227l-35.82,9.365l0.014,0.023l-32.785,7.128l7.336,9.167l1.397,136.155h17.266l43.122-11.824l-0.938,1.511l38.871-9.999
				l-5.803-10.545l-0.119-21.261l14.214,53.692l12.771-62.459l0.372,21.117l-5.92,15.978l36.736-10.115l-0.369-0.556l5.301-0.575
				c0.665-0.075,16.459-1.845,37.235-8.767C309.903,578.733,313.848,563.179,313.366,555.576z M277.394,496.901v-31.101
				c1.716-0.336,3.298-0.514,4.717-0.514c6.588,0,7.618,3.702,7.765,4.825c0.399,9.483,0.599,20.601,0.317,24.485
				C287.917,495.39,282.665,496.273,277.394,496.901z M290.328,559.682c-0.096,4.924-7.446,7.579-12.934,8.738v-53.38l12.958-2.537
				C290.401,523.65,290.504,550.605,290.328,559.682z M125.974,481.312l3.926,6.166v113.437l-7.55,1.99l-1.14-115.593
				L125.974,481.312z M153.453,606.685l-1.349-125.126L158,468.132l8.976,10.098l0.338,125.349l-7.05,11.388L153.453,606.685z
				 M242.021,583.915l-1.006-120.777l6.823-10.235l6.339,6.87l0.67,121.354l-7.594,10.63L242.021,583.915z"/>
		</g>
		<g>
			<polygon fill="#CFC08E" points="348.588,550.304 346.537,504.565 361.207,501.062 369.367,478.201 346.389,481.594 
				346.389,456.24 356.873,453.877 367.329,459.366 367.329,429.965 313.071,436.926 323.831,448.578 323.179,490.281 
				315.372,509.58 323.876,509.58 324.192,566.097 312.716,580.797 367.329,569.228 367.329,536.207 354.775,549.415 			"/>
		</g>
		<g>
			<path fill="#CFC08E" d="M429.234,487.441l6.275-15.107l0.073-0.442c0.102-0.588,2.49-14.575,0.016-30.829
				c-1.649-10.816-11.805-17.27-27.164-17.27c-1.73,0-2.832,0.089-2.952,0.102l-36.074,5.922l7.312,10.392v115.926l-8.801,13.266
				l35.479-5.859l-0.346-62.075c4.204,0.112,5.751,1.594,5.79,2.848l-0.016,0.023l1.676,57.547l26.158-4.928l0.05-3.314
				c0.028-1.729,0.643-42.497-0.003-52.501C436.212,493.6,432.375,489.533,429.234,487.441z M412.766,449.597v24.501
				c-1.907,0.639-5.679,1.582-12.479,2.235v-31.162c1.084-0.114,2.361-0.204,3.694-0.204
				C412.766,444.967,412.766,448.328,412.766,449.597z"/>
		</g>
		<g>
			<path fill="#CFC08E" d="M447.423,429.401c-0.082,13.658-0.673,111.118-0.673,119.368c0,7.864-2.379,13.419-2.397,13.463
				l-2.425,5.46l5.969,0.242c0.372,0.011,0.74,0.019,1.104,0.019c15.312,0,21.939-13.391,23.303-20.474l0.073-0.38V415.523
				l-32.221,5.836L447.423,429.401z"/>
		</g>
		<g>
			<path fill="#CFC08E" d="M490.459,413.502l6.564,11.312l-21.672,126.591l27.591-5.022l1.695-16.896l10.012-0.979l1.065,16.857
				l28.3-6.344l-21.513-128.519L490.459,413.502z M509.821,475.468l3.748,31.241l-7.653,0.776L509.821,475.468z"/>
		</g>
		<g>
			<path fill="#CFC08E" d="M576.634,512.165l-3.92,0.239l-0.67-85.009c0.634-0.258,1.516-0.505,2.655-0.567
				c0.807-0.044,1.578-0.075,2.318-0.091l0.247,27.481l24.301-2.902v-31.649c0.141-1.253,0.161-4.151-1.998-7.215
				c-2.78-3.933-8.014-6.455-15.55-7.5c-2.291-0.317-4.63-0.479-6.945-0.479c-16.921,0-29.384,8.167-29.631,19.424
				c-0.239,10.979-0.011,94.562,0,99.278c-0.031,1.037,0.125,4.32,3.048,7.462c3.521,3.78,9.55,5.702,17.923,5.702
				c0.917,0,1.881-0.019,2.892-0.07c24.119-1.146,30.376-14.739,30.313-21.766c-0.052-5.961,0-26.619,0-26.831l0.011-4.587
				l-24.034,2.899L576.634,512.165z"/>
		</g>
		<g>
			<path fill="#CFC08E" d="M667.796,512.631l-14.731-58.687l14.861-43.388l8.949-10.729H645.02v2.425h-39.804L613.529,413
				l-0.459,38.145l-7.422,15.815l7.669,1.434l0.22,51.625l-10.157,11.352l41.591-4.622l-0.204-0.266l31.382-4.022L667.796,512.631z
				 M645.02,407.808l-7.884,21.323l-0.2-16.871l8.084-8.561V407.808z M644.664,526.341l-7.485-9.979l0.345-26.773l8.155,28.656
				L644.664,526.341z"/>
		</g>
		<g>
			<path fill="#CFC08E" d="M731.318,477.242c-0.07-0.541-1.762-13.455-12.651-23.548c-2.053-1.904-4.03-3.601-5.782-5.096
				c-6.776-5.798-10.856-9.292-11.833-17.579c-0.725-6.13-0.751-10.342-0.631-12.903h6.628l0.242,22.761h23.087v-33.41l-0.524-0.933
				c-0.247-0.438-6.46-11.155-25.504-10.337c-18.699,0.814-26.838,10.485-27.578,16.389c-0.51,4.054-0.078,25.079-0.031,27.466
				l0.008,0.481l0.125,0.466c0.114,0.423,2.848,10.525,11.477,17.807l1.88,1.579c6.776,5.655,16.053,13.406,16.053,19.775v18.766
				l-7.141,0.564v-24.657l-23.612,2.954v30.457l0.005,0.192c0.023,0.505,0.818,12.343,20.38,12.343c1.68,0,3.485-0.086,5.361-0.26
				c19.26-1.79,28.232-6.964,29.087-16.768c0.494-5.629,0.964-25.092,0.983-25.918l0.008-0.298L731.318,477.242z"/>
		</g>
	</g>
	<g>
		<g>
			<g>
				<polygon fill="#FFFFFF" points="46.079,497.967 50.883,503.803 52.258,635.968 49.171,643.864 83.499,633.223 87.271,611.937 
					82.125,617.433 66.676,620.863 66.676,497.967 70.795,491.1 				"/>
				<path d="M47.117,645.774l3.921-10.03l-1.367-131.499l-5.723-6.951l29.461-8.183l-5.515,9.191v121.042l13.6-3.021l7.692-8.212
					l-4.618,26.055L47.117,645.774z M48.209,498.641l3.886,4.719l0.005,0.432l1.377,132.399l-2.252,5.762l31.205-9.675l2.926-16.514
					l-2.601,2.776l-17.297,3.843V497.63l2.722-4.54L48.209,498.641z"/>
			</g>
			<g>
				<polygon fill="#FFFFFF" points="101.347,491.1 97.226,485.949 121.258,480.729 117.138,485.915 118.342,608.161 133.959,604.04 
					133.959,486.298 129.15,478.743 151.465,472.905 148.032,480.729 149.407,608.161 154.214,613.997 115.424,624.636 
					102.719,624.636 				"/>
				<path d="M115.589,625.854h-14.074l-1.382-134.322l-5.084-6.354l29.287-6.364l-5.975,7.521l1.186,120.248l13.196-3.482V486.654
					l-5.513-8.667l26.364-6.896l-4.339,9.887l1.367,126.74l5.731,6.956L115.589,625.854z M103.923,623.417h11.336l36.821-10.098
					l-3.886-4.716l-0.006-0.43l-1.376-127.696l2.526-5.757l-18.265,4.777l4.103,6.443v119.036l-18.038,4.763l-1.224-124.245
					l2.266-2.852l-18.778,4.077l3.157,3.948L103.923,623.417z"/>
			</g>
			<g>
				<polygon fill="#FFFFFF" points="171.035,476.683 165.54,470.506 180.302,467.069 205.017,538.82 226.647,458.179 
					241.063,455.742 236.943,461.922 237.975,585.16 242.781,592.372 219.093,598.895 222.526,589.623 221.494,530.578 
					204.16,616.058 186.828,539.164 187.168,598.895 190.944,605.76 166.914,611.937 171.375,604.73 				"/>
				<path d="M202.971,616.323l-14.863-65.934l0.277,48.187l4.382,7.971l-28.481,7.325l5.872-9.486l-0.339-127.237l-6.549-7.364
					l17.827-4.147l23.778,69.023l20.801-77.551l17.966-3.035l-5.476,8.213l1.025,122.501l5.54,8.312l-27.602,7.6l4.177-11.285
					l-0.833-47.665l-15.12,74.55L202.971,616.323z M188.017,538.898l16.081,71.342l16.204-79.904l2.411,0.224l1.036,59.271
					l-2.689,7.256l19.773-5.442l-4.071-6.111l-0.004-0.36l-1.031-123.613l2.761-4.149l-10.866,1.838l-22.458,83.732l-25.654-74.478
					l-11.697,2.722l4.438,4.991l0.002,0.462l0.341,128.396l-3.051,4.929l19.579-5.03l-3.171-6.07l-0.341-59.73L188.017,538.898z"/>
			</g>
			<g>
				<path fill="#FFFFFF" d="M309.299,519.256c-1.106-8.587-7.131-9.962-7.131-9.962l6.523-14.417c0,0,1.374-10.983,0-31.583
					c-1.371-20.596-24.72-15.789-24.72-15.789l-30.207,5.833l4.462,4.841l0.688,124.236l-5.15,7.208c0,0,15.788-1.717,36.391-8.579
					c20.593-6.87,19.144-25.405,19.144-25.405S310.406,527.834,309.299,519.256z M273.332,462.612
					c19.566-5.499,20.599,7.208,20.599,7.208s1.025,24.374,0,27.12c-1.033,2.745-20.599,4.457-20.599,4.457V462.612z
					 M294.386,559.76c-0.227,11.672-21.055,13.389-21.055,13.389V511.7l21.055-4.121
					C294.386,507.579,294.613,548.087,294.386,559.76z"/>
				<path d="M251.192,591.126l6.502-9.099l-0.682-123.37l-5.626-6.099l32.354-6.247c0.086-0.021,2.509-0.511,5.864-0.511
					c7.148,0,19.292,2.26,20.302,17.41c1.368,20.482,0.05,31.363-0.006,31.817l-0.097,0.349l-5.989,13.239
					c2.067,0.984,5.818,3.675,6.695,10.482c1.107,8.582,0.053,35.448,0.008,36.587c0.014,0.055,1.275,19.425-19.973,26.515
					c-20.493,6.823-36.489,8.616-36.646,8.632L251.192,591.126z M256.141,454.117l3.301,3.584l0.003,0.47l0.69,124.632l-3.741,5.233
					c5.385-0.808,18.108-3.059,33.378-8.146c19.404-6.476,18.366-23.44,18.313-24.157c0.008-0.419,1.087-27.942,0.006-36.32
					c-0.985-7.659-6.142-8.92-6.192-8.931l-1.453-0.333l7.056-15.603c0.165-1.49,1.23-12.346-0.025-31.17
					c-0.835-12.515-10.181-15.139-17.874-15.139c-3.09,0-5.366,0.455-5.388,0.463L256.141,454.117z M272.115,574.472v-63.776
					l23.48-4.593l0.008,1.469c0.003,0.407,0.224,40.656,0,52.212c-0.246,12.628-21.276,14.504-22.171,14.579L272.115,574.472z
					 M274.551,512.701v59.079c4.419-0.603,18.446-3.207,18.617-12.044c0.2-10.267,0.045-43.294,0.008-50.681L274.551,512.701z
					 M272.115,502.726v-41.038l0.889-0.245c3.367-0.948,6.432-1.428,9.11-1.428c12.104,0,13.025,9.608,13.031,9.707
					c0.175,4.16,0.984,24.809-0.072,27.646c-1.08,2.863-12.361,4.434-21.635,5.244L272.115,502.726z M274.551,463.545v36.518
					c8.269-0.799,17.276-2.352,18.282-3.631c0.568-1.552,0.374-14.865-0.117-26.562c-0.025-0.25-0.795-7.422-10.602-7.422
					C279.889,462.448,277.35,462.815,274.551,463.545z"/>
			</g>
			<g>
				<polygon fill="#FFFFFF" points="363.272,434.578 321.39,439.949 327.913,447.02 327.225,491.1 321.39,505.519 327.913,505.519 
					328.259,567.484 322.764,574.519 363.272,565.933 363.272,546.367 356.745,553.237 344.735,554.954 342.333,501.397 
					358.126,497.622 363.272,483.203 342.333,486.298 342.333,452.996 357.436,449.597 363.272,452.652 				"/>
				<path d="M319.746,576.402l7.294-9.334l-0.338-60.331h-7.117l6.426-15.884l0.676-43.369l-7.79-8.443l45.594-5.844v21.469
					l-7.222-3.785l-13.718,3.09v30.918l21.551-3.186l-6.051,16.948l-15.457,3.699l2.297,51.209l10.262-1.466l8.338-8.777v23.604
					L319.746,576.402z M323.197,504.3h5.925l0.357,63.599l-3.697,4.736l36.273-7.689v-15.527l-4.719,4.963l-13.755,1.967
					l-2.51-55.901l16.13-3.855l4.242-11.887l-20.328,3.004v-35.687l16.49-3.709l4.45,2.326v-14.677l-38.169,4.896l5.252,5.696
					l-0.784,45.004L323.197,504.3z"/>
			</g>
			<g>
				<path fill="#FFFFFF" d="M432.654,501.397c-0.651-9.952-8.623-12.013-8.623-12.013l7.553-18.194c0,0,2.404-13.729,0-29.521
					c-2.405-15.784-25.746-13.733-25.746-13.733l-29.384,4.834l4.325,6.153v118.433l-4.325,6.525l22.86-3.779l-0.341-62.479
					c14.417-1.716,13.92,6.928,13.92,6.928l1.531,52.465l18.23-3.437C432.654,553.578,433.299,511.359,432.654,501.397z
					 M416.825,476.683c0,0-3.436,2.938-20.599,4.046v-39.06c0,0,20.599-4.407,20.599,7.928
					C416.825,461.922,416.825,476.683,416.825,476.683z"/>
				<path d="M373.894,565.536l5.665-8.55v-117.68l-5.216-7.422l31.298-5.151c0.091-0.012,1.125-0.102,2.79-0.102
					c6.643,0,22.313,1.446,24.355,14.853c2.408,15.809,0.097,29.347-0.005,29.918l-7.148,17.297
					c2.479,1.124,7.701,4.445,8.234,12.62c0.642,9.895,0.031,50.552,0.003,52.279l-0.016,0.995l-20.606,3.882l-1.574-53.89
					c0.003-0.172,0.058-1.99-1.458-3.563c-1.845-1.928-5.248-2.712-10.022-2.304l0.341,62.412L373.894,565.536z M378.564,433.654
					l3.431,4.884v119.185l-2.983,4.5l19.078-3.152l-0.34-62.529l1.077-0.13c6.181-0.72,10.649,0.278,13.196,2.973
					c2.226,2.354,2.091,5.119,2.083,5.238l1.492,50.931l15.853-2.984c0.091-6.438,0.567-42.142-0.012-51.093
					c-0.588-8.97-7.643-10.893-7.713-10.913l-1.354-0.352l8.089-19.486l0,0c-0.031,0,2.256-13.545-0.079-28.872
					c-1.76-11.539-15.938-12.784-21.95-12.784c-1.513,0-2.46,0.078-2.487,0.083L378.564,433.654z M395.007,482.028v-41.344
					l0.964-0.206c0.153-0.031,3.752-0.792,8.006-0.792c9.071,0,14.065,3.518,14.065,9.91v27.646l-0.428,0.365
					c-0.383,0.328-4.236,3.235-21.311,4.335L395.007,482.028z M397.443,442.683v36.741c12.213-0.893,16.832-2.741,18.163-3.427
					v-26.4c0-4.96-3.913-7.474-11.629-7.474C401.247,442.123,398.752,442.464,397.443,442.683z"/>
			</g>
			<g>
				<path fill="#FFFFFF" d="M451.497,427.85l-3.436-3.799l20.255-3.666v126.332c0,0-3.435,17.845-20.255,17.164
					c0,0,2.751-6.186,2.751-15.111C450.812,539.847,451.497,427.85,451.497,427.85z"/>
				<path d="M448.994,565.119c-0.324,0-0.649-0.008-0.982-0.021l-1.787-0.074l0.727-1.638c0.026-0.06,2.643-6.083,2.643-14.617
					c0-8.532,0.635-112.498,0.682-120.454l-4.587-5.072l23.847-4.316v127.79C469.475,547.128,465.818,565.119,448.994,565.119z
					 M450.436,424.858l2.283,2.524l-0.003,0.475c-0.008,1.12-0.686,112.096-0.686,120.912c0,6.408-1.364,11.413-2.209,13.897
					c14.089-0.569,17.171-15.536,17.301-16.183l-0.023-124.643L450.436,424.858z"/>
			</g>
			<g>
				<path fill="#FFFFFF" d="M519.124,414.894l-21.972,2.061l4.117,7.097l-20.936,122.316l18.879-3.431l1.717-17.163l17.504-1.717
					l1.034,16.307l19.909-4.466L519.124,414.894z M501.269,512.04l8.586-70.371l8.237,68.659L501.269,512.04z"/>
				<path d="M478.84,547.876l21.156-123.594l-4.854-8.364l24.994-2.345l20.63,123.262l-22.425,5.028l-1.045-16.471l-15.256,1.496
					l-1.708,17.082L478.84,547.876z M499.163,417.986l3.38,5.833l-20.717,121.04l16.267-2.957l1.725-17.246l19.752-1.936
					l1.022,16.144l17.396-3.902l-19.879-118.75L499.163,417.986z M499.875,513.407l8.771-71.887l2.42,0.003l8.381,69.891
					L499.875,513.407z M509.844,451.806l-7.18,58.868l14.073-1.43L509.844,451.806z"/>
			</g>
		</g>
		<g>
			<g>
				<path fill="#FFFFFF" d="M581.28,449.646l16.228-1.934v-28.328c0,0,1.696-8.232-14.042-10.415
					c-15.742-2.178-31.723,3.874-31.965,15.014c-0.243,11.137,0,99.271,0,99.271s-0.722,9.929,19.616,8.962
					c20.336-0.972,26.497-11.621,26.442-17.678c-0.052-6.052,0-26.873,0-26.873l-16.036,1.935l-0.968,26.393l-11.86,0.729
					l-0.728-91.526c0,0,2.126-2.178,6.51-2.417c4.383-0.247,6.565,0,6.565,0L581.28,449.646z"/>
				<path d="M568.417,533.501c-7.552,0-12.884-1.618-15.844-4.802c-2.465-2.649-2.295-5.418-2.287-5.531
					c-0.008-0.791-0.244-88.188-0.005-99.211c0.239-10.929,13.663-16.644,26.796-16.644c2.186,0,4.39,0.153,6.557,0.45
					c6.725,0.933,11.305,3.063,13.615,6.33c1.982,2.812,1.472,5.429,1.448,5.539l0.028,29.161l-18.652,2.225l-0.239-27.101
					c-1.042-0.044-2.804-0.062-5.292,0.073c-2.894,0.161-4.649,1.227-5.354,1.759l0.712,89.679l9.479-0.584l0.964-26.33
					l18.437-2.225l-0.003,1.379c0,0-0.052,20.812,0,26.858c0.062,7.065-7.236,17.932-27.604,18.907
					C570.208,533.478,569.291,533.501,568.417,533.501z M577.078,409.751c-11.95,0-24.155,4.896-24.36,14.261
					c-0.237,10.991-0.003,98.357,0,99.238c-0.008,0.156-0.073,1.994,1.696,3.854c1.893,1.985,6.408,4.411,16.644,3.893
					c18.652-0.889,25.338-10.324,25.283-16.446c-0.042-5.116-0.011-20.768-0.003-25.512l-13.635,1.646l-0.972,26.455l-14.242,0.873
					l-0.743-93.312l0.352-0.356c0.099-0.104,2.511-2.523,7.312-2.782c4.536-0.263,6.769,0.005,6.769,0.005l1.07,0.126l0.237,26.583
					l13.805-1.645v-27.247c0.034-0.305,0.325-2.014-1.078-3.951c-1.327-1.829-4.469-4.227-11.914-5.258
					C581.246,409.892,579.149,409.751,577.078,409.751z"/>
			</g>
			<g>
				<polygon fill="#FFFFFF" points="617.601,411.638 613.49,406.311 636.975,406.311 632.859,410.666 633.343,451.101 
					649.079,408.532 649.079,403.887 668.208,403.887 664.332,408.532 648.835,453.765 664.087,514.538 668.208,519.381 
					649.321,521.801 649.807,517.932 633.823,461.755 633.101,517.688 637.46,523.497 613.49,526.164 617.601,521.559 
					617.359,465.024 611.551,463.936 617.121,452.072 				"/>
				<path d="M610.462,527.728l5.922-6.632l-0.24-55.061l-6.364-1.19l6.125-13.052l0.475-39.749l-5.37-6.951h28.794l-5.723,6.052
					l0.403,33.364l13.376-36.196v-5.645h22.948l-5.4,6.471l-15.303,44.681l15.095,60.147l5.395,6.334l-22.675,2.906l0.648-5.182
					l-13.638-47.921l-0.607,47.185l5.391,7.184L610.462,527.728z M613.321,463.026l5.252,0.987l0.247,58.006l-2.303,2.582
					l18.691-2.079l-3.329-4.435l0.003-0.416l0.722-55.933l2.389-0.317l16.053,56.414l-0.322,2.559l15.099-1.936l-2.918-3.622
					l-15.337-61.127l15.827-45.957l2.214-2.649h-15.312l-0.073,3.851l-15.734,42.57l-2.361-0.408l-0.49-40.928l2.51-2.659h-18.177
					l2.855,3.701l-0.604,41.359L613.321,463.026z"/>
			</g>
			<g>
				<path fill="#FFFFFF" d="M711.307,436.815h15.014v-28.283c0,0-5.09-9.001-21.795-8.281c-16.706,0.731-23.243,8.962-23.728,12.835
					c-0.486,3.874,0,26.883,0,26.883s2.42,9.196,10.171,15.734c7.748,6.537,19.366,15.498,19.366,24.457s0,22.514,0,22.514
					l-15.253,1.215v-24.457l-15.492,1.935v26.878c0,0,0.481,10.168,21.305,8.229c20.822-1.936,24.938-7.505,25.426-13.075
					c0.481-5.569,0.97-25.663,0.97-25.663s-1.457-11.864-11.386-21.065c-9.925-9.201-17.431-12.828-18.884-25.182
					c-1.453-12.346-0.242-17.431-0.242-17.431h14.284L711.307,436.815z"/>
				<path d="M695.909,517.939c-16.882,0-17.517-9.245-17.536-9.636v-28.011l17.927-2.24v24.517l12.817-1.019V480.16
					c0-7.7-9.871-15.946-17.077-21.97l-1.854-1.555c-7.954-6.711-10.46-15.967-10.566-16.357c-0.06-1.227-0.521-23.428-0.028-27.344
					c0.525-4.204,7.302-13.13,24.881-13.901c17.407-0.697,22.694,8.52,22.91,8.899l0.156,0.278v29.823h-17.438l-0.242-22.758
					h-12.044c-0.255,1.954-0.644,7.047,0.419,16.071c1.104,9.396,5.758,13.377,12.8,19.403c1.782,1.529,3.69,3.165,5.699,5.025
					c10.142,9.397,11.708,21.31,11.771,21.811c-0.013,0.999-0.49,20.372-0.967,25.918c-0.714,8.17-8.896,12.542-26.525,14.183
					C699.219,517.852,697.503,517.939,695.909,517.939z M680.809,482.439v25.805c0.021,0.227,0.683,7.258,15.1,7.258
					c1.521,0,3.16-0.081,4.872-0.242c20.804-1.931,23.93-7.411,24.324-11.966c0.474-5.469,0.964-25.385,0.969-25.59l0,0
					c-0.013,0.005-1.561-11.397-10.996-20.141c-1.985-1.837-3.869-3.454-5.633-4.958c-7.206-6.174-12.416-10.631-13.633-20.977
					c-1.462-12.416-0.271-17.637-0.217-17.853l0.22-0.936h16.454l0.244,22.756h12.588v-26.713
					c-0.943-1.401-6.173-8.014-20.525-7.414c-15.87,0.692-22.146,8.375-22.571,11.77c-0.466,3.73,0.003,26.346,0.011,26.702l0,0
					c0.036,0,2.473,8.704,9.738,14.829l1.849,1.551c7.998,6.684,17.95,15.002,17.95,23.839v23.639l-17.688,1.41v-24.397
					L680.809,482.439z"/>
			</g>
		</g>
	</g>
	<g>
		<path fill="#CFC08E" d="M520.737,269.774l188.055-45.261l4.779,11.293l-192.834,42.595
			C520.737,278.401,513.309,280.194,520.737,269.774z"/>
	</g>
	<g>
		<polygon fill="#6E4D29" points="522.279,290.479 715.02,246.849 713.571,235.807 521.822,278.401 		"/>
	</g>
	<g>
		<path fill="#D8C5B0" d="M622.162,268.545c6.298,21.88,9.098,53.068-10.61,81.95c0,0,26.5-20.224,35.239-51.642
			c8.738-31.417-35.39-67.057-35.39-67.057l-1.331,8.046c0,0,1.88,3.022,4.384,8.298l7.562-1.931l9.173,20.355L622.162,268.545z"/>
	</g>
	<g>
		<g>
			<g>
				<path fill="#FFFFFF" stroke="#FFFFFF" stroke-miterlimit="10" d="M654.903,353.699c-19.444,0-34.348-3.051-40.149-4.447
					c2.97-4.647,5.621-9.42,7.909-14.217c5.393,0.615,13.45,1.272,23.286,1.269c30.277,0,73.982-6.08,111.061-34.852
					c5.122,3.495,9.373,5.961,11.888,7.342c-38.03,37.05-82.852,44.905-113.99,44.905
					C654.903,353.699,654.907,353.699,654.903,353.699z"/>
			</g>
			<g>
				<path stroke="#FFFFFF" stroke-miterlimit="10" d="M757.087,303.923c3.309,2.218,6.219,3.988,8.475,5.291
					c-37.128,34.994-80.418,42.479-110.659,42.479c-16.683,0-30.003-2.275-36.953-3.772c2.154-3.532,4.129-7.125,5.9-10.74
					c5.4,0.572,12.995,1.133,22.099,1.133C676.226,338.313,719.805,332.285,757.087,303.923 M756.934,298.964
					c-37.363,29.589-81.992,35.337-110.985,35.337c-10.654,0-19.188-0.778-24.489-1.429c-2.65,5.742-5.906,11.621-9.908,17.622
					c0,0,17.687,5.21,43.352,5.21c32.836,0,78.726-8.527,117.347-47.408C772.25,308.297,765.677,305.051,756.934,298.964
					L756.934,298.964z"/>
			</g>
		</g>
		<g>
			<path stroke="#FFFFFF" stroke-miterlimit="10" d="M752.982,296.122c-20.619-15.356-54.339-25.679-49.542-81.393l-92.039,17.068
				c0,0,35.573,41.883,11.262,98.323c-0.396,0.915-0.776,1.829-1.203,2.753c19.715,2.428,84.38,6.557,135.475-33.909
				C755.653,298.073,754.341,297.134,752.982,296.122z"/>
		</g>
	</g>
	<g>
		<path fill="#FFFFFF" d="M631.793,239.843c0,0,26.51,54.013,10.027,83.411c0,0,27.198,3.212,61.619-10.697
			c0,0-51.495,10.864-52.095,4.346C650.747,310.386,657.363,278.519,631.793,239.843z"/>
	</g>
</g>
</svg>
