<?xml version="1.0" encoding="utf-8"?>
<!-- Generator: Adobe Illustrator 16.0.4, SVG Export Plug-In . SVG Version: 6.00 Build 0)  -->
<!DOCTYPE svg PUBLIC "-//W3C//DTD SVG 1.1//EN" "http://www.w3.org/Graphics/SVG/1.1/DTD/svg11.dtd">
<svg version="1.1" id="Layer_1" xmlns="http://www.w3.org/2000/svg" xmlns:xlink="http://www.w3.org/1999/xlink" x="0px" y="0px" viewBox="0 0 766.1 628.547" enable-background="new 0 0 766.1 628.547" xml:space="preserve">
<g>
	<path fill="#FFC422" d="M141.971,48.946C231.78,11.016,330.549-5.566,427.807,1.649c71.358,4.722,141.5,22.924,207.062,51.271
		c6.779,3.164,14.959,6.108,18.2,13.495c2.185,4.115,1.979,8.898,1.902,13.402c5.999,4.815,12.188,9.413,17.577,14.929
		c5.314,5.454,12.748,8.493,20.321,8.759c12.936,1.184,24.888-4.504,36.762-8.634c-4.315,14.789-9.615,29.422-17.578,42.684
		c-1.729,2.447-2.992,6.405,0.687,7.854c8.821-1.886,18.59-3.647,27.037,0.608c19.854,8.821,28.473,34.97,19.604,54.387
		c-2.603,5.61-7.603,9.491-11.827,13.809c11.984,18.559,20.853,40.61,18.015,63.083c-2.025,16.97-13.138,31.509-27.006,40.891
		c-6.669-1.043-14.167-2.322-20.151,1.698c-5.531,2.867-8.71,8.4-11.109,13.917c-12.265,6.03-26.601,5.174-39.412,1.479
		c5.252,9.288,6.094,20.743,1.467,30.451c-13.871,28.394-37.777,51.206-65.655,65.731c-15.834,8.151-32.492,14.836-49.773,19.2
		c11.141,19.339,20.43,42.186,14.74,64.766c-6.311,24.418-26.241,41.702-45.813,55.976c0.342-3.179,0.654-6.374,0.997-9.537
		c-20.385,18.515-47.406,27.771-74.321,31.323c-15.302,15.709-35.935,24.607-56.069,32.367c-4.473,1.449-9.272,4.521-13.963,2.073
		c-17.797-6.638-35.749-13.744-51.146-25.075c-5.142-3.506-8.882-9.739-15.646-10.158c-25.307-3.789-50.008-13.449-69.502-30.326
		c0.655,3.1,1.013,6.278,1.651,9.395c-17.89-12.295-35.079-27.581-43.603-48.026c-4.955-11.799-5.329-24.904-3.039-37.37
		c-9.381-13.419-14.181-29.577-15.709-45.771c-28.907-11.89-55.634-30.543-73.648-56.396c-7.152-9.819-14.477-20.913-14.025-33.567
		c-0.249-5.502,2.572-10.364,4.738-15.211c-12.794,3.305-27.068,5.439-39.427-0.45c-5.298-5.144-7.465-13.823-15.365-16.083
		c-5.626-3.069-11.969-0.25-17.796-1.138c-11.547-6.468-23.921-15.521-26.306-29.468c-2.384-7.075,2.042-13.73,5.813-19.355
		c4.644-7.012,11.36-12.248,18.124-17.079c-3.444-3.755-7.417-7.325-9.257-12.202c-3.195-8.727-1.979-18.482,2.214-26.663
		c-5.082-4.552-10.302-9.584-12.156-16.394c-5.938-17.642,1.761-38.68,17.594-48.404c9.147-5.704,20.835-5.423,30.747-1.964
		c1.216-2.446,4.301-5.283,1.948-8.01c-8.29-13.308-13.9-28.051-18.279-43.058c15.318,5.923,32.819,12.904,48.979,5.75
		c9.1-4.986,15.35-13.759,24.139-19.276c2.633-4.8,0.717-11.485,4.114-16.285C121.057,56.006,132.418,53.325,141.971,48.946
		L141.971,48.946z"/>
	<path fill="#231F20" d="M387.289,11.093c82.826-0.015,165.25,18.42,241.174,51.24c5.328,2.509,11.937,4.192,15.069,9.662
		c0.997,4.956,0.39,10.083,0.515,15.101c13.899,5.766,21.69,20.415,36.077,25.23c10.332,3.974,21.722,2.368,32.162-0.311
		c-4.067,10.02-8.584,20.009-15.582,28.378c2.929,8.071,8.632,14.93,15.989,19.354c5.952-5.921,15.351-6.779,22.86-3.584
		c13.807,6.903,20.165,25.23,13.885,39.24c-2.213,5.096-6.997,8.275-11.951,10.3c0,4.41-0.563,8.805-0.5,13.216
		c10.831,14.991,18.607,33.084,17.844,51.878c0.157,13.885-7.186,27.692-18.84,35.188c-10.958-0.576-23.065,1.372-30.606,10.112
		c-3.554,3.554-4.973,10.115-10.832,10.474c-10.783,2.616-21.816-0.779-31.526-5.409c-2.072,6.266-5.547,11.955-10.158,16.674
		c3.241,2.496,7.166,5.004,8.039,9.337c2.229,10.128-3.927,19.262-9.318,27.209c-11.766,17.608-27.551,32.428-45.814,43.136
		c-21.321,12.45-44.851,20.85-68.866,26.304c2.37,6.062,6.577,11.097,9.691,16.753c7.093,12.466,12.938,26.244,12.891,40.829
		c-0.313,16.675-9.367,32.212-21.88,42.839c0.231-4.518,0.56-9.022,0.545-13.524c-6.919,5.546-11.75,13.106-18.108,19.23
		c-17.189,17.935-41.53,27.177-65.654,30.995c2.37-4.41,4.271-9.165,3.958-14.291c-8.805,5.611-12.731,15.881-20.54,22.535
		c-15.38,13.51-34.891,20.694-53.653,28.112c-18.997-6.7-38.352-14.291-53.841-27.505c-8.337-6.67-12.39-17.376-21.521-23.096
		c-0.25,5.205,1.636,10.067,4.441,14.368c-18.623-3.085-37.183-9.008-52.783-19.854c-12.637-7.854-20.367-20.959-31.463-30.481
		c0.031,4.69,0.39,9.365,0.669,14.056c-10.02-9.659-18.763-21.584-21.053-35.608c-2.665-13.433,1.496-27.037,7.106-39.162
		c2.353-4.099-0.967-8.445-1.776-12.543c-4.784,5.47-6.576,12.592-8.711,19.354c-7.902-13.294-12-28.644-11.58-44.103
		c-16.175-5.923-31.634-13.933-45.535-24.124c-14.867-10.986-27.194-25.182-36.825-40.907c-3.584-6.124-6.748-13.355-4.987-20.57
		c1.09-4.146,4.675-6.701,7.839-9.211c-4.676-4.892-8.369-10.673-10.286-17.188c-11.579,5.517-24.98,9.318-37.51,4.519
		c-3.74-7.931-10.301-14.71-18.809-17.36c-5.735-2.306-11.968-1.433-17.952-2.041c-7.606-4.411-16.052-10.207-17.938-19.433
		c-1.278-4.005,1.622-7.589,3.492-10.847c6.965-11.094,18.996-17.78,31.292-21.334c-0.032-4.316-0.048-8.633-0.125-12.934
		c-2.945,0.889-5.828,1.979-8.368,3.756c-6.234-1.652-12.42-6.156-13.169-12.998c-1.776-9.396,4.378-17.438,9.288-24.762
		c-6.918-1.668-13.963-5.236-17.142-11.969c-6.357-13.635-0.062-31.728,13.231-38.694c7.698-3.833,17.594-2.774,23.967,3.133
		c7.153-5.111,12.654-12.139,16.191-20.166c-6.265-8.446-11.594-17.594-15.148-27.52c10.052,2.634,20.898,4.098,30.934,0.561
		c14.821-4.598,22.784-19.588,36.917-25.525c0.094-7.34-2.073-17.61,6.826-20.727C210.29,29.7,298.773,10.096,387.289,11.093
		L387.289,11.093z"/>
	<path fill="#FFC424" d="M295.953,31.369c42.014-6.53,84.745-7.746,127.163-5.283c49.042,3.148,97.539,12.903,144.366,27.754
		c0.453,2.711,0.857,5.438,1.325,8.165c1.496-2.025,2.945-4.083,4.425-6.109c17.362,5.658,34.348,12.422,51.193,19.448
		c2.275,1.03,5.345,2.354,5.316,5.315c0.731,8.851,0.062,17.75,0.263,26.617c1.496-3.179,2.992-6.358,4.691-9.444
		c14.805,4.894,22.533,20.305,36.948,25.807c5.595,2.353,11.72,2.773,17.704,3.164c-7.699,5.532-16.457,10.285-26.148,10.643
		c-13.155,0.889-25.075-5.485-36.699-10.659c-36.296-16.192-74.211-28.799-113.015-37.354c-1.263-0.234-2.447-0.655-3.552-1.247
		c-0.75-4.051-1.186-8.149-1.824-12.218c-1.604,3.693-3.304,7.34-5.05,10.971c-97.368-19.246-199.612-15.07-294.517,14.43
		c-4.519,1.434-9.038,2.867-13.62,4.067c-0.701-1.183-2.072-3.552-2.757-4.737c-0.733,2.26-1.449,4.536-2.167,6.795
		c-20.493,6.747-40.377,15.178-60.013,24.076c-10.051,4.675-21.537,7.589-32.554,4.894c-7.107-1.481-13.449-5.252-19.152-9.6
		c9.599-0.374,19.494-2.618,27.052-8.882c8.883-6.437,15.646-16.644,26.68-19.542c3.007,1.854,3.553,5.984,5.142,8.991
		c0.67-10.113-1.652-20.633,1.621-30.418C186.727,56.364,236.985,40.5,288.675,32.63c2.323,3.226,4.644,6.452,7.076,9.584
		C295.845,38.6,295.922,34.983,295.953,31.369L295.953,31.369z"/>
	<path fill="#FFC523" d="M317.692,43.601c5.111-0.592,10.737-1.932,15.507,0.795c4.846,2.977,4.721,10.488,1.23,14.478
		c-4.441,4.348-11.001,4.457-16.767,5.251C317.755,57.284,317.755,50.442,317.692,43.601L317.692,43.601z"/>
	<path fill="#FFCC31" d="M267.591,55.725c1.948,2.759,3.881,5.548,5.86,8.291c-3.88,0.764-7.761,1.543-11.641,2.306
		C263.773,62.816,265.689,59.278,267.591,55.725L267.591,55.725z"/>
	<path fill="#FFC324" d="M529.941,61.18c10.162-4.785,23.377,5.049,20.12,16.317c-2.058,6.264-10.55,4.456-14.976,1.917
		C528.308,76.202,526.67,67.506,529.941,61.18L529.941,61.18z"/>
	<path fill="#FFC41E" d="M211.754,65.013c3.833-1.2,7.885-2.167,11.734-0.483c-1.278,5.657-6.669,7.777-11.781,8.587
		C211.708,70.405,211.724,67.708,211.754,65.013L211.754,65.013z"/>
	<path fill="#FFC822" d="M161.716,82.482c2.789-0.967,5.563-1.885,8.352-2.821c4.161,6.109-4.098,9.102-8.415,11.112
		C161.654,87.999,161.669,85.241,161.716,82.482L161.716,82.482z"/>
	<path fill="#FFFFFF" d="M366.047,88.966c8.386,0.233,16.784-0.25,25.168-0.016c-0.077,30.529,0,61.041-0.044,91.57
		c-0.22,4.27,1.496,8.929,5.562,10.862c3.863,2.057,8.493-0.576,9.911-4.41c2.118-5.547,2.059-11.579,2.135-17.423
		c0.016-26.742,0-53.482,0-80.224c8.385,0.295,16.706,1.418,25.104,1.496c-2.898,2.665-5.969,5.859-5.562,10.129
		c-0.032,30.622-0.062,61.244,0.017,91.866c-0.156,4.239,2.943,7.372,5.5,10.347c-7.419-0.668-14.853-1.354-22.3-1.666
		c-0.422-2.182-0.872-4.348-1.295-6.515c-7.995,11.158-28.144,11.547-35.218-0.811c-2.805-5.142-3.226-11.158-3.459-16.893
		c-0.016-25.994,0.047-51.971-0.016-77.966C371.939,95.011,368.994,91.677,366.047,88.966L366.047,88.966z"/>
	<path fill="#FFFFFF" d="M311.709,92.861c11.532-0.545,22.986-2.245,34.533-2.743c-3.023,3.351-4.52,7.808-3.117,12.233
		c6.031,29.142,11.906,58.314,17.952,87.456c0.529,4.893,4.239,8.306,7.792,11.282c-10.27,0.327-20.555,0.53-30.762,1.729
		c2.321-2.836,4.706-6.093,3.74-10.019c-1.714-10.473-4.191-20.805-6.218-31.231c-11.797,5.236-20.383,16.037-24.699,27.988
		c-1.481,3.989-1.871,8.323-0.795,12.467c3.739-0.919,7.449-1.993,11.22-2.805c-7.574,8.338-19.355,13.371-30.591,10.534
		c-12.389-2.244-21.646-13.947-22.238-26.32c-0.405-5.859,0.358-12.685-4.051-17.313c-2.743-3.039-7.106-2.338-10.753-2.633
		c-0.047,14.025-0.109,28.051,0,42.075c-0.265,3.74,2.68,6.359,4.737,9.102c-19.526,3.661-38.584,9.458-57.504,15.443
		c1.886-3.304,4.411-6.794,3.491-10.831c-1.667-9.413-4.036-18.685-5.64-28.099c-9.943,6.25-16.645,16.412-21.631,26.805
		c-2.632,5.829-4.754,12.187-3.616,18.653c3.055-0.778,6.047-1.76,9.008-2.804c-2.51,5.142-5.533,10.612-11.111,12.902
		c-9.647,4.162-22.052,2.541-29.017-5.796c-4.146,2.648-8.758,4.488-13.651,5.236c4.847-5.174,9.022-11.563,8.852-18.934
		c0.125-18.171,0.202-36.357-0.031-54.528c-2.104-3.803-6.25-6.249-9.038-9.615c-3.398,2.307-6.841,4.535-10.41,6.592
		c-0.094,28.004-0.062,56.008-0.015,84.012c-0.204,4.816,2.025,9.289,5.656,12.358c-11.345,0.982-16.783-10.862-26.632-13.621
		c2.447-3.833,3.974-8.29,3.849-12.871c0-20.665-0.031-41.328,0-61.993c-4.582-2.353-8.789-5.345-13.153-8.073
		c-3.179,2.291-7.917,4.675-6.966,9.35c0.078,32.119-0.078,64.251,0.078,96.371c7.963-0.141,15.506-2.993,22.082-7.386
		c-1.122,5.329-2.447,10.814-5.859,15.209c-3.803,5.594-9.926,8.805-15.677,12.015c-7.185-6.171-15.023-12.03-24.388-14.352
		c-10.41-2.914-23.408-1.527-30.592,7.386c-1.168-8.446,6.53-13.916,13.028-17.376c6.5-3.693,14.104-4.596,21.443-3.817
		c-0.265-11.641,0.156-23.299-0.171-34.923c-0.172-4.411-3.864-8.556-8.431-8.462c-5.267-0.546-9.6,2.929-13.885,5.407
		c1.137-10.737,12.14-18.046,22.519-16.925c-0.203-8.632-0.093-17.266-0.078-25.915c-9.678,2.992-21.334,4.986-30.185-1.246
		c-7.014-4.411-6.375-16.971,1.993-19.512c5.112-2.634,11.657,0.125,12.811,5.891c-1.792,2.899-4.379,5.112-7.355,6.748
		c2.571,2.354,5.797,4.378,9.335,2.586c15.816-5.798,26.991-20.29,33.006-35.577c6.374,7.402,14.79,12.529,23.594,16.519
		c10.3-4.924,20.071-11.422,27.427-20.258c4.707,11.36,15.429,20.086,27.63,21.957c-2.26,2.712-4.473,5.781-4.27,9.506
		c-0.171,14.477,0.048,28.969-0.108,43.463c-0.109,6.81,0.841,14.586,6.497,19.137c5.719-33.38,11.921-66.667,17.75-100.016
		c1.028-3.397-1.262-6.093-3.35-8.416c10.722-3.974,21.582-7.542,32.336-11.438c-1.995,4.285-3.833,8.929-2.337,13.713
		c5.781,27.817,11.516,55.65,17.421,83.451c0.593,3.912,3.631,6.53,6.904,8.369c2.353-3.771,4.862-7.822,4.363-12.467
		c-0.062-30.216,0.125-60.433-0.093-90.65c0.452-3.817-2.696-6.108-5.267-8.259c11.642-2.977,23.25-6.607,35.25-7.776
		c8.368-0.888,17.889,1.667,22.377,9.335c8.276,15.084,3.694,38.414-13.854,44.553c6.936,2.292,13.09,7.667,14.042,15.241
		c1.308,9.833-0.063,22.082,9.662,28.144c6.311-31.728,12.56-63.472,18.7-95.232C316.43,99.717,314.669,95.729,311.709,92.861
		L311.709,92.861z"/>
	<path fill="#FFC525" d="M161.606,94.435c3.849-0.982,11.221-5.548,12.795,0.343c-1.902,5.486-7.964,7.2-12.779,9.241
		C161.606,100.824,161.606,97.63,161.606,94.435L161.606,94.435z"/>
	<path fill="#FEFFFF" d="M445.369,92.066c14.741,2.275,31.465,1.403,43.542,11.61c12.762,10.721,17.25,27.973,18.624,43.93
		c1.073,15.194,0.356,31.229-6.454,45.146c-4.237,8.773-13.168,15.879-23.299,15.349c-10.875-0.732-21.566-3.303-32.475-3.817
		c2.758-2.634,5.905-5.595,5.472-9.787c0.061-30.653,0.061-61.307,0-91.975C450.979,98.269,447.956,95.058,445.369,92.066
		L445.369,92.066z"/>
	<path fill="#231F20" d="M470.459,105.437c6.405,2.541,11.253,7.902,13.589,14.337c5.407,14.337,5.066,30.014,4.769,45.1
		c-0.779,9.724-0.857,20.648-7.448,28.534c-2.726,3.319-7.122,3.708-11.096,3.63C470.365,166.494,469.977,135.965,470.459,105.437
		L470.459,105.437z"/>
	<path fill="#FFFEFF" d="M518.116,104.331c15.256,3.989,30.402,8.306,45.534,12.763c1.588-0.654,3.194-1.31,4.768-2.042
		c3.163,12.981,7.074,25.775,10.178,38.773c-4.803-9.756-10.379-20.011-19.949-25.838c-4.97-2.634-10.518-3.881-15.958-5.143
		c0.034,12.405,0.11,24.793-0.061,37.184c8.057-3.04,17.748-4.193,25.354,0.655c6.607,3.63,11.329,12.341,7.745,19.588
		c-4.209,8.212-18.592,8.057-21.412-1.2c-2.368-4.566,1.543-8.758,5.766-9.912c-6.017-3.552-12.029,0.717-17.358,3.429
		c-0.048,12.778,0.092,25.557-0.079,38.351c6.904,1.775,13.604,5.345,20.898,4.972c7.713-0.608,12.932-6.951,17.671-12.358
		c-3.489,9.287-6.39,18.793-9.477,28.222c-17.546-5.704-35.265-10.97-53.248-15.116c2.585-2.135,5.485-4.629,5.313-8.321
		c0.235-9.958-0.047-19.917,0.095-29.874c-4.224-1.559-8.089-3.866-11.642-6.608c3.85,0.155,7.684,0.342,11.532,0.312
		c0.172-18.544,0.078-37.089,0.063-55.634C524.178,111.718,521.091,107.76,518.116,104.331L518.116,104.331z"/>
	<path fill="#231F20" d="M253.644,113.836c4.722-0.779,10.472-1.652,14.088,2.306c4.987,5.594,4.02,13.949,2.866,20.774
		c-1.542,8.633-8.383,15.598-16.908,17.516C253.628,140.905,253.722,127.379,253.644,113.836L253.644,113.836z"/>
	<path fill="#211C1E" d="M315.87,163.72c2.852-16.736,7.121-33.239,9.303-50.085c3.725,12.342,5.409,25.183,8.4,37.711
		C326.856,154.198,321.137,158.734,315.87,163.72L315.87,163.72z"/>
	<path fill="#FFFFFF" d="M583.986,123.95c15.615,6.858,33.085,10.956,46.113,22.551c11.204,9.661,15.365,26.009,11.593,40.112
		c-1.619,5.517-6.093,9.631-11.516,11.345c4.799,4.597,9.349,10.005,10.286,16.814c1.511,10.504-0.529,21.46,2.881,31.697
		c1.515,4.925,5.86,8.026,10.146,10.426c-1.371-7.699-3.6-15.553-2.089-23.391c1.685-8.337,9.431-15.101,18.017-15.18
		c12.793-0.327,25.931,5.596,33.551,16.005c3.631,5.096,6.062,11.673,4.363,17.938c-1.448,4.379-7.092,6.748-11.127,4.223
		c-6.233-3.367-11.111-11.314-8.289-18.374c1.089-0.483,3.288-1.464,4.394-1.963c-4.114-3.787-9.102-7.059-14.913-7.014
		c-4.053-0.217-9.069-0.374-11.673,3.398c-3.475,5.174-1.744,11.812,0.375,17.173c4.425,9.49,11.733,17.376,19.852,23.859
		c9.398-4.628,20.026-6.888,30.406-4.598c5.422-6.825,6.965-16.097,4.238-24.357c-4.955-15.413-16.129-28.705-30.138-36.699
		c-7.046-4.037-17.254-6.078-23.424,0.53c-0.281-4.939,1.76-9.35,3.74-13.698c-9.132-8.93-16.894-19.152-23.204-30.249
		c14.477-1.09,27.832-8.851,37.447-19.48c7.122,12,16.737,22.675,28.409,30.374c3.816,2.524,9.132,4.925,13.292,1.745
		c-2.228-3.491-8.353-5.502-6.311-10.799c5.579-8.088,18.887-0.794,18.686,7.823c0.17,7.215-7.045,12.249-13.714,12.545
		c-14.696,0.827-27.741-8.057-37.09-18.623c-4.347,3.569-9.271,6.327-14.321,8.759c8.509,8.96,16.801,19.401,29.064,23.189
		c6.044,1.729,13.759,3.303,18.529-1.98c3.286,5.439,1.198,12.669-4.8,15.008c14.382,13.09,25.822,31.479,24.98,51.565
		c0.39,8.354-1.528,16.893-6.592,23.672c-5.469-7.215-15.521-8.555-23.938-7.463c-10.082,1.636-18.076,8.757-24.45,16.299
		c-13.197-7.698-24.481-19.151-30.372-33.396c-9.442-1.122-19.09-4.815-24.856-12.731c-6.653-8.478-9.521-19.371-9.506-30.015
		c0.047-6.093-0.217-12.544-3.539-17.86c-2.429-3.848-6.685-5.812-10.548-7.853c-0.218,12.715-0.094,25.447-0.094,38.165
		c-0.374,5.313,2.416,9.989,5.112,14.321c-9.506-4.162-19.123-8.167-29.019-11.345c0.982-0.624,2.929-1.839,3.896-2.447
		c1.029-2.665,1.809-5.454,1.638-8.321c-0.079-29.641,0.016-59.28-0.033-88.905C589.52,131.883,586.637,127.753,583.986,123.95
		L583.986,123.95z"/>
	<path fill="#211D1E" d="M179.091,197.537c3.647-17.703,5.844-35.718,10.223-53.265c1.792,12.28,4.691,24.39,7.293,36.513
		C189.829,185.303,184.171,191.209,179.091,197.537L179.091,197.537z"/>
	<path fill="#231F20" d="M607.846,144.069c6.778,2.634,13.292,7.434,15.522,14.665c2.243,7.496,3.022,16.798-2.418,23.173
		c-3.285,3.709-8.445,4.254-13.073,4.441C607.8,172.245,607.83,158.157,607.846,144.069L607.846,144.069z"/>
	<path fill="#FFC423" d="M123.769,278.479c62.008-30.279,128.769-51.271,197.368-59.561c0.046,0.186,0.14,0.545,0.203,0.732
		c-7.745,3.226-13.963,9.958-22.581,10.893c-18.062,3.022-35.983,6.95-53.639,11.843c6.903,3.709,14.43,8.899,15.396,17.392
		c2.181,11.407-8.463,21.879-19.621,21.568c-5.766,0.857-12.123-2.977-12.996-8.931c-0.561-6.062,7.277-10.752,12.358-7.184
		c3.288,1.605,3.272,5.595,4.052,8.648c4.3-3.537,8.149-9.443,5.282-15.053c-4.502-10.036-18.03-13.138-27.333-8.042
		c-11.578,5.719-15.303,19.246-18.357,30.747c-3.677,12.669-7.886,26.383-18.373,35.173c-11.126,9.067-27.069,12.295-40.736,7.697
		c-9.708-3.661-18.264-11.531-21.271-21.644c-1.464-4.941-0.701-10.146-0.187-15.164c-5.938,3.132-11.968,6.063-17.905,9.194
		c2.369-4.129,4.472-8.476,7.542-12.14C116.134,281.938,120.107,280.395,123.769,278.479L123.769,278.479z"/>
	<path fill="#FFC423" d="M445.09,218.948c71.155,8.166,140.301,30.513,204.238,62.475c6.515,2.666,9.103,9.678,12.326,15.351
		c-5.889-3.116-11.812-6.202-17.842-9.039c2.867,10.581-1.014,22.098-9.271,29.158c-17.594,16.908-49.822,10.332-61.464-10.426
		c-5.827-10.021-8.806-21.319-11.827-32.43c-3.023-9.927-8.32-20.898-18.95-24.327c-8.977-3.584-20.866,0.14-24.794,9.304
		c-2.024,5.75,0.999,11.407,5.393,15.038c-0.094-4.644,2.603-9.958,7.809-10.021c6.029-0.67,11.328,7.325,7.091,12.202
		c-4.815,7.386-15.569,5.907-22.225,2.042c-8.43-4.612-11.748-16.379-6.701-24.637c2.385-5.205,7.73-7.668,12.235-10.66
		c-0.034-0.203-0.094-0.593-0.125-0.794c-16.987-4.909-34.346-8.509-51.755-11.517C459.987,229.795,453.209,222.735,445.09,218.948
		L445.09,218.948z"/>
	<path fill="#FFFEFF" d="M322.896,237.556c14.868-8.602,31.822-13.277,48.903-14.414c15.037-0.671,30.356-0.546,45.005,3.365
		c16.488,4.021,31.729,12.265,44.851,22.939c15.708,12.794,29.422,27.77,44.287,41.484c31.044,27.724,70.081,45.691,110.756,53.793
		c8.71,1.885,17.81,2.541,25.961,6.453c0.031,8.679-6.544,15.1-10.348,22.331c1.186-4.005,3.241-8.166,2.15-12.422
		c-4.832-4.019-11.376-4.628-17.312-5.782c-43.745-7.4-86.07-26.413-118.359-57.174c-19.822-17.735-37.12-39.115-61.243-51.286
		c-19.572-10.067-42.153-13.215-63.909-11.579c-16.161,0.795-32.149,5.143-46.394,12.841c-17.702,9.506-31.775,24.107-45.955,38.039
		c-9.569,8.65-18.577,17.938-28.893,25.714c-30.497,23.485-67.368,37.885-105.221,43.931c-5.205,0.794-10.223,2.479-14.805,5.049
		c-0.031,3.896,0.951,7.683,2.088,11.391c-4.348-6.356-9.055-12.794-10.269-20.601c5.188-2.867,11.002-4.222,16.83-5.11
		c40.003-6.656,78.947-22.223,110.77-47.64C276.302,279.398,295.486,253.374,322.896,237.556L322.896,237.556z"/>
	<path fill="#231F20" d="M161.029,271.201c15.304-6.453,30.95-12.156,46.689-17.469c-2.96,4.847-5.906,9.724-7.822,15.084
		c-4.068,10.986-5.486,23.126-12.25,32.975c-5.734,9.335-17.001,14.167-27.724,13.762c-6.389-0.048-13.355-1.794-17.469-7.059
		c-5.408-6.157-7.839-16.27-2.634-23.253c1.917-2.96,5.409-4.035,8.446-5.406c1.028,4.44,2.058,10.004,7.106,11.532
		c7.185,3.319,16.051-3.552,14.384-11.361C169.133,275.331,164.754,273.086,161.029,271.201L161.029,271.201z"/>
	<path fill="#231F20" d="M560.034,253.841c15.536,5.235,30.841,11.127,46.097,17.127c-4.176,2.243-9.022,5.297-8.789,10.736
		c-0.421,7.792,9.039,13.214,15.616,9.101c4.299-1.964,4.893-6.966,6.029-11.003c4.208,1.56,8.556,3.85,10.176,8.339
		c3.555,10.207-2.525,23.142-13.104,26.103c-12.766,3.694-28.41-0.173-35.954-11.642c-8.614-12.077-8.927-27.629-15.813-40.501
		C562.901,259.342,561.421,256.615,560.034,253.841L560.034,253.841z"/>
	<path fill="#EE3A43" d="M297.294,339.644c53.732-22.735,116.393-22.83,170.438-1.059c4.006,1.496,6.592,5.049,9.415,8.058
		c-9.616-2.56-19.232-5.316-29.159-6.392c12.405,4.723,24.811,9.492,36.794,15.225c1.668,2.838,3.365,5.673,5.049,8.511
		c-20.181-7.293-40.704-14.04-62.023-17.112c-50.209-8.524-102.4-1.712-149.603,16.972c1.511-3.74,3.226-7.854,7.152-9.615
		c10.861-5.36,22.3-9.459,33.567-13.899c-9.677,0.761-18.934,3.816-28.284,6.264C292.619,344.07,294.364,341.14,297.294,339.644
		L297.294,339.644z"/>
	<path fill="#EDC088" d="M332.933,358.907c32.182-6.873,65.593-5.985,98.084-1.839c-33.317,0.653-66.557,3.786-99.33,9.848
		c1.402-2.836,2.851-5.641,4.269-8.461C335.193,358.564,333.681,358.796,332.933,358.907L332.933,358.907z"/>
	<path fill="#FDFEFE" d="M297.137,375.222c9.117-10.021,23.048-13.48,35.795-16.315c0.748-0.11,2.261-0.343,3.023-0.452
		c-1.418,2.82-2.867,5.625-4.269,8.461l-0.109,0.203C320.03,369.534,308.639,372.651,297.137,375.222L297.137,375.222z"/>
	<path fill="#F13B41" d="M257.758,364.205c3.319-3.475,8.29-3.756,12.778-3.975c-2.276,3.149-6.311,6.124-5.252,10.553
		c1.403,4.253,6.343,5.249,9.709,7.431c-3.881,3.771-9.008,8.336-14.867,6.296C251.991,381.503,251.929,369.471,257.758,364.205
		L257.758,364.205z"/>
	<path fill="#E7BB85" d="M383.659,368.32c13.525-1.452,27.099-2.371,40.704-2.697c-6.421,7.621-16.939,7.994-25.948,9.942
		c-4.019,0.826-6.279,5.049-5.984,8.93c0.342,10.084,3.461,19.791,5.268,29.656c1.729-5.439,4.271-10.614,8.026-14.945
		c2.991,7.933,7.199,15.848,7.184,24.514c-4.066,3.724-10.584,3.069-15.771,4.223c-0.513,1.916-1.012,3.833-1.481,5.767
		c-5.594,2.354-11.796,1.572-17.703,1.588c-2.54,0.188-4.908-0.745-6.951-2.182c4.054-1.806,8.214-3.333,12.42-4.768
		C383.97,408.337,383.394,388.328,383.659,368.32L383.659,368.32z"/>
	<path fill="#FFFEFF" d="M444.247,368.569c4.521-1.419,9.272-1.731,13.978-1.84c0.702,4.13,1.31,8.822-1.511,12.341
		c-7.246,9.553-20.164,14.152-31.884,12.327c-5.438-0.87-9.692-4.784-12.077-9.6c4.536-0.717,8.962-1.931,13.215-3.676
		c2.51,6.437,10.879,9.506,16.723,5.517c3.476-1.854,4.394-5.799,5.034-9.335c-2.62-0.234-7.45,1.996-7.966-2.043
		C439.246,369.503,442.579,369.489,444.247,368.569L444.247,368.569z"/>
	<path fill="#FEFEFF" d="M368.869,414.322c3.725-15.116,6.092-30.528,9.709-45.676c1.278-0.077,3.819-0.249,5.081-0.326
		c-0.266,20.008,0.311,40.018-0.235,60.027c-4.207,1.435-8.367,2.962-12.42,4.768c-0.498-1.792-1.028-3.552-1.542-5.313
		c-5.034-1.061-11.096-0.468-15.179-4.021c0.078-8.508,4.13-16.237,7.028-24.029C365.021,403.896,367.42,408.961,368.869,414.322
		L368.869,414.322z"/>
	<path fill="#EF3942" d="M217.1,404.394c7.185-10.052,17.189-18.138,28.487-23.141c-2.135,4.97-5.05,9.552-7.776,14.214
		c5.734-2.34,10.441-6.393,15.163-10.304c-3.942,11.268-12.249,20.259-21.537,27.444c-9.833,7.729-20.54,16.051-23.922,28.752
		C204.867,428.362,209.932,415.101,217.1,404.394L217.1,404.394z"/>
	<path fill="#E7BB83" d="M461.279,394.67c5.237-3.413,8.527-8.837,10.831-14.508c4.41,11.049,13.449,20.353,14.697,32.522
		c0.857,6.841-4.521,12.093-10.41,14.385c-2.478-2.729-5.144-5.284-7.637-7.979c3.037,0.372,6.078,0.731,9.133,1.089
		c-4.878-4.363-10.521-8.601-17.331-8.852c-11.891-0.639-23.217,3.851-34.5,6.998c-2.167-7.433-5.752-14.353-10.178-20.663
		C430.224,404.458,448.004,403.415,461.279,394.67L461.279,394.67z"/>
	<path fill="#FEFEFE" d="M280.587,410.876c1.668-8.632,6.764-16.082,11.222-23.484c3.085,4.067,6.482,7.872,10.284,11.283
		c-2.368,4.55-6.856,9.242-4.908,14.727c-2.805,2.307-5.688,4.503-8.493,6.81c3.257-0.421,6.498-0.825,9.755-1.215
		c-2.587,2.494-4.628,5.86-7.87,7.526C283.674,425.152,279.107,417.672,280.587,410.876L280.587,410.876z"/>
	<path fill="#ECBC82" d="M334.258,407.091c7.433-2.229,13.588-7.246,18.841-12.81c-4.519,7.759-9.475,15.38-11.984,24.094
		c-14.072-4.147-29.313-10.256-43.93-4.974c-1.948-5.484,2.54-10.177,4.908-14.727C311.226,405.438,322.867,409.741,334.258,407.091
		L334.258,407.091z"/>
	<path fill="#F23A41" d="M243.92,415.599c5.501-6.062,10.846-12.263,15.676-18.887c-0.669,10.223-7.838,18.045-12.046,26.93
		c-7.589,14.897-14.086,32.023-9.396,48.868c-9.709-5.874-12.311-18.153-12.203-28.705c-0.218-4.536,1.31-8.787,3.008-12.887
		c1.435,2.835,3.305,5.406,5.345,7.838C235.816,430.481,238.091,421.958,243.92,415.599L243.92,415.599z"/>
	<path fill="#FFC521" d="M506.457,420.198c8.306,6.48,13.029,17.779,10.428,28.189c-0.875,3.272-3.804,5.269-6.094,7.544
		c-15.679-0.625-23.688-20.604-18.031-33.771c1.651,1.386,5.097,1.073,5.391,3.755c1.886,9.133,4.754,20.837,15.009,23.688
		c-0.452-0.547-1.356-1.605-1.792-2.151c0.28-4.052,0.716-8.244-0.64-12.172C509.168,430.264,505.15,425.775,506.457,420.198
		L506.457,420.198z"/>
	<path fill="#FFFFFF" d="M317.286,454.56c-4.362-6.765,3.99-18.998,12.328-14.758c20.43,7.323,42.434,8.165,63.925,7.417
		c11.453-0.889,23.111-1.217,34.22-4.443c4.895-1.558,9.851-2.943,14.806-4.314c3.101,1.668,5.938,3.863,7.886,6.872
		c0.218,3.194,0.266,6.404,0.311,9.615c-11.766-0.779-23.501-2.604-35.312-1.934c4.689,1.233,9.429,2.322,14.212,3.195
		c8.836,1.715,17.767,3.646,25.947,7.543c-3.352,4.878-7.309,9.271-11.814,13.106c-37.275-18.357-83.152-18.235-120.444,0.017
		c-4.271-4.021-8.354-8.262-11.751-13.062c12.436-5.609,26.102-8.073,39.536-9.925c-5.252-2.37-11.205-0.312-16.706-0.268
		C328.71,453.656,322.896,455.167,317.286,454.56L317.286,454.56z"/>
	<path fill="#3A3839" d="M450.45,445.333c1.262,3.491,1.186,7.183,0.638,10.814c-7.119,0.327-14.929-4.147-21.427,0.062
		c-4.783-0.873-9.522-1.962-14.212-3.195c11.811-0.67,23.546,1.154,35.312,1.934C450.716,451.738,450.668,448.528,450.45,445.333
		L450.45,445.333z"/>
	<path fill="#FEFEFF" d="M290.219,498.208c-4.007-12.809,1.917-25.915,6.872-37.588c3.055,5.035,6.841,9.585,11.158,13.604
		c-3.163,11.064-4.02,22.814-1.292,34.065c1.37,0.654,2.757,1.294,4.16,1.934C302.856,509.881,293.257,506.716,290.219,498.208
		L290.219,498.208z"/>
	<path fill="#E6BA83" d="M453.239,478.494c7.153-4.689,12.855-11.141,17.424-18.325c4.658,11.004,9.693,22.832,7.839,35.034
		c-1.124,7.369-7.638,12.839-14.805,13.992c-14.635,2.852-29.127,6.391-43.777,9.179c-1.683-4.535-3.582-8.991-5.517-13.433
		c9.945,1.448,20.618,3.35,30.202-0.795c3.958-1.497,6.295-5.188,8.478-8.602c-6.7,1.355-13.729,3.021-20.414,0.669
		c-31.776-10.083-66.715-9.942-98.474,0.108c-6.669,2.292-13.604,0.329-20.29-0.777c2.946,4.581,6.888,8.883,12.515,9.927
		c8.665,2.429,17.64,0.544,26.368-0.5c-1.855,4.442-3.708,8.898-5.47,13.387c-12.031-2.836-24.327-4.769-36.201-8.134
		c-1.403-0.64-2.79-1.279-4.16-1.934c-2.727-11.251-1.87-23.001,1.292-34.065c4.94,3.306,10.176,6.825,11.361,13.122
		c39.91-18.39,88.047-18.343,128.004-0.048C449.016,484.104,449.982,480.349,453.239,478.494L453.239,478.494z"/>
	<g>
		<path fill="#FFC424" stroke="#FFC424" stroke-width="2" d="M337.318,303.713c0,0,19.557-0.406,21.583-1.014
			c2.027-0.608,4.307-1.874,8.514-5.978l43.723-43.725l2.28,2.28l-52.844,52.844c0,0-1.521,1.318-8.968,1.671l-14.288,0.204V303.713
			z"/>
		<path fill="#FFC424" stroke="#FFC424" stroke-width="2" d="M423.95,303.713c0,0-19.557-0.406-21.584-1.014
			c-2.026-0.608-4.306-1.874-8.511-5.978l-43.724-43.725l-2.28,2.28l52.845,52.844c0,0,1.521,1.318,8.968,1.671l14.287,0.204
			V303.713z"/>
	</g>
	<g>
		<path stroke="#000000" stroke-miterlimit="10" d="M184.249,99.671c0.326-0.099,0.583-0.277,0.772-0.538
			c0.188-0.26,0.227-0.576,0.114-0.948l-8.529-28.291c-0.111-0.372-0.312-0.593-0.6-0.665c-0.288-0.07-0.596-0.057-0.922,0.042
			l-0.337-1.118l11.439-3.448l0.337,1.117c-0.205,0.062-0.4,0.188-0.586,0.379c-0.188,0.192-0.244,0.411-0.169,0.659
			c0.062,0.207,0.225,0.451,0.488,0.733c0.263,0.282,0.551,0.579,0.869,0.889l13.611,13.493l4.002-18.599
			c0.123-0.624,0.209-1.112,0.259-1.466c0.049-0.354,0.037-0.654-0.038-0.902c-0.137-0.454-0.472-0.602-1.002-0.443l-0.336-1.116
			l11.317-3.413l0.336,1.117c-0.327,0.099-0.59,0.257-0.791,0.476c-0.201,0.219-0.245,0.514-0.134,0.886l8.529,28.291
			c0.112,0.372,0.319,0.615,0.619,0.726c0.302,0.113,0.613,0.121,0.94,0.021l0.337,1.117l-9.604,2.895l-0.337-1.115
			c1.102-0.333,1.54-0.871,1.315-1.615l-6.21-20.598l-0.122,0.037l-5.412,26.538l-0.184,0.056L185.27,75.608l-0.123,0.036
			l6.229,20.659c0.224,0.745,0.907,0.945,2.049,0.6l0.337,1.117l-9.177,2.767L184.249,99.671z"/>
		<path stroke="#000000" stroke-miterlimit="10" d="M254.877,60.802c-0.019-0.083-0.049-0.166-0.089-0.245
			c-0.04-0.08-0.074-0.183-0.103-0.31c-0.048-0.21-0.32-0.447-0.816-0.711c-0.498-0.263-1.168-0.476-2.013-0.639
			c-0.846-0.162-1.813-0.241-2.904-0.237c-1.091,0.005-2.26,0.148-3.505,0.432c-1.496,0.339-2.812,0.849-3.945,1.527
			c-1.134,0.68-2.067,1.523-2.799,2.531c-0.733,1.008-1.213,2.159-1.444,3.451c-0.23,1.293-0.173,2.698,0.171,4.213
			c0.345,1.517,0.934,2.812,1.768,3.885c0.833,1.073,1.805,1.938,2.916,2.593c1.11,0.657,2.296,1.073,3.56,1.251
			c1.263,0.179,2.497,0.131,3.703-0.143c1.121-0.255,2.229-0.661,3.325-1.221c1.096-0.559,2.077-1.147,2.941-1.765
			c0.864-0.617,1.545-1.225,2.043-1.826c0.496-0.6,0.701-1.09,0.615-1.47l-0.115-0.505c-0.057-0.252-0.126-0.458-0.205-0.618
			l0.541-0.787l6.133,5.649l-0.551,0.458c-0.547-0.097-0.925-0.123-1.132-0.075c-0.333,0.076-0.829,0.388-1.49,0.937
			c-0.662,0.549-1.509,1.196-2.541,1.939c-1.032,0.744-2.268,1.456-3.708,2.138c-1.44,0.682-3.094,1.235-4.962,1.66
			c-1.912,0.435-3.863,0.59-5.857,0.468c-1.993-0.123-3.854-0.619-5.58-1.489c-1.728-0.871-3.251-2.096-4.572-3.679
			c-1.32-1.583-2.248-3.553-2.785-5.912c-0.536-2.359-0.548-4.528-0.037-6.504c0.511-1.977,1.378-3.736,2.601-5.276
			c1.223-1.541,2.733-2.825,4.53-3.854c1.797-1.028,3.714-1.774,5.75-2.237c1.578-0.358,3.055-0.539,4.43-0.542
			c1.376-0.002,2.605,0.072,3.688,0.224c1.084,0.153,1.991,0.302,2.723,0.445c0.731,0.145,1.242,0.183,1.533,0.117
			c0.207-0.047,0.37-0.151,0.486-0.311s0.249-0.299,0.396-0.422l0.847,0.272l-2.747,6.937L254.877,60.802z"/>
		<path stroke="#000000" stroke-miterlimit="10" d="M309.475,67.065c-0.126,0.02-0.244,0.029-0.352,0.024
			c-0.109-0.004-0.226,0.003-0.352,0.024c-0.252,0.041-0.81,0.393-1.674,1.056c-0.864,0.665-1.97,1.434-3.317,2.307
			c-1.349,0.874-2.91,1.694-4.685,2.461c-1.775,0.768-3.673,1.313-5.69,1.639c-2.65,0.427-5.249,0.496-7.797,0.206
			c-2.55-0.289-4.875-0.997-6.976-2.125c-2.103-1.126-3.872-2.668-5.309-4.625c-1.437-1.955-2.385-4.363-2.845-7.22
			c-0.453-2.815-0.307-5.388,0.439-7.718c0.747-2.329,1.938-4.37,3.576-6.122c1.637-1.75,3.618-3.186,5.94-4.304
			c2.321-1.118,4.808-1.89,7.458-2.318c2.144-0.345,4.117-0.487,5.917-0.427c1.799,0.061,3.383,0.177,4.748,0.35
			c1.366,0.174,2.455,0.371,3.267,0.59c0.812,0.22,1.302,0.315,1.47,0.288c0.21-0.034,0.372-0.168,0.485-0.406
			c0.113-0.236,0.2-0.425,0.264-0.567l1.07,0.614l-3.673,8.533l-0.703-0.346c-0.021-0.127-0.052-0.253-0.093-0.378
			c-0.042-0.125-0.098-0.268-0.167-0.433c-0.16-0.455-0.657-0.867-1.493-1.236c-0.836-0.367-1.843-0.655-3.019-0.86
			s-2.406-0.334-3.686-0.39c-1.282-0.056-2.449,0-3.5,0.169c-1.767,0.286-3.417,0.813-4.955,1.586
			c-1.536,0.773-2.824,1.747-3.865,2.921c-1.041,1.174-1.804,2.533-2.289,4.077c-0.484,1.545-0.579,3.233-0.283,5.065
			c0.295,1.835,0.916,3.409,1.861,4.722c0.944,1.314,2.096,2.365,3.453,3.153c1.356,0.787,2.885,1.306,4.586,1.557
			c1.702,0.25,3.435,0.234,5.202-0.05c1.345-0.216,2.729-0.604,4.15-1.16c1.42-0.558,2.699-1.179,3.841-1.866
			c1.14-0.686,2.071-1.406,2.792-2.156c0.721-0.75,1.036-1.403,0.947-1.958c-0.047-0.298-0.175-0.541-0.377-0.727l0.801-0.655
			l5.256,6.11L309.475,67.065z"/>
		<path stroke="#000000" stroke-miterlimit="10" d="M339.69,34.062c2.334-0.192,4.742-0.034,7.22,0.477
			c2.479,0.511,4.773,1.395,6.886,2.651c2.114,1.255,3.896,2.919,5.35,4.988c1.453,2.068,2.301,4.588,2.546,7.559
			s-0.18,5.597-1.274,7.874c-1.094,2.28-2.58,4.212-4.458,5.797c-1.879,1.585-4,2.801-6.366,3.646
			c-2.368,0.846-4.719,1.363-7.052,1.556c-2.336,0.192-4.738,0.066-7.211-0.38c-2.474-0.445-4.766-1.296-6.878-2.554
			c-2.114-1.256-3.896-2.918-5.35-4.987c-1.453-2.069-2.3-4.589-2.546-7.56c-0.245-2.971,0.18-5.595,1.274-7.875
			c1.094-2.278,2.579-4.211,4.458-5.796c1.877-1.586,3.997-2.834,6.359-3.744C335.008,34.806,337.356,34.255,339.69,34.062z
			 M340.181,40.003c-1.613,0.133-3.205,0.524-4.775,1.174c-1.572,0.65-2.964,1.513-4.178,2.587
			c-1.216,1.076-2.168,2.357-2.857,3.845c-0.689,1.487-0.959,3.135-0.81,4.944c0.149,1.808,0.685,3.389,1.609,4.743
			c0.922,1.354,2.071,2.462,3.447,3.324c1.374,0.862,2.889,1.485,4.546,1.868c1.655,0.383,3.289,0.508,4.901,0.376
			c1.614-0.133,3.206-0.525,4.777-1.175c1.57-0.65,2.962-1.513,4.178-2.588c1.214-1.075,2.166-2.357,2.857-3.843
			c0.688-1.488,0.959-3.136,0.81-4.943c-0.149-1.809-0.686-3.391-1.61-4.744c-0.923-1.354-2.072-2.462-3.447-3.324
			c-1.375-0.862-2.89-1.484-4.545-1.869C343.427,39.996,341.792,39.871,340.181,40.003z"/>
		<path stroke="#000000" stroke-miterlimit="10" d="M406.441,67.494c-0.003-0.648-0.207-1.015-0.612-1.099
			c-0.405-0.085-0.928-0.125-1.566-0.121l-30.413,0.157l-0.005-1.167c1.278-0.006,1.916-0.398,1.91-1.175l-0.15-29.418
			c-0.004-0.778-0.646-1.163-1.924-1.157l-0.005-1.166l10.991-0.057l0.004,1.167c-1.192,0.006-1.786,0.397-1.783,1.175l0.134,25.789
			l21.211-0.108c0.64-0.004,1.16-0.157,1.564-0.462c0.402-0.304,0.604-0.716,0.602-1.234l1.149-0.006l0.045,8.878L406.441,67.494z"
			/>
		<path stroke="#000000" stroke-miterlimit="10" d="M448.972,45.338l-1.245-0.483c0.104-0.252,0.165-0.507,0.185-0.766
			c0.049-0.646-0.302-1.256-1.049-1.833c-0.748-0.575-1.711-1.091-2.896-1.547c-1.183-0.456-2.479-0.824-3.889-1.103
			c-1.411-0.278-2.752-0.466-4.026-0.561c-1.573-0.118-3.15-0.008-4.733,0.329c-1.586,0.337-3.019,0.934-4.3,1.791
			c-1.281,0.857-2.35,2.012-3.206,3.464c-0.856,1.453-1.364,3.255-1.524,5.409c-0.159,2.111,0.077,3.959,0.707,5.544
			c0.628,1.584,1.514,2.896,2.653,3.934c1.14,1.039,2.468,1.842,3.985,2.41c1.516,0.567,3.062,0.911,4.631,1.028
			c2.423,0.181,4.612,0.14,6.576-0.126c1.965-0.265,3.643-0.583,5.038-0.956l0.415-5.557l-8.154-0.61
			c-0.596-0.044-1.052,0.052-1.367,0.288c-0.318,0.236-0.551,0.782-0.699,1.636l-1.146-0.085l0.617-8.271l1.146,0.086
			c0.03,0.739,0.188,1.216,0.472,1.432c0.281,0.216,0.72,0.346,1.315,0.391l15.929,1.19l-0.087,1.163
			c-0.86,0.066-1.401,0.177-1.627,0.333c-0.227,0.157-0.359,0.516-0.4,1.075l-0.545,7.302c-0.032,0.431,0.074,0.72,0.318,0.868
			c0.247,0.148,0.532,0.321,0.86,0.519l-0.078,1.034c-1.477,0.887-3.014,1.595-4.611,2.125c-1.6,0.531-3.209,0.92-4.828,1.167
			c-1.621,0.248-3.231,0.355-4.831,0.322c-1.598-0.034-3.163-0.106-4.691-0.221c-2.974-0.223-5.654-0.801-8.04-1.738
			c-2.387-0.936-4.395-2.212-6.026-3.829c-1.63-1.616-2.843-3.526-3.64-5.73c-0.797-2.203-1.094-4.663-0.892-7.377
			c0.204-2.713,0.861-5.102,1.976-7.162c1.117-2.061,2.601-3.78,4.456-5.158c1.854-1.377,4.031-2.373,6.534-2.989
			c2.502-0.614,5.24-0.811,8.213-0.588c1.869,0.139,3.643,0.402,5.322,0.787s3.166,0.788,4.46,1.21
			c1.291,0.421,2.363,0.805,3.213,1.149c0.849,0.346,1.381,0.525,1.594,0.542c0.382,0.029,0.686-0.035,0.912-0.191
			c0.224-0.156,0.447-0.292,0.67-0.405l0.73,0.509L448.972,45.338z"/>
		<path stroke="#000000" stroke-miterlimit="10" d="M461.051,69.005c0.56,0.005,1.036-0.201,1.43-0.618
			c0.393-0.417,0.782-0.899,1.175-1.448l15.765-22.947c0.386-0.505,0.733-0.974,1.041-1.405c0.309-0.43,0.492-0.816,0.548-1.158
			c0.07-0.426-0.029-0.748-0.294-0.968c-0.267-0.218-0.561-0.397-0.883-0.54l0.19-1.15l10.653,1.756l-0.19,1.151
			c-0.308,0.037-0.622,0.105-0.939,0.207c-0.319,0.101-0.517,0.386-0.594,0.854c-0.058,0.342-0.041,0.695,0.052,1.06
			c0.09,0.365,0.236,0.849,0.44,1.45l8.822,28.184c0.133,0.505,0.36,0.892,0.683,1.164c0.32,0.272,0.696,0.553,1.122,0.842
			l-0.188,1.15l-11.096-1.83l0.189-1.151c0.168,0.028,0.39,0,0.663-0.087c0.271-0.086,0.431-0.258,0.474-0.513
			c0.069-0.425-0.007-1.008-0.232-1.746l-1.615-5.125l-15.381-2.536l-3.019,4.164c-0.566,0.826-0.883,1.431-0.946,1.815
			c-0.077,0.468,0.282,0.768,1.082,0.899l-0.189,1.151l-8.951-1.476L461.051,69.005z M486.778,61.032l-3.336-12.765l-7.887,10.915
			L486.778,61.032z"/>
		<path stroke="#000000" stroke-miterlimit="10" d="M509.762,77.534c0.78,0.209,1.271-0.061,1.474-0.813l7.613-28.416
			c0.201-0.751-0.091-1.232-0.871-1.441l0.302-1.127l10.553,2.828l-0.302,1.126c-0.33-0.088-0.549,0.078-0.661,0.494
			c-0.089,0.334,0.166,1.028,0.765,2.083l12.716,23.397l5.332-19.903c0.2-0.75-0.233-1.27-1.303-1.556l0.302-1.127l9.32,2.497
			l-0.302,1.127c-0.783-0.209-1.274,0.062-1.476,0.813l-7.612,28.415c-0.202,0.751,0.088,1.231,0.87,1.441l-0.302,1.127l-9.997-2.68
			l0.302-1.125c0.534,0.143,0.854,0.027,0.954-0.349c0.077-0.291-0.125-0.859-0.604-1.704l-13.49-24.946l-5.568,20.78
			c-0.201,0.75,0.171,1.253,1.117,1.506l-0.3,1.127l-9.135-2.446L509.762,77.534z"/>
		<path stroke="#000000" stroke-miterlimit="10" d="M565.183,83.72l0.48,0.531c-0.14,0.363-0.184,0.716-0.132,1.06
			c0.094,0.591,0.459,1.275,1.098,2.05c0.638,0.776,1.416,1.546,2.333,2.312c0.915,0.767,1.906,1.481,2.977,2.144
			c1.068,0.663,2.06,1.169,2.977,1.519c0.676,0.259,1.571,0.543,2.684,0.852c1.113,0.31,2.249,0.5,3.407,0.573
			c1.156,0.072,2.221-0.029,3.194-0.306c0.973-0.276,1.635-0.878,1.991-1.806c0.354-0.928,0.266-1.747-0.259-2.458
			c-0.528-0.709-1.318-1.381-2.377-2.017c-1.057-0.635-2.299-1.261-3.729-1.876c-1.431-0.616-2.879-1.273-4.343-1.972
			c-1.467-0.699-2.872-1.465-4.217-2.303c-1.344-0.837-2.456-1.806-3.334-2.905c-0.882-1.1-1.45-2.357-1.707-3.772
			c-0.257-1.417-0.029-3.052,0.68-4.909c0.478-1.25,1.235-2.372,2.275-3.363c1.039-0.989,2.334-1.72,3.882-2.192
			c1.548-0.472,3.35-0.651,5.403-0.537c2.054,0.115,4.314,0.642,6.782,1.584c2.108,0.806,3.876,1.667,5.304,2.583
			c1.43,0.917,2.643,1.772,3.639,2.567c0.993,0.797,1.817,1.505,2.47,2.124c0.653,0.62,1.238,1.028,1.756,1.226
			c0.557,0.213,1.001,0.244,1.332,0.093l0.53,0.758l-7.008,5.994l-0.504-0.47c0.135-0.596,0.152-1.121,0.054-1.576
			c-0.133-0.605-0.479-1.28-1.037-2.026c-0.562-0.745-1.268-1.49-2.123-2.233c-0.856-0.744-1.819-1.446-2.887-2.109
			c-1.07-0.663-2.182-1.215-3.335-1.655c-0.876-0.335-1.81-0.609-2.797-0.825c-0.989-0.216-1.917-0.327-2.781-0.334
			c-0.863-0.006-1.633,0.128-2.307,0.401c-0.676,0.274-1.144,0.755-1.404,1.44c-0.37,0.969-0.3,1.828,0.212,2.579
			c0.51,0.75,1.286,1.462,2.328,2.138c1.043,0.675,2.272,1.332,3.694,1.967c1.422,0.636,2.866,1.302,4.333,2.001
			c1.465,0.698,2.865,1.477,4.202,2.334c1.337,0.857,2.444,1.835,3.324,2.934s1.452,2.348,1.716,3.743
			c0.265,1.396,0.052,3.001-0.642,4.817c-0.803,2.098-2.006,3.604-3.608,4.519c-1.604,0.913-3.367,1.442-5.29,1.585
			c-1.925,0.144-3.882-0.014-5.872-0.474c-1.99-0.46-3.801-1.002-5.433-1.625c-2.269-0.867-4.118-1.724-5.55-2.571
			s-2.583-1.656-3.451-2.428c-0.868-0.771-1.543-1.421-2.022-1.953c-0.481-0.53-0.94-0.879-1.378-1.046
			c-0.279-0.107-0.6-0.043-0.961,0.187l-0.651-0.803L565.183,83.72z"/>
	</g>
</g>
</svg>
