<?xml version="1.0" encoding="utf-8"?>
<!-- Generator: Adobe Illustrator 16.0.4, SVG Export Plug-In . SVG Version: 6.00 Build 0)  -->
<!DOCTYPE svg PUBLIC "-//W3C//DTD SVG 1.1//EN" "http://www.w3.org/Graphics/SVG/1.1/DTD/svg11.dtd">
<svg version="1.1" xmlns="http://www.w3.org/2000/svg" xmlns:xlink="http://www.w3.org/1999/xlink" x="0px" y="0px" viewBox="0 0 708.204 763.665" enable-background="new 0 0 708.204 763.665"
	 xml:space="preserve">
<g id="original_picture" display="none">
	<g display="inline">
		
			<image overflow="visible" width="634" height="700" xlink:href="AA9C50E14440C090.jpg"  transform="matrix(1.091 0 0 1.091 16.542 0)">
		</image>
	</g>
</g>
<g id="grey_background">
	<g>
		<path fill="#1D1F1F" stroke="#FFFFFF" d="M639.177,46.562l-68.428,41.087l-0.464-6.333l-56.38,32.746l-2.007,0.464
			c0,0-86.191-33.21-161.417-46.648c0,0-100.865,21.934-161.879,46.648c0,0-55.763-31.665-57.771-33.056l-0.618,6.024l-1.544-0.155
			c0,0-65.957-40.469-67.192-40.624l-0.772,0.309l24.096,112.76c0,0-52.518,28.267-54.217,30.121
			c0,0,69.045,430.648,319.278,438.989c0,0,206.674,29.658,320.669-438.371c0,0-39.852-23.169-55.607-30.584L639.177,46.562z"/>
		<path fill="#959795" stroke="#FFFFFF" d="M357.289,629.733c-0.003,0-0.004,0-0.007,0c-4.777-0.001-7.375-0.365-7.484-0.381
			c-57.148-1.902-109.555-26.208-155.716-72.241c-36.9-36.797-69.912-87.484-98.119-150.65
			c-48.01-107.517-65.664-215.405-65.836-216.483l-0.036-0.221l0.152-0.165c1.674-1.826,47.383-26.47,54.033-30.051L60.17,46.739
			l1.246-0.498l0.119,0.016c1.237,0.154,51.688,31.062,67.287,40.633l0.979,0.099l0.65-6.344l0.645,0.446
			c1.909,1.322,53.91,30.861,57.541,32.922C249.011,89.6,349.375,67.644,350.383,67.424l0.089-0.019l0.091,0.017
			c73.045,13.049,157.484,45.136,161.369,46.621l1.803-0.416l56.959-33.083l0.463,6.32l68.696-41.249l-0.223,1.043l-24.174,113.018
			c15.814,7.503,54.913,30.215,55.309,30.446l0.301,0.174l-0.083,0.336c-23.322,95.757-52.372,177.82-86.34,243.908
			c-28.081,54.634-59.759,98.867-94.151,131.473C429.828,623.521,377.135,629.733,357.289,629.733z M31.083,190.082
			c0.975,5.878,18.894,111.127,65.734,216.018c28.159,63.059,61.105,113.646,97.925,150.362
			c45.988,45.856,98.183,70.07,155.136,71.97c0.076,0.007,2.7,0.373,7.403,0.374c0.002,0,0.005,0,0.007,0
			c19.732,0,72.14-6.184,132.565-63.467c34.317-32.531,65.931-76.682,93.965-131.223c33.896-65.947,62.891-147.823,86.182-243.367
			c-3.703-2.148-40.433-23.408-55.271-30.391l-0.334-0.157l24.106-112.692l-68.159,40.926l-0.465-6.345l-55.8,32.409l-2.214,0.511
			l-0.133-0.051c-0.861-0.332-86.942-33.32-161.24-46.608c-3.525,0.771-102.219,22.506-161.714,46.605l-0.208,0.084l-0.195-0.11
			c-2.167-1.23-50.704-28.795-57.156-32.674l-0.589,5.747l-2.201-0.267c-22.095-13.558-63.983-39.143-66.946-40.522L61.24,47.31
			l24.087,112.718l-0.306,0.164C64.49,171.243,33.792,187.996,31.083,190.082z"/>
	</g>
</g>
<g id="WHite_background">
	<g>
		<path fill="#1E2B59" d="M622.03,71.276l-63.022,37.071l-1.235-6.179l-44.485,25.95c0,0-71.054-29.039-162.497-46.957
			c0,0-58.079,8.65-163.733,46.339c0,0-41.396-23.479-45.103-25.95l-0.619,6.796L78.313,71.276l19.772,93.914l-54.99,30.894
			c0,0,78.778,419.835,308.622,419.835c0,0,195.553,21.315,304.914-421.689c0,0-50.974-26.877-54.681-27.804L622.03,71.276z"/>
	</g>
	<g id="blue">
		<path fill="#D72229" d="M590.896,177.357l25-9l17-78.5l-61,37l-1.5-8l-72.5,42.5l0.5-8l-52.5,32.5l11.5,2.5l10.5,23l-19.5,25h-24
			c-2.5-2.5-27.5-19.5-27.5-19.5c0-4-6-37.5-6-37.5l13-1c0-2-5.5-6.5-5.5-6.5l9-2.5l-23.5-5.5l-21-10l-17,8.5l-24.5,1.5l-8,19
			l17-1.5l13,9.5l-17.5,29.5l-25.5,14.5l-23.5,1l-19.5-26l10.5-22l11.5-2.5l-51.5-31.5l-0.5,8l-73.5-42.5l-0.5,7l-62-36l18,78
			l25.5,9l0.5-9l81,33.5l-59.5-11.5l-0.5,6.5l-40-5l22,52.5l23-4l-2.5-6l64.5-3l-45.5,14l3,6.5l-31,13l28,40.5l19-9.5l-3-6.5l43-20
			l-28,26l3,4.5l-21,17.5l30,26.5l25-17.5l-17,23.5l31,16l27.5-28.5l30,41l-38,24l35,45l29-29.5l-20.5,40.5l27.5,19l-23,34.5
			l35.5,86.5l34.5-87l-23-34l27-19l-20-40.5l28,29l34.5-44.5l-35.5-24.5l29-40l28,29l31.5-16.5l-17.5-23.5l25.5,16.5l30-25.5
			l-22-18.5l3-4.5l-28.5-25l44.5,19.5l-3.5,7l18.5,9l29-40.5l-31.5-13.5l1.5-6.5l-44-13.5l64,3l-2,6.5l23.5,4l21-53.5l-40,6
			l-0.5-6.5l-60,11.5l81.5-33L590.896,177.357z M372.146,166.857c-2.5,1.75-10.25,0.5-10.25,0.5c-2.5-0.25-3.5-2.5-3.5-2.5
			c-3-1-2-2.5-2-2.5l6.5-2.5c2.5,0,8,3.75,8,3.75l3,0.75C372.646,164.357,372.146,166.857,372.146,166.857z"/>
		<polygon fill="#FFFFFF" points="362.896,116.607 367.146,124.857 364.896,131.107 369.896,131.357 369.646,135.857 
			377.396,140.107 384.146,132.857 395.896,130.357 383.396,148.357 382.896,154.607 362.396,146.607 342.396,154.857 
			342.146,147.857 329.646,131.607 340.646,132.357 347.146,139.607 355.646,136.857 355.646,131.607 360.896,131.357 
			358.146,125.357 		"/>
		<path fill="#1E2B59" d="M497.146,135.107c0,0-55.5-22.75-133.5-41.5c0,0-77.75,17-135.25,42l12.5,8.25
			c0,0,76.75-32.75,121.75-45.25c0,0,109.75,34.75,121.5,44.5L497.146,135.107z"/>
		<path fill="#FFFFFF" d="M506.396,505.357c0,0-96,88-142.5,105c0,0-51.5-19.5-143.5-103c0,0,87.5,100.5,142.5,120.5
			C362.896,627.857,442.896,585.357,506.396,505.357z"/>
		<path fill="none" d="M34.896,592.357"/>
		<polygon fill="#FFFFFF" points="524.396,375.024 484.063,393.691 435.396,468.024 458.73,468.357 408.396,546.357 
			493.396,450.691 472.063,450.357 		"/>
		<polygon fill="#FFFFFF" points="202.063,375.024 242.396,393.691 291.063,467.357 266.73,469.024 318.063,546.691 232.73,451.357 
			254.063,451.024 		"/>
	</g>
	<g id="Layer_5">
		<g>
			<g>
				<path fill="#1E2B59" d="M90.082,315.019v-60.367h31.186c4.528,0,8.062,0.232,10.6,0.696c2.537,0.464,4.734,1.214,6.589,2.251
					c2.728,1.555,4.801,3.738,6.22,6.548c1.418,2.811,2.129,6.139,2.129,9.986s-0.724,7.162-2.169,9.945
					c-1.447,2.784-3.574,4.912-6.385,6.385c-1.991,1.092-4.332,1.869-7.019,2.333c-2.687,0.464-7.019,0.695-12.993,0.695h-1.351
					h-10.15v21.527H90.082z M106.739,266.562v15.266h10.396c4.774,0,8.055-0.579,9.842-1.74c1.787-1.159,2.681-3.172,2.681-6.037
					c0-2.783-0.867-4.727-2.599-5.832c-1.733-1.105-5.041-1.658-9.924-1.658H106.739z"/>
				<path fill="#FFFFFF" d="M109.056,317.335H87.765v-65.001h33.502c4.712,0,8.315,0.24,11.017,0.734
					c2.777,0.508,5.234,1.352,7.302,2.507c3.134,1.787,5.537,4.315,7.159,7.526c1.578,3.126,2.377,6.837,2.377,11.031
					c0,4.204-0.817,7.91-2.43,11.013c-1.663,3.2-4.142,5.679-7.365,7.369c-2.168,1.189-4.771,2.059-7.7,2.564
					c-2.844,0.491-7.223,0.729-13.388,0.729h-9.184V317.335z M92.399,312.702h12.023v-21.528h13.817
					c5.816,0,10.055-0.222,12.6-0.661c2.423-0.418,4.542-1.119,6.298-2.082c2.44-1.279,4.208-3.046,5.443-5.422
					c1.266-2.436,1.908-5.422,1.908-8.876c0-3.462-0.632-6.47-1.879-8.943c-1.222-2.417-2.955-4.242-5.3-5.579
					c-1.606-0.897-3.583-1.568-5.859-1.984c-2.389-0.437-5.815-0.658-10.183-0.658H92.399V312.702z M117.134,284.144h-12.712
					v-19.899h12.712c5.458,0,9.008,0.642,11.17,2.021c1.674,1.068,3.67,3.286,3.67,7.785c0,4.592-2.032,6.875-3.737,7.98
					C126.048,283.453,122.416,284.144,117.134,284.144z M109.056,279.51h8.079c5.635,0,7.795-0.856,8.581-1.366
					c0.402-0.26,1.625-1.054,1.625-4.093c0-2.903-1.149-3.637-1.528-3.879c-0.757-0.482-2.893-1.294-8.678-1.294h-8.079V279.51z"/>
			</g>
			<g>
				<path fill="#1E2B59" d="M168.013,254.652h17.106v23.328h30.245v-23.328h17.107v60.367h-17.107v-24.392h-30.245v24.392h-17.106
					V254.652z"/>
				<path fill="#FFFFFF" d="M234.789,317.335h-21.741v-24.392h-25.611v24.392h-21.741v-65.001h21.741v23.329h25.611v-23.329h21.741
					V317.335z M217.681,312.702h12.473v-55.733h-12.473v23.328h-34.878v-23.328H170.33v55.733h12.473V288.31h34.878V312.702z"/>
			</g>
			<g>
				<path fill="#1E2B59" d="M258.876,315.019v-60.367h17.271v60.367H258.876z"/>
				<path fill="#FFFFFF" d="M278.465,317.335H256.56v-65.001h21.905V317.335z M261.193,312.702h12.637v-55.733h-12.637V312.702z"/>
			</g>
			<g>
				<path fill="#1E2B59" d="M302.635,315.019v-60.367h17.107v47.188h31.676v13.178H302.635z"/>
				<path fill="#FFFFFF" d="M353.735,317.335h-53.417v-65.001h21.741v47.189h31.676V317.335z M304.952,312.702h44.149v-8.544
					h-31.677v-47.188h-12.473V312.702z"/>
			</g>
			<g>
				<path fill="#1E2B59" d="M371.768,315.019v-60.367h17.107v47.188h31.676v13.178H371.768z"/>
				<path fill="#FFFFFF" d="M422.868,317.335H369.45v-65.001h21.741v47.189h31.677V317.335z M374.084,312.702h44.149v-8.544h-31.676
					v-47.188h-12.474V312.702z"/>
			</g>
			<g>
				<path fill="#1E2B59" d="M441.145,315.019v-60.367h17.271v60.367H441.145z"/>
				<path fill="#FFFFFF" d="M460.731,317.335h-21.904v-65.001h21.904V317.335z M443.462,312.702h12.637v-55.733h-12.637V312.702z"/>
			</g>
			<g>
				<path fill="#1E2B59" d="M484.902,315.019v-60.367h31.186c4.529,0,8.062,0.232,10.6,0.696c2.538,0.464,4.733,1.214,6.59,2.251
					c2.728,1.555,4.801,3.738,6.221,6.548c1.418,2.811,2.127,6.139,2.127,9.986s-0.723,7.162-2.168,9.945
					c-1.446,2.784-3.575,4.912-6.384,6.385c-1.992,1.092-4.333,1.869-7.02,2.333c-2.688,0.464-7.019,0.695-12.994,0.695h-1.35
					h-10.151v21.527H484.902z M501.559,266.562v15.266h10.396c4.774,0,8.056-0.579,9.843-1.74c1.787-1.159,2.681-3.172,2.681-6.037
					c0-2.783-0.867-4.727-2.6-5.832c-1.731-1.105-5.039-1.658-9.924-1.658H501.559z"/>
				<path fill="#FFFFFF" d="M503.876,317.335h-21.29v-65.001h33.502c4.712,0,8.316,0.24,11.017,0.734
					c2.776,0.508,5.233,1.352,7.302,2.507c3.135,1.787,5.537,4.315,7.159,7.526c1.578,3.125,2.377,6.837,2.377,11.031
					c0,4.204-0.817,7.909-2.429,11.013c-1.663,3.199-4.14,5.678-7.365,7.369c-2.169,1.189-4.772,2.059-7.7,2.564
					c-2.845,0.491-7.224,0.729-13.389,0.729h-9.184V317.335z M487.22,312.702h12.022v-21.528h13.817
					c5.816,0,10.056-0.222,12.601-0.661c2.422-0.418,4.542-1.119,6.298-2.083c2.441-1.279,4.209-3.046,5.442-5.42
					c1.266-2.437,1.908-5.423,1.908-8.877c0-3.463-0.633-6.471-1.88-8.943c-1.22-2.417-2.954-4.242-5.3-5.579
					c-1.605-0.897-3.582-1.568-5.857-1.984c-2.39-0.437-5.815-0.658-10.184-0.658H487.22V312.702z M511.954,284.144h-12.712v-19.899
					h12.712c5.46,0,9.009,0.642,11.171,2.021c1.675,1.068,3.67,3.285,3.67,7.785c0,4.592-2.031,6.875-3.736,7.98
					C520.869,283.453,517.236,284.144,511.954,284.144z M503.876,279.51h8.078c5.636,0,7.796-0.856,8.581-1.366
					c0.403-0.26,1.626-1.054,1.626-4.093c0-2.903-1.15-3.637-1.528-3.879c-0.758-0.482-2.893-1.294-8.679-1.294h-8.078V279.51z"/>
			</g>
			<g>
				<path fill="#1E2B59" d="M560.132,294.883h17.107v0.614c0,2.975,0.982,5.171,2.946,6.589c1.966,1.419,5.008,2.129,9.127,2.129
					c3.655,0,6.385-0.525,8.186-1.576c1.801-1.05,2.701-2.625,2.701-4.727c0-3.055-4.175-5.333-12.523-6.834
					c-1.692-0.3-2.988-0.532-3.889-0.696c-8.24-1.582-14.031-3.71-17.372-6.385c-3.344-2.673-5.014-6.385-5.014-11.132
					c0-6.166,2.421-10.88,7.264-14.141c4.843-3.26,11.834-4.891,20.976-4.891c8.729,0,15.197,1.46,19.397,4.379
					c4.201,2.92,6.48,7.517,6.835,13.792h-16.247v-0.164c0-2.21-0.88-3.881-2.64-5.014c-1.76-1.132-4.373-1.698-7.837-1.698
					c-3.356,0-5.942,0.491-7.757,1.473c-1.814,0.983-2.721,2.374-2.721,4.175c0,2.865,4.037,5.048,12.113,6.548
					c1.419,0.273,2.524,0.491,3.315,0.655c0.164,0.027,0.396,0.068,0.696,0.123c8.894,1.719,14.773,3.82,17.639,6.302
					c1.664,1.447,2.934,3.213,3.807,5.3c0.872,2.088,1.309,4.373,1.309,6.855c0,6.249-2.516,11.058-7.55,14.427
					s-12.231,5.054-21.589,5.054c-9.44,0-16.514-1.65-21.22-4.952c-4.707-3.301-7.061-8.281-7.061-14.938V294.883z"/>
				<path fill="#FFFFFF" d="M588.412,318.359c-9.882,0-17.47-1.807-22.551-5.373c-5.339-3.745-8.046-9.408-8.046-16.834v-3.586
					h21.74v2.931c0,2.937,1.135,4.095,1.986,4.71c1.553,1.122,4.166,1.69,7.771,1.69c4.015,0,6.032-0.685,7.018-1.26
					c1.087-0.635,1.552-1.45,1.552-2.726c0-0.271-0.297-2.699-10.616-4.554c-1.69-0.3-2.989-0.532-3.892-0.696
					c-8.72-1.674-14.733-3.915-18.407-6.856c-3.902-3.122-5.883-7.476-5.883-12.94c0-6.956,2.789-12.36,8.287-16.062
					c5.212-3.508,12.704-5.286,22.27-5.286c9.301,0,16.077,1.568,20.721,4.793c4.797,3.335,7.43,8.571,7.825,15.564l0.139,2.448
					H597.31v-2.48c0-1.418-0.487-2.364-1.578-3.065c-1.352-0.87-3.629-1.33-6.582-1.33c-2.951,0-5.19,0.401-6.653,1.193
					c-1.325,0.717-1.508,1.451-1.508,2.137c0,0.82,2.136,2.769,10.221,4.27c1.446,0.279,2.563,0.5,3.361,0.664
					c0.08,0.012,0.323,0.055,0.638,0.112c9.414,1.819,15.536,4.052,18.744,6.832c1.932,1.678,3.419,3.749,4.428,6.157
					c0.988,2.364,1.488,4.971,1.488,7.75c0,7.041-2.886,12.542-8.579,16.353C605.892,316.527,598.195,318.359,588.412,318.359z
					 M562.472,297.2c0.224,5.369,2.21,9.299,6.051,11.993c4.286,3.007,10.979,4.532,19.89,4.532c8.849,0,15.678-1.569,20.3-4.663
					c4.39-2.938,6.522-7.027,6.522-12.501c0-2.161-0.38-4.167-1.131-5.962c-0.739-1.769-1.783-3.223-3.188-4.445
					c-1.745-1.511-6.036-3.743-16.56-5.776c-0.258-0.046-0.479-0.086-0.634-0.112c-0.876-0.179-1.97-0.395-3.375-0.666
					c-5.999-1.114-13.992-3.244-13.992-8.823c0-1.862,0.683-4.451,3.935-6.212c2.179-1.179,5.075-1.753,8.859-1.753
					c3.954,0,6.928,0.676,9.09,2.067c1.811,1.165,2.983,2.804,3.461,4.809h11.603c-0.684-4.298-2.523-7.444-5.587-9.573
					c-3.786-2.631-9.868-3.965-18.075-3.965c-8.627,0-15.25,1.513-19.681,4.496c-4.2,2.828-6.242,6.825-6.242,12.219
					c0,4.043,1.355,7.092,4.144,9.323c3.029,2.424,8.534,4.416,16.363,5.918c0.875,0.159,2.167,0.391,3.855,0.689
					c6.2,1.115,14.436,3.271,14.436,9.116c0,2.933-1.331,5.26-3.85,6.729c-2.182,1.272-5.242,1.891-9.354,1.891
					c-4.662,0-8.092-0.839-10.483-2.566c-2.184-1.578-3.461-3.848-3.81-6.765H562.472z"/>
			</g>
		</g>
		<g>
			<g>
				<path fill="#D72229" stroke="#FFFFFF" d="M67.173,537.399c3.19,2.034,6.29,5.086,9.288,9.457
					c3.001,4.374,5.863,9.542,8.573,15.653c2.714,6.12,5.239,12.921,7.571,20.229c2.336,7.318,4.189,14.778,5.809,21.652
					c2.317,9.829,5.131,19.961,6.966,30.006c1.108,6.064,1.87,9.449,2.235,12.272c0.036,2.427,0.053,3.938,0.088,7.319
					c-23.189-3.858-46.358-7.833-69.524-11.825c-0.055-10.207-0.113-9.691-0.245-24.276c12.971,2.937,25.942,5.868,38.918,8.779
					c-0.399-4.836-1.143-9.996-2.244-14.885c-1.098-4.878-2.27-9.445-3.511-13.383c-1.241-3.941-2.516-7.561-3.823-10.774
					c-1.309-3.22-2.286-5.28-2.929-6.142c-12.24-4.437-24.476-8.888-36.713-13.331c0.234,47.535,0.512,95.068,0.675,142.604
					c-8.029-0.181-12.043-0.27-20.068-0.446c-0.08-67.727-0.176-135.453-0.315-203.181
					C27.696,517.176,47.414,527.329,67.173,537.399z"/>
				<path fill="#1E2B59" stroke="#FFFFFF" d="M32.493,715.021l-4.279-0.096c-8.029-0.182-12.042-0.27-20.066-0.446l-4.074-0.09
					l-0.005-4.076c-0.095-79.959-0.195-144.52-0.315-203.177l-0.014-6.812l6.074,3.086c11.122,5.651,22.227,11.337,33.331,17.021
					c8.638,4.422,17.276,8.845,25.922,13.251l0.348,0.199c3.833,2.443,7.262,5.915,10.485,10.615
					c3.207,4.674,6.216,10.165,8.946,16.32c2.701,6.093,5.302,13.041,7.731,20.653c2.418,7.578,4.337,15.354,5.895,21.963
					c0.704,2.986,1.454,5.999,2.208,9.031c1.722,6.92,3.503,14.076,4.801,21.183c0.412,2.253,0.775,4.133,1.088,5.752
					c0.543,2.81,0.936,4.838,1.181,6.733l0.034,0.476c0.035,2.433,0.052,3.947,0.088,7.336l0.051,4.974l-4.907-0.816
					c-24-3.993-48.483-8.199-69.548-11.828l-3.443-0.594l-0.019-3.494c-0.03-5.498-0.06-7.877-0.103-11.195
					c-0.036-2.834-0.082-6.353-0.142-13.065l-0.047-5.27l5.139,1.164c11.073,2.507,22.146,5.009,33.221,7.5
					c-0.401-2.97-0.92-5.886-1.537-8.622c-1.148-5.1-2.299-9.487-3.419-13.046c-1.239-3.935-2.487-7.452-3.709-10.457
					c-0.915-2.251-1.517-3.556-1.893-4.302c-7.881-2.856-15.759-5.719-23.637-8.581l-6.048-2.196
					c0.055,11.043,0.112,22.087,0.169,33.131c0.175,33.92,0.357,68.995,0.476,103.494L32.493,715.021z M12.405,706.23
					c4.242,0.092,7.504,0.165,11.717,0.26c-0.118-33.109-0.292-66.686-0.461-99.199c-0.067-13.04-0.135-26.079-0.199-39.118
					l-0.03-5.983l17.297,6.283c8.344,3.031,16.689,6.065,25.037,9.09l1.175,0.426l0.748,1.001c0.626,0.841,1.527,2.338,3.449,7.064
					c1.306,3.212,2.631,6.944,3.938,11.092c1.19,3.778,2.402,8.395,3.602,13.721c1.091,4.845,1.897,10.189,2.332,15.458l0.466,5.655
					l-5.536-1.242c-11.264-2.528-22.525-5.07-33.784-7.618c0.035,3.488,0.065,5.792,0.09,7.765c0.032,2.537,0.058,4.526,0.081,7.763
					c18.795,3.237,40.059,6.886,61.149,10.41c-0.008-0.671-0.017-1.336-0.028-2.081c-0.216-1.588-0.577-3.454-1.068-5.992
					c-0.317-1.642-0.686-3.55-1.104-5.836c-1.251-6.848-3-13.873-4.69-20.669c-0.763-3.063-1.521-6.111-2.233-9.131
					c-1.521-6.451-3.39-14.032-5.723-21.34c-2.337-7.327-4.831-13.991-7.41-19.808c-2.523-5.689-5.281-10.73-8.199-14.984
					c-2.492-3.634-5.16-6.39-7.93-8.195c-8.588-4.378-17.167-8.771-25.748-13.162c-9.075-4.647-18.149-9.293-27.234-13.92
					C12.221,569.779,12.316,631.206,12.405,706.23z"/>
			</g>
			<g>
				<path fill="#D72229" stroke="#FFFFFF" d="M136.445,571.368c0.906,47.261,1.596,94.515,2.031,141.781
					c-8.144-0.158-12.215-0.241-20.355-0.41c-0.454-50.351-1.157-100.689-2.082-151.034
					C124.182,565.632,128.265,567.57,136.445,571.368z M194.357,667.088c-15.492-2.062-30.958-4.308-46.407-6.674
					c-0.088-8.203-0.184-8.459-0.396-18.694c15.295,3.025,30.628,5.865,46.007,8.44c-0.334-18.17-0.518-36.342-0.875-54.511
					c8.44,3.326,12.664,4.928,21.114,7.969c0.59,36.92,1.033,73.834,1.288,110.758c-8.148-0.097-12.221-0.151-20.369-0.268
					C194.588,698.435,194.497,682.761,194.357,667.088z"/>
				<path fill="#1E2B59" stroke="#FFFFFF" d="M219.289,718.597l-4.25-0.05c-8.151-0.098-12.228-0.151-20.378-0.269l-4.077-0.059
					l-0.034-4.076c-0.059-7.142-0.111-14.282-0.163-21.424c-0.053-7.325-0.106-14.652-0.168-21.979
					c-13.56-1.83-27.634-3.866-42.899-6.205l-3.5-0.537l-0.038-3.54c-0.053-4.852-0.106-6.866-0.188-9.919
					c-0.055-2.066-0.122-4.581-0.209-8.734l-0.107-5.184l5.087,1.006c14.458,2.86,27.904,5.351,40.939,7.581
					c-0.115-6.78-0.214-13.56-0.312-20.341c-0.139-9.552-0.283-19.43-0.473-29.137l-0.124-6.257l5.822,2.295
					c8.635,3.403,12.755,4.957,20.998,7.924l2.711,0.976l0.046,2.882c0.611,38.27,1.045,75.547,1.289,110.797L219.289,718.597z
					 M198.857,709.996c4.361,0.061,7.696,0.105,12.031,0.159c-0.241-33.08-0.648-67.889-1.211-103.593
					c-4.769-1.728-8.254-3.031-12.704-4.757c0.136,7.692,0.248,15.418,0.357,22.941c0.124,8.445,0.246,16.891,0.401,25.335
					l0.093,5.02l-4.95-0.828c-13.132-2.199-26.603-4.648-41.033-7.462c0.033,1.371,0.063,2.493,0.09,3.508
					c0.059,2.224,0.104,3.905,0.144,6.505c15.209,2.312,29.255,4.321,42.833,6.13l3.588,0.478l0.032,3.619
					c0.076,8.537,0.137,17.073,0.199,25.609C198.769,698.438,198.811,704.218,198.857,709.996z M142.686,717.402l-4.291-0.083
					c-8.145-0.158-12.217-0.242-20.36-0.41l-4.047-0.083l-0.037-4.05c-0.442-49.095-1.142-99.896-2.081-150.995l-0.125-6.778
					l6.106,2.944c7.892,3.806,11.939,5.732,20.351,9.638l2.364,1.098l0.05,2.605c0.927,48.37,1.611,96.087,2.032,141.824
					L142.686,717.402z M122.254,708.653c4.359,0.09,7.69,0.158,12.012,0.243c-0.416-43.578-1.068-88.902-1.941-134.846
					c-4.711-2.192-8.073-3.778-11.993-5.655C121.184,615.833,121.83,662.963,122.254,708.653z"/>
			</g>
			<g>
				<path fill="#D72229" stroke="#FFFFFF" d="M224.284,637.412c-0.035-2.737-0.052-4.132-0.087-6.896
					c0.289-2.884,1.11-5.605,2.462-8.035c1.351-2.429,2.916-4.424,4.687-5.986c1.77-1.562,3.59-2.615,5.456-3.271
					c1.861-0.654,3.452-0.721,4.765-0.316c26.318,7.808,52.639,13.777,79.876,17.299c0.035,22.449,0.065,44.896,0.08,67.345
					c-0.484,1.854-1.374,3.76-2.664,5.722c-1.295,1.969-2.749,3.82-4.361,5.545c-1.615,1.729-3.273,3.162-4.966,4.301
					c-1.696,1.141-3.112,1.706-4.241,1.71c-0.194,0-0.29,0-0.484,0c-26.593,0.048-53.184-0.083-79.776-0.341
					C224.868,688.793,224.628,663.104,224.284,637.412z M302.227,647.873c-16.391-1.782-32.618-4.121-48.859-6.961
					c-2.431,0.99-4.289,2.544-5.566,4.622c-1.282,2.083-2.228,4.797-2.838,7.881c0.188,12.38,0.257,24.758,0.318,37.14
					c15.781,1,31.562,1.855,47.359,2.557c3.397-1.086,5.739-2.439,7.034-4.055c1.291-1.609,2.177-4.312,2.658-7.922
					C302.332,670.048,302.266,658.961,302.227,647.873z"/>
				<path fill="#1E2B59" stroke="#FFFFFF" d="M294.02,719.009c-22.107,0-44.688-0.115-69.029-0.351l-4.104-0.041l-0.026-4.104
					c-0.173-27.213-0.417-52.415-0.746-77.046l-0.09-7.133l0.023-0.234c0.349-3.49,1.347-6.737,2.967-9.648
					c1.572-2.825,3.447-5.209,5.571-7.084c2.094-1.849,4.392-3.221,6.833-4.078c2.639-0.929,5.161-1.052,7.376-0.368
					c27.777,8.239,53.691,13.852,79.183,17.148l3.63,0.47l0.006,3.66c0.035,22.449,0.065,44.898,0.08,67.348l0,0.537l-0.136,0.52
					c-0.595,2.279-1.677,4.622-3.215,6.96c-1.423,2.164-3.038,4.217-4.797,6.102c-1.816,1.943-3.73,3.597-5.687,4.913
					c-2.411,1.621-4.555,2.413-6.554,2.419l-0.478,0.001C301.216,719.006,297.617,719.009,294.02,719.009z M229.175,710.356
					c22.758,0.209,44.011,0.311,64.845,0.311c3.593,0,7.187-0.002,10.78-0.009l0.47-0.001c-0.016-0.001,0.585-0.094,1.935-1
					c1.433-0.964,2.861-2.203,4.246-3.686c1.438-1.541,2.759-3.22,3.924-4.991c0.921-1.399,1.585-2.746,1.977-4.01
					c-0.013-21.037-0.041-42.075-0.073-63.112c-24.767-3.406-49.965-8.963-76.897-16.952c-0.603-0.184-1.302-0.062-2.196,0.252
					c-1.442,0.507-2.776,1.313-4.079,2.463c-1.413,1.247-2.692,2.892-3.803,4.888c-1.029,1.849-1.679,3.935-1.933,6.2l0.084,6.649
					C228.768,660.765,229.004,684.685,229.175,710.356z M293.201,697.311l-0.745-0.033c-15.575-0.691-31.536-1.553-47.438-2.561
					l-3.887-0.246l-0.02-3.895c-0.062-12.594-0.133-24.906-0.318-37.098l-0.007-0.44l0.085-0.433c0.729-3.686,1.866-6.8,3.377-9.256
					c1.759-2.858,4.298-4.979,7.548-6.3l1.11-0.451l1.18,0.206c16.697,2.919,32.591,5.184,48.591,6.922l3.707,0.403l0.053,13.686
					c0.033,7.772,0.066,15.546,0.066,23.319l-0.037,0.551c-0.597,4.491-1.754,7.755-3.538,9.98
					c-1.838,2.293-4.788,4.065-9.018,5.418L293.201,697.311z M249.433,686.635c14.298,0.885,28.613,1.649,42.622,2.276
					c2.871-1.002,3.963-1.96,4.366-2.462c0.352-0.44,1.213-1.854,1.742-5.599c-0.001-7.667-0.034-15.333-0.066-23l-0.025-6.243
					c-14.517-1.653-29.002-3.741-44.118-6.359c-1.104,0.615-1.959,1.431-2.6,2.471c-0.924,1.502-1.686,3.601-2.213,6.087
					C249.302,664.626,249.375,675.527,249.433,686.635z"/>
			</g>
			<g>
				<path fill="#D72229" stroke="#FFFFFF" d="M344.311,673.133c-5.624-0.057-8.438-0.107-14.066-0.254
					c0.321-2.757,1.048-5.552,2.179-8.711c1.129-3.155,3.345-7.203,6.549-11.943c1.458-2.157,3.234-4.412,5.336-6.718
					c2.101-2.305,4.525-4.253,7.273-6.194c2.744-1.939,5.655-3.666,8.727-5.15c3.066-1.48,6.142-2.448,9.216-2.896
					c20.306-1.931,40.107-5.201,60.013-9.643c-0.043,7.074-0.062,11.656-0.107,20.297c-18.797,2.83-37.542,4.875-56.52,6.025
					c-0.969,0.466-1.94,1.021-2.909,1.672c-0.97,0.649-2.183,1.911-3.637,3.76c-1.455,1.846-2.508,3.461-3.152,4.869
					c-0.646,1.414-1.131,3.126-1.453,5.159c20.157-0.042,40.201-0.822,60.309-2.24c-0.033,6.556-0.046,8.419-0.036,15.104
					c-16.693,1.206-33.379,2.138-50.104,2.765c-1.778,0.058-3.553,1.704-5.326,4.987c-1.779,3.289-3.148,7.314-4.117,12.062
					c23.019-0.312,46.009-1.021,69.006-2.067c0.013,8.564,0.02,13.098,0.03,20.81c-33.754,0.078-67.51-0.44-101.263-0.133
					c0-2.885,0.444-6.168,1.333-9.807c0.886-3.634,2.139-7.343,3.753-11.057c1.614-3.712,3.476-7.381,5.576-11.002
					c2.099-3.619,4.28-6.816,6.545-9.67C346.202,673.149,345.571,673.146,344.311,673.133z"/>
				<path fill="#1E2B59" stroke="#FFFFFF" d="M424.229,719.005c-11.738,0-23.668-0.062-35.205-0.119
					c-11.525-0.06-23.442-0.12-35.159-0.12c-8.595,0-16.306,0.031-23.57,0.099l-4.208,0.038l-0.001-4.208
					c-0.001-3.214,0.487-6.847,1.451-10.796c0.949-3.892,2.288-7.839,3.98-11.73c1.664-3.828,3.613-7.674,5.792-11.432
					c0.691-1.192,1.401-2.357,2.128-3.49c-2.942-0.043-5.457-0.098-9.303-0.198l-4.562-0.119l0.528-4.534
					c0.347-2.978,1.108-6.038,2.395-9.633c1.256-3.508,3.618-7.838,7.021-12.872c1.613-2.388,3.534-4.807,5.709-7.193
					c2.081-2.283,4.533-4.376,7.948-6.789c2.964-2.095,6.1-3.945,9.32-5.5c3.438-1.66,6.946-2.76,10.426-3.269l0.209-0.024
					c19.519-1.856,38.979-4.984,59.5-9.562l5.109-1.14l-0.031,5.235c-0.033,5.384-0.053,9.325-0.079,14.711l-0.046,9.152
					l-3.531,0.532c-19.265,2.899-37.602,4.869-56.026,6.012c-0.571,0.305-1.141,0.647-1.703,1.024
					c-0.208,0.14-1.015,0.758-2.682,2.877c-0.971,1.231-1.721,2.319-2.238,3.246c17.673-0.161,35.937-0.898,54.371-2.198
					l4.486-0.315l-0.026,5.421c-0.03,5.814-0.04,7.805-0.032,14.154l0.006,3.885l-3.876,0.28
					c-16.886,1.219-33.711,2.148-50.016,2.763c-0.245,0.182-0.98,0.842-2.046,2.813c-0.913,1.688-1.717,3.638-2.402,5.828
					c20.553-0.337,41.863-1.002,63.434-1.983l4.354-0.198l0.044,29.334l-4.167,0.01
					C429.098,719.002,426.662,719.005,424.229,719.005z M353.865,710.425c11.738,0,23.666,0.061,35.202,0.119
					c12.546,0.064,25.507,0.126,38.275,0.119l-0.018-12.285c-22.077,0.961-43.851,1.593-64.784,1.877l-5.179,0.07l1.035-5.073
					c1.049-5.146,2.575-9.591,4.534-13.214c0.937-1.733,3.789-7.008,8.859-7.173c15.016-0.563,30.498-1.396,46.065-2.48
					c0-2.528,0.005-4.371,0.017-6.754c-19.068,1.253-37.921,1.906-56.106,1.945l-4.895,0.009l0.767-4.832
					c0.383-2.418,0.965-4.459,1.779-6.24c0.779-1.703,1.979-3.573,3.668-5.717c1.782-2.263,3.241-3.738,4.591-4.643
					c1.118-0.751,2.273-1.412,3.429-1.968l0.736-0.354l0.815-0.05c17.338-1.052,34.588-2.842,52.62-5.463l0.01-2.001
					c0.017-3.52,0.031-6.421,0.048-9.511c-18.959,4.045-37.105,6.864-55.309,8.6c-2.607,0.392-5.266,1.236-7.905,2.511
					c-2.807,1.355-5.543,2.971-8.133,4.802c-2.905,2.05-4.939,3.776-6.598,5.596c-1.904,2.09-3.574,4.191-4.963,6.246
					c-2.969,4.393-5.072,8.2-6.078,11.012c-0.413,1.153-0.76,2.233-1.045,3.256c2.891,0.063,5.347,0.097,9.049,0.133
					c1.146,0.013,1.769,0.017,2.825,0.023l8.876,0.057l-5.324,6.708c-2.181,2.748-4.269,5.834-6.204,9.17
					c-2.019,3.482-3.822,7.039-5.358,10.572c-1.503,3.458-2.69,6.95-3.527,10.382c-0.396,1.623-0.695,3.163-0.898,4.613
					C340.704,710.444,347.004,710.425,353.865,710.425z"/>
			</g>
			<g>
				<path fill="#D72229" stroke="#FFFFFF" d="M518.713,713.975c-0.086-23.526-0.303-47.051,0.031-70.573
					c-0.592-4.558-1.517-8.345-2.782-10.672c-1.263-2.322-3.588-4.038-6.967-5.041c-15.703,3.994-31.441,7.658-47.312,10.943
					c-0.2,25.344-0.19,50.679-0.134,76.023c-8.137,0.065-12.204,0.091-20.342,0.131c-0.056-32.051,0.029-64.093,0.248-96.144
					c27.035-7.454,53.281-16.624,79.312-27.044c1.459-0.597,3.069-0.661,4.834-0.031c1.764,0.628,3.48,1.828,5.148,3.803
					s3.211,4.687,4.621,8.199c1.414,3.519,2.417,7.444,3.021,11.524c-0.352,32.864-0.429,65.697-0.305,98.565
					C530.338,713.793,526.463,713.855,518.713,713.975z"/>
				<path fill="#1E2B59" stroke="#FFFFFF" d="M437.045,718.978l-0.007-4.184c-0.056-31.629,0.027-63.989,0.247-96.179l0.022-3.154
					l3.04-0.838c25.261-6.965,51.059-15.764,78.869-26.896c2.411-0.987,5.137-1.033,7.787-0.087c2.539,0.905,4.872,2.601,6.933,5.04
					c1.996,2.361,3.73,5.416,5.306,9.335c1.502,3.74,2.604,7.936,3.275,12.468l0.049,0.326l-0.004,0.33
					c-0.336,31.507-0.436,63.729-0.304,98.504l0.016,4.115l-4.113,0.071c-7.755,0.134-11.63,0.196-19.385,0.314l-4.219,0.065
					l-0.016-4.22c-0.016-4.51-0.038-9.019-0.06-13.528c-0.087-18.616-0.179-37.861,0.087-56.815
					c-0.734-5.475-1.734-7.938-2.271-8.924c-0.616-1.132-1.78-2.033-3.469-2.688c-14.605,3.698-29.049,7.054-43,9.992
					c-0.183,25.42-0.157,50.893-0.108,72.618l0.009,4.147l-4.146,0.033c-8.143,0.065-12.213,0.092-20.355,0.132L437.045,718.978z
					 M445.606,621.817c-0.196,29.709-0.273,59.537-0.234,88.777c4.333-0.023,7.66-0.045,11.999-0.078
					c-0.045-21.786-0.056-46.952,0.143-71.919l0.027-3.367l3.298-0.682c15.224-3.153,31.08-6.82,47.129-10.902l1.114-0.283
					l1.101,0.327c4.439,1.318,7.616,3.688,9.442,7.046c1.464,2.69,2.559,6.771,3.254,12.126l0.039,0.298l-0.004,0.299
					c-0.269,18.975-0.178,38.286-0.089,56.963c0.014,3.105,0.028,6.212,0.042,9.317c3.961-0.062,7.059-0.111,11.036-0.179
					c-0.109-33.13-0.005-63.98,0.314-94.177c-0.578-3.761-1.492-7.212-2.717-10.262c-1.219-3.036-2.544-5.411-3.937-7.06
					c-1.112-1.317-2.212-2.156-3.362-2.566c-0.716-0.256-1.279-0.273-1.856-0.038C495.33,606.273,470.198,614.906,445.606,621.817z"
					/>
			</g>
			<g>
				<path fill="#D72229" stroke="#FFFFFF" d="M570.07,569.869c-0.615,47.748-0.924,95.457-0.731,143.209
					c-8.14,0.16-12.211,0.237-20.35,0.386c-0.169-44.765,0.114-89.489,0.694-134.252
					C557.844,575.565,561.921,573.691,570.07,569.869z"/>
				<path fill="#1E2B59" stroke="#FFFFFF" d="M544.835,717.71l-0.017-4.23c-0.159-42.022,0.068-85.96,0.695-134.322l0.035-2.665
					l2.434-1.088c7.913-3.536,11.899-5.363,20.316-9.312l6.026-2.828l-0.085,6.656c-0.67,52.035-0.91,98.855-0.731,143.14
					l0.017,4.104l-4.104,0.082c-8.143,0.161-12.214,0.237-20.355,0.386L544.835,717.71z M553.82,581.93
					c-0.58,45.649-0.801,87.37-0.676,127.287c4.33-0.081,7.659-0.144,12.008-0.229c-0.142-41.218,0.076-84.687,0.664-132.529
					C561.643,578.398,558.326,579.909,553.82,581.93z"/>
			</g>
			<g>
				<path fill="#D72229" stroke="#FFFFFF" d="M580.737,564.81c10.785-5.169,21.512-10.462,32.194-15.842
					c9.917,17.4,14.944,37.707,21.228,56.583c7.943-26.422,14.18-53.466,23.392-79.489c8.57-4.457,17.131-8.935,25.698-13.397
					c-12.312,38.514-17.305,81.856-35.753,118.093c19.506,22.511,27.072,52.929,38.91,79.72c-11.72,0.27-23.439,0.539-35.158,0.813
					c-8.028-15.876-15.088-32.194-22.923-48.165c-7.229,16.503-13.789,33.468-22.645,49.194
					c-10.273,0.225-15.411,0.335-25.685,0.545c12.148-22.882,19.603-49.265,34.657-70.46
					C596.278,621.549,594.839,588.521,580.737,564.81z"/>
				<path fill="#1E2B59" stroke="#FFFFFF" d="M572.984,717.179l3.328-6.271c4.615-8.689,8.646-18.146,12.545-27.29
					c5.927-13.903,12.043-28.248,20.566-40.976c-9.658-12.223-14.491-27.667-19.176-42.634
					c-3.752-11.991-7.297-23.317-13.096-33.067l-2.332-3.92l4.115-1.972c10.188-4.883,20.694-10.054,32.122-15.807l3.538-1.781
					l1.959,3.441c7.883,13.83,12.731,29.342,17.417,44.344c1.512-5.353,2.983-10.707,4.426-15.962
					c4.587-16.699,9.328-33.968,15.221-50.615l0.549-1.55l1.458-0.758c5.041-2.623,10.08-5.251,15.117-7.88l19.564-10.199
					l-3.085,9.65c-4.37,13.669-7.894,28.308-11.301,42.464c-6.005,24.948-12.207,50.716-23.47,73.769
					c13.506,16.507,21.241,36.66,28.732,56.179c2.865,7.466,5.83,15.188,9.037,22.446l2.523,5.711l-6.243,0.144
					c-11.762,0.271-23.457,0.54-35.156,0.813l-2.632,0.062l-1.187-2.35c-4.496-8.891-8.746-18.038-12.854-26.884
					c-2.006-4.316-4.053-8.726-6.137-13.118c-0.465,1.092-0.928,2.179-1.387,3.255c-5.381,12.636-10.942,25.702-17.834,37.941
					l-1.165,2.071l-2.377,0.052c-10.277,0.225-15.415,0.335-25.691,0.545L572.984,717.179z M586.533,566.65
					c5.031,9.636,8.402,20.408,11.676,30.867c4.971,15.882,9.666,30.883,19.573,42.13l2.184,2.479l-1.912,2.691
					c-8.974,12.636-15.354,27.6-21.523,42.071c-3.06,7.175-6.2,14.538-9.668,21.662c5.561-0.115,9.989-0.211,16.333-0.35
					c6.15-11.257,11.295-23.338,16.278-35.044c1.636-3.843,3.328-7.815,5.031-11.707l3.606-8.232l3.958,8.068
					c3.498,7.131,6.89,14.429,10.167,21.488c3.717,8.001,7.55,16.25,11.554,24.283c8.786-0.205,17.569-0.407,26.356-0.609
					c-2.357-5.675-4.581-11.468-6.751-17.116c-7.561-19.697-15.379-40.065-29.051-55.845l-1.839-2.121l1.274-2.503
					c11.606-22.799,17.923-49.041,24.03-74.418c2.667-11.079,5.403-22.449,8.575-33.501l-1.784,0.932
					c-4.555,2.376-9.107,4.752-13.664,7.123c-5.543,15.893-10.094,32.458-14.496,48.493c-2.639,9.61-5.368,19.547-8.288,29.258
					l-3.791,12.611l-4.159-12.494c-1.439-4.324-2.834-8.788-4.183-13.104c-4.16-13.313-8.447-27.037-14.82-39.258
					C602.567,558.833,594.436,562.836,586.533,566.65z"/>
			</g>
		</g>
		<g>
			<path fill="none" d="M701.58,724.354c-233.86,0-467.72,0-701.58,0c0-78.005,0-156.01,0-234.015
				c106.432,57.116,221.213,132.281,346.213,134.346c128.403,2.121,247.233-74.589,355.367-134.346
				C701.58,568.344,701.58,646.349,701.58,724.354z"/>
		</g>
	</g>
</g>
</svg>
