<?xml version="1.0" encoding="utf-8"?>
<!-- Generator: Adobe Illustrator 16.0.4, SVG Export Plug-In . SVG Version: 6.00 Build 0)  -->
<!DOCTYPE svg PUBLIC "-//W3C//DTD SVG 1.1//EN" "http://www.w3.org/Graphics/SVG/1.1/DTD/svg11.dtd">
<svg version="1.1" id="REYNOLDS" xmlns="http://www.w3.org/2000/svg" xmlns:xlink="http://www.w3.org/1999/xlink" x="0px" y="0px" viewBox="0 0 831.885 669.218" enable-background="new 0 0 831.885 669.218"
	 xml:space="preserve">
<g>
	<g>
		<polygon fill="#CB2027" points="630.512,72.191 652.739,90.132 654.924,107.275 650.917,116.443 636.708,107.673 637.799,102.09 
			626.503,90.132 616.668,101.293 637.438,118.038 638.893,131.192 624.683,157.504 606.467,159.1 587.878,147.537 580.593,125.613 
			585.694,114.449 598.449,125.613 597.352,133.584 608.287,140.762 620.312,129.199 621.041,124.416 600.266,108.471 
			596.992,94.517 609.376,74.583 		"/>
	</g>
	<g>
		<polygon fill="#CB2027" points="154.627,118.038 116.001,163.486 125.841,175.843 129.848,171.458 164.466,206.54 
			161.916,210.526 172.482,223.681 211.472,177.438 197.261,161.491 185.964,170.661 191.065,177.04 177.219,191.79 
			165.923,179.033 178.677,163.087 168.109,152.72 155.357,168.667 145.153,154.713 154.991,140.762 160.094,144.748 
			170.295,132.389 		"/>
	</g>
	<g>
		<polygon fill="#CB2027" points="197.623,81.36 177.947,96.11 184.87,110.063 188.878,108.867 223.496,126.01 229.688,138.768 
			225.683,144.349 234.064,157.106 259.57,139.564 252.281,126.409 246.452,129.199 239.164,115.646 234.792,76.177 238.802,70.996 
			230.783,57.839 209.286,72.191 216.937,85.347 219.486,87.342 222.039,107.673 203.456,98.503 204.181,93.319 		"/>
	</g>
	<g>
		<polygon fill="#CB2027" points="261.393,41.096 281.068,31.925 319.329,68.602 311.677,39.501 306.21,39.501 302.203,27.941 
			325.889,17.574 330.262,30.333 327.345,34.718 346.292,97.705 329.896,104.084 287.262,65.813 298.195,100.098 304.755,98.901 
			310.218,114.849 286.17,122.822 281.068,110.463 285.075,105.679 269.772,57.441 262.486,57.042 		"/>
	</g>
	<g>
		<polygon fill="#CB2027" points="447.958,7.208 476.377,9.204 475.651,27.541 468.362,28.338 461.44,79.766 478.201,78.968 
			480.75,66.612 497.149,69.003 490.957,100.098 437.753,91.727 438.847,76.976 444.312,76.177 449.778,24.75 445.404,23.156 		"/>
	</g>
	<g>
		<path fill="#CB2027" d="M152.804,259.96l12.027-24.716l-14.212-9.171l-2.916,5.584l-22.228-1.198l-4.371-13.951l-20.77-10.366
			l-15.668,6.776l-19.312,39.07l12.024,12.357l3.279-5.183l39.355,23.92l0.727,6.777l12.39,5.58l11.66-25.913l-11.297-6.377
			l-2.549,3.589l-13.846-8.772l4.737-10.763l18.219,1.195l-0.365,4.388L152.804,259.96z M102.52,248.798l-14.212-8.771l7.653-13.155
			l8.016-0.399l6.194,8.772L102.52,248.798z"/>
	</g>
	<g>
		<path fill="#CB2027" d="M415.162,20.765l-14.94-15.549l-29.513,3.191l-11.296,15.946l4.007,56.609l15.668,15.149l28.788-3.986
			l11.293-15.549L415.162,20.765z M382.366,77.374l-3.279-52.225l14.576-2.791l7.285,52.224L382.366,77.374z"/>
	</g>
	<g>
		<path fill="#CB2027" d="M576.951,42.69l-45.186-18.736l-2.916,15.149l4.011,2.791l-16.398,49.035l-5.468-1.594l-4.007,14.75
			l41.541,17.541l18.219-7.972l16.76-53.821L576.951,42.69z M550.711,102.491l-3.641,1.993l-13.118-7.174l15.303-49.436l1.456,0.398
			l14.215,10.367L550.711,102.491z"/>
	</g>
	<g>
		<g>
			<path stroke="#FFFFFF" d="M150.168,219.888l19.83,11.911l-16.609,33.094l-18.695-11.228l0.997-1.982l-12.058-0.951l-2.67,5.332
				l9.626,5.784l2.116-4.216l18.696,11.228l-16.978,33.842l-19.83-11.909l2.925-5.825L81.485,263.33l-2.921,5.826L58.85,257.318
				l25.188-50.206l20.055-6.182l21.227,12.747l3.124,12.033l18.169,1.447L150.168,219.888z M153.082,230.833l-2.428,4.837
				l-27.465-1.978l-3.649-13.969l-16.38-9.837l-14.151,4.362l-19.859,39.579l6.802,4.083l2.86-5.702l48.833,29.326l-2.862,5.702
				l6.801,4.083l9.885-19.71l-6.796-4.08l-2.053,4.088l-20.96-12.584l8.084-16.091l26.249,2.031l-2.302,4.581l6.799,4.084
				l9.389-18.719L153.082,230.833z M100.355,220.139l12.012,7.214l2.143,8.063l-9.762,19.462l-20.961-12.587L93.8,222.333
				L100.355,220.139z M98.839,228.746l-5.042,10.04l7.82,4.695l5.04-10.041L98.839,228.746z"/>
		</g>
		<g>
			<path stroke="#FFFFFF" d="M155.012,111.338l20.272,20.586l-15.742,18.552l-3.789-3.85l-7.562,8.915l6.725,6.83l13.891-16.374
				l16.107,16.354l-13.896,16.374l7.292,7.407l7.565-8.911l-4.547-4.618l15.74-18.552l21.121,21.456l-44.934,52.958l-16.577-16.839
				l4.046-4.765l-30.124-30.595l-4.046,4.765l-16.48-16.739L155.012,111.338z M155.224,122.934l-34.559,40.728l5.778,5.871
				l4.044-4.769l40.923,41.561l-4.046,4.769l5.588,5.677l34.559-40.728l-10.037-10.2l-5.28,6.219l4.454,4.522l-18.203,21.452
				l-18.283-18.568l14.072-16.581l-5.116-5.195l-14.072,16.58l-17.523-17.797l18.205-21.454l3.602,3.657l5.272-6.22L155.224,122.934
				z"/>
		</g>
		<g>
			<path stroke="#FFFFFF" d="M232.068,51.386l12.497,20.458l-6.276,4.631l3.641,38.312l5.482,9.06l5.051-3.694l12.568,20.576
				l-31.384,22.942l-12.565-20.576l5.051-3.692l-5.563-8.979l-30.993-18.282l-6.266,4.484l-12.497-20.458l28.481-20.819
				l11.774,19.283l-2.15,1.573l10.062,5.74l-1.142-12.262l-2.148,1.571L203.915,71.97L232.068,51.386z M229.896,62.84l-15.692,11.47
				l4.38,7.173l3.568-2.527l3.36,33.678l-27.767-15.92l3.752-2.738l-4.38-7.17l-15.798,11.546l4.382,7.174l3.869-2.828
				l36.334,21.058l10.842,17.752l-5.156,3.771l4.237,6.938l18.698-13.67l-4.235-6.938l-5.053,3.693l-10.841-17.753L230.3,72.918
				l3.977-2.904L229.896,62.84z"/>
		</g>
		<g>
			<path stroke="#FFFFFF" d="M328.925,10.498l7.427,23.222l-5.613,2.149l21.046,65.803l-21.359,8.175l-36.145-35.984l6.896,21.564
				l6.465-2.476l7.301,22.824l-32.816,12.565l-7.473-23.358l5.732-2.196l-13.573-42.443l-5.733,2.193l-7.429-23.222l29.431-11.267
				l32.442,32.606l-5.7-17.823l-5.737,2.193l-7.127-22.289L328.925,10.498z M324.202,20.994l-18.052,6.913l2.603,8.141l5.002-1.913
				l16.073,50.254l-48.66-46.92l-17.838,6.831l2.603,8.141l5.732-2.194l18.4,57.526l-5.732,2.195l2.514,7.875l18.79-7.193
				l-2.518-7.874l-5.614,2.148l-17.542-54.857l52.27,50.401l9.881-3.781l-20.917-65.4l5.61-2.149L324.202,20.994z"/>
		</g>
		<g>
			<path stroke="#FFFFFF" d="M418.418,16.365l4.898,60.853l-13.864,17.944l-32.576,3.143L360.73,83.108l-4.921-61.133l13.887-17.663
				l32.188-3.104L418.418,16.365z M411.096,20.541l-11.83-10.846l-25.505,2.458l-10.06,12.793l4.338,53.848l11.329,11.038
				l25.986-2.506l10.09-12.837L411.096,20.541z M400.832,23.584l3.998,49.608l-4.57,6.106l-16.995,1.639l-5.087-5.175l-3.995-49.61
				l4.707-5.977l16.483-1.59L400.832,23.584z M393.43,26.726l-11.459,1.104l3.597,44.651l11.458-1.104L393.43,26.726z"/>
		</g>
		<g>
			<path stroke="#FFFFFF" d="M481.494,6.328l-3.061,24.378l-7.042-1.061l-5.584,44.408l9.479,1.426l1.884-14.991l22.793,3.427
				l-4.984,39.646l-63.51-9.55l3.099-24.656l5.888,0.884l5.583-44.406l-5.891-0.888l3.063-24.375L481.494,6.328z M472.923,13.317
				l-23.18-3.487l-1.075,8.545l5.893,0.888l-7.568,60.238l-5.892-0.885l-1.056,8.405l48.401,7.279l2.94-23.395l-7.685-1.156
				l-1.883,14.99l-24.585-3.698l7.57-60.24l7.045,1.061L472.923,13.317z"/>
		</g>
		<g>
			<path stroke="#FFFFFF" d="M588.661,59.009l-19.615,57.194l-19.233,9.776l-49.489-20.319l7.991-23.301l5.688,2.334l14.394-41.967
				l-5.687-2.335l7.899-23.035l49.493,20.317L588.661,59.009z M580.43,59.254l-6.089-15.185l-38.38-15.758l-2.722,7.946l4.838,1.986
				l-19.569,57.061l-4.844-1.987l-2.721,7.944l38.225,15.693l13.767-6.689L580.43,59.254z M569.983,57.519l-16.036,46.757
				l-6.156,3.051l-19.725-8.096l19.571-57.065L567,50.117L569.983,57.519z M562.159,56.587l-9.922-4.074l-14.395,41.968l9.924,4.073
				L562.159,56.587z"/>
		</g>
		<g>
			<path stroke="#FFFFFF" d="M643.406,133.102l-16.304,26.175l-21.225,4.2l-25.851-19.272l-3.629-22.043l8.878-14.257l20.616,15.368
				l-4.294,6.895l8.65,6.452l6.84-10.988l-20.293-15.13l-2.809-17.835l13.899-22.321l20.69-4.086l26.486,19.749l3.428,20.864
				l-8.01,12.854l-19.756-14.729l3.128-5.025l-9.182-6.849l-4.667,7.478l20.728,15.446L643.406,133.102z M635.457,131.295
				l-1.999-11.6l-21.152-15.768l-0.782-4.518l8.229-13.203l6.746-1.299l13.462,10.034l1.043,7.111l-0.724,1.169l8.651,6.448
				l1.791-2.916l-2.628-16.016L627.19,75.154l-14.724,2.909l-10.378,16.66l1.982,12.135l20.936,15.608l0.571,4.347l-10.426,16.743
				l-7.093,1.352l-12.927-9.636l-1.265-7.515l2.008-3.224l-8.437-6.291l-3.017,4.798l2.728,16.548l20.115,14.994l15.511-2.925
				L635.457,131.295z"/>
		</g>
	</g>
	<g>
		<circle fill="#1C3664" stroke="#FFFFFF" cx="411.802" cy="371.916" r="278.634"/>
		<path stroke="#FFFFFF" d="M411.802,658.788c-158.183,0-286.873-128.691-286.873-286.872c0-158.184,128.69-286.874,286.873-286.874
			s286.874,128.69,286.874,286.874C698.675,530.096,569.985,658.788,411.802,658.788z M411.802,101.519
			c-149.096,0-270.396,121.3-270.396,270.397c0,149.096,121.3,270.394,270.396,270.394c149.098,0,270.396-121.298,270.396-270.394
			C682.198,222.818,560.9,101.519,411.802,101.519z"/>
	</g>
	<g>
		<polygon fill="#1C3664" points="777.587,662.553 14.639,662.553 55.683,506.096 819.509,506.096 		"/>
	</g>
	<g>
		<polygon stroke="#FFFFFF" points="784.797,668.718 0.646,668.718 47.085,490.216 166.186,490.216 166.186,506.694 59.825,506.694 
			21.959,652.241 772.058,652.241 809.924,506.694 658.848,506.694 658.848,490.216 831.238,490.216 		"/>
	</g>
	<g>
		<circle fill="#FFFFFF" cx="411.802" cy="371.916" r="225.896"/>
		<path d="M411.802,607.081c-129.67,0-235.165-105.495-235.165-235.165c0-129.671,105.495-235.166,235.165-235.166
			c129.669,0,235.165,105.495,235.165,235.166C646.966,501.585,541.471,607.081,411.802,607.081z M411.802,155.287
			c-119.449,0-216.628,97.178-216.628,216.628c0,119.448,97.179,216.627,216.628,216.627c119.449,0,216.626-97.179,216.626-216.627
			C628.428,252.465,531.25,155.287,411.802,155.287z"/>
	</g>
	<g>
		<path fill="#999898" d="M462.06,173.814c0,0-16.368-7.775-25.37-15.14c0,0-14.161-9.659-25.618-10.887
			c0,0-25.779-0.666-97.547,20.708c0,0-73.654,36.01-109.662,111.709c0,0-50.291,124.963,34.746,221.476
			c0,0,63.05,28.537,146.114,6.44c0,0,20.461-6.55,31.917-19.64c11.458-13.095,0,2.453,0,2.453s3.273-15.138,17.186,0
			c0,0,17.186,46.239,46.238,31.508c0,0,52.376-15.959,63.015-18.002c0,0,23.323,2.453,27.007-6.961
			c0,0,32.735-38.868,42.147-39.689c0,0,9.409-14.731,6.544-22.508l-2.453-6.544c0,0,7.366-8.594,6.955-14.321l-0.818-5.318
			c0,0,14.731-15.549,14.324-21.279l0.817-2.864c0,0,20.869-3.272,31.508-20.458l6.203-32.491l-2.643-7.521l-53.079-23.057
			l-7.358-4.04c0,0-12.685,3.273-14.321,7.365c0,0-30.69-8.592-39.692,4.502c0,0-11.047-4.092-14.731-3.683
			c0,0-18.82-17.595-20.868-24.96c0,0-8.183-76.928-22.096-81.838l-2.864-4.502c0,0,33.144-6.955,37.646-24.55
			c0,0,26.188-21.278,27.414-33.553c0,0,7.217-12.909,1.229-18.414c0,0-13.503-3.683-26.597,9.82c0,0-24.552,21.278-40.918,19.641
			C496.434,147.217,474.335,151.31,462.06,173.814z"/>
	</g>
	<g>
		<path d="M463.638,173.164l2.366,6.256c0,0,2.931-25.199,29.007-26.664c0,0,28.716-6.739,35.453-15.821
			c0,0,16.992-13.77,21.679-15.527c0,0,14.943-5.567,9.67,7.617c0,0-5.275,31.35-44.826,40.14c0,0-19.339-0.292-25.786,5.86
			c0,0-9.96,7.617-9.666,18.751c0,0,14.355,4.981,28.126,0c0,0,14.648-4.396,24.026-16.7c0,0,13.477-19.338,22.561-24.612
			c0,0,15.234-18.166,9.667-33.987c0,0-14.063-8.204-30.177,6.74c0,0-15.236,10.254-23.147,16.7c0,0-15.234,4.687-21.68,4.395
			c0,0-19.631,0.877-29.008,22.267L463.638,173.164z"/>
	</g>
	<g>
		<path d="M384.554,161.84c0,0,26.369-14.649,39.261-4.396c0,0,11.045,5.083,21.389,14.064c0.411,0.357,0.494-0.22,0.494-0.22
			s7.883,8.708,20.307,8.131l-1.758-13.478c0,0-3.809,2.051-3.223,4.102c0,0-9.081-2.05-16.699-9.082c0,0-20.51-19.63-37.503-10.548
			c0,0-14.357,2.636-21.389,7.618c0,0,8.789-36.33,1.464-51.565c0,0-16.993-43.363-41.311-12.014c0,0,1.759,16.115-2.343,25.491
			c0,0-1.172,8.789-3.81,10.84c0,0-18.751,26.076-13.477,42.777c0,0,2.636,40.139,48.635,44.241c0,0,18.533-8.057,10.842-21.242
			C385.433,196.559,373.128,176.344,384.554,161.84z"/>
	</g>
	<g>
		<path d="M483.915,193.605c0,0,18.597-1.288,27.62,13.627c0,0,11.971,17.124,8.103,38.852c0,0,1.289,21.545,3.314,26.518
			c0,0,8.838,29.646,20.991,29.83c0,0,4.604,1.474,6.262,3.499c0,0,1.473,3.685,6.444-0.368c0,0,17.493-15.651,34.987-2.393
			c0,0,2.254,1.736,7.103-3.553c0.148-0.16,0.295-0.325,0.447-0.498c5.155-5.893,31.117-8.469,41.798-2.393
			c0,0,42.352,28.356,41.431,39.958c0,0-14.547,45.299-31.303,50.087c0,0-9.943,1.654-11.416,1.472c0,0-6.443,18.229-15.652,23.386
			c0,0,1.289,9.392-2.944,16.204c0,0,1.473,16.02-1.106,20.255c0,0-3.865,11.971-16.02,18.783c0,0-2.945-4.421-38.301,40.695
			c0,0-4.235,4.049-12.153-0.369c0,0-23.938,0.001-25.964,4.42c0,0-21.282,2.021-35.354,10.68c0,0-11.968,0.001-18.413,1.474
			c0,0-20.256,7.366-26.517-5.894c0,0-21.177-27.438-25.965-27.621c0,0-3.13-5.706-9.575,6.446c0,0-1.105-8.288-6.815-10.683
			c-5.708-2.393,0.737-0.553,0.737-0.553s-52.297-3.681-63.712-52.11l-0.553-9.76c0,0,5.155,1.474,9.759,0
			c4.604-1.473,0.736,0,0.736,0s-7.365,32.039,41.616,51.191c0,0,39.223,0.554,47.509,27.621c0,0,6.261,22.465,24.306,19.15
			c0,0,9.023,1.841,39.774-7.365c0,0,6.577,0.094,6.076-3.684l1.841-3.129c0,0,9.759,2.947,14.915-0.736c0,0,9.196-1.82,27.988-3.5
			c0,0,7.183,0,13.26-10.312c0,0,14.361-19.334,18.229-20.07c0,0,2.944-5.893-3.315-2.764c0,0-5.525,0.921-2.578-3.129
			c0,0,0.185-5.339,15.467-3.315c0,0,12.522,0.368,14.18-19.887c0,0,1.656-12.339-6.076-13.075c0,0-12.154,0.922-27.251-6.812
			c0,0,23.384,6.263,34.616,2.026c0,0,7.183-3.315,6.262-10.863c0,0-12.892,7.363-30.567,3.681c0,0-9.762-1.473-12.522-3.499
			c0,0,40.511,4.787,52.481-19.333c0,0,7.182-6.815-1.105-16.204c0,0,8.471,8.102,16.941,0.736c0,0,17.678-5.526,18.968-15.837
			c0,0,12.982-30.271,9.482-32.48c0,0-6.468-27.288-46.379-27.773c0,0-30.501,0.039-28.29,15.875
			c2.21,15.836-0.554-0.736-0.554-0.736s1.475,25.226,8.473,32.408c0,0-13.813-10.496-13.627-37.012c0,0,1.289-11.783-21.178-6.627
			c0,0-23.201-1.105-26.148,44.376c0,0,3.868,40.695,18.968,51.191c0,0,4.604,10.495-7.732-3.684c0,0-28.358-30.567-11.05-83.599
			c0,0,5.158-6.444-3.13-7.918c0,0-6.814,1.291-9.208-0.182c0,0-14.179-14.915-18.782-35.54c0,0-8.838-37.563-9.023-53.952
			c0,0-4.206-21.573-23.186-25.058C462.552,190.292,483.915,193.605,483.915,193.605z"/>
	</g>
	<g>
		<path d="M526.521,323.299c0,0-15.794,34.193,14.003,82.552c0,0,3.093,5.21,0.975-1.629c0,0-22.143-45.264-13.513-71.153
			C527.986,333.069,534.336,315.81,526.521,323.299z"/>
	</g>
	<g>
		<path d="M487.441,330.299c0,0-6.515-2.767-11.071-16.607c0,0-6.676-23.772-21.981-28.168c0,0-5.7,0.325-1.629,1.791
			c0,0,12.7,4.723,15.794,20.842c0,0,2.933,21.98,16.444,27.353c0,0,3.747,1.467,6.516-0.813c0,0,2.442-3.744-4.233-5.047"/>
	</g>
	<g>
		<path d="M476.856,358.957c0,0,11.562-1.79,11.399,3.42c0,0,1.675,5.484-6.025,5.697c-0.261,0.005-0.533,0.006-0.814,0.001
			c-8.628-0.161-9.28-1.304-12.21-6.351c0,0-0.815-4.722-5.862,0.652c0,0-3.421,3.095-6.679,3.419c0,0,7.979-4.722,8.795-7.653
			c0,0,2.277-7.977-1.466-7.977c0,0-1.956,0.813-2.117,1.79c0,0-5.536,17.747-16.607,7.165c0,0-14.49-11.072-1.303-29.635
			c0,0,3.581-3.907-3.583-3.581c0,0-5.861-0.979-10.746,2.441c0,0-3.094,2.118-1.303-2.117c1.792-4.233,0.163-0.652,0.163-0.652
			s7.05-7.508,14.163-6.172c0.218,0.041,0.437,0.09,0.655,0.148c0,0,2.441,4.235,3.582,1.466c0,0-0.326-9.118-19.864-13.026
			c0,0-3.419-0.976-1.953-2.115c0,0-0.49-2.606,6.35,0c0,0,24.098,8.629,29.308,24.422
			C460.737,330.299,467.901,355.865,476.856,358.957z"/>
	</g>
	<g>
		<path d="M438.94,372.985c0,0-19.22-11.324-29.5-33.821c0,0-3.724-6.408-1.192,1.787c0,0,6.704,22.499,31.288,39.336
			c0,0,4.47,0.893,4.32-2.683C443.857,377.604,444.601,374.773,438.94,372.985z"/>
	</g>
	<g>
		<path d="M426.275,379.094c0,0-11.025-5.365-22.2-22.2c0,0-4.916-7.152-1.042,1.191c0,0,7.598,15.941,24.732,29.351
			c0,0,8.046,2.385,5.961-2.382C433.726,385.054,432.235,381.626,426.275,379.094z"/>
	</g>
	<g>
		<path d="M451.605,382.074c0,0,6.853,3.277,11.769,2.087c0,0,4.172-1.489-3.128-4.469c0,0-8.777-4.621-8.777-1.642
			c0,0-0.312,2.236-0.014,3.278"/>
	</g>
	<g>
		<path d="M455.478,392.206c0,0-7.599-4.917-10.877-2.683c0,0-6.854,3.129-0.149,3.726
			C444.452,393.249,457.416,396.229,455.478,392.206z"/>
	</g>
	<g>
		<path d="M544.299,439.089c0,0-6.218-7.818-19.148-4.247c0,0-16.5,4.062-22.718,21.548c0,0-1.664,4.618,2.092-0.553
			c0,0,10.651-17.67,24.873-15.824c0,0,6.958,0.802,9.051,2.402c0,0,2.65,2.403,5.542,1.293
			C543.991,443.708,546.208,441.799,544.299,439.089z"/>
	</g>
	<g>
		<path d="M559.323,465.502c0,0-13.853-16.623-23.95-17.177c0,0-17.117-1.663-20.318,12.621c0,0-0.615,4.125,3.511-1.602
			c0,0,3.939-8.496,12.374-6.217c0,0,3.633,0.061-0.122,3.324c0,0-4.126,6.279-0.615,13.175c0,0,4.06,9.175,13.481,8.929
			c0,0,14.038,0,15.392-6.712c0,0,0.617-1.046,2.219-1.046c0,0,9.479,0.678,10.035-0.493c0,0,2.216-3.878-0.924-4.126
			c0,0-7.082-0.554-9.481-0.308C560.923,465.872,559.875,466.118,559.323,465.502z"/>
	</g>
	<g>
		<path d="M513.542,508.375c0,0-0.879-8.79-29.007-15.162c0,0-30.707-1.72-42.66-27.229c-0.139-0.294-0.275-0.594-0.408-0.898
			c-11.647-26.369-12.306-32.302-12.306-36.038c0,0,0.879-23.952-19.996-23.73c0,0-17.799,0.219-43.51,14.282
			c0,0-5.243,5.576-24.266,3.996l-0.126,6.552c0,0,11.207,1.758,16.481,0c0,0,8.35,25.051,33.181,35.599c0,0,3.736,0.219-0.22-1.758
			c0,0-21.533-15.822-26.149-32.304c0,0-2.637-3.734,6.593-4.615c0,0,8.57-1.537,8.35,0.221c0,0,20.216,27.688,47.904,38.015
			c0,0,6.373,1.1,9.229,9.23c0,0,4.396,13.624,28.346,19.996c0,0,17.142,1.758,30.984,9.888c0,0,9.533,6.467,15.204,6.091
			L513.542,508.375z"/>
	</g>
	<g>
		<path d="M404.077,485.285c0,0,4.366,1.397,1.746,4.018c0,0-14.144,15.89-27.415,15.189c0,0-8.252,2.75-23.388-11.023
			c-0.119-0.105-0.238-0.216-0.359-0.327c-15.366-14.143-24.62-31.431-27.414-36.669c0,0-17.288-30.906-40.86-38.24
			c0,0-29.51-8.903-48.718-52.383c0,0-23.399-69.497,0-109.657c0,0,21.304-50.636,87.656-78.225l2.445-0.35l-1.399-4.715
			c0,0-89.925,28.643-107.037,112.451c0,0-5.064,52.903,9.779,80.493c0,0,20.08,43.827,50.987,62.161
			c0,0,24.971,9.255,39.289,30.557c0,0,21.476,38.591,54.13,54.132c0,0,27.936,6.637,34.223-9.777c6.287-16.416,0.176-0.7,0.176-0.7
			s8.207-13.269,10.651-12.746L404.077,485.285z"/>
	</g>
	<g>
		<path d="M329.258,186.515c0,0,1.825,9.901-28.14,35.697c0,0-53.154,39.084-50.548,86.767c0,0-0.782,38.302,10.162,51.069
			c0,0,25.796,66.444,80.513,71.133l0.146-7.586c0,0-52.779,0.552-82.222-86.736c0,0-9.902-62.794,28.141-93.281
			c0,0,43.512-31.529,45.598-43.774c0,0,1.898-2.657,2.455-5.055c0.096-0.412,0.152-0.817,0.152-1.199
			C335.512,190.945,329.258,186.515,329.258,186.515z"/>
	</g>
	<g>
		<path d="M99.184,279.275"/>
	</g>
	<g>
		<path d="M321.267,461.131c0,0,3.077,1.757-3.076,5.272c0,0-29.445,29.006-61.967-5.272c0,0-26.81-29.887-35.599-33.842
			c0,0-18.458-2.197-26.369-11.427c0,0-42.19-163.928,130.526-249.627l1.319-5.713c0,0-174.475,61.968-136.24,267.646l5.274,0.879
			l0.439-2.197c0,0,14.943,1.318,27.248,9.67c0,0,20.657,33.839,35.16,41.311c0,0,11.865,9.23,33.401,7.473
			c0,0,25.051,1.758,36.038-13.185L321.267,461.131z"/>
	</g>
	<g>
		<path d="M194.389,416.263c0,0,21.794,69.72,36.726,85.615c14.933,15.894-10.836-3.612-10.836-3.612s-27.334-42.869-33.355-80.68"
			/>
	</g>
	<g>
		<path fill="#999898" d="M704.42,146.019c0,0-28.468,138.037-85.234,169.012l53.237,22.116c0,0,2.694-7.923,3.541-9.927
			C683.246,309.982,731.615,232.419,704.42,146.019z"/>
	</g>
	<g>
		<path d="M702.764,131.513c0,0-29.444,150.304-76.339,169.127l11.272-1.57c0,0,35.183-2.311,67.703-147.783L702.764,131.513z"/>
	</g>
	<g>
		<path stroke="#FFFFFF" d="M702.874,131.861c0,0,1.21-0.935,7.07,14.301c0,0,38.144,88.335-37.521,190.985
			c0,0,5.922-20.916,10.006-28.299c20.354-36.791,40.257-112.859,22.642-158.528L702.874,131.861z"/>
	</g>
	<g>
		<path fill="#DEDDDD" d="M532.222,168.579c0,0-12.306,8.204-33.695,7.911c0,0-12.013,0.879-11.719,15.529
			C486.808,192.018,516.108,201.1,532.222,168.579z"/>
	</g>
	<g>
		<path fill="#999898" d="M380.818,105.586c0,0-7.032-18.899-21.975-17.141c0,0-8.79,4.395-8.569,13.624l-0.66,14.723
			c0,0-1.538,8.131-5.274,13.845c0,0-12.305,19.336-12.305,27.248c0,0-8.57,41.531,37.576,56.473c0,0,6.591,0.439-3.297-6.373
			c0,0-25.271-16.919-22.853-41.311c0,0-1.099-32.302,27.028-29.007c0,0,5.055-13.184-1.758-23.952c0,0-1.978-6.592,5.712,3.516
			c0,0,3.077,11.208-0.879,28.567c0,0-11.426,47.244,5.713,54.936c0,0,6.592,2.857-2.637-13.405c0,0-4.834-14.283,2.857-30.325
			c0,0,7.471-20.875,5.713-33.621C385.212,123.385,384.992,113.276,380.818,105.586z"/>
	</g>
	<g>
		<path fill="#FFFFFF" d="M447.712,332.091c0,0-6.514,2.767-7.001,9.769c0,0,0.814,12.701,7.001,6.676
			C447.712,348.536,454.226,330.625,447.712,332.091z"/>
	</g>
	<g>
		<path fill="#F7F9F9" d="M533.213,458.053c0,0-3.202,10.776,3.326,12.992c0,0,1.293,0.679,1.293-3.695c0,0,0-5.663,2.031-6.218
			c0,0,4.371-1.107,2.832-3.939c0,0-0.737-2.401-3.94-2.279C538.755,454.914,533.584,455.529,533.213,458.053z"/>
	</g>
	<g>
		<path fill="#FFFFFF" d="M385.212,426.631c0,0,3.295,7.031,9.449,10.986c0,0,2.637,3.297,5.053-0.879c0,0,4.834-4.613,7.911-9.449
			c0,0,4.395-3.075,1.319,0.879c0,0-12.965,12.524-7.033,16.263c0,0,10.987,13.842,14.504,8.789c0,0,3.954-3.297,5.493-7.031
			c1.538-3.737,1.318-18.899-5.273-27.689c0,0-7.032-9.01-17.14-3.516C399.496,414.984,379.939,421.136,385.212,426.631z"/>
	</g>
	<g>
		<path fill="#FFFFFF" d="M422.569,450.583c0,0-7.472,3.516-1.758,7.47c0,0,7.911,7.472,6.811,0.66
			C427.622,458.713,425.425,448.166,422.569,450.583z"/>
	</g>
	<g>
		<polygon fill="#CB2027" points="211.183,520.267 252.015,523.378 248.515,541.267 243.071,546.711 238.794,571.21 
			266.403,571.986 274.57,545.932 268.736,543.99 273.403,523.378 318.901,521.045 315.401,545.544 305.291,548.266 
			282.347,626.042 291.68,627.987 285.848,650.153 241.126,652.095 246.96,628.763 253.181,627.596 260.958,598.43 231.404,598.43 
			222.072,626.818 228.682,629.929 222.85,648.986 180.074,649.762 183.962,628.375 193.685,627.208 215.072,547.877 
			208.461,545.157 		"/>
	</g>
	<g>
		<polygon fill="#CB2027" points="353.899,519.488 401.343,522.6 398.232,547.099 389.289,547.099 369.066,623.708 377.621,625.263 
			370.622,651.319 318.901,652.095 327.457,628.375 337.957,627.208 355.067,549.044 349.234,544.377 		"/>
	</g>
	<g>
		<polygon fill="#CB2027" points="441.007,522.212 482.229,522.991 502.838,598.821 518.005,546.323 510.228,543.211 
			515.672,521.433 559.226,519.878 555.338,545.544 541.726,547.099 515.672,649.762 486.117,649.762 463.174,561.876 
			447.23,624.484 455.396,627.987 451.508,651.708 404.454,652.483 409.119,628.375 421.564,626.818 443.73,547.487 433.62,544.766 
					"/>
	</g>
	<g>
		<polygon fill="#CB2027" points="789.051,542.432 775.44,522.991 726.832,521.433 702.333,539.322 692.999,573.153 
			700.387,590.653 743.164,594.153 740.053,616.708 731.499,627.596 711.275,624.875 711.275,615.542 680.554,613.209 
			677.833,633.818 694.166,648.986 737.331,649.762 765.328,630.319 776.608,586.375 768.051,572.765 723.719,570.431 
			727.999,550.599 736.941,545.544 754.828,546.711 758.718,552.544 776.997,555.266 784.772,556.044 		"/>
	</g>
	<g>
		<path fill="#CB2027" d="M654.5,521.045l-47.055-0.391l-22.943,21.39l-26.832,87.109l15.167,20.999l47.831,1.555l31.108-22.944
			l19.057-83.997L654.5,521.045z M622.614,618.264l-10.888,7.387l-19.833-0.388l3.5-15.166l12.054-57.165l7-5.445l19.833-0.777
			L637,568.486L622.614,618.264z"/>
	</g>
	<g>
		<path fill="#CB2027" d="M162.574,541.267l-11.667-19.055l-76.609-0.39l-7.388,22.167l8.554,3.888l-20.609,77.386l-10.111,3.5
			l-4.278,21.39l44.72,2.721l5.445-23.332l-6.612-3.891l8.945-28.775l16.333,2.722l6.222,26.054l-5.444,2.724l-5.445,21.388
			l45.888,2.721l4.277-26.832l-7.389-1.942l-7-32.278l18.276-16.332L162.574,541.267z M128.186,572.615l-24.025,0.584l5.274-25.197
			l24.024,1.76l0.587,12.306L128.186,572.615z"/>
	</g>
	<g>
		<g>
			<path d="M163.508,619.439l-9.975,37.223H96.739l9.405-35.096h3.404l-3.451-18.082h-9.146l-4.846,18.082h7.232l-9.404,35.096
				H31.863l9.974-37.223h9.998l18.124-67.643h-9.998l9.918-37.013h86.148l17.481,24.461l-10.678,39.85l-16.933,13.211l5.175,27.263
				L163.508,619.439z M148.135,631.562h-8.296l-8.145-41.053l19.65-15.378l8.24-30.754l-12.333-17.256H79.335l-3.419,12.764H85.7
				l-24.565,91.677h-9.785l-3.42,12.764h33.821l3.42-12.764h-7.02l10.544-39.351l27.612,0.016l7.569,39.339l-7.862-0.004
				l-3.42,12.764h32.12L148.135,631.562z M142.938,547.753l-6.042,22.548l-11.328,8.935H92.174l10.543-39.351h34.247
				L142.938,547.753z M129.305,551.796h-17.229l-3.933,14.676h17.229L129.305,551.796z"/>
		</g>
		<g>
			<path d="M328.32,514.784l-9.918,37.013h-9.997l-18.124,67.643h9.998l-9.975,37.223H232.66l9.633-35.948h7.019l4.617-17.229
				h-19.782l-4.616,17.229h6.593l-9.633,35.948h-57.432l9.975-37.223h9.784l18.125-67.643h-9.785l9.916-37.013h57.432l-9.518,35.523
				h-6.594l-4.047,15.103h19.782l4.047-15.103h-7.02l9.517-35.523H328.32z M312.464,527.122h-32.545l-3.476,12.975h5.53
				l-10.088,37.649h-42.117l10.088-37.649h5.318l3.476-12.975h-30.63l-3.477,12.975h8.084l-24.508,91.466h-8.083l-3.42,12.764h30.63
				l3.419-12.764h-5.317l11.057-41.266h42.117l-11.057,41.266h-5.53l-3.421,12.764h32.546l3.419-12.764h-9.998l24.508-91.466h9.998
				L312.464,527.122z"/>
		</g>
		<g>
			<path d="M412.977,514.784l-9.917,37.013h-9.784l-18.125,67.643h9.784l-9.974,37.223h-61.898l9.976-37.223h9.784l18.124-67.643
				h-9.786l9.918-37.013H412.977z M397.12,527.122h-36.798l-3.477,12.975h9.785l-24.564,91.679h-9.785l-3.363,12.551h36.798
				l3.364-12.551h-9.784l24.566-91.679h9.784L397.12,527.122z"/>
		</g>
		<g>
			<path d="M566.977,514.784l-9.915,37.013h-9.786l-28.099,104.865h-37.24l-19.317-70.74l-9.208,34.367h11.273l-9.745,36.373h-57.22
				l9.975-37.223h9.997l18.125-67.643h-9.998l9.918-37.013h51.313l17.067,63.93l7.609-28.406h-9.996l9.519-35.523H566.977z
				 M551.124,527.122h-31.482l-3.476,12.975h8.722l-21.463,80.09l-27.339-93.064h-31.106l-3.477,12.975h9.998l-24.565,91.679h-9.998
				l-3.362,12.551h32.757l3.362-12.551h-9.784l23.425-87.425l29.373,99.976h17.226l27.929-104.229h9.782L551.124,527.122z"/>
		</g>
		<g>
			<path d="M679.37,539.885l-24.622,91.89l-31.77,24.887h-53.816l-17.736-25.1l24.736-92.317l31.653-24.461h53.178L679.37,539.885z
				 M665.426,545.083l-13.149-17.961h-42.141l-22.922,17.715l-21.788,81.316l12.242,18.173H620.6l22.998-17.78L665.426,545.083z
				 M647.372,548.159l-20.074,74.916l-10.569,8.487h-28.077l-5.383-8.487l20.071-74.916l10.728-8.273h27.227L647.372,548.159z
				 M633.848,551.796h-18.933l-18.066,67.429h18.931L633.848,551.796z"/>
		</g>
		<g>
			<path d="M784.503,584.126l-12.768,47.648l-31.978,24.887h-51.48l-17.171-24.034l6.956-25.952h41.052l-3.362,12.55h17.228
				l5.358-19.993h-40.414l-13.688-19.57l10.886-40.628l31.172-24.25h52.753l16.237,22.762l-6.271,23.396h-39.354l2.452-9.146
				h-18.294l-3.646,13.613h41.267L784.503,584.126z M770.793,589.249l-9.183-12.565h-42.117l-3.582-4.893l6.44-24.037l10.191-7.868
				h26.802l5.336,7.868l-0.568,2.128h17.228l1.391-5.292l-12.463-17.468h-41.627l-22.189,17.259l-8.129,30.331l9.429,13.245h41.691
				l3.162,4.869l-8.168,30.48l-10.719,8.256H707.98l-5.896-8.173l1.573-5.865h-16.805l-2.383,8.757l12.886,18.045h40.058
				l23.448-18.015L770.793,589.249z"/>
		</g>
	</g>
</g>
</svg>
