<?xml version="1.0" encoding="utf-8"?>
<!-- Generator: Adobe Illustrator 16.0.4, SVG Export Plug-In . SVG Version: 6.00 Build 0)  -->
<!DOCTYPE svg PUBLIC "-//W3C//DTD SVG 1.1//EN" "http://www.w3.org/Graphics/SVG/1.1/DTD/svg11.dtd">
<svg version="1.1" xmlns="http://www.w3.org/2000/svg" xmlns:xlink="http://www.w3.org/1999/xlink" x="0px" y="0px" viewBox="0 0 675.368 504.902" enable-background="new 0 0 675.368 504.902"
	 xml:space="preserve">
<g id="original_logo" display="none">
	
		<image display="inline" overflow="visible" width="700" height="527" xlink:href="27E087C3D6D1D620.jpg"  transform="matrix(0.9573 0 0 0.9573 0 0.4219)">
	</image>
</g>
<g id="Layer_17">
</g>
<g id="black_background">
</g>
<g id="bottom_flare_black">
</g>
<g id="bottom_flare_gold">
</g>
<g id="white_claws">
</g>
<g id="black_claw_overlays">
</g>
<g id="claws__x26__face_gold">
</g>
<g id="white_face">
</g>
<g id="black_face_overlay">
</g>
<g id="yellow_eyes">
</g>
<g id="black_eyes_pupil">
</g>
<g id="red_tongue">
</g>
<g id="white_nose__x26__teeth">
</g>
<g id="text_black_background">
</g>
<g id="text_gold">
</g>
<g id="text_black_overlay">
	<g>
		<path fill-rule="evenodd" clip-rule="evenodd" stroke="#FCF7F7" stroke-miterlimit="10" d="M341.629,503.64L537.14,316.859
			c0,0,10.569,3.445,28.26,1.838c17.689-1.609,35.954-11.144,35.954-11.144l9.879,3.217c0,0-3.905,7.812-11.027,15.623
			c-7.121,7.811-14.473,14.014-14.473,14.014s32.738,0.115,49.509-12.636s24.582-14.703,35.611-36.185
			c4.984-9.712,4.925-16.842,2.02-21.669c-4.156-6.904-14.137-9.097-23.502-7.395c-2.526,0.46-0.458,1.265,3.562-5.283
			c4.02-6.549,11.718-26.536,2.643-35.496c-9.076-8.96-28.833-5.055-28.833-6.203c0-1.15,5.514-27.685-2.298-34.233
			c-7.811-6.547-14.933-6.317-14.933-6.317h-18.955c0,0,3.676-23.089-4.595-27.799c-8.27-4.709-16.426-8.615-33.312-3.562
			c-16.887,5.055-34.577,18.725-37.678,21.366c-3.102,2.642-12.293,11.603-12.293,11.603l-16.081-9.305l2.412-21.826l41.239,4.136
			l-41.009-17.001l-4.479-12.75l61.111-9.19l-63.869-1.723l4.135-5.858c0,0-14.015-6.893-13.784-7.697
			c0.229-0.804,59.733-23.319,59.733-23.319L464.313,86.08l24.467-19.069c0,0-28.028-13.669-35.496-18.149
			c-7.465-4.48-22.284-20.907-25.156-22.745c-2.872-1.838-53.99-25.387-55.484-25.387c-1.492,0-30.439,10.913-32.508,10.913
			c-2.067,0-30.785-11.143-31.589-11.143c-0.805,0-51.005,23.549-53.073,24.468c-2.067,0.919-25.616,22.745-28.372,24.238
			c-2.758,1.494-34.002,17.69-34.002,17.69l23.663,18.954l-67.659-13.67l58.814,22.745l-12.98,8.73l4.48,5.858l-64.443,1.264
			l60.882,9.879l-4.595,11.603l-40.895,16.771l41.583-3.791l1.378,22.515l-15.737,8.616c0,0-21.941-23.32-46.868-31.936
			c-24.927-8.615-34.807,0.23-36.185,2.184c-1.378,1.952-10.109,8.041-4.709,28.718c-3.792,0-21.137-1.034-28.374,1.952
			c-7.237,2.987-10.684,9.19-9.649,21.366c1.034,12.177,1.609,17.116,1.609,17.116s-20.562-4.135-29.293,7.352
			c-8.729,11.487-1.034,23.664,1.034,27.454c2.068,3.791,4.596,10.224,4.596,10.224s-19.459-3.145-25.94,8.26
			c-4.863,8.556,1.317,31.238,7.906,36.885c0.804,0.689,5.514,7.237,5.514,7.237s9.763,1.724,11.717,1.952
			c1.952,0.23,6.087,10.454,27.568,18.15c21.481,7.696,37.333,6.318,37.333,6.318s-12.521-10.684-15.967-15.508
			c-3.446-4.825-8.042-13.21-8.042-13.21l10.225-2.757c0,0,16.542,8.844,29.293,10.223c12.75,1.379,35.379-1.033,35.379-1.033
			l16.657,16.081c0,0,14.359,17.921,16.427,19.988c2.068,2.067,9.535,3.791,9.535,3.791l28.947,27.799l81.216,76.619L341.629,503.64
			z"/>
		<g>
			<path fill-rule="evenodd" clip-rule="evenodd" d="M175.573,427.557c0,0-3.446,12.177-5.628,19.988
				c-2.183,7.812-4.365,14.933-4.365,14.933s31.627-6.167,68.256-8.887c48.589-3.608,107.581-4.373,107.843-4.438
				c0.46-0.114-108.152-0.517-108.152-0.517s29.801-4.286,64.295-6.589c50.869-3.396,114.389-5.186,114.389-5.186l-113.149-0.517
				c0,0,46.995-3.508,94.667-5.383c56.656-2.229,119.11-3.405,119.11-3.405H175.573z"/>
		</g>
		<g>
			<path fill-rule="evenodd" clip-rule="evenodd" fill="#F79C39" d="M171.408,424.11c0,0-3.446,12.177-5.628,19.988
				c-2.184,7.811-4.366,14.934-4.366,14.934s31.628-6.168,68.256-8.888c48.59-3.607,107.582-4.372,107.844-4.438
				c0.458-0.115-108.152-0.517-108.152-0.517s29.802-4.288,64.294-6.59c50.87-3.396,114.389-5.185,114.389-5.185l-113.15-0.518
				c0,0,46.996-3.507,94.667-5.384c56.656-2.229,119.11-3.404,119.11-3.404H171.408z"/>
		</g>
		<g>
			<path fill-rule="evenodd" clip-rule="evenodd" fill="#FFFFFF" d="M595.072,336.692c0,0,18.22-0.836,37.214-13.063
				c8.453-5.442,19.222-14.845,24.732-25.693c1.084-10.744-1.723-20.235-10.025-23.037c-9.062-3.06-20.288,2.372-26.879,13.203
				c-0.274,1.31-1.329,18.287-7.045,29.222C606.459,329.964,595.072,336.692,595.072,336.692z"/>
			<path fill-rule="evenodd" clip-rule="evenodd" fill="#FFFFFF" d="M561.53,309.123c0,0,21.49-2.521,39.518-12.635
				c12.172-6.83,26.841-20.564,31.925-32.041c2.021-10.844-1.601-24.454-11.773-27.474c-9.154-2.717-21.194,3.511-30.263,13.908
				c-1.11,5.275-1.277,22.312-8.2,35.288C575.504,299.724,561.53,309.123,561.53,309.123z"/>
			<path fill-rule="evenodd" clip-rule="evenodd" fill="#FFFFFF" d="M533.042,269.606c0,0,19.912-1.796,38.328-12.192
				c13.654-7.708,24.896-20.618,32.246-31.198c2.021-2.909,1.848-23.072-9.693-28.053c-8.784-3.79-25.802,3.062-32.393,13.893
				c-1.08,5.131,0.024,17.625-6.609,30.34C547.846,255.954,533.042,269.606,533.042,269.606z"/>
			<path fill-rule="evenodd" clip-rule="evenodd" fill="#FFFFFF" d="M500.418,231.929c0,0,21.395-2.426,39.39-12.794
				c15.178-8.745,27.073-24.996,30.365-31.478c1.848-18.297-5.31-26.837-14.587-28.087c-9.3-1.253-20.732,4.817-27.37,15.726
				c-1.004,4.772-1.305,19.121-7.499,31.172C513.542,220.425,500.418,231.929,500.418,231.929z"/>
			<path fill-rule="evenodd" clip-rule="evenodd" fill="#FFFFFF" d="M503.428,305.783c0,0-10.684-11.589-14.254-27.501
				c-3.612-16.096,0.342-33.317-0.562-36.546c-7.364-13.995-21.346-21.415-30.803-18.835c-10.363,2.828-13.029,19.22-12.291,27.061
				c0.488,5.194,9.98,22.354,22.774,34.075C483.855,298.293,503.428,305.783,503.428,305.783z"/>
			<path fill-rule="evenodd" clip-rule="evenodd" fill="#FFFFFF" d="M116.744,309.352c0,0-12.751-9.392-19.254-21.566
				c-8.354-15.636-8.452-29.361-10.356-36.171c-5.391-10.254-20.526-17.818-31.56-13.232c-7.916,3.29-11.663,12.223-10.384,22.147
				c1.579,12.264,12.695,24.156,27.811,33.429C99.35,310.121,116.744,309.352,116.744,309.352z"/>
			<path fill-rule="evenodd" clip-rule="evenodd" fill="#FFFFFF" d="M83.432,337.151c0,0-11.258-7.783-17.762-19.957
				c-8.354-15.636-5.35-21.091-7.254-27.9c-2.883-10.32-17.584-17.18-27.125-14.931c-7.607,1.794-10.848,10.72-10.109,18.562
				c0.557,5.931,0.635,13.64,21.064,28.867C59.687,334.793,83.432,337.151,83.432,337.151z"/>
			<path fill-rule="evenodd" clip-rule="evenodd" fill="#FFFFFF" d="M145.233,270.066c0,0-14.244-12.607-20.749-24.782
				c-8.353-15.636-5.695-26.375-7.599-33.186c-8.283-13.306-22.494-16.59-31.95-14.01c-10.365,2.828-11.192,16.463-10.454,24.306
				c0.558,5.931,3.278,13.869,23.707,29.097C119.075,268.398,145.233,270.066,145.233,270.066z"/>
			<path fill-rule="evenodd" clip-rule="evenodd" fill="#FFFFFF" d="M178.085,232.388c0,0-13.095-12.148-19.599-24.324
				c-8.353-15.635-6.614-26.145-8.517-32.955c-8.283-13.307-22.494-16.591-31.951-14.011c-10.366,2.828-11.192,16.463-10.454,24.305
				c0.557,5.932,4.542,12.836,23.707,29.098C150.665,229.341,178.085,232.388,178.085,232.388z"/>
			<path fill-rule="evenodd" clip-rule="evenodd" fill="#FFFFFF" d="M175.1,306.366c0,0,32.279-13.899,46.179-34.002
				c6.042-8.74,11.969-15.146,12.183-31.589c-0.471-1.41-3.702-18.292-17.23-18.278c-9.009,0.01-24.004,8.131-26.429,19.196
				c-1.838,8.385,4.48,19.758-1.838,37.909C182.195,296.174,175.1,306.366,175.1,306.366z"/>
		</g>
		<g>
			<path fill-rule="evenodd" clip-rule="evenodd" d="M461.219,231.01c0,0-7.735,6.202-8.502,7.811
				c-0.316,0.664-0.536,3.837-0.096,6.115c0.627,3.235,2.121,5.682,2.547,5.295c1.041-0.942,1.668-3.434,3.646-5.542
				c2.317-2.47,5.313-3.418,5.313-3.418s-0.886-2.031-1.773-4.465C461.571,234.66,461.398,232.661,461.219,231.01z"/>
			<path fill-rule="evenodd" clip-rule="evenodd" d="M465.584,245.024c0.458,0.842,3.093,11.796,8.769,23.568
				c6.636,13.755,14.894,26.133,14.894,26.133s-17.69-11.794-22.975-22.591c-5.283-10.798-7.658-13.785-8.117-18.687
				C457.687,248.445,465.125,244.182,465.584,245.024z"/>
			<path fill-rule="evenodd" clip-rule="evenodd" d="M563.149,167.293c0,0,2.84,4.627,2.939,9.805
				c0.078,4.206-2.79,9.266-4.013,10.183c0.135-0.1-0.258-3.04-1.669-4.89c-1.556-2.037-3.768-3.228-3.768-3.228
				s2.436-0.991,4.046-3.927C562.329,172.238,563.149,167.293,563.149,167.293z"/>
			<path fill-rule="evenodd" clip-rule="evenodd" d="M555.795,182.074c0.926,0.109,5.744,4.365,3.524,9.19
				c-2.221,4.825-5.209,8.654-9.726,12.789c-4.52,4.136-17.23,12.712-20.679,13.172c2.911-3.369,7.888-7.964,15.546-17.69
				S554.495,181.921,555.795,182.074z"/>
			<path fill-rule="evenodd" clip-rule="evenodd" d="M553.881,261.03c0,0,16.926-4.596,27.033-15.24
				c10.109-10.645,13.172-15.01,12.943-17.077c-0.229-2.068-2.987-8.959-4.365-9.419s-1.762,0.307-3.445,3.216
				c-1.687,2.911-6.051,10.569-12.791,18.15C566.518,248.24,553.5,260.11,553.881,261.03z"/>
			<path fill-rule="evenodd" clip-rule="evenodd" d="M590.717,217.378c0,0,2.016,1.485,3.252,3.345
				c1.213,1.825,0.935,4.362,1.65,4.926c0.688,0.544,2.989-1.791,4.197-7.981c1.053-5.397-1.901-12.696-1.901-12.696
				s-0.983,4.963-2.833,8.15C593.336,216.134,590.717,217.378,590.717,217.378z"/>
			<path fill-rule="evenodd" clip-rule="evenodd" d="M618.748,258.656c0,0,3.903-2.374,5.437-5.591
				c1.531-3.217,3.446-7.659,3.446-7.659s3.752,7.736,1.685,13.327c-2.068,5.59-5.284,8.5-5.284,8.5s0.077-3.676-1.761-5.59
				C620.432,259.728,618.748,258.656,618.748,258.656z"/>
			<path fill-rule="evenodd" clip-rule="evenodd" d="M585.51,298.785c0,0,14.934-5.285,24.275-13.938
				c6.746-6.248,9.9-9.896,11.287-12.347c1.592-2.808,0.862-4.041,0.567-5.812c-0.576-3.455-2.663-7.587-5.419-4.664
				c-3.49,3.702-7.43,11.429-12.715,17.539C596.155,288.063,585.51,298.785,585.51,298.785z"/>
			<path fill-rule="evenodd" clip-rule="evenodd" d="M650.375,283.927c0,0,0.613,15.546,0.077,16.312
				c-0.537,0.766-1.302-2.833-2.911-4.211c-1.608-1.379-3.216-2.145-3.216-2.145s3.369-2.604,4.212-4.519
				C649.38,287.451,650.375,283.927,650.375,283.927z"/>
			<path fill-rule="evenodd" clip-rule="evenodd" d="M614.458,326.889c0,0,13.555-3.676,21.06-10.415s10.261-9.726,10.567-12.253
				c0.307-2.526-0.153-7.352-1.914-8.271c-1.762-0.919-2.068-0.076-3.446,2.221c-1.378,2.298-5.437,7.734-11.563,13.938
				C623.035,318.312,614.458,326.889,614.458,326.889z"/>
			<path fill-rule="evenodd" clip-rule="evenodd" d="M27.92,281.936c0,0,0.78,4.066,2.298,7.084
				c1.468,2.916,3.676,4.786,3.676,4.786s-1.868,1.141-3.162,3.175c-1.103,1.731-1.663,4.407-1.663,4.407s-3.636-4.05-3.912-8.726
				C24.86,287.626,27.92,281.936,27.92,281.936z"/>
			<path fill-rule="evenodd" clip-rule="evenodd" d="M31.826,303.915c0,0-0.306-3.445,1.072-5.59
				c1.378-2.145,3.064-3.063,3.064-3.063s5.178,8.07,11.706,15.242c7.729,8.492,17.012,16.31,17.012,16.31
				s-10.074-2.159-19.694-9.02C37.592,312.521,31.826,303.915,31.826,303.915z"/>
			<path fill-rule="evenodd" clip-rule="evenodd" d="M51.048,245.483c0,0,1.389,4.2,3.473,7.412c2.09,3.222,5.256,5.147,5.256,5.147
				s-1.973,1.565-3.369,3.907c-1.32,2.211-2.451,5.512-2.451,5.512s-3.941-5.656-4.218-10.333
				C49.442,252.092,51.048,245.483,51.048,245.483z"/>
			<path fill-rule="evenodd" clip-rule="evenodd" d="M57.022,270.602c0,0-0.23-4.365,1.148-6.51s3.752-3.752,3.752-3.752
				s6.634,12.436,13.163,19.607c7.728,8.492,18.083,18.606,18.083,18.606s-10.762-2.389-21.915-11.623
				C64.259,281.139,57.022,270.602,57.022,270.602z"/>
			<path fill-rule="evenodd" clip-rule="evenodd" d="M80.915,205.891c0,0,1.12,4.225,3.062,7.226
				c1.764,2.729,4.367,4.261,4.367,4.261s-1.868,1.118-3.261,3.286c-1.363,2.121-2.253,5.292-2.253,5.292s-4.188-3.803-4.645-8.58
				C77.686,212.141,80.915,205.891,80.915,205.891z"/>
			<path fill-rule="evenodd" clip-rule="evenodd" d="M85.969,231.086c0,0-2.22-5.208,0.612-8.578
				c2.343-2.784,4.059-3.446,4.059-3.446s3.599,7.658,14.168,19.835c10.567,12.177,20.677,22.208,20.677,22.208
				s-16.924-5.59-26.115-14.626C90.181,237.442,85.969,231.086,85.969,231.086z"/>
			<path fill-rule="evenodd" clip-rule="evenodd" d="M115.683,167.371c0,0,0.622,4.629,2.294,7.772
				c1.496,2.812,3.986,4.863,3.986,4.863s-1.888,0.304-3.311,2.361c-1.412,2.04-2.279,5.144-2.279,5.144s-4.132-5.134-4.292-9.802
				C111.896,172.354,115.683,167.371,115.683,167.371z"/>
			<path fill-rule="evenodd" clip-rule="evenodd" d="M123.417,181.768c0,0,1.991,6.739,10.109,16.695
				c8.117,9.956,16.081,18.379,16.081,18.379s-10.337-2.374-20.6-12.789c-8.5-9.343-9.343-11.947-10.338-13.938
				c0-1.012,0.119-4.237,1.125-5.835C121.118,182.175,123.417,181.768,123.417,181.768z"/>
			<path fill-rule="evenodd" clip-rule="evenodd" d="M214.473,241.424c0,0,3.596,0.818,5.569,2.932
				c2.292,2.455,3.008,6.258,3.008,6.258s3.546-3.753,3.121-8.562c-0.38-4.3-4.491-9.615-8.251-11.119
				C217.46,236.217,214.473,241.424,214.473,241.424z"/>
			<path fill-rule="evenodd" clip-rule="evenodd" d="M212.941,245.483c0,0,5.82,0.307,6.664,4.289
				c0.841,3.982,1.685,7.812-2.758,15.393c-4.441,7.582-9.113,16.694-26.42,29.178c3.775-6.794,9.578-17.129,14.352-26.711
				C209.53,258.089,212.263,249.599,212.941,245.483z"/>
		</g>
		<g>
			<path fill-rule="evenodd" clip-rule="evenodd" fill="#F7A539" d="M248.839,118.167c0,0,15.088-11.867,26.229-18.775
				c6.293-3.902,11.563-4.659,11.563-4.659l29.522,12.98l-20.103-25.731l26.535,17.805l30.326,0.689l28.258-18.265l-20.676,25.731
				c0,0,27.454-13.21,29.292-12.98c0.587,0.073,6.293,0.947,11.601,4.137c11.321,6.802,26.537,18.837,26.537,18.837
				s-1.952-21.596-4.594-29.637c-2.643-8.041-11.258-32.854-11.258-32.854l-17.117,20.447l-13.324,3.676l-20.104-12.636
				l6.318-24.582l-19.987-12.751l40.09,2.757l15.623,10.454c0,0,20.103,6.777,23.09,8.96c2.986,2.182,11.831,6.318,14.817,12.291
				c2.987,5.974,11.259,22.515,11.259,22.515l19.527-19.298c0,0-14.255-7.677-28.367-17.699
				c-13.62-9.672-27.115-21.702-27.115-21.702L366.583,8.005c0,0-24.584,7.007-28.374,6.893c-3.792-0.115-27.455-6.893-27.455-6.893
				l-50.659,19.988c0,0-14.865,12.912-28.744,22.643c-13.977,9.798-26.969,16.414-26.969,16.414l19.299,19.184
				c0,0,12.866-25.157,14.474-26.421c1.608-1.263,13.899-10.683,19.298-12.176c5.399-1.494,15.048-4.48,15.048-4.48l15.738-11.143
				l40.893-2.067l-20.676,12.75l7.122,23.894L295.592,79.8l-13.095-4.135l-17.806-19.987l-12.75,37.562L248.839,118.167z"/>
			<path fill-rule="evenodd" clip-rule="evenodd" fill="#F7A539" d="M60.334,290.016c0,0,6.203,7.237,23.778,14.244
				c7.318,2.917,14.976,5.354,21.421,6.533c9.032,1.654,15.683,1.393,15.683,1.393l-5.514-6.663c0,0,13.095,3.791,25.73,0.689
				c12.637-3.102,20.449-9.993,20.449-9.993s-14.459-3.891-27.151-9.678c-14.327-6.532-19.603-14.446-19.603-14.446
				s13.555,8.348,29.407,13.325c7.599,2.387,17.114,6.08,25.055,5.437c0.628-0.051,14.277-6.965,14.079-22.361
				c-0.153-11.868,0.612-17.001-1.685-27.185c-1.339-5.935-5.478-15.064-4.732-23.21c1.105-12.069,7.183-17.504,7.718-18.91
				c-0.108,0.286-3.369-1.149-5.974,0.995c-2.604,2.145-7.122,8.96-7.122,8.96s-3.14-5.59-6.204-7.887
				c-3.062-2.298-9.419-5.667-9.419-5.667s-2.221-10.186-2.374-11.487c-0.153-1.303-1.455-11.641-1.455-11.641
				s-7.581-9.573-13.708-12.79c-6.126-3.217-16.618-5.82-24.429-2.757c-7.812,3.063-14.091,11.488-12.942,22.132
				c1.148,10.646,5.284,18.763,5.284,18.763s-18.073-10.108-29.56,0.229c-11.487,10.339-7.123,23.664-6.509,27.723
				c0.612,4.059,3.216,9.113,3.216,9.113s-16.541-7.812-28.258,2.375c-11.717,10.184-3.369,33.005-3.369,33.005
				s-19.529-5.36-24.966,8.425c-5.438,13.785,4.747,29.484,5.667,30.785c0.918,1.302-6.127-0.076-9.419-8.883
				c-3.293-8.808-6.97-16.159-6.74-16.619s-1.991-11.641,4.825-14.779c6.815-3.14,26.574-2.986,26.574-2.986
				s-10.109-11.717-11.641-19.375s-1.302-12.561,2.221-17.768c3.522-5.207,14.32-7.352,22.668-5.514
				c8.347,1.838,12.253,3.599,12.253,3.599s-8.424-15.929-7.505-26.574c0.919-10.645,4.595-19.758,19.222-17.996
				c14.627,1.761,23.28,6.433,23.28,6.433s-4.747-22.898,0.23-32.011c5.288-9.679,16.924-9.113,29.562-4.748
				c5.526,1.91,14.467,6.78,22.35,12.347c10.138,7.16,18.773,15.07,18.773,15.07l-7.965,5.207l11.564-1.608l6.434,7.582
				c0,0,11.538,0.112,19.818,1.335c5.768,0.853,9.206,2.954,9.206,2.954l-5.743,9.266l34.691,19.912c0,0,1.542,6.497,1.042,12.396
				c-0.456,5.372-2.957,10.195-2.957,10.195s0.841-9.803-1.073-15.01c-1.915-5.209-7.735-11.564-14.626-13.402
				c-6.893-1.838-18.456,0.305-26.343,8.806c-7.888,8.501-9.649,12.254-9.649,12.254s4.594,21.748,1.531,33.925
				c-3.063,12.175-6.28,19.757-9.956,23.662c-3.676,3.906-21.596,14.245-43.804,18.074c-35.932,0.683-45.45-6.892-54.374-11.181
				c0.69,0.331-12.865,3.445-12.865,3.445s-1.589-3.186-2.446-6.835C60.835,295.747,60.334,290.016,60.334,290.016z"/>
			<path fill-rule="evenodd" clip-rule="evenodd" fill="#F7A539" d="M648.138,314.828c0,0,11.561-5.36,17.304-20.906
				c5.744-15.546,3.502-19.632,1.302-22.438c-2.222-2.835-9.803-5.209-17.995-5.133c-8.195,0.077-11.718,0.153-11.718,0.153
				s9.726-9.803,11.641-16.771c1.915-6.968,4.21-12.865,0-19.299c-2.055-3.137-7.509-7.191-15.774-7.307
				c-8.683-0.12-20.144,3.784-20.144,3.784s8.425-15.622,7.276-26.957c-1.149-11.333-3.752-18.838-20.679-17.383
				c-16.924,1.456-21.364,6.433-21.364,6.433s4.824-28.488-2.911-34.921c-7.734-6.433-20.14-5.361-34.309,1.685
				c-14.168,7.046-33.694,23.664-33.694,23.664l8.652,5.437l-12.405-2.297l-7.123,8.577c0,0-8.664-0.246-16.216,0.826
				c-6.021,0.856-11.276,3.079-11.276,3.079l5.131,9.726c0,0-9.167,4.756-18.239,9.765c-8.884,4.906-17.678,10.068-17.678,10.068
				s-0.675,6.553-0.062,12.398c0.575,5.519,2.438,10.347,2.438,10.347s-1.824-19.534,9.801-26.19
				c10.032-5.744,19.528-4.289,28.642,2.681c9.114,6.968,13.479,15.01,13.479,15.01s-4.978,19.299-0.918,36.913
				c4.059,17.612,8.118,20.829,8.118,20.829s16.311,12.789,34.996,16.388c8.303,1.601,21.056,3.592,33.686,1.397
				c15.793-2.745,30.874-10.05,30.874-10.05s11.257,3.829,12.099,3.292c0.843-0.536,1.548-3.086,2.588-6.777
				c1.305-4.627,2.161-10.07,2.161-10.07s-16.087,11.201-32.183,16.872c-14.1,4.966-28.47,4.495-28.47,4.495l5.131-6.434
				c0,0-14.535,2.918-27.002,0.376c-10.205-2.083-18.794-9.719-18.794-9.719s16.549-3.941,28-10.009
				c11.674-6.185,18.256-14.497,18.256-14.497s-16.403,8.817-31.281,14.081c-8.324,2.946-16.579,6.095-23.218,5.104
				c-6.812-1.015-11.618-12.604-13.671-21.797c-0.767-6.754-0.188-17.518,1.329-26.04c1.795-10.082,4.655-17.45,4.655-17.45
				s0.875-7.202-1.032-14.06c-1.804-6.496-6.396-12.667-6.396-12.667s3.748-0.551,7.129,1.934c3.118,2.293,5.89,7.639,5.89,7.639
				s3.421-5.257,7.657-8.759c3.906-3.227,8.655-4.719,8.655-4.719s0.144-5.998,0.94-11.178c0.885-5.743,2.429-10.725,2.429-10.725
				s7.198-10.008,16.38-14.795c7.969-4.154,17.62-3.41,23.012-0.729c22.027,10.95,6.634,40.413,6.634,40.413
				s18.226-11.563,30.862,1.227c12.636,12.789,2.068,35.227,2.068,35.227s14.094-4.743,23.4-1.1
				c7.186,2.814,10.095,13.009,10.33,19.409c0.314,8.546-2.64,16.842-2.64,16.842s14.015-2.298,13.173,0.307
				c-0.843,2.603-6.663,3.369-6.663,3.369s14.015-0.076,15.47,13.785c0.842,8.883,0.613,9.036,0.613,9.036s3.829-0.153,2.756,1.914
				C658.167,300.202,648.138,314.828,648.138,314.828z"/>
		</g>
		<g>
			<path fill-rule="evenodd" clip-rule="evenodd" fill="#FFFFFF" d="M243.835,232.273l10.032-0.153l-9.803-6.126L243.835,232.273z"
				/>
			<path fill-rule="evenodd" clip-rule="evenodd" fill="#FFFFFF" d="M432.149,226.683l0.537,5.207l-8.425-0.152L432.149,226.683z"/>
			<path fill-rule="evenodd" clip-rule="evenodd" fill="#FFFFFF" d="M343.314,134.402l51.539,16.082l14.169-6.126l-12.865,17.001
				l-9.803,51.233l-6.74,33.773l-7.198,36.988l-33.542-13.02l-34.539,12.79l-11.333-57.054l-11.871-65.937l-12.177-16.082
				l14.705,6.509l49.701-15.775l0.153-8.424l-17.308-19.528l-29.101-12.79c0,0-5.285,0.947-11.676,4.817
				c-11.457,6.938-26.461,18.771-26.461,18.771s1.608-14.78,2.986-23.434c1.379-8.654,13.02-39.209,13.02-39.209l17.154,19.987
				l13.325,4.212l20.294-12.942l-6.739-24.735l19.681-12.253l-39.362,2.68c0,0-14.857,10.568-16.39,11.104
				c-1.531,0.536-18.302,3.293-24.429,9.419c-2.268,2.268-6.058,5.914-10.222,12.404c-7.086,11.044-14.82,26.116-14.82,26.116
				l-52.152-12.253l44.954,15.24l-13.632,10.645l3.522,7.812l-46.102,0.077l44.034,4.825l-10.262,16.695l-30.556,10.874
				l31.705-4.519l4.136,26.65l-25.579,11.487l25.962-5.514l1.915,8.501l18.532,5.819l-4.978,13.172l56.087,35.764l35.49,58.24
				h65.121l35.49-59.618l55.129-34.118l-5.168-13.095l18.261-5.858l1.574-9.573l27.11,7.199l-25.577-12.714l3.6-26.267l29.255,3.982
				l-28.413-11.028l-9.344-15.852l40.589-4.518l-42.963-0.383l3.218-7.811l-13.861-10.798l47.479-15.776L453.209,90.98
				c0,0-7.57-16.083-14.348-26.534c-5.6-8.637-13.507-14.098-15.596-15.586c-2.063-1.47-8.847-2.103-17.41-6.383
				c-9.071-4.535-16.746-10.389-16.746-10.389l-40.971-2.987l20.063,12.483l-6.738,24.506l20.523,12.942c0,0,11.487-2.91,12.712-3.6
				c1.227-0.689,18.15-20.447,18.15-20.447s6.957,18.469,11.297,36.195c3.111,12.707,4.02,26.372,4.02,26.372
				s-15.705-12.438-27.044-19.356c-5.873-3.581-11.246-4.001-11.246-4.001l-29.485,12.712l-17.077,20.601"/>
			<path fill-rule="evenodd" clip-rule="evenodd" fill="#FFFFFF" d="M454.802,81.223l12.956-14.106l-27.753-17.139l14.153,14.704
				l-11.027-3.997L454.802,81.223z"/>
			<path fill-rule="evenodd" clip-rule="evenodd" fill="#FFFFFF" d="M210.17,66.428l13.188,14.52l11.44-20.769l-10.706,3.86
				l13.785-14.336L210.17,66.428z"/>
			<path fill-rule="evenodd" clip-rule="evenodd" fill="#FFFFFF" d="M483.855,184.489l9.476,1.995l2.993-5.489l-11.97-3.992
				L483.855,184.489z"/>
			<path fill-rule="evenodd" clip-rule="evenodd" fill="#FFFFFF" d="M193.101,185.986h-10.474l-1.995-4.991l11.47-2.994
				L193.101,185.986z"/>
		</g>
		<g>
			<path fill-rule="evenodd" clip-rule="evenodd" d="M339.848,270.89l33.541,13.095l23.895-122.683l12.177-16.082l-13.784,5.743
				l-51.463-16.542v-6.433l37.907-45.49l-27.8,18.15h-30.556l-26.65-18.609l36.99,45.49l-0.46,7.582l-49.395,15.852l-14.245-6.203
				l11.947,17l23.663,121.995L339.848,270.89z"/>
			<path fill-rule="evenodd" clip-rule="evenodd" d="M294.587,246.768l-21.136-57.667l-31.935-18.15l-19.068-31.015l11.257-9.879
				c0,0-3.906-10.798-3.676-14.474c0.229-3.676,6.892-33.083,6.892-33.083l22.516-28.948l-25.272,26.65l-21.827,53.76l2.758,29.407
				c0,0,17.809,25.435,32.093,43.609c8.806,11.204,16.842,18.652,16.842,18.652l10.569-5.514L294.587,246.768z"/>
			<path fill-rule="evenodd" clip-rule="evenodd" d="M384.649,246.538l20.216-26.42l10.109,4.594c0,0,11.74-11.242,23.253-25.646
				c13.084-16.37,26.143-36.155,26.143-36.155l2.756-30.556l-22.055-53.072l-24.123-26.42l21.365,29.177l7.581,32.854l-4.363,14.015
				l11.027,11.257l-18.839,30.327l-31.706,17.69L384.649,246.538z"/>
			<path fill-rule="evenodd" clip-rule="evenodd" d="M434.043,90.311l9.879,33.543l-13.325,17.69l11.027,9.879l-39.517,32.625
				l23.204-31.706l-10.567-5.514l23.204-23.663L434.043,90.311z"/>
			<path fill-rule="evenodd" clip-rule="evenodd" d="M414.285,68.026l8.271,23.204l2.298,18.61c0,0-17.461-13.096-22.057-15.853
				c-4.596-2.757-15.623-8.501-15.623-9.879s22.057,1.838,22.057,1.838L414.285,68.026z"/>
			<path fill-rule="evenodd" clip-rule="evenodd" d="M357.997,73.08c0,0-9.881,3.634-19.993,3.813
				c-9.265,0.165-18.833-3.125-18.833-3.125l19.987,10.338L357.997,73.08z"/>
			<path fill-rule="evenodd" clip-rule="evenodd" d="M359.376,70.783l-19.759-10.109l-21.366,10.339c0,0,10.511-2.356,20.904-2.415
				C349.321,68.542,359.376,70.783,359.376,70.783z"/>
			<path fill-rule="evenodd" clip-rule="evenodd" d="M312.508,82.27c0,0,13.177,4.022,26.427,3.908
				c13.397-0.115,26.873-4.367,26.873-4.367l-25.73,14.015L312.508,82.27z"/>
			<path fill-rule="evenodd" clip-rule="evenodd" d="M361.214,123.165c0,0,14.243-8.5,20.446-11.258
				c6.204-2.757,17.691-7.811,17.691-7.811l-10.34-4.136L361.214,123.165z"/>
			<path fill-rule="evenodd" clip-rule="evenodd" d="M358.917,127.3l43.881-19.988l5.974,4.595L358.917,127.3z"/>
			<path fill-rule="evenodd" clip-rule="evenodd" d="M360.754,131.895c0,0,12.682-3.042,25.455-7.261
				c12.957-4.281,26.007-9.741,26.007-9.741l7.352,4.595l-30.556,8.501L360.754,131.895z"/>
			<path fill-rule="evenodd" clip-rule="evenodd" d="M364.43,133.962l25.272-0.919l32.623-12.176l4.136,3.216l-12.637,13.555
				l-25.042,1.148L364.43,133.962z"/>
			<path fill-rule="evenodd" clip-rule="evenodd" d="M314.806,134.422l-25.042,4.365l-26.88-1.148l-11.947-12.866l4.366-4.135
				l31.475,12.866L314.806,134.422z"/>
			<path fill-rule="evenodd" clip-rule="evenodd" d="M315.954,131.665l-28.028-2.757l-29.408-9.879l6.204-4.595l26.65,10.798
				L315.954,131.665z"/>
			<path fill-rule="evenodd" clip-rule="evenodd" d="M319.17,128.908l-51.462-16.542l6.663-5.514L319.17,128.908z"/>
			<path fill-rule="evenodd" clip-rule="evenodd" d="M315.495,123.165l-17.002-10.339l-20.906-8.041c0,0,8.731-4.595,10.569-4.595
				S315.495,123.165,315.495,123.165z"/>
			<path fill-rule="evenodd" clip-rule="evenodd" d="M435.191,51.944l-27.568-10.798l-7.812-10.798l-32.854-15.853l-27.8,16.771
				L310.67,15.184l-34.001,15.164l-7.582,10.568l-27.34,9.879l20.218-12.866l0.919-6.433l47.097-19.988l28.948,9.649l27.8-9.419
				l47.097,20.217l0.689,7.352L435.191,51.944z"/>
			<path fill-rule="evenodd" clip-rule="evenodd" d="M378.675,50.565l19.068-7.811l-12.177-8.96L378.675,50.565z"/>
			<path fill-rule="evenodd" clip-rule="evenodd" d="M375.227,34.942l1.61,17.231l34.919-3.906L367.188,64.12L375.227,34.942z"/>
			<path fill-rule="evenodd" clip-rule="evenodd" d="M367.417,66.877l47.327-17.231l-19.299,22.285l-14.245,3.676L367.417,66.877z"
				/>
			<path fill-rule="evenodd" clip-rule="evenodd" d="M359.376,65.499l-10.569-4.135l7.812-14.015l-9.88-16.542l15.394,13.785
				L359.376,65.499z"/>
			<path fill-rule="evenodd" clip-rule="evenodd" d="M330.199,62.052l-10.569,2.298l-3.676-18.839l15.393-14.474l-8.959,15.393
				L330.199,62.052z"/>
			<path fill-rule="evenodd" clip-rule="evenodd" d="M312.048,64.58l-7.122-31.246l-3.216,18.839l-34.461-3.906L312.048,64.58z"/>
			<path fill-rule="evenodd" clip-rule="evenodd" d="M310.21,66.877l-47.327-16.771l20.677,21.596l12.866,4.365L310.21,66.877z"/>
			<path fill-rule="evenodd" clip-rule="evenodd" d="M299.872,51.714l-7.122-17.92l-12.405,8.73L299.872,51.714z"/>
			<path fill-rule="evenodd" clip-rule="evenodd" d="M275.749,183.587l-39.516-32.854l12.176-9.419l-13.555-17.23l10.108-35.151
				l-3.446,33.773l22.286,23.664l-10.798,5.743L275.749,183.587z"/>
			<path fill-rule="evenodd" clip-rule="evenodd" d="M254.038,111.333c0,0,17.23-14.819,21.596-17.001
				c1.928-0.964,5.82-2.496,8.799-4.548c3.766-2.594,6.479-5.676,6.479-5.676l-22.055,2.757l-3.906-18.724
				c0,0-4.714,12.632-7.656,24.276C254.821,102.207,254.038,111.333,254.038,111.333z"/>
		</g>
		<g>
			<path fill-rule="evenodd" clip-rule="evenodd" fill="#FFE710" d="M286.778,59.91c1.034,0.23,14.129,4.25,14.014,5.285
				c-0.114,1.034-2.759,10.001-10.683,6.777C280.323,67.989,285.744,59.681,286.778,59.91z"/>
			<path fill-rule="evenodd" clip-rule="evenodd" fill="#FFE710" d="M378.445,64.735c-0.17-0.715,11.373-4.825,12.867-4.825
				c1.492,0,5.514,9.534-1.609,11.602C382.581,73.58,379.708,70.018,378.445,64.735z"/>
		</g>
		<g>
			<path fill-rule="evenodd" clip-rule="evenodd" d="M385.892,62.838c2.527,0,3.676,4.135,0,4.135
				C383.136,66.973,382.906,62.838,385.892,62.838z"/>
			<path fill-rule="evenodd" clip-rule="evenodd" d="M292.157,63.757c2.528,0,3.676,4.135,0,4.135
				C289.4,67.892,289.17,63.757,292.157,63.757z"/>
		</g>
		<g>
			<path fill-rule="evenodd" clip-rule="evenodd" fill="#F75A29" d="M300.835,251.438c0,0,1.956-19.903,4.444-31.208
				c2.212-10.044,5.831-12.021,5.831-12.021s1.218,15.177,3.794,27.959c2.395,11.884,5.319,21.817,5.319,21.817l3.982-5.437
				l5.514,5.743l4.9-6.127l4.595,5.055l5.131-5.666l4.672,6.738l4.9-5.82l4.213,6.97c0,0,2.077-12.412,4.242-25.791
				c1.916-11.837,3.416-25.059,3.416-25.059s4.885,2.696,7.521,14.684c2.32,10.549,2.435,30.576,2.435,30.576
				s1.843-11.68,1.395-22.895c-0.365-9.116-3.407-17.819-4.068-20.528c-2.896-11.834-1.979-14.52-4.777-16.542
				c-2.088-1.508-4.816-2.974-12.385-2.798c-6.067,0.141-13.478,2.034-13.478,2.034l-3.293,39.746c0,0-5.207-37.448-5.896-39.056
				c-0.689-1.608-4.629-2.506-10.642-2.824c-4.788-0.253-8.678-0.543-11.789,2.225c-2.665,2.371-4.758,6.986-6.355,15.791
				c-1.255,6.924-2.851,14.823-3.395,22.102C300.237,242.131,300.835,251.438,300.835,251.438z"/>
		</g>
		<g>
			<path fill-rule="evenodd" clip-rule="evenodd" fill="#FFFFFF" d="M356.848,270.009l15.394,6.202c0,0,1.993-19.479,1.108-34.344
				c-0.896-15.057-4.669-25.503-4.669-25.503s-1.748,17.978-4.971,32.592C361.078,260.891,356.848,270.009,356.848,270.009z"/>
			<path fill-rule="evenodd" clip-rule="evenodd" fill="#FFFFFF" d="M354.092,269.09c0,0-11.289-2.309-13.785-2.643
				c-1.724-0.229-14.933,3.446-14.933,3.446l-3.906-8.96l3.101-5.054l5.169,5.973l4.939-5.743l4.939,5.743l4.939-6.317l4.939,6.662
				l4.596-5.285l2.756,4.825L354.092,269.09z"/>
			<path fill-rule="evenodd" clip-rule="evenodd" fill="#FFFFFF" d="M322.157,271.043c0,0-4.997-12.111-8.172-26.836
				c-2.631-12.204-3.545-27.498-3.545-27.498s-3.767,6.623-4.827,22.161c-0.944,13.826,0.808,36.768,0.808,36.768L322.157,271.043z"
				/>
			<path fill-rule="evenodd" clip-rule="evenodd" fill="#FFFFFF" d="M311.474,155.252l1.608,17.346l9.535-15.622l3.676,8.845
				l4.366-8.615l4.135,8.271l4.02-8.156l1.494-0.115l2.986,8.156l3.676-7.237h1.953l3.677,7.007l2.298-7.926l1.838-0.115
				l8.845,15.164l1.838-16.542l-6.548-3.906l-5.399,2.987l-3.792-2.412l-4.479,2.412l-3.332-2.297l-4.48,2.068l-4.594-2.757
				l-4.71,2.872l-3.905-2.757l-3.906,2.642l-4.135-3.561L311.474,155.252z"/>
			<path fill-rule="evenodd" clip-rule="evenodd" fill="#FFFFFF" d="M311.13,147.556l0.459,4.136l6.663-3.906l4.366,3.906
				l3.561-2.527l4.25,2.182l4.479-1.838l4.825,2.527l4.135-2.757l3.905,2.297l4.136-2.987l4.021,3.446l4.136-3.561l7.235,4.25
				l0.805-5.514l-14.243-5.169l-14.476,4.825l-14.243-4.136L311.13,147.556z"/>
			<path fill-rule="evenodd" clip-rule="evenodd" fill="#FFFFFF" d="M371.324,148.59l18.723,5.859c0,0-2.105,23.787-5.645,40.704
				c-2.883,13.772-7.335,21.326-7.335,21.326s0.468-21.924-1.186-41.456C374.775,161.934,371.324,148.59,371.324,148.59z"/>
			<path fill-rule="evenodd" clip-rule="evenodd" fill="#FFFFFF" d="M308.717,147.671l-19.988,7.237c0,0,1.18,18.468,4.497,33.744
				c3.229,14.873,8.599,26.563,8.599,26.563s-0.028-24.166,1.935-43.411C305.136,158.326,308.717,147.671,308.717,147.671z"/>
			<path fill-rule="evenodd" clip-rule="evenodd" fill="#FFFFFF" d="M318.826,104.479c0,0,5.192,6.676,5.882,7.227
				c0.688,0.551,6.065,1.274,6.065,1.274l9.075,15.278l8.385-15.255c0,0,5.652-1.31,6.456-1.654s5.262-6.87,5.262-6.87H318.826z"/>
		</g>
		<g>
			<path fill-rule="evenodd" clip-rule="evenodd" d="M160.611,371.099h63.295l-2.988,8.042h-22.974l-12.578,34.748h-17.46
				l12.463-34.691h-22.171L160.611,371.099z"/>
			<path fill-rule="evenodd" clip-rule="evenodd" d="M232.406,372.305h16.6l-14.302,41.642h-16.657L232.406,372.305z"/>
			<path fill-rule="evenodd" clip-rule="evenodd" d="M316.665,372.536h-37.104c0,0-22.17,3.79-28.316,15.737
				c-6.146,11.946-0.804,25.329,12.291,25.329c13.096,0,38.827,0.402,38.827,0.402l8.443-24.812h-17.001l-6.087,16.714
				l-15.393,0.518c0,0-10.281-3.734-4.71-15.278c5.571-11.545,15.335-10.684,15.335-10.684l31.073,0.115L316.665,372.536z"/>
			<path fill-rule="evenodd" clip-rule="evenodd" d="M378.696,380.404l2.758-7.868c0,0-28.47-0.13-33.523,0.48
				c-10.435,1.525-19.448,6.619-22.548,8.828c-6.23,4.438-9.167,12.772-9.287,17.289c-0.214,8.038,5.301,15.037,18.432,14.928
				c23.721-0.197,32.681-0.057,32.681-0.057l2.413-7.64l-29.926-0.172c0,0-2.69-0.087-4.438-3.322
				c-0.714-1.323-1.27-3.17-1.419-5.753h39.287l2.814-7.868l-39.402,0.229c0,0,4.824-8.846,11.89-8.96
				C355.491,380.404,378.696,380.404,378.696,380.404z"/>
			<path fill-rule="evenodd" clip-rule="evenodd" d="M376.4,414.061l14.761-41.411h40.837c0,0,15.449,1.838,14.531,12.349
				c-0.92,10.511-18.323,14.991-18.323,14.991l7.294,14.417h-17.173l-5.571-12.35l-15.22,0.058l-4.595,12.292L376.4,414.061z"/>
			<path fill-rule="evenodd" clip-rule="evenodd" d="M443.369,413.716l2.183-7.523l33.831,0.459c0,0,7.983-2.01,8.212-4.938
				c0.229-2.93-3.79-4.308-5.916-4.423c-2.124-0.115-20.446-0.747-20.446-0.747s-14.071-2.585-8.443-13.21
				c5.63-10.626,23.09-10.396,23.09-10.396l37.39,0.172l-1.779,7.123l-36.07,0.345c0,0-5.399,1.78-5.283,5.169
				c0.114,3.389,4.882,4.423,15.163,4.537c10.281,0.115,20.906,2.355,20.906,7.696c0,5.342-6.031,15.795-24.468,16.025
				C463.299,414.233,443.369,413.716,443.369,413.716z"/>
			<path fill-rule="evenodd" clip-rule="evenodd" d="M173.055,317.416h18.84v-6.969h-46.944v6.893h19.145v34.002h8.577
				L173.055,317.416z"/>
			<path fill-rule="evenodd" clip-rule="evenodd" d="M207.364,310.83l28.335,0.23c0,0,10.492,1.607,10.492,7.658
				c0,6.049-0.153,25.194-0.153,25.194s-0.995,7.581-12.176,7.581c-11.181,0-22.208-0.152-25.271-0.152
				c-3.064,0-12.331-1.991-12.331-7.506c0-5.514,0.153-21.441,0.153-25.424S203,310.83,207.364,310.83z"/>
			<path fill-rule="evenodd" clip-rule="evenodd" d="M278.585,310.83v5.974l-15.316,0.689c0,0-4.059,0.688-4.288,2.833
				c-0.23,2.145,0.229,7.352,0.229,7.352l38.597,0.46l-0.077,6.126l-38.673,0.46v7.046c0,0,0.689,3.522,3.752,3.522
				s34.767,0.307,34.767,0.307v5.743c0,0-33.542,0.306-34.92,0.306s-11.411-1.454-12.023-7.964
				c-0.613-6.51-0.153-22.668-0.153-24.812c0-2.145,5.284-8.195,11.641-8.195C268.477,310.676,278.585,310.83,278.585,310.83z"/>
			<path fill-rule="evenodd" clip-rule="evenodd" d="M302.172,351.341h8.117l0.689-14.015l32.166,14.397h9.649l0.153-4.06
				l-27.111-11.104l17.461-0.689c0,0,10.414-0.076,10.721-6.738c0.307-6.663-0.153-10.646-0.153-10.646s-0.842-7.505-10.798-7.734
				c-10.141-0.234-40.895,0.076-40.895,0.076V351.341z"/>
			<path fill-rule="evenodd" clip-rule="evenodd" d="M359.761,351.418h7.889v-40.742h-7.735L359.761,351.418z"/>
			<path fill-rule="evenodd" clip-rule="evenodd" d="M373.853,351.188h7.812l0.994-29.483l35.382,29.789
				c0,0,1.838,0.996,4.594,0.919c2.758-0.075,3.522-1.531,3.522-1.531l0.077-40.128h-7.658v30.402c0,0-34.692-28.564-36.069-29.637
				c-0.077-1.302-8.424-1.762-8.653,0.229C373.509,314.719,373.853,351.188,373.853,351.188z"/>
			<path fill-rule="evenodd" clip-rule="evenodd" d="M474.48,327.754h8.195l0.076,16.234c0,0-4.596,7.812-11.641,7.812
				s-26.19-0.307-28.029-0.307c-1.838,0-11.792-2.91-11.792-7.658s0.153-23.05,0.153-25.654c0-2.604,5.437-7.505,12.558-7.505
				c7.122,0,15.47,0.077,15.47,0.077v6.509c0,0-13.632,0.153-14.626,0.153c-0.996,0-4.902,1.838-4.902,2.91s0,20.983,0,21.596
				c0,0.613,2.911,2.833,4.749,3.063c1.838,0.229,23.815-0.153,24.966-0.153c1.147,0,4.823-2.221,4.823-3.293
				S474.48,327.754,474.48,327.754z"/>
			<path fill-rule="evenodd" clip-rule="evenodd" d="M485.201,345.138v6.28h37.833c0,0,10.261-0.92,10.567-6.357
				c0.307-5.437,0.229-6.739,0.229-9.189c0-2.451-5.514-7.198-11.947-7.734c-6.432-0.536-22.36-0.383-24.429-0.383
				c-0.845,0-3.752-1.225-3.905-2.145c-0.153-0.919-0.384-4.212-0.23-5.131s1.762-2.91,5.514-2.986
				c3.753-0.077,12.101-0.384,12.101-0.384v-6.126c0,0-12.177,0.077-14.319,0.077c-2.145,0-11.641,2.526-11.641,7.505
				c0,4.978,0,6.969-0.077,8.271c-0.076,1.302,3.6,6.738,9.113,6.738s19.068,0.077,23.204,0.46s7.965,0.766,7.812,3.6
				c-0.153,2.833,0.076,3.982-0.077,5.131s-3.522,1.99-5.132,2.144C518.208,345.061,485.201,345.138,485.201,345.138z"/>
		</g>
		<g>
			<path fill-rule="evenodd" clip-rule="evenodd" fill="#F79C39" d="M157.639,367.574h63.294l-2.987,8.042h-22.975l-12.578,34.748
				h-17.46l12.463-34.691h-22.17L157.639,367.574z"/>
			<path fill-rule="evenodd" clip-rule="evenodd" fill="#F79C39" d="M229.434,368.78h16.599l-14.302,41.642h-16.656L229.434,368.78z
				"/>
			<path fill-rule="evenodd" clip-rule="evenodd" fill="#F79C39" d="M313.693,369.01h-37.104c0,0-22.169,3.79-28.316,15.737
				c-6.146,11.946-0.804,25.329,12.292,25.329c13.095,0,38.826,0.402,38.826,0.402l8.443-24.812h-17.001l-6.088,16.714
				l-15.393,0.518c0,0-10.282-3.734-4.71-15.278c5.572-11.545,15.335-10.684,15.335-10.684l31.073,0.115L313.693,369.01z"/>
			<path fill-rule="evenodd" clip-rule="evenodd" fill="#F79C39" d="M375.725,376.878l2.756-7.868c0,0-28.468-0.129-33.523,0.48
				c-10.435,1.525-19.448,6.619-22.548,8.828c-6.23,4.438-9.167,12.772-9.287,17.289c-0.213,8.038,5.3,15.037,18.432,14.928
				c23.721-0.196,32.683-0.057,32.683-0.057l2.411-7.64l-29.924-0.172c0,0-2.692-0.087-4.439-3.322
				c-0.713-1.322-1.27-3.17-1.419-5.753h39.287l2.814-7.868l-39.401,0.229c0,0,4.825-8.846,11.889-8.96
				C352.52,376.878,375.725,376.878,375.725,376.878z"/>
			<path fill-rule="evenodd" clip-rule="evenodd" fill="#F79C39" d="M373.426,410.536l14.762-41.411h40.837
				c0,0,15.449,1.838,14.531,12.349c-0.92,10.512-18.323,14.991-18.323,14.991l7.296,14.417h-17.175l-5.571-12.35l-15.22,0.059
				l-4.596,12.291L373.426,410.536z"/>
			<path fill-rule="evenodd" clip-rule="evenodd" fill="#F79C39" d="M440.396,410.191l2.185-7.523l33.829,0.459
				c0,0,7.983-2.01,8.214-4.938c0.229-2.93-3.792-4.308-5.918-4.423c-2.124-0.115-20.446-0.747-20.446-0.747
				s-14.071-2.585-8.443-13.21c5.629-10.626,23.09-10.396,23.09-10.396l37.39,0.172l-1.779,7.123l-36.07,0.345
				c0,0-5.399,1.78-5.283,5.169c0.114,3.389,4.882,4.423,15.163,4.537c10.281,0.115,20.906,2.355,20.906,7.697
				c0,5.341-6.031,15.795-24.468,16.024C460.327,410.708,440.396,410.191,440.396,410.191z"/>
			<path fill-rule="evenodd" clip-rule="evenodd" fill="#F79C39" d="M170.083,313.89h18.839v-6.969h-46.945v6.893h19.146v34.002
				h8.578L170.083,313.89z"/>
			<path fill-rule="evenodd" clip-rule="evenodd" fill="#F79C39" d="M204.392,307.304l28.336,0.23c0,0,10.491,1.607,10.491,7.658
				c0,6.049-0.153,25.194-0.153,25.194s-0.995,7.582-12.175,7.582c-11.182,0-22.21-0.153-25.272-0.153
				c-3.063,0-12.33-1.991-12.33-7.505s0.153-21.442,0.153-25.425S200.027,307.304,204.392,307.304z"/>
			<path fill-rule="evenodd" clip-rule="evenodd" fill="#F79C39" d="M275.612,307.304v5.974l-15.316,0.689
				c0,0-4.058,0.688-4.288,2.833c-0.229,2.145,0.23,7.352,0.23,7.352l38.596,0.46l-0.077,6.126l-38.673,0.46v7.046
				c0,0,0.689,3.522,3.752,3.522c3.063,0,34.769,0.307,34.769,0.307v5.743c0,0-33.543,0.306-34.921,0.306
				c-1.379,0-11.411-1.454-12.023-7.963c-0.613-6.511-0.153-22.669-0.153-24.812c0-2.145,5.284-8.195,11.641-8.195
				C265.503,307.151,275.612,307.304,275.612,307.304z"/>
			<path fill-rule="evenodd" clip-rule="evenodd" fill="#F79C39" d="M299.2,347.816h8.118l0.689-14.015l32.164,14.397h9.65
				l0.152-4.059l-27.109-11.104l17.461-0.688c0,0,10.414-0.077,10.721-6.739c0.307-6.663-0.154-10.646-0.154-10.646
				s-0.841-7.505-10.797-7.734c-10.142-0.234-40.895,0.076-40.895,0.076V347.816z"/>
			<path fill-rule="evenodd" clip-rule="evenodd" fill="#F79C39" d="M356.789,347.893h7.888v-40.742h-7.734L356.789,347.893z"/>
			<path fill-rule="evenodd" clip-rule="evenodd" fill="#F79C39" d="M370.88,347.663h7.812l0.994-29.483l35.382,29.79
				c0,0,1.838,0.995,4.594,0.919c2.758-0.076,3.522-1.532,3.522-1.532l0.076-40.128h-7.657v30.402c0,0-34.69-28.564-36.07-29.637
				c-0.076-1.302-8.423-1.762-8.652,0.229C370.537,311.194,370.88,347.663,370.88,347.663z"/>
			<path fill-rule="evenodd" clip-rule="evenodd" fill="#F79C39" d="M471.507,324.229h8.195l0.076,16.235
				c0,0-4.596,7.811-11.641,7.811s-26.19-0.306-28.028-0.306s-11.793-2.91-11.793-7.658s0.152-23.051,0.152-25.655
				c0-2.604,5.438-7.505,12.559-7.505c7.122,0,15.47,0.077,15.47,0.077v6.509c0,0-13.632,0.153-14.626,0.153
				c-0.996,0-4.902,1.838-4.902,2.91s0,20.983,0,21.596c0,0.613,2.911,2.835,4.749,3.063c1.838,0.23,23.815-0.153,24.966-0.153
				c1.147,0,4.823-2.22,4.823-3.292S471.507,324.229,471.507,324.229z"/>
			<path fill-rule="evenodd" clip-rule="evenodd" fill="#F79C39" d="M482.23,341.613v6.28h37.831c0,0,10.263-0.919,10.567-6.356
				c0.307-5.438,0.229-6.739,0.229-9.189c0-2.451-5.514-7.199-11.947-7.735c-6.432-0.536-22.361-0.383-24.429-0.383
				c-0.843,0-3.753-1.225-3.905-2.144c-0.153-0.92-0.384-4.213-0.23-5.132s1.762-2.91,5.516-2.986
				c3.752-0.077,12.099-0.384,12.099-0.384v-6.126c0,0-12.175,0.077-14.319,0.077S482,310.061,482,315.04
				c0,4.978,0,6.969-0.077,8.271c-0.076,1.302,3.6,6.739,9.112,6.739c5.514,0,19.069,0.076,23.205,0.46
				c4.136,0.382,7.965,0.766,7.812,3.599c-0.153,2.834,0.076,3.982-0.077,5.132c-0.153,1.147-3.522,1.991-5.13,2.144
				C515.235,341.537,482.23,341.613,482.23,341.613z"/>
		</g>
		<g>
			<path fill-rule="evenodd" clip-rule="evenodd" d="M199.983,316.936c0-0.919,4.136-3.294,6.587-3.294
				c2.449,0,20.447,0.23,21.366,0.23s5.667,1.531,5.667,3.676s0,19.759,0,20.83c0,1.072-3.217,2.758-5.59,2.758
				s-20.908,0.306-22.362,0.306s-5.59-1.531-5.59-2.91C200.06,337.154,199.983,317.855,199.983,316.936z"/>
			<path fill-rule="evenodd" clip-rule="evenodd" d="M306.432,326.048l-0.077-12.329c0,0,28.564,0.076,30.479,0.076
				c1.914,0,4.825,2.068,4.825,2.987s-0.154,6.586-0.154,7.046c0,0.459-2.527,2.22-3.905,2.297
				C336.222,326.202,306.432,326.048,306.432,326.048z"/>
			<path fill-rule="evenodd" clip-rule="evenodd" d="M396.07,390.799l4.48-14.359l15.623,0.459c0,0,9.419,0.46,6.661,6.433
				c-2.756,5.974-6.892,7.468-11.027,7.468S396.07,390.799,396.07,390.799z"/>
		</g>
	</g>
</g>
</svg>
